<svg width="687" height="1087" viewBox="0 0 687 1087" fill="none" xmlns="http://www.w3.org/2000/svg">
<rect opacity="0.3" width="687" height="1087" fill="#D3D4FA"/>
<g opacity="0.2">
<path d="M227 613.405H139.389L94 737.644H132L100.333 847.388L210.111 696.231H171.056L227 613.405Z" fill="#D0D19C"/>
<path d="M266 770.368H206.056L175 852.676H201L179.333 925.382L254.444 825.24H227.722L266 770.368Z" fill="#D0D19C"/>
<path d="M396 279.98H276.111L214 449.772H266L222.667 599.756L372.889 393.175H319.444L396 279.98Z" fill="#D0D19C"/>
<path d="M162 848.363H98.1032L65 938.436H92.7143L69.619 1018L149.683 908.411H121.198L162 848.363Z" fill="#D0D19C"/>
<path d="M422 505.188H319.238L266 650.651H310.571L273.429 779.143L402.19 602.163H356.381L422 505.188Z" fill="#D0D19C"/>
<path d="M687 7H499.921L403 271.525H484.143L416.524 505.188L650.937 183.35H567.54L687 7Z" fill="#D0D19C"/>
</g>
<g opacity="0.2">
<path d="M227 651H139.389L94 778.434H132L100.333 891L210.111 735.956H171.056L227 651Z" fill="#D0D19C"/>
<path d="M266 812H206.056L175 896.425H201L179.333 971L254.444 868.283H227.722L266 812Z" fill="#D0D19C"/>
<path d="M396 309H276.111L214 483.159H266L222.667 637L372.889 425.106H319.444L396 309Z" fill="#D0D19C"/>
<path d="M162 892H98.1032L65 984.389H92.7143L69.619 1066L149.683 953.593H121.198L162 892Z" fill="#D0D19C"/>
<path d="M422 540H319.238L266 689.204H310.571L273.429 821L402.19 639.469H356.381L422 540Z" fill="#D0D19C"/>
<path d="M687 29H499.921L403 300.327H484.143L416.524 540L650.937 209.885H567.54L687 29Z" fill="#D0D19C"/>
</g>
<path d="M216.219 622H129.03L83.8601 749.434H121.677L90.1629 862L199.411 706.956H160.544L216.219 622Z" fill="#1142F0" fill-opacity="0.32"/>
<path d="M255.031 783H195.375L164.469 867.425H190.344L168.782 942L243.531 839.283H216.937L255.031 783Z" fill="#1142F0" fill-opacity="0.32"/>
<path d="M384.403 280H265.093L203.281 454.159H255.03L211.906 608L361.404 396.106H308.217L384.403 280Z" fill="#1142F0" fill-opacity="0.32"/>
<path d="M151.532 863H87.9435L55 955.389H82.5806L59.5968 1037L139.274 924.593H110.927L151.532 863Z" fill="#1142F0" fill-opacity="0.32"/>
<path d="M410.278 511H308.012L255.031 660.204H299.387L262.423 792L390.564 610.469H344.976L410.278 511Z" fill="#1142F0" fill-opacity="0.32"/>
<path d="M674 0H487.823L391.37 271.327H472.121L404.828 511L638.111 180.885H555.116L674 0Z" fill="#1142F0" fill-opacity="0.32"/>
<path d="M227 629H139.389L94 756.434H132L100.333 869L210.111 713.956H171.056L227 629Z" fill="#F8F9EF"/>
<path d="M266 790H206.056L175 874.425H201L179.333 949L254.444 846.283H227.722L266 790Z" fill="#F8F9EF"/>
<path d="M396 287H276.111L214 461.159H266L222.667 615L372.889 403.106H319.444L396 287Z" fill="#F8F9EF"/>
<path d="M162 870H98.1032L65 962.389H92.7143L69.619 1044L149.683 931.593H121.198L162 870Z" fill="#F8F9EF"/>
<path d="M422 518H319.238L266 667.204H310.571L273.429 799L402.19 617.469H356.381L422 518Z" fill="#F8F9EF"/>
<path d="M687 7H499.921L403 278.327H484.143L416.524 518L650.937 187.885H567.54L687 7Z" fill="#F8F9EF"/>
</svg>
