<svg width="687" height="855" viewBox="0 0 687 855" fill="none" xmlns="http://www.w3.org/2000/svg">
<rect opacity="0.3" width="687" height="855" fill="#D3D4FA"/>
<path opacity="0.3" fill-rule="evenodd" clip-rule="evenodd" d="M346 648H276V717V786V855H346H416V786H346V717V648Z" fill="#BFC9FF"/>
<path opacity="0.3" fill-rule="evenodd" clip-rule="evenodd" d="M207 651H138V719V787H207V855H276V787V719H207V651Z" fill="#4E87F2"/>
<path opacity="0.3" fill-rule="evenodd" clip-rule="evenodd" d="M552 579H483V648V717H552V786H621V717V648H552V579Z" fill="#4E87F2"/>
<path opacity="0.3" fill-rule="evenodd" clip-rule="evenodd" d="M69 717H138V786H207V855H138H69H0V786H69V717Z" fill="#D3EEFF"/>
<path opacity="0.3" fill-rule="evenodd" clip-rule="evenodd" d="M483 717H552V786H621V855H552H483H414V786H483V717Z" fill="#D3EEFF"/>
<path opacity="0.3" d="M207 583V650.667H138V718.333H69.0003V786H-5.60284e-06V583H207Z" fill="#2F5FB8"/>
<path opacity="0.2" d="M497.5 33L499.948 37.5269L505.584 38.1824L501.461 41.6356L502.496 46.5676L497.5 44.175L492.504 46.5676L493.539 41.6356L489.416 38.1824L495.052 37.5269L497.5 33Z" fill="#F0F426"/>
<path opacity="0.2" d="M480.5 108L482.948 112.527L488.584 113.182L484.461 116.636L485.496 121.568L480.5 119.175L475.504 121.568L476.539 116.636L472.416 113.182L478.052 112.527L480.5 108Z" fill="#F0F426"/>
<path opacity="0.2" d="M434.5 187L436.948 191.527L442.584 192.182L438.461 195.636L439.496 200.568L434.5 198.175L429.504 200.568L430.539 195.636L426.416 192.182L432.052 191.527L434.5 187Z" fill="#F0F426"/>
<path opacity="0.2" d="M653.5 86L655.948 90.5269L661.584 91.1824L657.461 94.6356L658.496 99.5676L653.5 97.175L648.504 99.5676L649.539 94.6356L645.416 91.1824L651.052 90.5269L653.5 86Z" fill="#F0F426"/>
<path opacity="0.2" d="M602.5 40L604.948 44.5269L610.584 45.1824L606.461 48.6356L607.496 53.5676L602.5 51.175L597.504 53.5676L598.539 48.6356L594.416 45.1824L600.052 44.5269L602.5 40Z" fill="#F0F426"/>
<path opacity="0.2" d="M593.5 141L596.812 148.243L604.437 149.292L598.859 154.817L600.26 162.708L593.5 158.88L586.74 162.708L588.141 154.817L582.563 149.292L590.188 148.243L593.5 141Z" fill="#F0F426"/>
<rect opacity="0.3" x="621" y="648" width="66" height="206" fill="#6C9EFE"/>
<rect opacity="0.3" x="346" y="648" width="137" height="138" fill="#6C9EFE"/>
<g opacity="0.2">
<path d="M305 134H222L179 254.531H215L185 361L289 214.354H252L305 134Z" fill="#F0F426"/>
<path d="M171 108H88L45 228.531H81L51 335L155 188.354H118L171 108Z" fill="#F0F426"/>
<path d="M287.134 108.077C287.825 106.535 288.186 104.944 288.186 103.318C288.186 89.3352 261.528 78 228.644 78C208.524 78 190.735 82.2435 179.957 88.7408C169.61 85.047 156.264 82.8224 141.697 82.8224C109.129 82.8224 82.6683 93.9409 82.1635 107.738H82.1561C45.6188 107.738 16 120.333 16 135.869C16 151.405 45.6188 164 82.1561 164H276.845C313.381 164 343 151.405 343 135.869C343 121.821 318.784 110.179 287.134 108.077Z" fill="#2F80ED"/>
</g>
<g opacity="0.2">
<path d="M640 342H557L514 462.531H550L520 569L624 422.354H587L640 342Z" fill="#F0F426"/>
<path d="M506 316H423L380 436.531H416L386 543L490 396.354H453L506 316Z" fill="#F0F426"/>
<path d="M622.134 316.077C622.825 314.535 623.186 312.944 623.186 311.318C623.186 297.335 596.528 286 563.644 286C543.524 286 525.735 290.244 514.957 296.741C504.61 293.047 491.264 290.822 476.697 290.822C444.129 290.822 417.668 301.941 417.164 315.738H417.156C380.619 315.738 351 328.333 351 343.869C351 359.405 380.619 372 417.156 372H611.845C648.381 372 678 359.405 678 343.869C678 329.821 653.784 318.179 622.134 316.077Z" fill="#2F80ED"/>
</g>
</svg>
