<svg width="651" height="1085" viewBox="0 0 651 1085" fill="none" xmlns="http://www.w3.org/2000/svg">
<rect opacity="0.3" width="651" height="1085" fill="#D3D4FA"/>
<path fill-rule="evenodd" clip-rule="evenodd" d="M434 724C434 760.191 407.664 790.23 373.11 796C407.664 801.77 434 831.81 434 868C434 904.19 407.664 934.23 373.11 940C407.664 945.77 434 975.81 434 1012C434 1052.32 401.316 1085 361 1085C324.81 1085 294.77 1058.66 289 1024.11C283.23 1058.66 253.19 1085 217 1085C180.81 1085 150.77 1058.66 145 1024.11C139.23 1058.66 109.191 1085 73 1085C32.6832 1085 0 1052.32 0 1012C0 975.81 26.3362 945.77 60.889 940C26.3362 934.23 0 904.19 0 868C0 831.81 26.3362 801.77 60.889 796C26.3362 790.23 0 760.191 0 724C0 683.683 32.6832 651 73 651C109.191 651 139.23 677.336 145 711.889C150.77 677.336 180.81 651 217 651C253.19 651 283.23 677.336 289 711.889C294.77 677.336 324.81 651 361 651C401.316 651 434 683.683 434 724ZM145 736.111C139.888 766.725 115.725 790.888 85.111 796C115.725 801.112 139.888 825.276 145 855.89C150.112 825.276 174.276 801.112 204.89 796C174.276 790.888 150.112 766.725 145 736.111ZM229.11 796C259.724 790.888 283.888 766.725 289 736.111C294.112 766.725 318.276 790.888 348.89 796C318.276 801.112 294.112 825.276 289 855.89C283.888 825.276 259.724 801.112 229.11 796ZM289 999.89C294.112 969.276 318.276 945.112 348.89 940C318.276 934.888 294.112 910.724 289 880.11C283.888 910.724 259.724 934.888 229.11 940C259.724 945.112 283.888 969.276 289 999.89ZM145 880.11C150.112 910.724 174.276 934.888 204.89 940C174.276 945.112 150.112 969.276 145 999.89C139.888 969.276 115.725 945.112 85.111 940C115.725 934.888 139.888 910.724 145 880.11Z" fill="#E5E5FF"/>
<path fill-rule="evenodd" clip-rule="evenodd" d="M651 139.5C651 157.596 637.832 172.615 620.555 175.5C637.832 178.385 651 193.405 651 211.5C651 229.595 637.832 244.615 620.555 247.5C637.832 250.385 651 265.405 651 283.5C651 303.658 634.658 320 614.5 320C596.405 320 581.385 306.832 578.5 289.555C575.615 306.832 560.595 320 542.5 320C524.405 320 509.385 306.832 506.5 289.555C503.615 306.832 488.596 320 470.5 320C450.342 320 434 303.658 434 283.5C434 265.405 447.168 250.385 464.445 247.5C447.168 244.615 434 229.595 434 211.5C434 193.405 447.168 178.385 464.445 175.5C447.168 172.615 434 157.596 434 139.5C434 119.342 450.342 103 470.5 103C488.596 103 503.615 116.168 506.5 133.445C509.385 116.168 524.405 103 542.5 103C560.595 103 575.615 116.168 578.5 133.445C581.385 116.168 596.405 103 614.5 103C634.658 103 651 119.342 651 139.5ZM506.5 145.555C503.944 160.862 491.862 172.944 476.555 175.5C491.862 178.056 503.944 190.138 506.5 205.445C509.056 190.138 521.138 178.056 536.445 175.5C521.138 172.944 509.056 160.862 506.5 145.555ZM548.555 175.5C563.862 172.944 575.944 160.862 578.5 145.555C581.056 160.862 593.138 172.944 608.445 175.5C593.138 178.056 581.056 190.138 578.5 205.445C575.944 190.138 563.862 178.056 548.555 175.5ZM578.5 277.445C581.056 262.138 593.138 250.056 608.445 247.5C593.138 244.944 581.056 232.862 578.5 217.555C575.944 232.862 563.862 244.944 548.555 247.5C563.862 250.056 575.944 262.138 578.5 277.445ZM506.5 217.555C509.056 232.862 521.138 244.944 536.445 247.5C521.138 250.056 509.056 262.138 506.5 277.445C503.944 262.138 491.862 250.056 476.555 247.5C491.862 244.944 503.944 232.862 506.5 217.555Z" fill="#E5E5FF"/>
<path fill-rule="evenodd" clip-rule="evenodd" d="M651 902.5C651 920.596 637.832 935.615 620.555 938.5C637.832 941.385 651 956.405 651 974.5C651 992.595 637.832 1007.62 620.555 1010.5C637.832 1013.38 651 1028.41 651 1046.5C651 1066.66 634.658 1083 614.5 1083C596.405 1083 581.385 1069.83 578.5 1052.55C575.615 1069.83 560.595 1083 542.5 1083C524.405 1083 509.385 1069.83 506.5 1052.55C503.615 1069.83 488.596 1083 470.5 1083C450.342 1083 434 1066.66 434 1046.5C434 1028.41 447.168 1013.38 464.445 1010.5C447.168 1007.62 434 992.595 434 974.5C434 956.405 447.168 941.385 464.445 938.5C447.168 935.615 434 920.596 434 902.5C434 882.342 450.342 866 470.5 866C488.596 866 503.615 879.168 506.5 896.445C509.385 879.168 524.405 866 542.5 866C560.595 866 575.615 879.168 578.5 896.445C581.385 879.168 596.405 866 614.5 866C634.658 866 651 882.342 651 902.5ZM506.5 908.555C503.944 923.862 491.862 935.944 476.555 938.5C491.862 941.056 503.944 953.138 506.5 968.445C509.056 953.138 521.138 941.056 536.445 938.5C521.138 935.944 509.056 923.862 506.5 908.555ZM548.555 938.5C563.862 935.944 575.944 923.862 578.5 908.555C581.056 923.862 593.138 935.944 608.445 938.5C593.138 941.056 581.056 953.138 578.5 968.445C575.944 953.138 563.862 941.056 548.555 938.5ZM578.5 1040.45C581.056 1025.14 593.138 1013.06 608.445 1010.5C593.138 1007.94 581.056 995.862 578.5 980.555C575.944 995.862 563.862 1007.94 548.555 1010.5C563.862 1013.06 575.944 1025.14 578.5 1040.45ZM506.5 980.555C509.056 995.862 521.138 1007.94 536.445 1010.5C521.138 1013.06 509.056 1025.14 506.5 1040.45C503.944 1025.14 491.862 1013.06 476.555 1010.5C491.862 1007.94 503.944 995.862 506.5 980.555Z" fill="#E5E5FF"/>
</svg>
