<svg width="651" height="1091" viewBox="0 0 651 1091" fill="none" xmlns="http://www.w3.org/2000/svg">
<rect opacity="0.3" y="6" width="651" height="1085" fill="#D3D4FA"/>
<path fill-rule="evenodd" clip-rule="evenodd" d="M434 73C434 109.191 407.664 139.23 373.11 145C407.664 150.77 434 180.81 434 217C434 253.19 407.664 283.23 373.11 289C407.664 294.77 434 324.81 434 361C434 401.316 401.316 434 361 434C324.81 434 294.77 407.664 289 373.11C283.23 407.664 253.19 434 217 434C180.81 434 150.77 407.664 145 373.11C139.23 407.664 109.191 434 73 434C32.6832 434 0 401.316 0 361C0 324.81 26.3362 294.77 60.889 289C26.3362 283.23 0 253.19 0 217C0 180.81 26.3362 150.77 60.889 145C26.3362 139.23 0 109.191 0 73C0 32.6832 32.6832 0 73 0C109.191 0 139.23 26.3362 145 60.889C150.77 26.3362 180.81 0 217 0C253.19 0 283.23 26.3362 289 60.889C294.77 26.3362 324.81 0 361 0C401.316 0 434 32.6832 434 73ZM145 85.111C139.888 115.725 115.725 139.888 85.111 145C115.725 150.112 139.888 174.276 145 204.89C150.112 174.276 174.276 150.112 204.89 145C174.276 139.888 150.112 115.725 145 85.111ZM229.11 145C259.724 139.888 283.888 115.725 289 85.111C294.112 115.725 318.276 139.888 348.89 145C318.276 150.112 294.112 174.276 289 204.89C283.888 174.276 259.724 150.112 229.11 145ZM289 348.89C294.112 318.276 318.276 294.112 348.89 289C318.276 283.888 294.112 259.724 289 229.11C283.888 259.724 259.724 283.888 229.11 289C259.724 294.112 283.888 318.276 289 348.89ZM145 229.11C150.112 259.724 174.276 283.888 204.89 289C174.276 294.112 150.112 318.276 145 348.89C139.888 318.276 115.725 294.112 85.111 289C115.725 283.888 139.888 259.724 145 229.11Z" fill="#E5E5FF"/>
<path fill-rule="evenodd" clip-rule="evenodd" d="M651 824.5C651 842.596 637.832 857.615 620.555 860.5C637.832 863.385 651 878.405 651 896.5C651 914.595 637.832 929.615 620.555 932.5C637.832 935.385 651 950.405 651 968.5C651 988.658 634.658 1005 614.5 1005C596.405 1005 581.385 991.832 578.5 974.555C575.615 991.832 560.595 1005 542.5 1005C524.405 1005 509.385 991.832 506.5 974.555C503.615 991.832 488.596 1005 470.5 1005C450.342 1005 434 988.658 434 968.5C434 950.405 447.168 935.385 464.445 932.5C447.168 929.615 434 914.595 434 896.5C434 878.405 447.168 863.385 464.445 860.5C447.168 857.615 434 842.596 434 824.5C434 804.342 450.342 788 470.5 788C488.596 788 503.615 801.168 506.5 818.445C509.385 801.168 524.405 788 542.5 788C560.595 788 575.615 801.168 578.5 818.445C581.385 801.168 596.405 788 614.5 788C634.658 788 651 804.342 651 824.5ZM506.5 830.555C503.944 845.862 491.862 857.944 476.555 860.5C491.862 863.056 503.944 875.138 506.5 890.445C509.056 875.138 521.138 863.056 536.445 860.5C521.138 857.944 509.056 845.862 506.5 830.555ZM548.555 860.5C563.862 857.944 575.944 845.862 578.5 830.555C581.056 845.862 593.138 857.944 608.445 860.5C593.138 863.056 581.056 875.138 578.5 890.445C575.944 875.138 563.862 863.056 548.555 860.5ZM578.5 962.445C581.056 947.138 593.138 935.056 608.445 932.5C593.138 929.944 581.056 917.862 578.5 902.555C575.944 917.862 563.862 929.944 548.555 932.5C563.862 935.056 575.944 947.138 578.5 962.445ZM506.5 902.555C509.056 917.862 521.138 929.944 536.445 932.5C521.138 935.056 509.056 947.138 506.5 962.445C503.944 947.138 491.862 935.056 476.555 932.5C491.862 929.944 503.944 917.862 506.5 902.555Z" fill="#E5E5FF"/>
<path fill-rule="evenodd" clip-rule="evenodd" d="M434 607.5C434 625.596 420.832 640.615 403.555 643.5C420.832 646.385 434 661.405 434 679.5C434 697.595 420.832 712.615 403.555 715.5C420.832 718.385 434 733.405 434 751.5C434 771.658 417.658 788 397.5 788C379.405 788 364.385 774.832 361.5 757.555C358.615 774.832 343.595 788 325.5 788C307.405 788 292.385 774.832 289.5 757.555C286.615 774.832 271.596 788 253.5 788C233.342 788 217 771.658 217 751.5C217 733.405 230.168 718.385 247.445 715.5C230.168 712.615 217 697.595 217 679.5C217 661.405 230.168 646.385 247.445 643.5C230.168 640.615 217 625.596 217 607.5C217 587.342 233.342 571 253.5 571C271.596 571 286.615 584.168 289.5 601.445C292.385 584.168 307.405 571 325.5 571C343.595 571 358.615 584.168 361.5 601.445C364.385 584.168 379.405 571 397.5 571C417.658 571 434 587.342 434 607.5ZM289.5 613.555C286.944 628.862 274.862 640.944 259.555 643.5C274.862 646.056 286.944 658.138 289.5 673.445C292.056 658.138 304.138 646.056 319.445 643.5C304.138 640.944 292.056 628.862 289.5 613.555ZM331.555 643.5C346.862 640.944 358.944 628.862 361.5 613.555C364.056 628.862 376.138 640.944 391.445 643.5C376.138 646.056 364.056 658.138 361.5 673.445C358.944 658.138 346.862 646.056 331.555 643.5ZM361.5 745.445C364.056 730.138 376.138 718.056 391.445 715.5C376.138 712.944 364.056 700.862 361.5 685.555C358.944 700.862 346.862 712.944 331.555 715.5C346.862 718.056 358.944 730.138 361.5 745.445ZM289.5 685.555C292.056 700.862 304.138 712.944 319.445 715.5C304.138 718.056 292.056 730.138 289.5 745.445C286.944 730.138 274.862 718.056 259.555 715.5C274.862 712.944 286.944 700.862 289.5 685.555Z" fill="#E5E5FF"/>
</svg>
