<svg width="651" height="1085" viewBox="0 0 651 1085" fill="none" xmlns="http://www.w3.org/2000/svg">
<rect opacity="0.3" width="651" height="1085" fill="#D3D4FA"/>
<path fill-rule="evenodd" clip-rule="evenodd" d="M651 73C651 109.191 624.664 139.23 590.11 145C624.664 150.77 651 180.81 651 217C651 253.19 624.664 283.23 590.11 289C624.664 294.77 651 324.81 651 361C651 401.316 618.316 434 578 434C541.81 434 511.77 407.664 506 373.11C500.23 407.664 470.19 434 434 434C397.81 434 367.77 407.664 362 373.11C356.23 407.664 326.191 434 290 434C249.683 434 217 401.316 217 361C217 324.81 243.336 294.77 277.889 289C243.336 283.23 217 253.19 217 217C217 180.81 243.336 150.77 277.889 145C243.336 139.23 217 109.191 217 73C217 32.6832 249.683 0 290 0C326.191 0 356.23 26.3362 362 60.889C367.77 26.3362 397.81 0 434 0C470.19 0 500.23 26.3362 506 60.889C511.77 26.3362 541.81 0 578 0C618.316 0 651 32.6832 651 73ZM362 85.111C356.888 115.725 332.725 139.888 302.111 145C332.725 150.112 356.888 174.276 362 204.89C367.112 174.276 391.276 150.112 421.89 145C391.276 139.888 367.112 115.725 362 85.111ZM446.11 145C476.724 139.888 500.888 115.725 506 85.111C511.112 115.725 535.276 139.888 565.89 145C535.276 150.112 511.112 174.276 506 204.89C500.888 174.276 476.724 150.112 446.11 145ZM506 348.89C511.112 318.276 535.276 294.112 565.89 289C535.276 283.888 511.112 259.724 506 229.11C500.888 259.724 476.724 283.888 446.11 289C476.724 294.112 500.888 318.276 506 348.89ZM362 229.11C367.112 259.724 391.276 283.888 421.89 289C391.276 294.112 367.112 318.276 362 348.89C356.888 318.276 332.725 294.112 302.111 289C332.725 283.888 356.888 259.724 362 229.11Z" fill="#E5E5FF"/>
<path fill-rule="evenodd" clip-rule="evenodd" d="M217 461.5C217 479.596 203.832 494.615 186.555 497.5C203.832 500.385 217 515.405 217 533.5C217 551.595 203.832 566.615 186.555 569.5C203.832 572.385 217 587.405 217 605.5C217 625.658 200.658 642 180.5 642C162.405 642 147.385 628.832 144.5 611.555C141.615 628.832 126.595 642 108.5 642C90.405 642 75.385 628.832 72.5 611.555C69.615 628.832 54.5955 642 36.5 642C16.3416 642 0 625.658 0 605.5C0 587.405 13.1681 572.385 30.4445 569.5C13.1681 566.615 0 551.595 0 533.5C0 515.405 13.1681 500.385 30.4445 497.5C13.1681 494.615 0 479.596 0 461.5C0 441.342 16.3416 425 36.5 425C54.5955 425 69.615 438.168 72.5 455.445C75.385 438.168 90.405 425 108.5 425C126.595 425 141.615 438.168 144.5 455.445C147.385 438.168 162.405 425 180.5 425C200.658 425 217 441.342 217 461.5ZM72.5 467.555C69.944 482.862 57.8624 494.944 42.5555 497.5C57.8624 500.056 69.944 512.138 72.5 527.445C75.056 512.138 87.138 500.056 102.445 497.5C87.138 494.944 75.056 482.862 72.5 467.555ZM114.555 497.5C129.862 494.944 141.944 482.862 144.5 467.555C147.056 482.862 159.138 494.944 174.445 497.5C159.138 500.056 147.056 512.138 144.5 527.445C141.944 512.138 129.862 500.056 114.555 497.5ZM144.5 599.445C147.056 584.138 159.138 572.056 174.445 569.5C159.138 566.944 147.056 554.862 144.5 539.555C141.944 554.862 129.862 566.944 114.555 569.5C129.862 572.056 141.944 584.138 144.5 599.445ZM72.5 539.555C75.056 554.862 87.138 566.944 102.445 569.5C87.138 572.056 75.056 584.138 72.5 599.445C69.944 584.138 57.8624 572.056 42.5555 569.5C57.8624 566.944 69.944 554.862 72.5 539.555Z" fill="#E5E5FF"/>
<path fill-rule="evenodd" clip-rule="evenodd" d="M651 902.5C651 920.596 637.832 935.615 620.555 938.5C637.832 941.385 651 956.405 651 974.5C651 992.595 637.832 1007.62 620.555 1010.5C637.832 1013.38 651 1028.41 651 1046.5C651 1066.66 634.658 1083 614.5 1083C596.405 1083 581.385 1069.83 578.5 1052.55C575.615 1069.83 560.595 1083 542.5 1083C524.405 1083 509.385 1069.83 506.5 1052.55C503.615 1069.83 488.596 1083 470.5 1083C450.342 1083 434 1066.66 434 1046.5C434 1028.41 447.168 1013.38 464.445 1010.5C447.168 1007.62 434 992.595 434 974.5C434 956.405 447.168 941.385 464.445 938.5C447.168 935.615 434 920.596 434 902.5C434 882.342 450.342 866 470.5 866C488.596 866 503.615 879.168 506.5 896.445C509.385 879.168 524.405 866 542.5 866C560.595 866 575.615 879.168 578.5 896.445C581.385 879.168 596.405 866 614.5 866C634.658 866 651 882.342 651 902.5ZM506.5 908.555C503.944 923.862 491.862 935.944 476.555 938.5C491.862 941.056 503.944 953.138 506.5 968.445C509.056 953.138 521.138 941.056 536.445 938.5C521.138 935.944 509.056 923.862 506.5 908.555ZM548.555 938.5C563.862 935.944 575.944 923.862 578.5 908.555C581.056 923.862 593.138 935.944 608.445 938.5C593.138 941.056 581.056 953.138 578.5 968.445C575.944 953.138 563.862 941.056 548.555 938.5ZM578.5 1040.45C581.056 1025.14 593.138 1013.06 608.445 1010.5C593.138 1007.94 581.056 995.862 578.5 980.555C575.944 995.862 563.862 1007.94 548.555 1010.5C563.862 1013.06 575.944 1025.14 578.5 1040.45ZM506.5 980.555C509.056 995.862 521.138 1007.94 536.445 1010.5C521.138 1013.06 509.056 1025.14 506.5 1040.45C503.944 1025.14 491.862 1013.06 476.555 1010.5C491.862 1007.94 503.944 995.862 506.5 980.555Z" fill="#E5E5FF"/>
</svg>
