<svg width="176" height="176" viewBox="0 0 176 176" fill="none" xmlns="http://www.w3.org/2000/svg">
<rect x="2.4851" y="2.51481" width="167.476" height="167.506" rx="83.7379" transform="matrix(0.999982 0.00594189 -0.00594385 0.999982 2.01743 0.962451)" stroke="#BABAFF" stroke-width="5"/>
<path d="M27.8909 84.2925L23.6924 55.3959L27.2946 54.8724L46.3588 76.4749L46.4379 76.4634L42.9699 52.594L46.1366 52.1337L50.3351 81.0303L46.7725 81.5481L27.6688 59.9514L27.5896 59.9629L31.0576 83.8322L27.8909 84.2925ZM132.905 69.029L129.126 43.0221L118.755 44.5295L118.335 41.6399L142.363 38.1475L142.783 41.0372L132.411 42.5446L136.19 68.5515L132.905 69.029ZM37.2934 141.535L33.0949 112.639L40.9722 111.494C45.2472 110.872 48.4969 111.168 50.721 112.381C52.9715 113.59 54.3288 115.791 54.7927 118.984C55.2528 122.151 54.6045 124.643 52.8476 126.461C51.1172 128.276 48.1936 129.482 44.0769 130.081L37.3872 131.053L36.9616 128.124L43.3346 127.197C46.5541 126.729 48.8035 125.89 50.0829 124.68C51.3886 123.467 51.8766 121.725 51.5468 119.456C51.2209 117.212 50.2594 115.695 48.6623 114.903C47.0877 114.081 44.6907 113.904 41.4712 114.372L36.6815 115.068L40.4601 141.075L37.2934 141.535ZM140.579 126.927C136.911 127.46 133.989 127.009 131.813 125.574C129.66 124.108 128.342 121.713 127.859 118.388L125.081 99.2688L128.248 98.8086L130.951 117.413C131.338 120.079 132.283 121.949 133.787 123.024C135.29 124.099 137.414 124.437 140.159 124.038C142.903 123.639 144.83 122.712 145.939 121.257C147.075 119.799 147.449 117.737 147.061 115.072L144.358 96.4669L147.525 96.0066L150.303 115.126C150.786 118.451 150.204 121.122 148.557 123.14C146.906 125.132 144.247 126.394 140.579 126.927Z" fill="black" fill-opacity="0.1"/>
<path d="M59.0372 127.702C59.3896 127.357 60.1356 127.448 60.5795 127.459C61.3515 127.477 62.0858 127.647 62.839 127.804C63.669 127.976 64.4744 128.215 65.2341 128.597C65.7824 128.873 66.1974 129.174 66.6755 129.558C67.6768 130.36 68.2559 131.687 68.856 132.795C69.6271 134.218 70.6878 135.413 71.9736 136.401C73.2398 137.374 75.0726 137.868 76.6461 137.961C77.7185 138.025 78.8052 138.007 79.8776 138.003C80.75 138 81.6176 138.059 82.4901 138.069C83.1651 138.076 83.8395 138.047 84.5159 138.055C84.7497 138.058 84.9795 138.098 85.2106 138.1C85.2653 138.101 85.4913 138.097 85.3379 138.178C84.8061 138.46 84.2509 138.647 83.6609 138.807C82.9685 138.993 82.2257 139.168 81.5141 139.258C81.1144 139.308 80.7129 139.448 80.3171 139.531C79.8141 139.637 79.2913 139.637 78.7897 139.747C77.9584 139.93 77.0466 140.017 76.1962 140.007C75.2108 139.996 74.189 139.93 73.2196 139.757C70.6327 139.295 67.7857 138.582 66.67 135.913C66.3812 135.222 66.385 134.464 66.1529 133.761C65.9816 133.242 65.6883 132.8 65.4828 132.304C65.1277 131.448 64.468 130.829 63.756 130.271C63.4091 129.999 63.0294 129.788 62.6489 129.569C62.2437 129.336 61.7907 129.065 61.3531 128.902C60.579 128.613 59.9069 128.089 59.11 127.851" stroke="#2E3192" stroke-linecap="round"/>
<path d="M72.8736 132.481C72.8773 132.167 74.0126 131.885 74.2638 131.79C75.074 131.482 75.9426 131.279 76.784 131.076C77.6723 130.861 78.5768 130.714 79.4661 130.493C79.867 130.393 80.2784 130.309 80.6837 130.227C81.1561 130.132 81.6461 130.168 82.1212 130.093C83.5498 129.868 84.8991 130.018 86.307 130.27C86.5958 130.321 86.9258 130.409 87.2178 130.413C87.3382 130.414 87.1955 130.294 87.1616 130.263C86.9843 130.104 86.6569 129.992 86.4418 129.884C86.0348 129.68 85.6156 129.541 85.1917 129.384C84.4485 129.107 83.6446 128.86 82.8654 128.723C81.3359 128.454 79.6939 128.224 78.1652 128.66C76.7492 129.065 75.3596 129.673 74.2766 130.689C73.7984 131.138 73.1008 131.609 72.8762 132.258" stroke="#FF0000" stroke-linecap="round"/>
<path d="M70.5702 133.435L70.6248 133.329" stroke="black" stroke-linecap="round"/>
<path d="M70.761 133.091C70.7989 133.045 70.8191 132.985 70.8429 132.931" stroke="black" stroke-linecap="round"/>
<path d="M71.2221 132.429C71.423 132.232 71.5815 131.985 71.7781 131.781C71.9333 131.621 72.0426 131.445 72.1813 131.272C72.3563 131.053 72.5675 130.861 72.7488 130.647C73.3907 129.888 74.2346 129.191 75.103 128.702C77.1278 127.563 79.3128 126.673 81.4789 125.844C82.7724 125.349 84.0987 124.944 85.4148 124.523C86.4246 124.199 87.4367 123.789 88.4961 123.663C88.8777 123.617 89.258 123.576 89.6404 123.537C90.0149 123.499 90.4334 123.475 90.7926 123.369C90.9338 123.328 91.0779 123.356 91.2228 123.342C91.3772 123.326 91.5263 123.273 91.6804 123.252C91.994 123.209 92.3038 123.173 92.621 123.177" stroke="#FBB03B" stroke-linecap="round"/>
<path d="M93.0749 123.156C93.2395 123.157 93.4127 123.145 93.5762 123.129C93.7291 123.114 93.4917 123.016 93.4561 123.006C93.2939 122.957 93.1197 122.975 92.9496 122.967C92.5695 122.95 92.1999 122.835 91.8222 122.788C91.2006 122.712 90.5872 122.578 89.9636 122.512C89.1607 122.426 88.3642 122.359 87.5587 122.312C86.6222 122.257 85.6486 122.415 84.7138 122.477C84.009 122.524 83.3365 122.637 82.647 122.774C82.0089 122.9 81.3714 123.026 80.7547 123.238C79.3474 123.722 77.9585 124.213 76.6933 125.019C76.35 125.237 76.0046 125.448 75.6761 125.689C75.3424 125.933 75.0614 126.2 74.7583 126.479C74.0877 127.095 73.4518 127.643 73.0248 128.454C72.8548 128.777 72.6079 129.075 72.4726 129.414C72.3678 129.678 72.2423 129.932 72.1419 130.198C71.9438 130.721 71.713 131.241 71.4835 131.751C71.3218 132.111 71.11 132.493 70.9918 132.866C70.9595 132.968 70.8898 133.253 70.7851 133.304" stroke="#FBB03B" stroke-linecap="round"/>
<path d="M69.2076 131.285C69.2309 131.077 69.3191 130.875 69.3216 130.66C69.3243 130.426 69.3552 130.196 69.383 129.964C69.4479 129.423 69.5776 128.872 69.7072 128.343C69.864 127.704 70.1048 127.096 70.2908 126.466C70.5155 125.704 70.8174 124.927 71.184 124.224C71.4301 123.752 71.7034 123.315 71.9721 122.857C72.2373 122.405 72.7111 122.055 73.0605 121.669C73.3036 121.401 73.5871 121.149 73.8477 120.894C73.9925 120.753 74.1736 120.585 74.2831 120.416C74.467 120.131 74.7682 119.924 75.0046 119.684C75.0997 119.588 75.1733 119.494 75.282 119.412C75.3665 119.348 75.3005 119.346 75.2248 119.361C75.0546 119.395 74.8819 119.401 74.7097 119.42C74.1994 119.478 73.6766 119.62 73.2296 119.877C72.1446 120.503 71.1854 121.333 70.2943 122.203C69.8186 122.668 69.428 123.255 69.0544 123.802C68.8041 124.168 68.4867 124.565 68.3586 124.998C68.2877 125.237 68.2866 125.488 68.2523 125.732C68.178 126.26 68.1899 126.849 68.2139 127.377C68.2435 128.027 68.4287 128.598 68.5912 129.223" stroke="#006837" stroke-linecap="round"/>
<path d="M68.7983 129.759C68.8467 130.246 69.156 130.689 69.2891 131.152" stroke="#006837" stroke-linecap="round"/>
<path d="M67.8102 129.854C67.7267 129.758 67.6986 129.638 67.654 129.52C67.5623 129.278 67.4498 129.047 67.354 128.807C67.0085 127.942 66.7842 127.062 66.7582 126.119C66.7377 125.379 66.7666 124.539 66.9672 123.816C67.03 123.59 67.0823 123.361 67.1677 123.143C67.1898 123.086 67.2143 123.022 67.2321 122.965C67.2344 122.958 67.0526 123.125 67.0284 123.147C66.5378 123.595 66.1515 124.055 66.0155 124.723C65.9428 125.08 65.916 125.425 65.9364 125.788C65.9611 126.228 66.0022 126.72 66.1371 127.141C66.2733 127.566 66.4 128.006 66.6325 128.391C66.7956 128.66 66.9646 128.927 67.1241 129.197C67.2288 129.374 67.3747 129.525 67.4919 129.696C67.5287 129.75 67.5962 129.824 67.6502 129.852" stroke="#2E3192" stroke-linecap="round"/>
<path d="M55.7934 105.964C55.3261 109.768 54.143 113.469 53.4694 117.241C52.4282 123.071 51.1078 128.902 49.5259 134.603C49.1265 136.042 48.9724 137.525 48.6304 138.974C48.3684 140.084 48.0685 141.155 47.9204 142.291C47.826 143.015 47.6104 143.754 47.5538 144.475C47.5058 145.089 47.2649 145.659 47.2352 146.27C47.1309 148.413 46.3594 150.482 46.4788 152.652" stroke="#BABAFF" stroke-width="2" stroke-linecap="round"/>
<path d="M55.7957 105.769C55.9309 105.756 56.085 105.664 56.1878 105.579C56.6094 105.229 57.3472 105.307 57.8541 105.252C59.9238 105.026 62.0003 104.964 64.0847 104.988C69.9304 105.056 75.7643 104.422 81.6011 104.227C86.4758 104.065 91.3509 103.957 96.2178 103.682C99.1212 103.518 102.041 103.284 104.951 103.318" stroke="#BABAFF" stroke-width="2" stroke-linecap="round"/>
<path d="M103.973 103.599C103.592 103.642 103.265 106.55 103.176 106.958C102.605 109.594 102.62 112.382 102.454 115.064C102.364 116.512 102.366 117.956 102.322 119.406C102.28 120.802 102.013 122.177 101.987 123.572C101.922 127.029 101.757 130.481 101.774 133.942C101.792 137.445 102.102 140.945 102.14 144.448C102.156 145.906 102.46 147.506 102.272 148.961C102.101 150.28 102.247 151.58 102.231 152.909" stroke="#BABAFF" stroke-width="2" stroke-linecap="round"/>
<path d="M104.562 103.313C106.93 103.341 109.238 103.493 111.577 104.028C114.05 104.594 116.513 105.266 118.997 105.772C121.372 106.255 123.706 107.12 126.087 107.538C126.605 107.63 127.083 107.864 127.61 107.87C127.871 107.873 128.073 107.863 128.291 107.976" stroke="#BABAFF" stroke-width="2" stroke-linecap="round"/>
<path d="M135.462 153.587C135.523 148.353 133.739 143.312 132.667 138.254C132.166 135.891 131.668 133.486 131.532 131.065C131.403 128.756 130.515 126.499 130.442 124.206C130.274 118.936 128.516 113.836 128.577 108.564" stroke="#BABAFF" stroke-width="2" stroke-linecap="round"/>
<path d="M101.827 154.172C102.154 154.14 102.533 153.886 102.871 153.816C104.452 153.488 106.027 153.491 107.63 153.411C111.64 153.21 115.664 153.046 119.677 153.112C122.918 153.165 126.187 153.302 129.428 153.22C131.572 153.165 133.71 153.372 135.854 153.397" stroke="#BABAFF" stroke-width="2" stroke-linecap="round"/>
<path d="M45.111 152.929C49.7395 152.982 54.3659 152.841 59.0015 152.895C65.517 152.97 72.0292 152.797 78.5448 152.927C81.205 152.98 83.8425 153.364 86.4996 153.409C88.8841 153.449 91.2658 153.367 93.6479 153.395C96.061 153.423 98.4499 153.645 100.858 153.673" stroke="#BABAFF" stroke-width="2" stroke-linecap="round"/>
<path d="M50.2547 146.456C52.4429 146.482 54.6483 146.128 56.8433 146.143C60.7725 146.17 64.6944 146.429 68.6231 146.475C72.4992 146.52 76.3746 146.662 80.2523 146.707C82.1159 146.729 83.9698 146.555 85.8316 146.577" stroke="#BABAFF" stroke-width="2" stroke-linecap="round"/>
<path d="M74.951 143.428C75.0107 144.261 74.9314 145.12 74.9216 145.963" stroke="#BABAFF" stroke-width="2" stroke-linecap="round"/>
<path d="M56.4288 143.603C55.9955 144.08 56.068 145.082 56.1127 145.647" stroke="#BABAFF" stroke-width="2" stroke-linecap="round"/>
<path d="M64.5617 114.743C65.3516 114.752 66.1055 114.634 66.8875 114.515C69.4819 114.122 72.071 113.886 74.689 113.739C80.6191 113.407 86.5119 112.95 92.4594 113.019" stroke="#BABAFF" stroke-width="2" stroke-linecap="round"/>
<path d="M81.7242 114.162C81.201 114.801 81.2119 116.31 81.2029 117.081" stroke="#BABAFF" stroke-width="2" stroke-linecap="round"/>
<path d="M78.3583 118.608C79.8093 117.945 81.8241 118.146 83.3854 117.989C86.0835 117.718 88.8188 117.852 91.5258 117.883" stroke="#BABAFF" stroke-width="2" stroke-linecap="round"/>
<path d="M87.0369 118.318L87.0357 118.416" stroke="#BABAFF" stroke-width="2" stroke-linecap="round"/>
<path d="M86.9281 119.292C86.9253 119.54 86.8731 119.736 86.8228 119.973" stroke="#BABAFF" stroke-width="2" stroke-linecap="round"/>
<path d="M79.0836 84.8475C78.9821 85.6737 77.6202 86.2962 76.9751 86.6692C75.5715 87.4809 73.9991 87.998 72.3693 87.9791C72.2265 87.9774 71.8538 87.9775 71.7466 87.8678C71.6921 87.812 73.1346 87.7205 73.234 87.7216" stroke="#BABAFF" stroke-width="2" stroke-linecap="round"/>
<path d="M71.6841 88.7734C73.5697 88.7953 75.3358 89.8734 76.3178 91.4573C76.5794 91.8791 76.5992 91.8309 77.0404 91.9263C78.1317 92.1623 79.1035 92.6477 79.8862 93.4489C80.7034 94.2854 81.1881 95.2999 81.5941 96.3811C82.0399 97.5682 82.5386 98.8417 82.5795 100.126C82.6183 101.347 81.6843 102.566 80.8042 103.318C80.3591 103.699 79.8086 103.968 79.3917 104.376" stroke="#BABAFF" stroke-width="2" stroke-linecap="round"/>
<path d="M86.4624 94.2277C86.512 94.7264 86.9414 95.359 87.1311 95.8142C87.4336 96.5399 87.8125 97.2246 88.1203 97.9468C88.6033 99.0801 89.2041 100.28 90.0436 101.194C90.4065 101.588 90.8347 101.854 91.2505 102.173" stroke="#BABAFF" stroke-width="2" stroke-linecap="round"/>
<path d="M87.5808 90.028C87.9096 90.3272 88.3929 90.5854 88.7598 90.844C89.6407 91.4649 90.3606 92.1127 91.4846 92.2464C92.559 92.3742 93.5203 92.3916 94.5755 92.1783C95.9575 91.8988 97.2969 91.9348 98.6997 92.0441C100.191 92.1604 101.777 92.4331 103.222 92.8173C103.794 92.9694 104.833 93.1264 105.154 93.7127C105.438 94.2322 104.819 95.0708 104.646 95.5901C104.497 96.0362 104.354 96.4042 104.348 96.8757C104.342 97.4036 104.136 97.8587 104.13 98.3776C104.124 98.9032 103.726 99.4163 103.508 99.8749C103.372 100.16 103.159 100.45 102.934 100.671C102.706 100.894 102.549 101.264 102.29 101.432" stroke="#BABAFF" stroke-width="2" stroke-linecap="round"/>
<path d="M102.593 92.6093C102.835 92.5853 103.063 92.2741 103.226 92.1263C103.557 91.8274 103.941 91.5738 104.313 91.3291C105.046 90.8457 105.889 90.536 106.67 90.1455C107.345 89.8081 106.181 89.2137 105.91 89.0743C105.235 88.7267 104.538 88.3818 103.849 88.0771" stroke="#BABAFF" stroke-width="2" stroke-linecap="round"/>
<path d="M81.204 86.4769C81.2527 86.9075 82.3432 87.4931 82.6423 87.6749C84.0057 88.5035 85.57 89.0581 87.177 88.6525C87.9421 88.4594 88.6581 88.2326 89.445 88.1254C89.9082 88.0622 90.6658 87.977 91.01 88.3293" stroke="#BABAFF" stroke-width="2" stroke-linecap="round"/>
<path d="M104.256 87.5469C103.535 87.6106 102.853 88.3024 102.212 88.5893C102.002 88.6835 101.895 88.8113 101.67 88.6165C101.153 88.1687 100.619 87.7764 100.027 87.4235C97.7627 86.073 95.2453 84.4395 92.5108 84.4685C91.8789 84.4752 91.2841 84.781 90.682 84.9153C90.0587 85.0544 89.5007 85.2352 88.904 85.4593C88.2003 85.7237 87.3075 85.7638 86.5741 85.8855C85.9617 85.9871 85.3093 85.9228 84.687 85.9156" stroke="#BABAFF" stroke-width="2" stroke-linecap="round"/>
<path d="M79.85 67.4179C79.7423 68.2938 79.4137 69.1737 79.213 70.0369C78.9797 71.0403 78.7075 72.0294 78.4818 73.0344C78.0819 74.8144 77.5873 76.5477 77.5659 78.3915C77.5586 79.0176 77.5065 79.6376 77.4992 80.2657C77.4956 80.5733 77.4039 80.9751 77.7956 80.9657C78.0126 80.9604 78.1939 80.7905 78.4167 80.7931C78.7266 80.7967 78.9953 80.913 79.2986 80.9382C79.4422 80.9501 80.055 81.1607 80.1358 81.2849C80.3102 81.5533 80.6508 81.8376 80.8831 82.0701C81.7076 82.8954 82.5546 83.7046 83.3455 84.5454C83.7898 85.0177 84.2543 85.5033 84.7223 85.9345C85.1352 86.315 84.6112 86.9002 84.6056 87.3812" stroke="#BABAFF" stroke-width="2" stroke-linecap="round"/>
<path d="M88.3589 85.3125C88.1441 85.0681 87.973 84.7594 87.7668 84.5017C87.4521 84.1087 87.0956 83.7465 86.7438 83.3864C86.2536 82.8846 85.7522 82.3549 85.3017 81.8167C85.1298 81.6113 85.0309 81.3251 84.8578 81.1375C84.7221 80.9904 84.5495 80.7982 84.4819 80.6163C83.9727 79.2447 84.9165 77.787 85.6482 76.7026C86.4606 75.4986 87.3437 74.4072 88.3208 73.3333C88.7263 72.8875 89.2106 72.4276 89.5476 71.9344" stroke="#BABAFF" stroke-width="2" stroke-linecap="round"/>
<path d="M87.2978 76.0876C87.2965 76.1957 87.2484 76.2979 87.2267 76.4039C87.1504 76.7772 87.1659 77.1936 87.1432 77.5763C87.0908 78.4616 87.0749 79.3487 87.0225 80.2338C86.959 81.3064 87.0001 82.3785 86.9876 83.454" stroke="#BABAFF" stroke-width="2" stroke-linecap="round"/>
<path d="M95.0468 74.2902C95.0434 74.582 94.983 74.8502 94.9023 75.1274C94.7952 75.4951 94.8366 75.898 94.7642 76.2742C94.6834 76.6936 94.5249 77.101 94.4701 77.5241C94.3478 78.4693 93.9756 79.4332 93.6985 80.3439C93.6796 80.4061 93.4918 80.9793 93.6009 81.0118C93.6797 81.0354 93.878 81.0777 93.9237 81.1529C94.0019 81.2813 94.1616 81.3406 94.2902 81.4068C94.4838 81.5064 94.6017 81.7339 94.754 81.8815C94.9919 82.1123 95.3183 82.2826 95.5152 82.542C95.6936 82.7771 95.9265 82.9707 96.1318 83.1808C96.5909 83.6508 97.1603 84.1646 97.5218 84.7149C97.7052 84.994 97.9878 85.2575 98.2217 85.497C98.403 85.6825 98.5008 85.9191 98.6839 86.1065" stroke="#BABAFF" stroke-width="2" stroke-linecap="round"/>
<path d="M86.726 82.7769C87.067 82.7808 87.3392 82.8957 87.6618 83.0074C88.1874 83.1894 88.7325 83.3273 89.2125 83.6121C89.5565 83.8163 89.9411 83.946 90.2897 84.1414C90.5159 84.2683 90.8385 84.3042 91.0195 84.4895" stroke="#BABAFF" stroke-width="2" stroke-linecap="round"/>
<path d="M77.8435 72.4425C77.7255 72.428 77.6175 72.3059 77.5095 72.2553C76.8001 71.9228 76.1109 71.4514 75.3515 71.2445C74.9533 71.136 74.4942 70.9595 74.079 70.9547C73.5538 70.9486 73.309 71.4206 72.924 71.7283C71.0438 73.2308 68.8791 74.5677 66.6612 75.5182C65.9444 75.8254 65.2496 76.1625 64.5265 76.4486C64.2939 76.5406 63.8596 76.8213 63.5986 76.7435C63.5269 76.7221 63.3715 75.2462 63.3733 75.0942C63.38 74.5177 63.0471 74.8769 62.7218 74.9452C62.5273 74.9861 61.9491 74.9804 61.8072 75.0913C61.5229 75.3133 61.6677 73.9453 61.6697 73.7677C61.6732 73.468 61.245 73.7451 60.944 73.7593C60.2178 73.7936 59.4998 73.8801 58.7463 73.8714C58.4974 73.8685 57.7603 74.0049 58.0307 73.6529C58.5794 72.9385 59.4866 72.4977 60.2606 72.0818C61.2724 71.5382 62.3261 71.1043 63.3976 70.6969C65.9475 69.7276 68.5867 69.0417 71.059 67.8593C72.0495 67.3855 73.0145 66.8813 73.9908 66.3804C74.2743 66.2349 74.6779 66.094 74.8264 65.8055" stroke="#BABAFF" stroke-width="2" stroke-linecap="round"/>
<path d="M74.6489 66.1137C74.4837 66.0911 74.2327 65.9192 74.0594 65.8685C73.6418 65.7463 73.2468 65.5357 72.8711 65.3185C71.6245 64.598 70.3741 63.8927 69.2311 63.0089C67.9296 62.0026 66.7505 60.7522 65.9581 59.3002C65.4265 58.326 65.3978 57.3678 65.1851 56.3255C65.1517 56.1614 65.2224 55.9722 65.0782 55.8443C64.7339 55.5388 64.3961 55.2286 64.0599 54.909C63.7459 54.6105 63.4806 54.257 63.2109 53.9194C62.9689 53.6164 63.6095 53.8379 63.7642 53.8629C64.09 53.9157 64.4169 53.9699 64.7419 54.0265C64.8873 54.0518 65.071 54.176 65.2204 54.1446C65.3129 54.1252 65.0124 53.7899 64.9634 53.7577C64.7197 53.5969 64.6764 53.2828 64.4949 53.0704C64.2863 52.8263 64.1551 52.5478 64.051 52.2477C63.8006 51.5256 63.3497 50.8449 63.1725 50.0992C63.1393 49.9597 63.0947 49.7994 63.1049 49.6549C63.1137 49.5301 63.4359 49.6223 63.5226 49.5869C63.6124 49.5504 63.8736 49.5842 63.927 49.532C64.017 49.4441 63.2687 49.0794 63.2046 49.047C62.5615 48.7222 61.9213 48.4732 61.2552 48.2035C59.9155 47.6612 58.4974 47.3214 57.124 46.8746C56.7617 46.7568 56.3609 46.6486 56.0197 46.4977C55.797 46.3991 55.5888 46.2325 55.3755 46.1129C55.3116 46.077 55.1244 45.8005 55.2893 45.8438C55.4748 45.8925 56.0349 46.1538 55.5843 45.8009C54.6914 45.1013 53.5385 44.7147 52.5112 44.2625C51.9143 43.9997 51.2829 43.7864 50.7304 43.4375C50.5876 43.3473 50.2254 43.2187 50.5836 43.257C50.9403 43.2952 51.2992 43.3876 51.6467 43.4746C51.732 43.496 52.1799 43.5686 51.8816 43.474C51.2391 43.2702 50.6114 43.0075 50.0208 42.6977C49.7156 42.5376 49.2638 42.3447 49.0151 42.1035C48.8756 41.9683 48.3816 41.7557 48.3191 41.6188C48.2448 41.456 49.2435 41.2412 48.6681 41.2058C48.2983 41.183 47.9388 41.0121 47.5656 40.958C46.9401 40.8671 46.0364 40.6523 45.5217 40.2756C44.7771 39.7304 43.9177 39.3503 43.2535 38.6704C42.9626 38.3726 42.8698 38.1488 43.4009 38.2385C43.8663 38.317 44.1373 38.5772 44.5263 38.7878C44.6805 38.8712 45.2901 39.1611 45.257 39.1272C44.5333 38.3863 43.4984 37.9803 42.6967 37.3234" stroke="#BABAFF" stroke-width="2" stroke-linecap="round"/>
<path d="M41.871 36.5988C41.828 36.3939 41.4434 36.0201 41.3272 35.8378C41.204 35.6445 41.0542 35.4837 40.9331 35.2904C40.7901 35.0621 40.3601 34.1141 40.5054 33.9316C40.7249 33.656 41.4123 33.8765 41.6323 34.0672C41.7752 34.191 41.9341 34.2873 42.0885 34.3969C42.281 34.5335 42.4264 34.7709 42.6323 34.8798C43.0314 35.091 43.4179 35.2617 43.803 35.5157C43.9145 35.5892 44.0787 35.7007 44.1437 35.8175C44.1635 35.8532 44.2513 35.8725 44.2857 35.8457C44.3588 35.7885 44.0379 35.5016 44.0153 35.4784C43.0933 34.5347 42.0753 33.6706 41.2919 32.6002C40.7961 31.9227 40.3123 31.2597 39.8562 30.5579" stroke="#BABAFF" stroke-width="2" stroke-linecap="round"/>
<path d="M39.3304 29.6581C39.2204 29.5314 39.0912 28.6354 39.3131 28.5888C39.8982 28.4659 40.4088 29.1311 40.8228 29.3908C40.9081 29.4443 41.6205 30.1786 41.5874 29.9458C41.5235 29.4952 41.1845 28.9554 40.9514 28.5747C40.5746 27.9594 40.2574 27.3133 39.9011 26.6858" stroke="#BABAFF" stroke-width="2" stroke-linecap="round"/>
<path d="M39.3783 25.5478C39.0861 24.9458 38.2223 22.9562 39.1753 22.5069C39.6964 22.2612 40.0067 22.7238 40.3948 22.9414C40.5723 23.041 40.6639 23.3469 40.772 23.5118C41.1351 24.0654 41.5141 24.6109 41.8847 25.1598" stroke="#BABAFF" stroke-width="2" stroke-linecap="round"/>
<path d="M42.7635 26.4211C42.9081 26.5784 42.9877 26.7879 43.1147 26.9614" stroke="#BABAFF" stroke-width="2" stroke-linecap="round"/>
<path d="M43.7005 27.8023C43.8257 27.9447 43.939 28.123 44.0391 28.2829C44.2795 28.6666 44.607 28.9774 44.8407 29.3613C45.2002 29.9518 45.6911 30.5446 46.1648 31.0482C47.1247 32.0687 47.8358 33.1564 49.0236 33.9412C49.4263 34.2073 49.8672 34.4204 50.3132 34.6049C50.3588 34.6238 50.767 34.8167 50.6833 34.6489C50.2635 33.8074 49.399 33.0626 48.7938 32.3564C47.9304 31.349 46.9438 30.2687 46.3465 29.0776C45.7484 27.8847 45.3313 26.6616 44.9797 25.3744" stroke="#BABAFF" stroke-width="2" stroke-linecap="round"/>
<path d="M44.9937 24.1831C45.5304 23.717 45.9054 23.9248 46.2945 24.4564C47.4161 25.9889 48.6637 27.5879 49.4947 29.2996C49.7239 29.7716 50.0717 30.1793 50.2864 30.6592C50.5244 31.1911 50.8442 31.7403 51.1417 32.2447C51.6314 33.075 52.2299 33.8605 52.7984 34.6372C53.2898 35.3086 53.0853 33.8965 52.9826 33.5967C52.7138 32.8119 52.3031 32.0607 51.9701 31.3011C51.4275 30.0633 50.9216 28.5232 50.9161 27.158C50.9147 26.7994 51.0398 26.5836 51.178 26.2673C51.2813 26.0308 51.8077 25.944 52.0041 26.0849C52.6398 26.5411 52.7546 27.2918 52.9909 28.0294" stroke="#BABAFF" stroke-width="2" stroke-linecap="round"/>
<path d="M53.6294 29.4668C53.8596 29.919 54.0471 30.3883 54.2687 30.8445" stroke="#BABAFF" stroke-width="2" stroke-linecap="round"/>
<path d="M54.8505 32.0429C54.8936 32.4765 55.3134 32.9951 55.5202 33.3647C55.8759 34.0003 56.4379 34.6406 56.6622 35.3408C56.7623 35.6533 56.7821 35.3193 56.7765 35.1865C56.7592 34.7789 56.6977 34.3354 56.6123 33.9367C56.4057 32.9721 56.086 32.0238 55.8414 31.068C55.6026 30.1347 55.3337 29.0093 56.1322 28.2579C56.8725 27.5612 57.627 29.2496 57.8559 29.7277C58.4367 30.941 58.9469 32.1943 59.451 33.4368C59.7024 34.0566 60.0502 34.649 60.3799 35.2316C60.7274 35.8458 60.9593 36.5538 61.4339 37.0908C62.1128 37.8591 62.634 38.7112 63.3623 39.4567C64.1356 40.2483 64.8901 41.0188 65.7922 41.6695C66.1471 41.9255 66.5486 42.1057 66.896 42.3708C67.0525 42.4902 67.2452 42.6471 67.4146 42.7343" stroke="#BABAFF" stroke-width="2" stroke-linecap="round"/>
<path d="M68.2963 43.7573C68.1122 43.354 67.8489 42.9983 67.6578 42.5947C67.4085 42.0682 67.2536 41.5167 67.0479 40.9724C66.9747 40.7788 66.7487 40.3369 67.1356 40.5398C68.0458 41.0169 68.9168 41.5163 69.8799 41.9022C70.6524 42.2119 71.4343 42.6027 72.1539 43.0011C72.8796 43.4029 73.6811 43.6624 74.3813 44.1258C74.7161 44.3474 75.0904 44.5644 75.3958 44.8228C75.4657 44.8819 75.9055 45.1709 75.9017 45.1464C75.8221 44.6321 75.3919 44.172 75.1136 43.757C74.7712 43.2463 74.3973 42.7464 74.0457 42.2419C73.957 42.1145 73.7699 41.8255 74.008 42.0693C74.5231 42.5965 75.2877 42.9377 75.971 43.1679C77.8613 43.8046 79.7271 44.6067 81.5002 45.5192" stroke="#BABAFF" stroke-width="2" stroke-linecap="round"/>
<path d="M82.5674 45.9486C84.4689 46.5844 86.4911 47.4486 88.0751 48.7234C88.5716 49.123 89.0985 49.6549 89.4279 50.212C89.563 50.4406 89.5148 51.0134 89.538 51.2758C89.5883 51.8458 89.6864 52.41 89.7532 52.9797C89.8604 53.8942 90.1398 54.8222 90.3901 55.7045C90.503 56.1026 90.5739 56.6292 90.8088 56.9771C91.0996 57.4077 91.26 57.9822 91.5232 58.4451C92.0962 59.453 92.6989 60.3067 93.4606 61.1751C93.7333 61.4862 93.9933 61.798 94.1738 62.1698" stroke="#BABAFF" stroke-width="2" stroke-linecap="round"/>
<path d="M91.5723 58.2286C92.9146 58.2442 94.0623 59.1118 95.2316 59.6545C95.5487 59.8017 95.8578 60.0184 96.1835 60.1391C96.3565 60.2031 96.4905 60.3448 96.6705 60.3469" stroke="#BABAFF" stroke-width="2" stroke-linecap="round"/>
<path d="M104.69 64.2381C105.232 63.7675 106.083 63.4238 106.75 63.2201C107.978 62.8457 109.222 62.4218 110.496 62.2317C111.857 62.0286 113.153 61.5413 114.493 61.2462C115.751 60.9695 116.989 60.6054 118.256 60.3637C119.588 60.1095 120.873 60.0317 122.223 60.0474C123.022 60.0566 123.821 60.2018 124.621 60.2111C125.039 60.216 125.55 60.1208 125.916 59.904C126.115 59.7856 126.276 59.5759 126.442 59.4168C126.697 59.1721 126.98 58.9839 127.255 58.7668C127.832 58.3104 128.675 58.0629 129.364 57.84C130.448 57.4893 131.582 57.2607 132.719 57.1818C133.708 57.1131 134.698 57.0699 135.688 57.0124C136.292 56.9772 136.937 57.0815 137.533 56.9633C137.906 56.8892 138.641 56.9059 138.365 56.3388C138.026 55.6399 137.09 55.5928 136.407 55.4779C135.823 55.3797 135.231 55.3423 134.649 55.2335C134.202 55.15 133.669 55.0727 133.221 55.1364C132.18 55.2842 131.095 55.1952 130.046 55.2933C129.913 55.3057 129.525 55.3791 129.648 55.3265C130.601 54.9158 131.54 54.6381 132.574 54.5047C133.979 54.3235 135.398 54.1071 136.765 53.7178C137.066 53.6322 138.447 53.4936 137.568 53.0325C136.817 52.6382 135.818 52.5214 134.989 52.6301C134.341 52.7149 133.689 52.8732 133.04 52.9246C132.477 52.9691 131.919 52.9816 131.362 53.0863" stroke="#BABAFF" stroke-width="2" stroke-linecap="round"/>
<path d="M130.273 53.2548C130.167 53.2642 129.057 53.5273 129.058 53.4873C129.059 53.4059 129.674 53.1262 129.749 53.0851C130.235 52.8203 130.755 52.6474 131.274 52.466C132.067 52.1891 132.866 52.0285 133.667 51.7967C134.211 51.6392 134.74 51.3887 135.265 51.1734C135.471 51.0885 137.091 50.4726 136.404 50.1095C135.727 49.7512 135.053 50.005 134.341 50.0855C133.831 50.1433 133.318 50.2147 132.814 50.3144C132.218 50.4323 131.582 50.4741 130.998 50.6407C129.723 51.0046 128.373 51.3648 127.161 51.9074C126.912 52.0186 126.671 52.1413 126.435 52.2689C126.312 52.3354 126.45 52.2499 126.516 52.1591C126.86 51.6925 127.293 51.3624 127.763 51.0285C128.744 50.3308 129.805 49.847 130.853 49.2648C131.744 48.7698 132.613 48.2436 133.478 47.7047C133.967 47.4002 134.385 47.028 134.744 46.5793C134.889 46.3984 135.077 46.1581 135.014 45.9054C134.948 45.6462 134.702 45.5595 134.462 45.5567C134.271 45.5545 134.11 45.6041 133.929 45.6663C133.455 45.8294 132.965 45.9293 132.49 46.0875C131.362 46.4638 130.208 46.7846 129.1 47.2185C127.714 47.7615 126.35 48.3596 124.969 48.9146C124.222 49.2146 123.575 49.6464 122.927 50.1091C122.663 50.2969 122.526 50.4861 122.311 50.6959C122.189 50.8146 122.078 50.9835 121.974 51.1198C121.842 51.2928 121.697 51.5503 121.999 51.3315C123.337 50.3611 124.692 49.2349 125.712 47.9266C125.856 47.7432 126.113 47.4537 125.914 47.2343C125.673 46.9687 125.35 46.8133 124.979 46.9215C124.326 47.1121 123.695 47.5622 123.099 47.8812C122.302 48.3071 121.625 48.9068 120.896 49.4311" stroke="#BABAFF" stroke-width="2" stroke-linecap="round"/>
<path d="M120.027 50.1912C119.191 51.0081 118.288 51.7745 117.418 52.5393C117.312 52.6321 117.521 52.4055 117.556 52.3471C117.774 51.9802 118.006 51.6156 118.203 51.2372C118.465 50.735 118.684 50.2632 118.631 49.6993C118.542 48.7444 117.091 50.2534 116.851 50.4488C115.661 51.4174 114.285 52.3487 113.314 53.5512C113.188 53.7077 112.894 54.2045 112.917 54.0047C112.944 53.7589 113.198 53.4388 113.311 53.2139C113.596 52.6462 113.97 52.1765 114.213 51.5835C114.273 51.438 114.486 50.8273 114.2 50.7603C113.867 50.6824 113.516 51.0893 113.281 51.2555C112.553 51.7693 111.84 52.3024 111.121 52.8286C110.393 53.3619 109.802 54.0129 109.14 54.6202C108.724 55.0017 108.358 55.414 107.959 55.8045C107.674 56.0831 108.115 55.4966 108.175 55.4043C108.494 54.9101 108.818 54.3225 108.843 53.7208C108.858 53.393 109 52.9539 108.697 52.7124C108.421 52.4926 107.794 53.2315 107.655 53.3698C106.886 54.133 106.215 54.9891 105.493 55.7935C105.149 56.1761 104.867 56.5987 104.593 57.0238C104.573 57.0542 104.414 57.2379 104.414 57.2307C104.415 57.1506 104.559 56.989 104.594 56.9232C104.695 56.7304 104.795 56.536 104.873 56.3325C105.084 55.7755 105.308 55.2956 105.299 54.6864C105.296 54.4667 105.06 54.1575 104.83 54.3412C104.03 54.9811 103.193 55.6648 102.616 56.5277C102.254 57.0682 101.644 57.5234 101.16 57.9479C100.772 58.2885 100.374 58.6037 100.006 58.9639C99.5896 59.3703 98.8006 59.887 98.2416 60.0508C97.9745 60.129 97.6964 60.203 97.4432 60.3259C97.2557 60.417 97.0211 60.458 96.8516 60.5682" stroke="#BABAFF" stroke-width="2" stroke-linecap="round"/>
<path d="M100.092 63.3387C100.521 63.4024 100.932 63.5586 101.36 63.6338C102.07 63.7583 102.766 63.9244 103.474 64.055C104.478 64.2402 105.574 64.4302 106.513 64.8514C106.979 65.0603 107.48 65.3396 107.473 65.9104C107.47 66.1462 107.419 66.2852 107.603 66.4315C107.944 66.7033 108.414 66.8728 108.783 67.1179C109.187 67.3869 109.648 67.8338 109.812 68.2941C110.039 68.9294 109.583 69.9534 110.097 70.4794" stroke="#BABAFF" stroke-width="2" stroke-linecap="round"/>
<path d="M110.248 70.8691L110.209 70.8687" stroke="#BABAFF" stroke-width="2" stroke-linecap="round"/>
<path d="M110.096 70.5568C109.995 70.5443 109.859 70.4078 109.767 70.3589C109.629 70.286 109.485 70.2181 109.349 70.1428C108.995 69.9466 108.504 70.0015 108.116 69.9323C107.858 69.8861 107.581 69.9066 107.319 69.9036C107.001 69.8999 106.69 69.8103 106.371 69.815C106.139 69.8184 106.805 70.0141 107.037 70.0168" stroke="#BABAFF" stroke-width="2" stroke-linecap="round"/>
<path d="M106.451 70.3594C106.326 70.3736 106.119 70.5933 106.021 70.6671C105.722 70.8916 105.422 71.1086 105.095 71.2924C104.528 71.6115 103.885 71.7482 103.273 71.9504C102.682 72.1454 102.019 72.2524 101.404 72.3383C100.871 72.4128 100.344 72.5608 99.8156 72.6411C98.8532 72.7875 97.8273 73.1988 96.9838 73.6841C96.6413 73.8812 96.2462 74.0658 95.872 74.193C95.5566 74.3003 95.1962 74.4527 94.9544 74.689" stroke="#BABAFF" stroke-width="2" stroke-linecap="round"/>
<path d="M106.179 145.963C106.43 145.785 106.955 145.838 107.235 145.842C108.43 145.856 109.624 145.936 110.82 145.95C113.236 145.978 115.671 145.718 118.073 146.034" stroke="#BABAFF" stroke-width="2" stroke-linecap="round"/>
<path d="M109.824 142.797C110.079 143.455 110.005 144.493 109.997 145.205" stroke="#BABAFF" stroke-width="2" stroke-linecap="round"/>
<path d="M107.094 142.03C109.693 141.964 112.316 142.125 114.912 141.987" stroke="#BABAFF" stroke-width="2" stroke-linecap="round"/>
<path d="M113.999 122.795C117.578 122.837 121.112 123.491 124.608 124.188" stroke="#BABAFF" stroke-width="2" stroke-linecap="round"/>
<path d="M121.53 124.554L121.507 126.492" stroke="#BABAFF" stroke-width="2" stroke-linecap="round"/>
<path d="M118.288 127.524C120.065 127.544 121.842 127.669 123.607 127.867C124.651 127.985 125.712 128.059 126.743 128.26C127.205 128.35 127.631 128.525 128.099 128.573" stroke="#BABAFF" stroke-width="2" stroke-linecap="round"/>
<path d="M123.239 121.232L123.219 122.969" stroke="#BABAFF" stroke-width="2" stroke-linecap="round"/>
<path d="M119.709 120.188C121.06 120.204 122.435 120.523 123.78 120.651C124.914 120.76 126.071 120.963 127.182 121.211" stroke="#BABAFF" stroke-width="2" stroke-linecap="round"/>
<path d="M61.6539 128.485C61.9822 128.489 62.3383 128.747 62.6871 128.77C62.9772 128.79 62.9387 128.911 62.6756 128.715C62.3719 128.49 62.0711 128.381 61.7036 128.377C61.5201 128.375 61.4032 128.319 61.2255 128.317C60.9194 128.313 61.8376 128.324 62.1437 128.327C62.7193 128.334 61.8259 128.176 61.661 128.131C61.3631 128.048 61.164 127.934 60.8542 127.93C60.5804 127.927 61.4049 127.975 61.6649 128.061C62.0126 128.176 63.1073 128.27 62.7413 128.28C62.2247 128.294 61.6908 128.194 61.2234 127.977C61.0366 127.89 60.8293 127.821 60.6251 127.819C60.5809 127.818 60.3423 127.815 60.516 127.817C60.8502 127.821 61.1851 127.819 61.519 127.832C62.1344 127.856 62.771 127.888 63.3813 127.972C63.5425 127.994 63.6595 128.094 63.8129 128.128C64.0736 128.187 64.2679 128.339 64.5157 128.412C64.5551 128.424 64.5622 128.537 64.5322 128.561C64.3812 128.682 63.7864 128.436 63.6188 128.399C63.1679 128.299 62.7705 128.213 63.4102 128.615C63.7623 128.836 64.1233 129.02 64.4511 129.279C64.5463 129.354 64.9329 129.569 64.6121 129.514C64.3162 129.463 64.0854 129.222 63.7723 129.274C63.5036 129.318 64.0835 129.939 64.1429 129.981C64.3674 130.142 64.2515 129.971 64.172 129.83C63.9754 129.482 63.7558 129.161 63.4983 128.855C63.3053 128.626 63.1209 128.356 62.9126 128.142C62.8178 128.045 63.0027 128.4 63.0719 128.517C63.1834 128.705 63.3172 128.882 63.423 129.076C63.4976 129.212 63.638 129.31 63.6853 129.458C63.7044 129.517 63.0053 129.086 63.3551 129.184C64.132 129.402 64.9332 129.866 65.603 130.307C65.8237 130.453 65.7315 129.677 65.7333 129.527C65.7387 129.063 66.2171 129.805 66.3282 129.97C66.3731 130.037 66.5305 130.206 66.4562 130.175C66.2421 130.086 65.9997 129.861 65.7976 129.734C65.6912 129.667 65.2672 129.133 65.1641 129.211C64.9079 129.406 65.118 130.126 65.1231 130.393C65.1287 130.681 65.2493 131.538 65.2526 131.249C65.2563 130.928 64.9759 130.57 64.9096 130.254C64.8866 130.144 64.9587 130.473 64.9937 130.579C65.0922 130.879 65.2426 131.139 65.4145 131.4C65.5918 131.669 65.8242 131.951 65.9502 132.249C65.9748 132.306 66.2411 132.777 66.2434 132.582C66.2504 131.979 66.2068 131.392 66.1247 130.792C66.1154 130.725 65.9591 129.665 66.0835 129.646C66.255 129.62 66.4334 130.43 66.4643 130.518C66.7015 131.192 66.9907 131.84 67.2565 132.503C67.3122 132.642 67.3714 132.777 67.4367 132.911C67.437 132.912 67.5383 133.11 67.5436 133.098C67.6215 132.909 67.4773 132.527 67.4464 132.336C67.399 132.042 67.3975 131.744 67.3233 131.455C67.2701 131.248 67.35 131.339 67.414 131.468C67.5256 131.694 67.6616 131.917 67.7455 132.154C67.7848 132.265 67.8248 132.478 67.9105 132.565C67.9986 132.655 67.9744 132.676 67.9985 132.815C68.0622 133.183 68.1777 133.524 68.2192 133.903C68.2287 133.989 68.4667 135.273 68.2868 135.128C67.7776 134.718 67.5626 133.972 67.2519 133.425C66.9355 132.867 66.9337 134.201 66.9321 134.342C66.9276 134.727 66.9167 135.107 66.9976 135.486C67.0578 135.767 67.03 135.312 67.0306 135.253C67.0416 134.308 67.1443 133.219 66.6581 132.363C66.6315 132.316 66.5832 132.062 66.5321 132.252C66.4338 132.618 66.4432 133.06 66.4577 133.434C66.4748 133.871 66.5773 134.3 66.667 134.727C66.7047 134.907 66.6324 134.344 66.6116 134.278C66.6003 134.242 66.4151 133.684 66.4798 133.885C66.6113 134.296 66.6986 134.71 66.8443 135.117C67.0502 135.693 67.2266 136.302 67.491 136.847C67.598 137.067 67.785 137.158 68.0322 137.223C68.2873 137.29 68.1102 136.012 68.0842 135.871C68.0477 135.673 67.9554 135.484 67.9577 135.282C67.9589 135.176 67.9579 135.545 67.9633 135.585C68.0263 136.054 68.2102 136.951 68.6717 137.215C68.9777 137.39 69.027 136.474 69.0334 136.349C69.0653 135.722 68.9079 135.061 68.5238 134.555C68.0305 133.905 69.5316 135.846 70.1268 136.404C70.1534 136.429 70.4171 136.686 70.3074 136.513C70.1121 136.203 70.0459 135.849 69.9312 135.505C69.8094 135.14 69.6677 134.813 69.5007 134.469C69.4349 134.334 69.3051 134.124 69.2822 133.976C69.2549 133.8 69.0721 133.746 68.9281 133.668C68.7533 133.574 68.4418 133.372 68.2284 133.369C68.1518 133.368 68.0451 133.841 68.0282 133.906C67.9247 134.306 67.964 134.739 67.9593 135.148C67.9577 135.28 67.8708 135.785 68.0053 135.883C68.2116 136.032 68.3532 136.303 68.547 136.477C68.8368 136.737 69.1225 136.897 69.3845 137.166C69.6352 137.422 69.9934 137.599 70.2373 137.849C70.2405 137.852 70.0556 137.789 70.0291 137.773C69.8872 137.689 69.8101 137.53 69.6785 137.43C69.5522 137.334 69.4132 137.178 69.2448 137.194C69.0126 137.217 69.086 137.534 69.1852 137.63C69.3403 137.78 69.4621 137.806 69.652 137.881C69.9558 138.002 70.307 138.012 70.5974 138.162C70.6981 138.214 70.9276 138.284 71.0352 138.303C71.349 138.359 70.9218 137.031 70.8098 136.837C70.6823 136.615 70.3271 135.935 70.4387 136.165C70.5415 136.377 70.7082 136.572 70.8593 136.749C70.9688 136.878 71.3354 137.215 71.1851 137.138C70.9591 137.022 70.0677 136.527 69.9154 136.863C69.7993 137.119 70.1373 137.407 70.3016 137.534C70.4221 137.627 71.444 138.44 71.4145 138.008C71.3801 137.505 70.9766 137.119 70.7539 136.694C70.6329 136.463 70.6715 136.319 70.8964 136.425C71.1685 136.554 71.333 136.854 71.5346 137.06C71.711 137.241 71.8413 137.395 72.0533 137.542C72.2489 137.678 72.6093 137.871 72.8493 137.891C72.9433 137.899 72.9579 137.97 73.0421 137.999C73.2855 138.084 72.5319 137.925 72.2798 137.872C71.9066 137.794 71.4335 137.575 71.1045 137.816C71.0179 137.88 70.9766 138.234 71.0624 138.31C71.5099 138.702 71.8901 138.931 72.5154 138.981C73.0302 139.023 73.4814 139.208 74.0099 139.214C74.2919 139.217 74.6062 139.18 74.8825 139.236C75.0288 139.266 75.0805 139.29 74.8914 139.251C74.5991 139.192 74.3518 138.969 74.0871 138.833C73.6399 138.603 73.2518 138.263 72.7835 138.081C72.4926 137.968 72.4659 137.988 72.1814 137.992C72.0902 137.994 71.9473 138.01 71.9646 138.132C71.9965 138.357 72.1461 138.312 72.3349 138.346C72.7024 138.412 73.0297 138.493 73.406 138.498C73.6221 138.5 73.9477 138.567 74.1577 138.494C74.2259 138.471 73.8666 138.172 73.8165 138.12C73.7385 138.041 73.7153 137.976 73.6005 137.93C73.4755 137.88 73.0631 137.893 73.1978 137.895C73.4845 137.898 73.8217 138.144 74.0817 138.254C74.3355 138.361 74.6616 138.348 74.9322 138.352C75.1839 138.355 75.4219 138.412 75.674 138.415C76.0167 138.419 76.3703 138.389 76.7038 138.469C77.2079 138.591 77.7927 138.603 78.3145 138.609C78.6953 138.614 79.0761 138.618 79.4569 138.622C80.2741 138.632 81.2709 138.869 82.0722 138.65C82.1132 138.639 82.1716 138.59 82.0787 138.61C81.8 138.671 81.5069 138.651 81.2233 138.67C80.8394 138.696 80.3235 138.584 79.9502 138.686C79.7723 138.734 79.5782 138.82 79.3907 138.843C79.1289 138.875 78.847 139.043 78.5943 139.049C78.3712 139.054 78.1833 139.153 77.9567 139.151C77.6455 139.147 77.3344 139.143 77.0233 139.14C76.5142 139.134 76.0051 139.128 75.496 139.122C75.2385 139.119 74.9956 139.062 74.7361 139.059C74.2479 139.053 75.7121 139.031 76.2003 139.024C77.1433 139.01 78.0689 139.065 79.0072 138.987C79.707 138.929 80.6019 138.862 81.2633 138.616C81.4276 138.555 82.2402 138.652 82.3225 138.492" stroke="#2E3192" stroke-linecap="round"/>
<path d="M73.3663 120.491C73.2704 120.501 73.0856 120.646 73.0363 120.73C72.9963 120.798 72.9819 120.843 72.9522 120.923C72.9063 121.047 72.7331 121.054 72.7069 121.166C72.6803 121.279 72.39 121.464 72.2904 121.54C72.0937 121.689 72.3166 121.386 72.3716 121.335C72.4969 121.218 72.6359 121.114 72.7634 121C72.8882 120.888 73.0407 120.699 73.2069 120.653C73.3413 120.617 73.6553 120.477 73.7225 120.359C73.8016 120.221 73.746 120.242 73.6379 120.337C73.4224 120.526 73.2083 120.719 72.9798 120.893C72.8232 121.013 72.5692 121.082 72.4845 121.266C72.4509 121.34 72.3007 121.459 72.2361 121.515C71.8548 121.846 71.5765 122.307 71.3099 122.717C71.0635 123.096 70.9666 123.563 70.7202 123.91C70.6611 123.994 70.7124 124.136 70.6498 124.237C70.5783 124.352 70.4934 124.511 70.4813 124.647C70.4645 124.837 70.3353 124.977 70.2696 125.136C70.1292 125.475 69.8244 125.811 69.8089 126.179C69.8009 126.37 69.6248 126.552 69.5871 126.747C69.5445 126.967 69.4586 127.179 69.4159 127.399C69.3772 127.599 69.3537 127.794 69.2968 127.998C69.266 128.108 69.1485 128.203 69.1326 128.305C69.1263 128.346 69.1575 128.55 69.1006 128.457C68.9367 128.187 68.9743 127.809 68.787 127.534C68.6907 127.393 68.6865 127.074 68.6579 126.905C68.557 126.311 68.773 125.705 68.9751 125.163C69.061 124.933 69.0908 124.613 69.2293 124.414C69.3821 124.195 69.6222 124.017 69.794 123.809C70.0778 123.465 70.3927 123.104 70.7089 122.795C70.7626 122.742 70.7909 122.655 70.8445 122.602C70.8947 122.553 70.9643 122.379 70.9857 122.446C71.023 122.563 70.9038 122.745 70.86 122.839C70.7089 123.162 70.5483 123.479 70.3882 123.797C70.1934 124.184 70.0139 124.592 69.8469 124.991C69.7778 125.157 69.841 125.742 69.692 125.808C69.5797 125.858 69.272 126.259 69.3315 126.052C69.3796 125.886 69.3419 125.693 69.4465 125.551C69.5214 125.448 69.6 125.379 69.6015 125.249" stroke="#006837" stroke-linecap="round"/>
<path d="M83.1449 124.042C82.9825 124.262 82.817 124.238 82.572 124.309C82.0246 124.466 81.4554 124.588 80.889 124.647C80.4637 124.691 79.7857 124.591 79.4671 124.952C78.9969 125.484 78.3729 125.685 77.8056 126.054C77.7508 126.089 77.3176 126.323 77.5801 126.16C77.9049 125.959 78.3066 125.85 78.6582 125.706C80.5192 124.943 82.4418 124.349 84.442 124.045C84.7944 123.992 85.2243 123.892 85.5487 123.743C85.8029 123.626 86.2104 123.648 86.4246 123.48C86.566 123.37 86.793 123.414 86.9593 123.365C87.1812 123.3 87.3803 123.219 87.6156 123.221C88.0622 123.226 88.5334 123.28 88.9679 123.17C89.1561 123.123 89.2546 123.022 89.4727 123.025C89.5369 123.025 89.7122 122.945 89.6611 122.984C89.4991 123.107 89.1245 123.009 88.9333 123.024C88.0244 123.096 87.1375 123.161 86.2223 123.151C85.618 123.144 84.9565 123.13 84.3577 123.211C84.2435 123.226 83.9092 123.302 84.0147 123.255C84.4015 123.085 84.7686 122.89 85.1839 122.793C85.2532 122.777 85.8642 122.66 85.7634 122.742C85.3186 123.104 84.5832 123.287 84.0515 123.477C83.4943 123.676 82.9203 123.816 82.3603 124.006C82.1545 124.076 81.9691 124.217 81.7688 124.308C80.9207 124.696 80.0881 125.147 79.248 125.555C78.862 125.743 77.688 126.219 78.1135 126.163C78.7371 126.082 79.3978 125.694 79.9764 125.461C80.3356 125.315 80.9126 125.281 81.2149 125.035C81.6277 124.699 80.3526 125.76 79.8238 125.82C79.6878 125.835 80.055 125.672 80.1777 125.611C80.5339 125.436 80.9133 125.303 81.289 125.176C81.7615 125.016 82.2696 124.929 82.7248 124.723C83.1091 124.549 83.7994 123.723 82.9426 123.713C82.4274 123.707 81.9623 123.749 81.4616 123.886C81.1541 123.971 80.8452 124.052 80.5403 124.146C80.4067 124.186 80.1116 124.382 80.133 124.244C80.1599 124.07 80.7604 123.813 80.8782 123.752C81.2823 123.545 81.7228 123.294 82.1667 123.188C82.2716 123.163 82.3669 123.16 82.4732 123.162C82.6501 123.164 82.84 123.012 83.0208 122.98C83.0351 122.977 83.4496 122.941 83.4361 122.973C83.3046 123.278 82.9403 123.396 82.6661 123.515C81.792 123.896 80.7923 123.812 79.9071 124.126C79.5419 124.256 79.1582 124.347 78.7877 124.471C78.5704 124.543 78.3006 124.827 78.1271 124.984C77.8822 125.207 77.3959 125.319 77.0971 125.476C76.8152 125.624 76.5395 125.835 76.3145 126.055C76.2065 126.16 76.0473 126.315 75.9047 126.371C75.7016 126.451 75.5405 126.609 75.3549 126.735C75.215 126.829 75.0337 126.877 74.9095 126.99C74.8305 127.062 74.7877 127.155 74.6947 127.218C74.0734 127.638 73.8045 128.394 73.2932 128.893C73.0627 129.118 72.9401 129.427 72.7027 129.638C72.4072 129.901 72.9776 129.222 73.0234 129.163C73.2628 128.853 73.5306 128.54 73.7436 128.213C73.9427 127.908 74.3867 127.694 74.706 127.546C75.0225 127.398 75.3477 127.295 75.6535 127.123C75.8448 127.015 76.0745 126.858 76.2906 126.806C76.7773 126.69 77.2216 126.298 77.7195 126.162C77.8216 126.134 77.8004 126.019 77.8607 126.003C77.9407 125.981 78.0255 126.006 77.9386 126.083C77.8065 126.199 77.7496 126.306 77.5833 126.409C77.4265 126.506 77.2593 126.569 77.1165 126.673C76.7585 126.935 76.3139 127.067 75.9276 127.266C75.6756 127.395 75.4443 127.435 75.2179 127.576C75.1207 127.636 74.9784 127.643 74.8684 127.66C74.6835 127.688 74.4806 127.913 74.3128 128.005C74.1061 128.118 73.925 128.225 73.7393 128.325C73.6985 128.347 73.5296 128.555 73.5789 128.566C73.8622 128.633 74.3473 128.068 74.5595 127.899C74.8719 127.649 75.1722 127.465 75.4711 127.172" stroke="#FBB03B" stroke-linecap="round"/>
<path d="M83.1379 129.335C83.4443 129.338 83.6626 129.394 83.2328 129.511C82.6377 129.674 81.9343 129.429 81.3586 129.614C81.1508 129.681 80.8725 129.745 80.654 129.742C80.5507 129.741 80.4503 129.789 80.3649 129.845C80.224 129.937 80.6892 129.779 80.7113 129.77C80.8979 129.697 81.9177 129.561 81.9385 129.266C81.9719 128.792 79.5008 128.91 79.0271 128.905C78.7973 128.902 78.4796 129.125 78.2838 129.236C77.9887 129.402 77.654 129.807 77.3188 129.864C77.0667 129.907 76.7107 130.022 76.4971 130.155C76.2009 130.338 75.7462 130.355 75.4856 130.61C75.2763 130.814 74.8604 130.864 74.6679 131.079C74.4688 131.302 75.2278 130.871 75.5139 130.786C75.8082 130.698 76.1386 130.54 76.4384 130.509C76.6028 130.491 76.7196 130.35 76.8742 130.305C77.0596 130.25 77.1963 130.224 77.3704 130.116C77.5348 130.014 77.8036 130.094 77.9929 130.011C78.1475 129.944 78.3403 129.885 78.5066 129.881C78.9161 129.87 79.3009 129.672 79.7243 129.677C79.9259 129.679 80.3885 129.683 80.4632 129.467" stroke="#FF0000" stroke-linecap="round"/>
</svg>
