<svg width="225" height="225" viewBox="0 0 225 225" fill="none" xmlns="http://www.w3.org/2000/svg">
<g clip-path="url(#clip0_222_756)">
<path d="M71.5126 138.755C71.9658 138.562 72.6282 138.917 73.0381 139.088C73.7511 139.385 74.3737 139.81 75.0192 140.229C75.7303 140.69 76.3945 141.205 76.9638 141.837C77.3748 142.293 77.6524 142.724 77.9591 143.255C78.6013 144.366 78.66 145.812 78.8177 147.062C79.0203 148.668 79.5758 150.166 80.416 151.553C81.2434 152.919 82.7724 154.045 84.2053 154.702C85.1818 155.151 86.2011 155.528 87.2021 155.913C88.0165 156.226 88.8039 156.596 89.6134 156.922C90.2398 157.174 90.879 157.391 91.5066 157.644C91.7236 157.731 91.9233 157.851 92.1377 157.938C92.1885 157.958 92.4006 158.036 92.2281 158.057C91.6301 158.127 91.0448 158.1 90.4372 158.034C89.7242 157.957 88.9682 157.851 88.2727 157.676C87.8819 157.577 87.4567 157.563 87.0577 157.497C86.5505 157.413 86.0631 157.224 85.5556 157.144C84.7147 157.013 83.8332 156.763 83.0441 156.446C82.1299 156.078 81.201 155.646 80.3602 155.133C78.1166 153.764 75.7217 152.067 75.6495 149.175C75.6308 148.427 75.9091 147.722 75.9478 146.982C75.9765 146.436 75.8633 145.918 75.8514 145.382C75.8308 144.455 75.4406 143.638 74.9792 142.86C74.7545 142.481 74.4772 142.147 74.2019 141.805C73.9087 141.44 73.5846 141.024 73.2359 140.713C72.6191 140.163 72.1826 139.431 71.526 138.921" stroke="#2E3192" stroke-linecap="round"/>
<path d="M82.6761 148.227C82.7936 147.935 83.9539 148.085 84.2226 148.087C85.0893 148.094 85.9725 148.22 86.8304 148.336C87.7363 148.458 88.6328 148.649 89.542 148.765C89.9519 148.817 90.3656 148.888 90.7731 148.959C91.2481 149.041 91.6917 149.253 92.1617 149.355C93.5749 149.663 94.778 150.293 95.999 151.038C96.2495 151.191 96.5252 151.393 96.7961 151.502C96.9078 151.547 96.8186 151.382 96.798 151.342C96.6904 151.129 96.4257 150.906 96.2645 150.728C95.9592 150.39 95.6189 150.108 95.2809 149.808C94.6883 149.281 94.0286 148.759 93.352 148.349C92.0238 147.543 90.5768 146.733 88.9937 146.585C87.5274 146.448 86.0116 146.511 84.6337 147.066C84.0254 147.31 83.2042 147.497 82.7595 148.02" stroke="#FF0000" stroke-linecap="round"/>
<path d="M80.1831 148.281L80.2724 148.202" stroke="black" stroke-linecap="round"/>
<path d="M80.486 148.029C80.5378 148 80.5784 147.952 80.62 147.91" stroke="black" stroke-linecap="round"/>
<path d="M81.1558 147.579C81.4142 147.469 81.6516 147.296 81.9087 147.178C82.1118 147.084 82.2771 146.96 82.4694 146.849C82.7119 146.708 82.9782 146.606 83.225 146.472C84.0985 145.998 85.1377 145.655 86.1244 145.514C88.4248 145.186 90.7841 145.15 93.1037 145.162C94.4889 145.17 95.8716 145.275 97.2514 145.359C98.3099 145.423 99.4019 145.408 100.435 145.675C100.807 145.771 101.177 145.87 101.547 145.973C101.91 146.073 102.309 146.203 102.682 146.234C102.829 146.247 102.953 146.325 103.093 146.365C103.243 146.406 103.401 146.411 103.552 146.447C103.86 146.521 104.162 146.6 104.456 146.718" stroke="#FBB03B" stroke-linecap="round"/>
<path d="M104.887 146.863C105.04 146.924 105.206 146.975 105.364 147.02C105.512 147.061 105.326 146.884 105.296 146.861C105.163 146.757 104.994 146.711 104.838 146.642C104.49 146.488 104.188 146.246 103.852 146.066C103.301 145.769 102.778 145.422 102.22 145.134C101.503 144.763 100.785 144.412 100.051 144.076C99.1984 143.685 98.2334 143.479 97.3395 143.198C96.6656 142.987 95.9979 142.848 95.3057 142.725C94.6652 142.611 94.0253 142.497 93.3736 142.471C91.8862 142.412 90.4138 142.366 88.9423 142.658C88.543 142.737 88.1445 142.809 87.7512 142.914C87.3516 143.02 86.9928 143.167 86.6093 143.317C85.7609 143.648 84.9695 143.928 84.2772 144.529C84.0016 144.768 83.6636 144.956 83.4144 145.224C83.2212 145.431 83.0118 145.623 82.822 145.834C82.4477 146.25 82.0441 146.65 81.6451 147.043C81.364 147.319 81.0278 147.599 80.7824 147.904C80.7155 147.987 80.547 148.227 80.431 148.237" stroke="#FBB03B" stroke-linecap="round"/>
<path d="M79.693 145.782C79.79 145.597 79.9453 145.442 80.0256 145.242C80.113 145.025 80.2252 144.822 80.3353 144.616C80.5918 144.135 80.9127 143.668 81.2253 143.222C81.6033 142.683 82.0481 142.204 82.45 141.684C82.9356 141.056 83.4989 140.441 84.0953 139.919C84.4959 139.569 84.909 139.261 85.3255 138.931C85.7365 138.607 86.3052 138.452 86.7708 138.219C87.0948 138.057 87.4503 137.925 87.7856 137.782C87.9719 137.703 88.2013 137.613 88.3649 137.494C88.6396 137.296 88.9952 137.212 89.3026 137.074C89.4262 137.019 89.5287 136.958 89.6599 136.921C89.7619 136.892 89.7012 136.866 89.6251 136.853C89.4542 136.823 89.2911 136.765 89.1236 136.721C88.627 136.59 88.0882 136.532 87.5781 136.61C86.3401 136.8 85.1451 137.225 83.9988 137.714C83.3869 137.974 82.81 138.38 82.2634 138.754C81.8974 139.004 81.4575 139.259 81.1813 139.616C81.0283 139.813 80.9364 140.046 80.816 140.261C80.5554 140.726 80.3528 141.28 80.1837 141.78C79.9756 142.397 79.9411 142.997 79.8661 143.637" stroke="#006837" stroke-linecap="round"/>
<path d="M79.8649 144.212C79.7334 144.684 79.861 145.209 79.8171 145.689" stroke="#006837" stroke-linecap="round"/>
<path d="M78.9092 143.942C78.8662 143.822 78.8836 143.701 78.8847 143.575C78.887 143.316 78.8661 143.059 78.8638 142.801C78.8554 141.87 78.9654 140.968 79.2829 140.08C79.5323 139.383 79.8639 138.61 80.3128 138.01C80.4533 137.822 80.5851 137.627 80.744 137.455C80.7849 137.41 80.831 137.36 80.8682 137.313C80.8731 137.307 80.6431 137.396 80.6125 137.408C79.9929 137.648 79.466 137.936 79.0969 138.51C78.8997 138.816 78.7497 139.128 78.637 139.474C78.5004 139.893 78.3605 140.366 78.3335 140.807C78.3064 141.253 78.2647 141.709 78.3422 142.151C78.3965 142.462 78.4573 142.771 78.5081 143.081C78.5414 143.284 78.6224 143.478 78.6697 143.68C78.6846 143.743 78.7205 143.837 78.7607 143.883" stroke="#2E3192" stroke-linecap="round"/>
<path d="M76.3711 117.321C74.5562 120.696 72.1116 123.716 70.116 126.987C67.0317 132.042 63.6865 136.998 60.1448 141.737C59.2506 142.933 58.5693 144.259 57.7251 145.486C57.0786 146.425 56.4104 147.315 55.8605 148.32C55.51 148.96 55.0413 149.57 54.727 150.222C54.4597 150.776 54.0283 151.221 53.7792 151.779C52.9046 153.739 51.4356 155.386 50.76 157.452" stroke="black" stroke-linecap="round"/>
<path d="M76.4439 117.14C76.5748 117.177 76.7517 117.147 76.8785 117.105C77.3983 116.931 78.0577 117.272 78.5503 117.404C80.5611 117.945 82.5191 118.64 84.4532 119.418C89.8773 121.601 95.5449 123.126 101.056 125.062C105.658 126.678 110.241 128.346 114.877 129.855C117.643 130.755 120.45 131.596 123.15 132.683" stroke="black" stroke-linecap="round"/>
<path d="M122.136 132.59C121.765 132.492 120.406 135.083 120.175 135.432C118.687 137.681 117.69 140.284 116.563 142.723C115.954 144.041 115.433 145.387 114.866 146.722C114.32 148.008 113.573 149.193 113.043 150.483C111.728 153.681 110.323 156.839 109.085 160.07C107.83 163.34 106.85 166.715 105.616 169.993C105.102 171.357 104.805 172.959 104.102 174.247C103.464 175.414 103.129 176.679 102.633 177.912" stroke="black" stroke-linecap="round"/>
<path d="M122.788 132.537C124.986 133.421 127.082 134.4 129.068 135.748C131.168 137.172 133.22 138.691 135.352 140.064C137.39 141.375 139.252 143.028 141.32 144.281C141.77 144.554 142.129 144.946 142.619 145.143C142.861 145.24 143.053 145.304 143.216 145.488" stroke="black" stroke-linecap="round"/>
<path d="M133.361 190.596C135.316 185.739 135.48 180.395 136.315 175.293C136.705 172.908 137.113 170.486 137.864 168.181C138.581 165.983 138.572 163.557 139.335 161.394C141.09 156.422 141.3 151.031 143.269 146.14" stroke="black" stroke-linecap="round"/>
<path d="M101.798 178.942C102.114 179.03 102.56 178.931 102.9 178.988C104.493 179.256 105.96 179.83 107.483 180.337C111.293 181.604 115.104 182.91 118.82 184.427C121.822 185.653 124.819 186.966 127.87 188.064C129.888 188.791 131.805 189.759 133.795 190.56" stroke="black" stroke-linecap="round"/>
<path d="M49.3847 157.214C53.6794 158.943 58.0429 160.489 62.3441 162.22C68.3896 164.654 74.5226 166.853 80.5485 169.338C83.0087 170.352 85.3278 171.666 87.7881 172.672C89.996 173.574 92.2459 174.361 94.4562 175.251C96.6953 176.152 98.8411 177.226 101.075 178.125" stroke="black" stroke-linecap="round"/>
<path d="M56.526 153.048C58.5563 153.865 60.7403 154.335 62.7808 155.145C66.4332 156.596 69.9949 158.259 73.6402 159.726C77.2368 161.174 80.7973 162.712 84.3953 164.161C86.1245 164.857 87.9154 165.367 89.6428 166.063" stroke="black" stroke-linecap="round"/>
<path d="M80.6429 159.182C80.3967 159.98 80.0112 160.752 79.6965 161.534" stroke="black" stroke-linecap="round"/>
<path d="M63.3153 152.628C62.7386 152.915 62.4426 153.876 62.2795 154.418" stroke="black" stroke-linecap="round"/>
<path d="M81.3608 128.682C82.0937 128.977 82.8394 129.14 83.6112 129.313C86.172 129.888 88.6709 130.607 91.1643 131.419C96.8121 133.26 102.47 134.972 107.989 137.193" stroke="black" stroke-linecap="round"/>
<path d="M97.568 134.365C96.8488 134.77 96.3116 136.181 96.0238 136.896" stroke="black" stroke-linecap="round"/>
<path d="M92.8189 137.287C94.4116 137.196 96.2168 138.114 97.7289 138.534C100.342 139.26 102.843 140.376 105.355 141.387" stroke="black" stroke-linecap="round"/>
<path d="M101.013 140.165L100.977 140.255" stroke="black" stroke-linecap="round"/>
<path d="M100.559 141.033C100.466 141.263 100.346 141.427 100.213 141.63" stroke="black" stroke-linecap="round"/>
<path d="M105.736 106.088C105.342 106.821 103.847 106.908 103.111 107.021C101.508 107.269 99.8548 107.18 98.3426 106.572C98.2101 106.518 97.8627 106.383 97.8026 106.242C97.772 106.17 99.1497 106.608 99.2419 106.645" stroke="black" stroke-linecap="round"/>
<path d="M97.4159 107.063C99.1655 107.768 100.421 109.413 100.762 111.245C100.853 111.733 100.889 111.695 101.265 111.944C102.197 112.56 102.927 113.365 103.366 114.395C103.824 115.471 103.908 116.592 103.894 117.747C103.879 119.015 103.882 120.383 103.455 121.594C103.048 122.746 101.736 123.544 100.642 123.926C100.09 124.119 99.4789 124.17 98.9426 124.399" stroke="black" stroke-linecap="round"/>
<path d="M109.213 117.506C109.078 117.989 109.249 118.734 109.261 119.227C109.28 120.013 109.385 120.788 109.41 121.573C109.449 122.804 109.574 124.141 110.025 125.296C110.22 125.796 110.523 126.198 110.795 126.647" stroke="black" stroke-linecap="round"/>
<path d="M111.778 113.998C111.976 114.396 112.333 114.812 112.581 115.186C113.177 116.084 113.613 116.949 114.612 117.481C115.567 117.99 116.457 118.355 117.518 118.538C118.907 118.779 120.143 119.298 121.411 119.909C122.759 120.558 124.138 121.387 125.345 122.27C125.823 122.619 126.735 123.142 126.822 123.805C126.898 124.392 126.017 124.949 125.667 125.37C125.366 125.732 125.1 126.023 124.924 126.46C124.727 126.95 124.37 127.3 124.176 127.781C123.98 128.269 123.422 128.602 123.053 128.95C122.823 129.167 122.519 129.36 122.229 129.484C121.935 129.609 121.655 129.897 121.353 129.96" stroke="black" stroke-linecap="round"/>
<path d="M124.835 121.848C125.069 121.913 125.394 121.706 125.6 121.627C126.016 121.469 126.467 121.372 126.902 121.278C127.761 121.094 128.658 121.111 129.528 121.03C130.28 120.961 129.41 119.985 129.208 119.756C128.705 119.188 128.18 118.613 127.649 118.08" stroke="black" stroke-linecap="round"/>
<path d="M107.122 108.376C107.011 108.795 107.815 109.736 108.028 110.014C108.999 111.28 110.256 112.365 111.9 112.569C112.684 112.667 113.433 112.715 114.206 112.901C114.66 113.01 115.397 113.205 115.59 113.658" stroke="black" stroke-linecap="round"/>
<path d="M128.22 117.733C127.526 117.531 126.639 117.929 125.938 117.963C125.707 117.975 125.561 118.055 125.422 117.792C125.103 117.187 124.747 116.628 124.323 116.085C122.702 114.005 120.948 111.569 118.389 110.605C117.798 110.382 117.132 110.451 116.522 110.358C115.891 110.261 115.305 110.228 114.668 110.22C113.916 110.211 113.069 109.925 112.342 109.772C111.734 109.645 111.149 109.348 110.572 109.116" stroke="black" stroke-linecap="round"/>
<path d="M112.771 90.1231C112.353 90.9004 111.727 91.6012 111.227 92.3328C110.646 93.1833 110.034 94.0064 109.459 94.861C108.441 96.3748 107.351 97.8108 106.663 99.5213C106.429 100.102 106.156 100.661 105.921 101.244C105.806 101.529 105.575 101.87 105.943 102.004C106.148 102.077 106.378 101.985 106.585 102.068C106.873 102.184 107.081 102.39 107.354 102.523C107.484 102.586 107.979 103.005 108.009 103.15C108.074 103.463 108.289 103.852 108.421 104.152C108.89 105.221 109.386 106.282 109.818 107.352C110.061 107.954 110.318 108.575 110.598 109.146C110.845 109.651 110.144 110.006 109.965 110.452" stroke="black" stroke-linecap="round"/>
<path d="M114.213 109.886C114.102 109.58 114.054 109.23 113.955 108.915C113.804 108.435 113.604 107.968 113.406 107.505C113.131 106.859 112.856 106.184 112.631 105.519C112.545 105.265 112.557 104.963 112.464 104.725C112.391 104.539 112.299 104.297 112.302 104.103C112.325 102.64 113.733 101.624 114.809 100.879C116.002 100.051 117.221 99.3545 118.521 98.7079C119.061 98.4396 119.679 98.1866 120.172 97.8493" stroke="black" stroke-linecap="round"/>
<path d="M116.569 100.904C116.529 101.004 116.447 101.082 116.388 101.173C116.182 101.493 116.045 101.887 115.885 102.235C115.515 103.041 115.179 103.862 114.809 104.668C114.361 105.644 114.011 106.659 113.609 107.656" stroke="black" stroke-linecap="round"/>
<path d="M124.444 102.039C124.335 102.31 124.181 102.538 124.005 102.767C123.772 103.071 123.665 103.461 123.461 103.786C123.234 104.147 122.938 104.469 122.734 104.844C122.277 105.68 121.58 106.443 120.992 107.192C120.952 107.243 120.569 107.709 120.659 107.779C120.724 107.829 120.893 107.941 120.908 108.027C120.935 108.175 121.062 108.288 121.158 108.397C121.302 108.56 121.33 108.815 121.418 109.007C121.556 109.309 121.799 109.586 121.888 109.899C121.969 110.183 122.116 110.448 122.231 110.718C122.489 111.322 122.833 112.008 122.971 112.652C123.04 112.978 123.208 113.326 123.339 113.634C123.441 113.873 123.446 114.129 123.549 114.37" stroke="black" stroke-linecap="round"/>
<path d="M113.611 106.93C113.927 107.058 114.139 107.263 114.399 107.485C114.823 107.845 115.281 108.171 115.625 108.611C115.872 108.926 116.183 109.186 116.437 109.494C116.602 109.695 116.89 109.845 116.991 110.083" stroke="black" stroke-linecap="round"/>
<path d="M109.079 94.078C108.974 94.0217 108.918 93.8687 108.835 93.7824C108.295 93.2152 107.823 92.526 107.19 92.0578C106.859 91.8122 106.495 91.4812 106.109 91.3262C105.622 91.13 105.223 91.4812 104.752 91.6283C102.455 92.3466 99.9526 92.8074 97.5406 92.8888C96.7612 92.9152 95.9913 92.9773 95.2136 92.9817C94.9634 92.9831 94.4568 93.0872 94.2418 92.92C94.1827 92.874 94.5731 91.4423 94.6298 91.3012C94.8451 90.7664 94.4045 90.9805 94.0766 90.9262C93.8805 90.8937 93.3436 90.6787 93.1711 90.7306C92.8256 90.8344 93.4566 89.612 93.5229 89.4473C93.6349 89.1692 93.1352 89.2722 92.8496 89.1762C92.1603 88.9448 91.4596 88.765 90.7604 88.4836C90.5295 88.3906 89.793 88.2505 90.1726 88.0205C90.9432 87.5537 91.9486 87.4719 92.8209 87.3651C93.961 87.2254 95.1005 87.2032 96.2469 87.2122C98.9751 87.2336 101.684 87.5516 104.417 87.3462C105.512 87.264 106.594 87.144 107.686 87.0313C108.003 86.9985 108.43 87.0137 108.673 86.7986" stroke="black" stroke-linecap="round"/>
<path d="M108.396 87.0215C108.25 86.9405 108.078 86.6893 107.935 86.5792C107.59 86.3139 107.298 85.9743 107.027 85.6357C106.126 84.5122 105.217 83.4014 104.472 82.1632C103.623 80.7533 102.978 79.1605 102.766 77.5199C102.624 76.4193 102.944 75.5159 103.124 74.4674C103.152 74.3024 103.287 74.1517 103.199 73.9802C102.989 73.5706 102.786 73.1591 102.589 72.7392C102.404 72.3472 102.285 71.9216 102.156 71.5091C102.041 71.139 102.557 71.5777 102.693 71.6572C102.977 71.8245 103.262 71.9936 103.544 72.1642C103.671 72.2405 103.797 72.4229 103.948 72.4478C104.041 72.4632 103.882 72.0418 103.848 71.994C103.68 71.7558 103.753 71.4474 103.661 71.1836C103.555 70.8804 103.534 70.5734 103.546 70.2559C103.574 69.4922 103.4 68.6943 103.506 67.9351C103.525 67.793 103.542 67.6275 103.604 67.4965C103.657 67.3834 103.924 67.5862 104.018 67.5847C104.115 67.5831 104.346 67.7095 104.415 67.6802C104.53 67.6308 103.965 67.0197 103.917 66.9662C103.435 66.4302 102.929 65.966 102.406 65.4731C101.354 64.4818 100.155 63.6509 99.0372 62.7364C98.7423 62.4952 98.4079 62.2491 98.1446 61.9847C97.9727 61.812 97.8392 61.5812 97.6837 61.3924C97.6371 61.3358 97.563 61.0103 97.7009 61.1104C97.8562 61.223 98.2834 61.6697 97.9915 61.1774C97.4128 60.2016 96.4784 59.4232 95.6849 58.6292C95.2238 58.1678 94.7126 57.7401 94.3242 57.2145C94.2238 57.0787 93.9328 56.8275 94.2528 56.9931C94.5714 57.158 94.8725 57.3743 95.1648 57.5814C95.2366 57.6323 95.6277 57.8624 95.384 57.6661C94.859 57.2431 94.3692 56.7706 93.9311 56.2678C93.7046 56.0079 93.3535 55.6643 93.2091 55.3492C93.1281 55.1726 92.7447 54.7954 92.7361 54.6451C92.7259 54.4665 93.7346 54.6285 93.2112 54.3868C92.8748 54.2315 92.6016 53.9418 92.2734 53.756C91.7234 53.4445 90.9589 52.9166 90.6158 52.3788C90.1194 51.6008 89.4563 50.9348 89.0837 50.0603C88.9205 49.6773 88.9151 49.4351 89.3776 49.7112C89.783 49.9532 89.9413 50.294 90.2275 50.6313C90.3409 50.765 90.804 51.2562 90.7855 51.2127C90.3795 50.2597 89.5621 49.506 89.0531 48.603" stroke="black" stroke-linecap="round"/>
<path d="M88.5463 47.6284C88.5805 47.4218 88.3576 46.934 88.3154 46.722C88.2706 46.4971 88.1893 46.293 88.1465 46.0689C88.096 45.8043 88.039 44.7649 88.2406 44.6475C88.5452 44.4703 89.1058 44.9251 89.2418 45.1826C89.3301 45.3498 89.4433 45.4971 89.5475 45.6552C89.6774 45.8523 89.7268 46.1263 89.8792 46.3025C90.1746 46.6441 90.473 46.9433 90.7399 47.3197C90.8171 47.4286 90.9298 47.5921 90.948 47.7245C90.9535 47.765 91.0283 47.8148 91.0701 47.8022C91.1589 47.7755 90.9639 47.3918 90.9512 47.3619C90.4341 46.1481 89.7986 44.9737 89.4565 43.692C89.24 42.8808 89.0295 42.0875 88.8588 41.268" stroke="black" stroke-linecap="round"/>
<path d="M88.6951 40.2388C88.6385 40.0808 88.8429 39.199 89.0666 39.236C89.6566 39.3336 89.8913 40.1387 90.183 40.5309C90.2431 40.6117 90.6409 41.5543 90.6945 41.3255C90.7982 40.8824 90.678 40.2563 90.5988 39.817C90.4707 39.107 90.4093 38.3898 90.3047 37.6758" stroke="black" stroke-linecap="round"/>
<path d="M90.23 36.4255C90.1759 35.7586 90.0922 33.5912 91.1435 33.518C91.7183 33.478 91.8397 34.0217 92.1225 34.3652C92.252 34.5224 92.2263 34.8407 92.2674 35.0336C92.4051 35.6812 92.5605 36.327 92.7069 36.973" stroke="black" stroke-linecap="round"/>
<path d="M93.0687 38.4672C93.1464 38.6662 93.1446 38.8902 93.2001 39.0981" stroke="black" stroke-linecap="round"/>
<path d="M93.4413 40.0942C93.5063 40.2724 93.5473 40.4796 93.5827 40.6649C93.6676 41.1097 93.8601 41.5181 93.9388 41.9606C94.0598 42.6413 94.3023 43.3718 94.5612 44.0129C95.0859 45.3121 95.3543 46.5836 96.1769 47.7457C96.4557 48.1397 96.7894 48.4983 97.1382 48.832C97.1739 48.8661 97.4844 49.1939 97.4672 49.0072C97.3811 48.0708 96.8454 47.0631 96.5373 46.1854C96.0979 44.9336 95.5699 43.569 95.4451 42.2423C95.3202 40.9137 95.3749 39.6227 95.5139 38.2955" stroke="black" stroke-linecap="round"/>
<path d="M95.9589 37.1902C96.6281 36.9505 96.9023 37.2801 97.0722 37.9166C97.5619 39.7516 98.145 41.6942 98.2989 43.5907C98.3413 44.1138 98.5177 44.6198 98.5438 45.145C98.5728 45.727 98.6717 46.3548 98.7661 46.9327C98.9214 47.884 99.1945 48.8331 99.4428 49.7631C99.6573 50.5671 99.9787 49.1769 99.9917 48.8603C100.026 48.0314 99.9153 47.1824 99.8804 46.3537C99.8234 45.0035 99.9104 43.3847 100.4 42.1104C100.529 41.7757 100.724 41.6201 100.967 41.3754C101.149 41.1925 101.672 41.3024 101.804 41.505C102.231 42.1606 102.065 42.9019 102.018 43.675" stroke="black" stroke-linecap="round"/>
<path d="M102.092 45.2461C102.143 45.7511 102.147 46.2564 102.188 46.7619" stroke="black" stroke-linecap="round"/>
<path d="M102.296 48.0897C102.179 48.5095 102.382 49.145 102.441 49.5644C102.542 50.2858 102.834 51.0863 102.789 51.8201C102.769 52.1477 102.909 51.8436 102.952 51.7178C103.083 51.3316 103.187 50.8961 103.252 50.4936C103.409 49.5197 103.455 48.52 103.573 47.5405C103.689 46.5842 103.847 45.4379 104.863 45.0272C105.806 44.6465 105.897 46.4936 105.937 47.022C106.038 48.3634 106.059 49.7164 106.079 51.0572C106.088 51.7259 106.198 52.4041 106.294 53.0667C106.395 53.7651 106.354 54.509 106.602 55.1816C106.956 56.1438 107.133 57.1269 107.542 58.0858C107.975 59.104 108.399 60.0956 109.004 61.0291C109.242 61.3965 109.551 61.71 109.779 62.083C109.881 62.251 110.004 62.4672 110.13 62.6099" stroke="black" stroke-linecap="round"/>
<path d="M110.581 63.883C110.556 63.4404 110.439 63.0135 110.408 62.5681C110.366 61.9869 110.422 61.4169 110.427 60.8349C110.429 60.6281 110.379 60.1343 110.666 60.4636C111.341 61.2383 111.972 62.0196 112.73 62.7286C113.338 63.2973 113.925 63.9451 114.451 64.5773C114.982 65.215 115.635 65.7475 116.119 66.4333C116.351 66.7613 116.621 67.0993 116.812 67.4508C116.856 67.5312 117.161 67.96 117.166 67.9358C117.279 67.4276 117.044 66.8429 116.936 66.3552C116.802 65.7551 116.634 65.1536 116.49 64.5559C116.453 64.4051 116.383 64.0679 116.517 64.3815C116.806 65.0596 117.395 65.6548 117.948 66.1171C119.479 67.3961 120.928 68.8202 122.249 70.3137" stroke="black" stroke-linecap="round"/>
<path d="M123.088 71.1009C124.63 72.383 126.202 73.9218 127.216 75.6843C127.534 76.2368 127.832 76.9235 127.937 77.5622C127.98 77.8242 127.728 78.3406 127.654 78.5935C127.494 79.143 127.381 79.7043 127.237 80.2594C127.005 81.1506 126.929 82.1167 126.842 83.0297C126.803 83.4416 126.678 83.9581 126.771 84.3676C126.886 84.8743 126.827 85.4678 126.905 85.9947C127.073 87.1418 127.326 88.156 127.721 89.2415C127.862 89.6303 127.991 90.0152 128.025 90.4271" stroke="black" stroke-linecap="round"/>
<path d="M127.029 85.8109C128.275 86.3123 129.03 87.537 129.923 88.4668C130.165 88.719 130.375 89.0331 130.634 89.2637C130.772 89.3861 130.846 89.5667 131.013 89.634" stroke="black" stroke-linecap="round"/>
<path d="M137.077 96.1686C137.753 95.9265 138.67 95.9146 139.366 95.967C140.646 96.0633 141.96 96.1196 143.216 96.4044C144.558 96.7087 145.943 96.7244 147.299 96.9357C148.571 97.1338 149.858 97.2436 151.126 97.4777C152.46 97.7238 153.686 98.1175 154.938 98.6215C155.68 98.9201 156.373 99.3454 157.115 99.6441C157.502 99.8001 158.013 99.8967 158.433 99.8273C158.661 99.7894 158.888 99.6524 159.1 99.5643C159.426 99.4286 159.759 99.356 160.093 99.2533C160.797 99.0373 161.672 99.1124 162.395 99.1546C163.533 99.2208 164.673 99.419 165.761 99.7577C166.708 100.052 167.646 100.371 168.589 100.676C169.166 100.863 169.729 101.194 170.327 101.3C170.702 101.366 171.38 101.648 171.329 101.02C171.266 100.246 170.412 99.8624 169.817 99.5076C169.308 99.2043 168.769 98.9544 168.266 98.642C167.88 98.4021 167.411 98.1369 166.97 98.0336C165.946 97.7938 164.967 97.3173 163.954 97.0284C163.826 96.9919 163.438 96.9197 163.571 96.9149C164.609 96.878 165.584 96.9595 166.596 97.2103C167.972 97.5512 169.373 97.864 170.788 97.997C171.099 98.0262 172.437 98.398 171.785 97.6496C171.228 97.0095 170.339 96.5385 169.527 96.339C168.892 96.1833 168.227 96.0942 167.604 95.9068C167.063 95.7443 166.538 95.5534 165.981 95.449" stroke="black" stroke-linecap="round"/>
<path d="M164.905 95.2111C164.802 95.1813 163.673 95.0241 163.688 94.987C163.718 94.9115 164.393 94.874 164.478 94.863C165.027 94.7923 165.574 94.8196 166.124 94.839C166.963 94.8685 167.766 95.0086 168.597 95.0832C169.161 95.1338 169.746 95.0922 170.312 95.0817C170.536 95.0776 172.268 95.0908 171.76 94.5035C171.259 93.9241 170.538 93.9159 169.846 93.733C169.35 93.6019 168.845 93.4822 168.339 93.3923C167.741 93.2861 167.133 93.0944 166.529 93.0379C165.208 92.9145 163.819 92.7608 162.493 92.8268C162.221 92.8403 161.951 92.8669 161.685 92.9003C161.546 92.9176 161.705 92.888 161.801 92.8276C162.29 92.5174 162.813 92.3667 163.372 92.2259C164.54 91.9315 165.704 91.8655 166.892 91.7031C167.902 91.565 168.903 91.3897 169.905 91.2012C170.471 91.0947 170.995 90.8994 171.493 90.6116C171.694 90.4956 171.956 90.34 171.989 90.0813C172.022 89.8161 171.824 89.646 171.6 89.5562C171.423 89.4848 171.256 89.4729 171.065 89.4653C170.564 89.4454 170.07 89.3604 169.57 89.3359C168.383 89.2774 167.19 89.1577 166 89.1604C164.511 89.1636 163.024 89.2265 161.535 89.2427C160.73 89.2515 159.971 89.4193 159.198 89.6152C158.885 89.6948 158.688 89.8211 158.411 89.9388C158.255 90.0053 158.09 90.1222 157.944 90.2116C157.758 90.3251 157.53 90.5125 157.89 90.4181C159.489 89.9991 161.16 89.4407 162.586 88.5917C162.786 88.4727 163.131 88.2964 163.025 88.0197C162.897 87.6848 162.652 87.4227 162.267 87.3891C161.589 87.3297 160.838 87.5205 160.166 87.6013C159.269 87.7093 158.421 88.0228 157.552 88.2471" stroke="black" stroke-linecap="round"/>
<path d="M156.466 88.6401C155.39 89.0982 154.27 89.4848 153.182 89.8822C153.05 89.9303 153.327 89.795 153.381 89.7531C153.717 89.4902 154.065 89.2345 154.386 88.9534C154.812 88.5803 155.187 88.2201 155.343 87.6755C155.606 86.7531 153.706 87.6333 153.412 87.7283C151.951 88.1994 150.331 88.5682 148.991 89.337C148.816 89.4371 148.362 89.7935 148.455 89.6153C148.57 89.3963 148.923 89.19 149.11 89.0214C149.581 88.5956 150.1 88.2937 150.542 87.8291C150.65 87.7151 151.07 87.2232 150.828 87.0573C150.546 86.864 150.072 87.1159 149.792 87.1854C148.927 87.4001 148.069 87.6384 147.208 87.8681C146.336 88.101 145.549 88.4933 144.712 88.8193C144.186 89.0241 143.696 89.2755 143.182 89.4945C142.815 89.6507 143.439 89.2643 143.528 89.1999C144.005 88.8552 144.52 88.425 144.762 87.8736C144.894 87.5732 145.186 87.2156 144.991 86.8806C144.813 86.5757 143.961 87.037 143.781 87.1153C142.788 87.5478 141.852 88.1023 140.887 88.59C140.428 88.8219 140.012 89.1135 139.602 89.4101C139.573 89.4313 139.358 89.5448 139.361 89.5381C139.391 89.4638 139.584 89.3656 139.64 89.3167C139.804 89.1738 139.968 89.0289 140.114 88.8673C140.513 88.4251 140.896 88.0591 141.108 87.4881C141.185 87.2822 141.077 86.9084 140.796 86.9962C139.818 87.3021 138.79 87.6359 137.939 88.2307C137.406 88.6033 136.672 88.8061 136.067 89.0263C135.582 89.2029 135.097 89.3525 134.623 89.5545C134.088 89.7824 133.165 89.9778 132.585 89.9276C132.307 89.9037 132.021 89.8717 131.741 89.8945C131.533 89.9114 131.299 89.8645 131.101 89.9057" stroke="black" stroke-linecap="round"/>
<path d="M133.117 93.6626C133.494 93.8778 133.82 94.1722 134.192 94.3975C134.809 94.7711 135.397 95.1782 136.01 95.5568C136.879 96.0936 137.831 96.6681 138.554 97.4011C138.912 97.7646 139.278 98.2066 139.064 98.7362C138.976 98.9549 138.878 99.0659 138.996 99.2689C139.216 99.6459 139.592 99.9743 139.847 100.336C140.127 100.734 140.395 101.318 140.38 101.806C140.361 102.48 139.566 103.269 139.854 103.946" stroke="black" stroke-linecap="round"/>
<path d="M139.853 104.364L139.817 104.349" stroke="black" stroke-linecap="round"/>
<path d="M139.825 104.018C139.735 103.97 139.658 103.793 139.589 103.714C139.487 103.596 139.378 103.48 139.278 103.361C139.019 103.05 138.542 102.923 138.205 102.718C137.981 102.581 137.715 102.5 137.473 102.402C137.178 102.283 136.921 102.087 136.622 101.976C136.404 101.895 136.954 102.319 137.169 102.405" stroke="black" stroke-linecap="round"/>
<path d="M136.499 102.512C136.377 102.479 136.104 102.609 135.986 102.642C135.626 102.743 135.268 102.837 134.897 102.889C134.253 102.981 133.603 102.875 132.959 102.842C132.337 102.809 131.681 102.668 131.076 102.525C130.552 102.401 130.008 102.348 129.486 102.232C128.536 102.019 127.431 102.03 126.469 102.177C126.078 102.236 125.643 102.265 125.248 102.248C124.915 102.233 124.524 102.245 124.213 102.377" stroke="black" stroke-linecap="round"/>
<path d="M108.831 172.87C109.13 172.795 109.599 173.035 109.859 173.14C110.968 173.586 112.051 174.094 113.161 174.541C115.403 175.443 117.767 176.084 119.891 177.25" stroke="black" stroke-linecap="round"/>
<path d="M113.377 171.242C113.375 171.947 112.93 172.887 112.664 173.548" stroke="black" stroke-linecap="round"/>
<path d="M111.109 169.537C113.556 170.418 115.943 171.519 118.413 172.332" stroke="black" stroke-linecap="round"/>
<path d="M124.521 154.116C127.841 155.452 130.898 157.343 133.904 159.261" stroke="black" stroke-linecap="round"/>
<path d="M130.902 158.485L130.179 160.283" stroke="black" stroke-linecap="round"/>
<path d="M126.804 160.077C128.452 160.741 130.064 161.502 131.637 162.327C132.567 162.815 133.529 163.269 134.418 163.83C134.815 164.082 135.149 164.399 135.567 164.613" stroke="black" stroke-linecap="round"/>
<path d="M133.7 156.009L133.051 157.621" stroke="black" stroke-linecap="round"/>
<path d="M130.788 153.757C132.041 154.261 133.207 155.057 134.415 155.665C135.432 156.177 136.437 156.786 137.382 157.42" stroke="black" stroke-linecap="round"/>
<path d="M73.6672 140.434C73.9718 140.557 74.2104 140.926 74.527 141.074C74.7903 141.198 74.7106 141.296 74.5361 141.019C74.3347 140.699 74.0939 140.488 73.753 140.351C73.5827 140.282 73.494 140.188 73.3291 140.121C73.0451 140.007 73.897 140.35 74.181 140.464C74.7152 140.679 73.9395 140.209 73.8025 140.106C73.5547 139.921 73.4105 139.743 73.123 139.627C72.8691 139.525 73.62 139.869 73.8313 140.043C74.1139 140.275 75.1 140.76 74.7553 140.637C74.2688 140.462 73.8072 140.176 73.4502 139.804C73.3076 139.656 73.1395 139.516 72.9501 139.44C72.909 139.423 72.6876 139.334 72.8488 139.399C73.1589 139.524 73.4718 139.643 73.7784 139.776C74.3433 140.022 74.9249 140.283 75.4635 140.582C75.6058 140.661 75.6784 140.797 75.809 140.884C76.031 141.033 76.1569 141.245 76.3611 141.404C76.3935 141.429 76.3592 141.537 76.3226 141.549C76.138 141.606 75.6728 141.161 75.53 141.066C75.1458 140.81 74.8069 140.585 75.2573 141.192C75.5052 141.526 75.7749 141.828 75.9868 142.188C76.0483 142.292 76.3306 142.633 76.0515 142.465C75.7942 142.311 75.6664 142.003 75.3559 141.937C75.0894 141.881 75.4048 142.67 75.4448 142.731C75.5956 142.962 75.5498 142.76 75.5267 142.6C75.4696 142.205 75.3812 141.826 75.2522 141.448C75.1555 141.164 75.0817 140.845 74.9648 140.571C74.9117 140.446 74.9553 140.844 74.9775 140.978C75.0132 141.193 75.0738 141.407 75.1021 141.626C75.1221 141.78 75.2175 141.922 75.2081 142.077C75.2043 142.139 74.709 141.484 74.9995 141.702C75.6448 142.187 76.2233 142.91 76.6874 143.564C76.8403 143.78 77.0358 143.023 77.0919 142.884C77.2652 142.454 77.442 143.319 77.4856 143.513C77.5033 143.592 77.5888 143.806 77.5307 143.75C77.3633 143.59 77.2192 143.292 77.0768 143.1C77.0018 143 76.8004 142.348 76.6759 142.383C76.3665 142.472 76.3011 143.22 76.2092 143.47C76.1097 143.741 75.9116 144.583 76.0194 144.315C76.1393 144.017 76.0078 143.581 76.0605 143.263C76.0788 143.152 76.0269 143.485 76.0209 143.597C76.0041 143.912 76.0501 144.208 76.1157 144.514C76.1834 144.829 76.2976 145.176 76.3072 145.499C76.3091 145.562 76.3866 146.097 76.4594 145.917C76.6848 145.356 76.8571 144.794 76.9978 144.206C77.0138 144.139 77.2521 143.095 77.375 143.122C77.5445 143.16 77.4171 143.979 77.4141 144.072C77.3906 144.787 77.425 145.496 77.4325 146.21C77.4341 146.36 77.4403 146.507 77.4524 146.656C77.4524 146.657 77.4749 146.878 77.4845 146.868C77.6254 146.721 77.6296 146.312 77.6702 146.123C77.7325 145.832 77.8391 145.554 77.8747 145.258C77.9002 145.045 77.9418 145.159 77.9545 145.303C77.9768 145.553 78.0227 145.811 78.0148 146.062C78.0111 146.18 77.9714 146.393 78.0195 146.505C78.0689 146.621 78.039 146.631 78.011 146.77C77.9369 147.136 77.9208 147.496 77.8223 147.864C77.7998 147.948 77.5562 149.23 77.441 149.03C77.1149 148.463 77.1852 147.69 77.0941 147.067C77.0012 146.433 76.5159 147.676 76.4632 147.807C76.3194 148.164 76.1716 148.514 76.1096 148.896C76.0636 149.18 76.2027 148.746 76.2249 148.691C76.5777 147.814 77.0682 146.837 76.9256 145.862C76.9178 145.809 76.965 145.555 76.8482 145.714C76.624 146.019 76.4726 146.434 76.3506 146.788C76.2079 147.201 76.1477 147.639 76.0765 148.069C76.0466 148.25 76.1831 147.7 76.1878 147.63C76.1903 147.593 76.2202 147.005 76.2072 147.217C76.181 147.647 76.1124 148.064 76.1003 148.497C76.0834 149.108 76.0271 149.74 76.0761 150.343C76.0959 150.587 76.2373 150.74 76.4441 150.89C76.6577 151.045 76.9558 149.79 76.9826 149.649C77.0205 149.451 77.0031 149.241 77.0785 149.054C77.1179 148.956 76.9833 149.299 76.9737 149.339C76.8625 149.798 76.7084 150.702 77.0431 151.115C77.2649 151.388 77.6427 150.553 77.694 150.439C77.9513 149.866 78.0443 149.193 77.8697 148.582C77.6455 147.797 78.3407 150.151 78.6932 150.887C78.709 150.92 78.8615 151.255 78.8223 151.053C78.7526 150.694 78.8193 150.34 78.8371 149.978C78.8558 149.593 78.8423 149.237 78.8113 148.856C78.7992 148.706 78.7542 148.464 78.7866 148.317C78.825 148.143 78.6741 148.027 78.568 147.902C78.4392 147.751 78.2223 147.45 78.0243 147.37C77.9532 147.341 77.6823 147.743 77.6429 147.798C77.4015 148.133 77.2811 148.551 77.1283 148.93C77.0791 149.053 76.8149 149.492 76.905 149.631C77.0432 149.845 77.0767 150.149 77.1944 150.381C77.3704 150.729 77.5784 150.982 77.7253 151.327C77.8659 151.657 78.1358 151.951 78.2726 152.273C78.2744 152.277 78.1247 152.151 78.1058 152.127C78.0041 151.997 77.9899 151.821 77.9035 151.68C77.8207 151.544 77.7477 151.349 77.5847 151.303C77.3599 151.24 77.3134 151.562 77.3711 151.688C77.4613 151.884 77.5656 151.951 77.7152 152.091C77.9545 152.314 78.2781 152.451 78.4946 152.695C78.5696 152.78 78.758 152.929 78.8513 152.986C79.1235 153.152 79.2069 151.759 79.1731 151.537C79.1346 151.285 79.0499 150.522 79.0706 150.777C79.0896 151.012 79.1745 151.254 79.2509 151.474C79.3063 151.634 79.5257 152.081 79.4136 151.954C79.2451 151.764 78.5936 150.98 78.33 151.237C78.1289 151.434 78.3396 151.825 78.4465 152.003C78.5249 152.134 79.1828 153.262 79.3121 152.848C79.4622 152.367 79.2262 151.861 79.1728 151.384C79.1439 151.125 79.2318 151.005 79.4029 151.186C79.6099 151.404 79.6545 151.743 79.7675 152.009C79.8665 152.241 79.932 152.432 80.0763 152.646C80.2095 152.843 80.4753 153.154 80.6918 153.26C80.7765 153.301 80.7643 153.373 80.8322 153.43C81.0285 153.597 80.3834 153.176 80.1677 153.036C79.8484 152.827 79.4866 152.452 79.0926 152.557C78.9889 152.585 78.8217 152.9 78.8744 153.002C79.1491 153.53 79.4206 153.881 79.9852 154.155C80.45 154.38 80.8035 154.716 81.2938 154.913C81.5555 155.019 81.8619 155.098 82.0991 155.251C82.2247 155.331 82.2641 155.373 82.1019 155.268C81.8511 155.106 81.7013 154.809 81.5039 154.586C81.1706 154.21 80.932 153.752 80.5615 153.413C80.3313 153.202 80.2993 153.211 80.0325 153.112C79.9469 153.08 79.8077 153.044 79.7797 153.164C79.7278 153.385 79.8838 153.397 80.0474 153.497C80.3659 153.692 80.6415 153.886 80.9907 154.027C81.1912 154.108 81.4704 154.288 81.6926 154.296C81.7647 154.299 81.5382 153.89 81.5101 153.824C81.4664 153.722 81.4681 153.653 81.3778 153.568C81.2795 153.476 80.8902 153.339 81.0152 153.39C81.2811 153.497 81.5064 153.848 81.7089 154.045C81.9065 154.237 82.2151 154.343 82.4661 154.444C82.6998 154.538 82.9008 154.678 83.1347 154.772C83.4527 154.9 83.7931 155.001 84.0748 155.196C84.5007 155.492 85.0412 155.716 85.5254 155.911C85.8787 156.053 86.2321 156.195 86.5854 156.338C87.3436 156.643 88.1868 157.225 89.0131 157.312C89.0554 157.316 89.1273 157.292 89.0334 157.277C88.7518 157.232 88.4857 157.108 88.2145 157.023C87.8474 156.907 87.4072 156.616 87.0222 156.576C86.8388 156.556 86.6268 156.566 86.4438 156.519C86.1881 156.454 85.8645 156.508 85.6267 156.422C85.4169 156.346 85.2058 156.37 84.9955 156.286C84.7068 156.17 84.4182 156.053 84.1295 155.937C83.6571 155.747 83.1847 155.557 82.7124 155.367C82.4734 155.271 82.2678 155.129 82.027 155.032C81.574 154.85 82.9467 155.361 83.4043 155.531C84.2882 155.86 85.1312 156.247 86.034 156.514C86.7074 156.714 87.5658 156.976 88.2714 156.987C88.4466 156.99 89.169 157.375 89.3037 157.255" stroke="#2E3192" stroke-linecap="round"/>
<path d="M87.483 137.232C87.3901 137.206 87.1653 137.274 87.0888 137.335C87.0268 137.384 86.9971 137.42 86.9404 137.484C86.8528 137.583 86.6888 137.527 86.6238 137.621C86.5579 137.718 86.2202 137.785 86.0999 137.819C85.8625 137.887 86.1803 137.685 86.25 137.657C86.409 137.594 86.5764 137.547 86.7367 137.487C86.8936 137.428 87.1043 137.307 87.2757 137.325C87.4143 137.34 87.7576 137.323 87.8629 137.238C87.9868 137.138 87.9273 137.137 87.7921 137.187C87.5225 137.285 87.2533 137.387 86.977 137.466C86.7878 137.521 86.526 137.493 86.3801 137.634C86.3222 137.691 86.1389 137.747 86.0584 137.776C85.5828 137.947 85.1564 138.275 84.7593 138.56C84.3922 138.824 84.1325 139.224 83.7769 139.459C83.6916 139.515 83.6877 139.666 83.5928 139.737C83.4846 139.818 83.3476 139.936 83.287 140.059C83.2026 140.229 83.0314 140.313 82.9125 140.437C82.6585 140.703 82.2528 140.905 82.1048 141.243C82.0281 141.417 81.7979 141.523 81.6923 141.691C81.5727 141.881 81.4156 142.047 81.296 142.237C81.1875 142.409 81.0948 142.583 80.9679 142.752C80.8992 142.844 80.7554 142.889 80.7034 142.979C80.6827 143.015 80.6379 143.216 80.6187 143.108C80.5636 142.798 80.7359 142.458 80.6608 142.135C80.6222 141.969 80.7342 141.669 80.7686 141.502C80.89 140.912 81.3111 140.425 81.696 139.993C81.8596 139.81 82.0033 139.523 82.2045 139.388C82.4264 139.239 82.7148 139.16 82.9505 139.028C83.3397 138.81 83.764 138.588 84.1709 138.415C84.2399 138.385 84.298 138.314 84.3671 138.285C84.4316 138.257 84.5595 138.121 84.5552 138.191C84.5478 138.312 84.3705 138.439 84.2956 138.511C84.0378 138.757 83.773 138.994 83.5083 139.233C83.1864 139.523 82.8714 139.838 82.5709 140.149C82.4465 140.279 82.2933 140.847 82.1304 140.854C82.0076 140.86 81.5754 141.122 81.7058 140.951C81.8109 140.813 81.8456 140.62 81.9949 140.525C82.1018 140.457 82.2002 140.421 82.2486 140.301" stroke="#006837" stroke-linecap="round"/>
<path d="M95.3096 144.088C95.0785 144.234 94.9331 144.151 94.6792 144.128C94.1119 144.076 93.5371 143.984 92.9879 143.833C92.5755 143.72 91.9798 143.38 91.552 143.601C90.9207 143.927 90.2661 143.888 89.6037 144.026C89.5397 144.039 89.0514 144.099 89.3548 144.043C89.7305 143.974 90.1444 144.018 90.5245 144.011C92.5359 143.974 94.543 144.119 96.5176 144.561C96.8655 144.639 97.3026 144.701 97.6588 144.68C97.938 144.664 98.3101 144.832 98.5704 144.753C98.7423 144.702 98.9377 144.825 99.1106 144.84C99.3411 144.86 99.5561 144.856 99.7745 144.944C100.189 145.111 100.609 145.331 101.053 145.387C101.246 145.411 101.374 145.353 101.577 145.434C101.636 145.458 101.829 145.447 101.767 145.465C101.571 145.521 101.258 145.294 101.074 145.238C100.201 144.976 99.3506 144.715 98.5015 144.373C97.9407 144.147 97.3291 143.894 96.7417 143.753C96.6296 143.726 96.2906 143.675 96.4058 143.67C96.8281 143.651 97.2409 143.603 97.6632 143.663C97.7337 143.673 98.3456 143.786 98.2218 143.826C97.676 144.002 96.9243 143.905 96.3598 143.89C95.7681 143.873 95.1822 143.796 94.5916 143.769C94.3745 143.76 94.1504 143.824 93.9306 143.837C92.9997 143.89 92.0599 144.009 91.1288 144.084C90.7011 144.119 89.4341 144.137 89.8508 144.24C90.4617 144.39 91.218 144.268 91.8421 144.26C92.2296 144.255 92.7797 144.433 93.1506 144.313C93.6573 144.15 92.0844 144.675 91.5697 144.539C91.4373 144.504 91.8387 144.486 91.9751 144.474C92.3708 144.439 92.7727 144.453 93.1689 144.471C93.6671 144.494 94.1724 144.596 94.6714 144.569C95.0927 144.547 96.0357 144.027 95.2407 143.707C94.7627 143.515 94.3139 143.385 93.7972 143.332C93.48 143.299 93.1625 143.263 92.8445 143.239C92.7052 143.229 92.3593 143.304 92.4293 143.183C92.5174 143.031 93.1704 143.009 93.3021 142.995C93.754 142.949 94.2556 142.874 94.7076 142.937C94.8144 142.952 94.9043 142.984 95.0029 143.023C95.1671 143.089 95.399 143.017 95.5792 143.053C95.5935 143.056 95.9929 143.172 95.969 143.197C95.7356 143.434 95.3533 143.411 95.0544 143.423C94.1018 143.46 93.2004 143.02 92.2614 142.991C91.8741 142.98 91.4832 142.926 91.0931 142.907C90.8643 142.895 90.5099 143.062 90.2911 143.146C89.9822 143.264 89.4883 143.192 89.1529 143.23C88.8364 143.266 88.503 143.363 88.2135 143.486C88.0746 143.545 87.8701 143.632 87.7167 143.632C87.4985 143.633 87.2909 143.722 87.0725 143.772C86.9079 143.809 86.7214 143.788 86.5647 143.848C86.4651 143.886 86.3913 143.958 86.2818 143.983C85.5506 144.148 85.0259 144.755 84.3681 145.035C84.0716 145.162 83.8453 145.405 83.5476 145.515C83.177 145.653 83.9547 145.228 84.0188 145.189C84.3545 144.987 84.7176 144.792 85.0344 144.565C85.3306 144.353 85.822 144.315 86.1737 144.292C86.5221 144.269 86.8626 144.291 87.21 144.242C87.4273 144.211 87.6987 144.147 87.9187 144.178C88.4143 144.246 88.9708 144.042 89.4842 144.095C89.5895 144.106 89.6113 143.992 89.6735 143.998C89.756 144.007 89.8258 144.061 89.7172 144.101C89.5519 144.161 89.4601 144.24 89.2677 144.276C89.0863 144.31 88.9077 144.308 88.7367 144.353C88.3081 144.468 87.846 144.429 87.4138 144.474C87.1318 144.504 86.9018 144.457 86.6398 144.506C86.5274 144.527 86.3924 144.481 86.2836 144.457C86.101 144.417 85.8303 144.553 85.6406 144.577C85.407 144.608 85.1993 144.642 84.9898 144.668C84.9438 144.674 84.7112 144.806 84.753 144.834C84.993 144.999 85.6499 144.649 85.9091 144.568C86.2908 144.448 86.6375 144.386 87.022 144.222" stroke="#FBB03B" stroke-linecap="round"/>
<path d="M93.3841 149.017C93.6685 149.132 93.8516 149.263 93.4085 149.217C92.7948 149.152 92.2279 148.669 91.6244 148.633C91.4065 148.619 91.1239 148.578 90.9211 148.496C90.8253 148.458 90.7142 148.467 90.6144 148.487C90.4499 148.522 90.9407 148.543 90.9644 148.543C91.1648 148.543 92.1649 148.786 92.291 148.519C92.4939 148.089 90.1479 147.303 89.7084 147.126C89.4951 147.04 89.1181 147.133 88.8955 147.165C88.5602 147.213 88.1013 147.469 87.7682 147.401C87.5178 147.349 87.1442 147.327 86.897 147.373C86.5542 147.437 86.1245 147.288 85.7892 147.431C85.5199 147.545 85.1141 147.441 84.8568 147.572C84.5906 147.707 85.4542 147.581 85.7517 147.605C86.0578 147.63 86.423 147.603 86.714 147.682C86.8735 147.725 87.0335 147.636 87.1941 147.65C87.3868 147.666 87.5235 147.692 87.7249 147.654C87.9151 147.619 88.1368 147.791 88.3432 147.782C88.5117 147.775 88.7127 147.791 88.8693 147.847C89.2549 147.985 89.6854 147.94 90.0783 148.098C90.2654 148.174 90.6952 148.345 90.843 148.171" stroke="#FF0000" stroke-linecap="round"/>
</g>
<rect x="64.8592" y="2.08983" width="170.502" height="170.502" rx="85.2511" transform="rotate(21.6012 64.8592 2.08983)" stroke="black" stroke-width="2"/>
<defs>
<clipPath id="clip0_222_756">
<rect x="64.2975" y="0.79192" width="172.502" height="172.502" rx="86.2511" transform="rotate(21.6012 64.2975 0.79192)" fill="white"/>
</clipPath>
</defs>
</svg>
