<svg width="174" height="174" viewBox="0 0 174 174" fill="none" xmlns="http://www.w3.org/2000/svg">
<rect x="2.51412" y="3.46297" width="167.502" height="167.502" rx="83.7511" transform="rotate(-0.324578 2.51412 3.46297)" stroke="#6C9EFE" stroke-width="5"/>
<path d="M26.8668 83.9836L22.3324 55.1378L25.9282 54.5725L45.2426 75.9526L45.3216 75.9402L41.5761 52.1128L44.7373 51.6159L49.2717 80.4616L45.7153 81.0207L26.3615 59.6468L26.2824 59.6592L30.028 83.4866L26.8668 83.9836ZM131.697 67.5049L127.616 41.5437L117.263 43.1711L116.809 40.2865L140.795 36.5162L141.248 39.4008L130.895 41.0282L134.976 66.9894L131.697 67.5049ZM36.9346 141.113L32.4002 112.267L40.2637 111.031C44.5313 110.36 47.7841 110.618 50.0223 111.805C52.2867 112.988 53.6695 115.173 54.1705 118.361C54.6675 121.522 54.0481 124.022 52.3126 125.86C50.6034 127.694 47.694 128.935 43.5844 129.581L36.9064 130.63L36.4468 127.706L42.8087 126.706C46.0225 126.201 48.2621 125.336 49.5272 124.111C50.8188 122.883 51.2865 121.136 50.9303 118.87C50.5783 116.631 49.5992 115.125 47.993 114.351C46.409 113.548 44.01 113.398 40.7962 113.903L36.0149 114.655L40.0958 140.616L36.9346 141.113ZM140.044 125.31C136.382 125.886 133.455 125.468 131.263 124.058C129.093 122.618 127.747 120.238 127.225 116.919L124.225 97.8331L127.386 97.3361L130.306 115.908C130.724 118.569 131.691 120.428 133.207 121.485C134.723 122.543 136.851 122.856 139.59 122.425C142.33 121.995 144.246 121.046 145.338 119.578C146.456 118.107 146.807 116.041 146.388 113.38L143.469 94.8081L146.63 94.3111L149.63 113.397C150.152 116.716 149.601 119.394 147.978 121.431C146.35 123.441 143.706 124.734 140.044 125.31Z" fill="black" fill-opacity="0.1"/>
<path d="M58.5109 127.029C58.8593 126.68 59.6064 126.762 60.0505 126.768C60.8228 126.777 61.5591 126.939 62.3142 127.086C63.1463 127.249 63.9545 127.478 64.7187 127.852C65.2703 128.122 65.6888 128.418 66.1714 128.796C67.1821 129.587 67.7767 130.907 68.3896 132.007C69.1774 133.422 70.252 134.604 71.5494 135.577C72.827 136.535 74.6657 137.008 76.2405 137.083C77.3137 137.134 78.4002 137.104 79.4727 137.087C80.3451 137.074 81.2135 137.122 82.0861 137.122C82.7613 137.122 83.4354 137.085 84.112 137.085C84.3458 137.085 84.5761 137.122 84.8072 137.122C84.862 137.122 85.0879 137.116 84.9355 137.199C84.4069 137.487 83.8538 137.681 83.2656 137.847C82.5754 138.041 81.8346 138.225 81.1239 138.323C80.7247 138.377 80.3248 138.522 79.93 138.61C79.4281 138.722 78.9053 138.728 78.4049 138.844C77.5757 139.036 76.6648 139.134 75.8142 139.134C74.8287 139.134 73.8059 139.08 72.8344 138.919C70.2419 138.486 67.3865 137.806 66.2397 135.15C65.9428 134.463 65.9378 133.705 65.6975 133.005C65.5202 132.488 65.2218 132.049 65.0105 131.556C64.6454 130.704 63.9784 130.092 63.2599 129.543C62.9099 129.275 62.5277 129.068 62.1446 128.854C61.7366 128.625 61.2805 128.36 60.8409 128.202C60.0634 127.922 59.3851 127.406 58.5854 127.177" stroke="#2E3192" stroke-linecap="round"/>
<path d="M72.404 131.647C72.404 131.333 73.5361 131.038 73.7863 130.94C74.5929 130.623 75.4593 130.41 76.2984 130.197C77.1843 129.972 78.0872 129.814 78.9739 129.582C79.3738 129.477 79.7842 129.389 80.1886 129.303C80.66 129.202 81.1504 129.232 81.6247 129.152C83.0508 128.91 84.4019 129.045 85.8129 129.28C86.1023 129.328 86.4334 129.412 86.7254 129.412C86.8458 129.412 86.7018 129.293 86.6675 129.263C86.4883 129.107 86.1596 128.999 85.9432 128.893C85.5338 128.693 85.113 128.559 84.6872 128.407C83.9407 128.139 83.1339 127.901 82.3531 127.774C80.8202 127.522 79.1754 127.311 77.6517 127.765C76.2402 128.186 74.8576 128.81 73.7863 129.839C73.3133 130.293 72.6211 130.772 72.404 131.424" stroke="#FF0000" stroke-linecap="round"/>
<path d="M70.1114 132.628L70.1648 132.521" stroke="black" stroke-linecap="round"/>
<path d="M70.2982 132.281C70.3357 132.235 70.3551 132.175 70.3783 132.121" stroke="black" stroke-linecap="round"/>
<path d="M70.7518 131.614C70.9505 131.415 71.1061 131.166 71.3003 130.96C71.4537 130.798 71.5609 130.621 71.6976 130.446C71.8701 130.225 72.0791 130.031 72.258 129.814C72.8911 129.048 73.7269 128.342 74.5898 127.843C76.6015 126.68 78.7764 125.765 80.933 124.911C82.2209 124.401 83.5426 123.981 84.854 123.544C85.86 123.208 86.8674 122.787 87.9255 122.648C88.3067 122.599 88.6865 122.552 89.0685 122.509C89.4426 122.467 89.8608 122.438 90.2188 122.328C90.3595 122.285 90.504 122.312 90.6487 122.296C90.803 122.278 90.9515 122.224 91.1053 122.201C91.4184 122.154 91.7278 122.115 92.0452 122.115" stroke="#FBB03B" stroke-linecap="round"/>
<path d="M92.4988 122.088C92.6635 122.088 92.8364 122.073 92.9998 122.055C93.1526 122.039 92.914 121.944 92.8783 121.934C92.7155 121.887 92.5415 121.907 92.3713 121.901C91.991 121.888 91.62 121.777 91.2417 121.735C90.6192 121.666 90.0042 121.539 89.3798 121.48C88.5758 121.404 87.7784 121.346 86.9723 121.308C86.0351 121.264 85.0632 121.434 84.1291 121.507C83.4248 121.562 82.7535 121.682 82.0656 121.827C81.4289 121.961 80.7927 122.094 80.1785 122.313C78.7766 122.814 77.3934 123.32 76.1374 124.141C75.7966 124.364 75.4536 124.579 75.1279 124.823C74.797 125.071 74.5191 125.342 74.2192 125.623C73.5557 126.247 72.9261 126.803 72.5085 127.619C72.3422 127.944 72.0987 128.244 71.9674 128.585C71.8656 128.85 71.7431 129.106 71.6457 129.372C71.4537 129.898 71.2289 130.42 71.0053 130.933C70.8478 131.295 70.6404 131.68 70.5265 132.054C70.4954 132.156 70.429 132.442 70.3249 132.494" stroke="#FBB03B" stroke-linecap="round"/>
<path d="M68.7239 130.493C68.7447 130.285 68.8306 130.083 68.8306 129.868C68.8306 129.634 68.8589 129.403 68.884 129.171C68.9425 128.63 69.0659 128.077 69.1894 127.546C69.3387 126.905 69.5725 126.295 69.7512 125.662C69.9671 124.898 70.26 124.117 70.6184 123.41C70.8591 122.936 71.1273 122.496 71.3907 122.035C71.6507 121.58 72.1205 121.224 72.4655 120.834C72.7055 120.563 72.986 120.307 73.2438 120.05C73.3869 119.907 73.5661 119.737 73.6737 119.566C73.8543 119.28 74.153 119.069 74.3867 118.827C74.4807 118.729 74.5532 118.635 74.6609 118.551C74.7447 118.486 74.6787 118.485 74.6031 118.501C74.4334 118.537 74.2607 118.544 74.0887 118.566C73.579 118.63 73.0578 118.777 72.6137 119.04C71.5359 119.678 70.5863 120.519 69.7052 121.4C69.2349 121.871 68.8511 122.462 68.4837 123.013C68.2377 123.382 67.9249 123.783 67.8018 124.217C67.7337 124.457 67.7355 124.708 67.704 124.952C67.6358 125.481 67.6546 126.07 67.6847 126.598C67.7218 127.247 67.9137 127.816 68.0835 128.439" stroke="#006837" stroke-linecap="round"/>
<path d="M68.2969 128.972C68.351 129.459 68.6654 129.898 68.8039 130.36" stroke="#006837" stroke-linecap="round"/>
<path d="M67.3097 129.079C67.225 128.984 67.1955 128.864 67.1496 128.747C67.055 128.506 66.9399 128.276 66.8412 128.037C66.4857 127.176 66.2511 126.299 66.2142 125.357C66.1851 124.617 66.2042 123.776 66.3965 123.052C66.4567 122.825 66.5063 122.595 66.5892 122.376C66.6106 122.319 66.6344 122.255 66.6515 122.198C66.6538 122.19 66.4738 122.359 66.4499 122.381C65.9645 122.835 65.5834 123.299 65.4552 123.969C65.3866 124.327 65.3638 124.672 65.3885 125.035C65.4183 125.475 65.4651 125.966 65.6049 126.385C65.746 126.809 65.8778 127.248 66.1148 127.629C66.2811 127.897 66.4532 128.161 66.6159 128.43C66.7226 128.606 66.8703 128.755 66.9895 128.925C67.0269 128.978 67.0953 129.052 67.1496 129.079" stroke="#2E3192" stroke-linecap="round"/>
<path d="M55.0146 105.331C54.5914 109.14 53.4512 112.854 52.8213 116.633C51.8477 122.475 50.5948 128.321 49.079 134.04C48.6963 135.483 48.5594 136.968 48.2341 138.421C47.9851 139.533 47.6976 140.609 47.5626 141.746C47.4766 142.471 47.2696 143.212 47.2214 143.934C47.1805 144.548 46.9462 145.121 46.9235 145.732C46.8441 147.877 46.0966 149.954 46.2412 152.123" stroke="#6C9EFE" stroke-width="2" stroke-linecap="round"/>
<path d="M55.0146 105.136C55.1496 105.121 55.3027 105.027 55.4045 104.941C55.822 104.586 56.5608 104.655 57.0671 104.594C59.1344 104.345 61.2103 104.259 63.2952 104.259C69.1422 104.259 74.9692 103.557 80.8043 103.295C85.6775 103.075 90.5518 102.911 95.4159 102.58C98.3177 102.382 101.235 102.114 104.146 102.114" stroke="#6C9EFE" stroke-width="2" stroke-linecap="round"/>
<path d="M103.171 102.406C102.79 102.454 102.497 105.365 102.413 105.775C101.872 108.417 101.92 111.204 101.785 113.888C101.712 115.337 101.731 116.781 101.704 118.231C101.677 119.628 101.427 121.006 101.416 122.401C101.391 125.858 101.267 129.312 101.324 132.772C101.382 136.275 101.733 139.771 101.812 143.273C101.845 144.73 102.167 146.327 101.996 147.785C101.841 149.106 102.001 150.404 102.001 151.733" stroke="#6C9EFE" stroke-width="2" stroke-linecap="round"/>
<path d="M103.756 102.114C106.125 102.114 108.435 102.239 110.78 102.748C113.26 103.285 115.731 103.928 118.221 104.405C120.602 104.861 122.946 105.698 125.332 106.089C125.852 106.174 126.332 106.403 126.86 106.403C127.12 106.403 127.322 106.391 127.542 106.501" stroke="#6C9EFE" stroke-width="2" stroke-linecap="round"/>
<path d="M135.243 152.025C135.243 146.79 133.401 141.771 132.27 136.726C131.742 134.368 131.215 131.969 131.051 129.55C130.895 127.244 129.981 124.996 129.882 122.705C129.653 117.437 127.834 112.358 127.834 107.086" stroke="#6C9EFE" stroke-width="2" stroke-linecap="round"/>
<path d="M101.611 153C101.938 152.964 102.314 152.706 102.651 152.632C104.229 152.286 105.804 152.27 107.406 152.171C111.414 151.924 115.437 151.713 119.451 151.733C122.693 151.749 125.964 151.847 129.205 151.727C131.348 151.648 133.488 151.83 135.633 151.83" stroke="#6C9EFE" stroke-width="2" stroke-linecap="round"/>
<path d="M44.8764 152.415C49.5059 152.415 54.1311 152.22 58.7677 152.22C65.2847 152.22 71.7954 151.971 78.3131 152.025C80.9741 152.047 83.6163 152.401 86.2742 152.415C88.6593 152.428 91.0403 152.318 93.4229 152.318C95.8366 152.318 98.2282 152.513 100.637 152.513" stroke="#6C9EFE" stroke-width="2" stroke-linecap="round"/>
<path d="M49.9455 145.884C52.1341 145.884 54.3356 145.504 56.531 145.494C60.4609 145.476 64.3861 145.689 68.3156 145.689C72.1927 145.689 76.07 145.786 79.9486 145.786C81.8126 145.786 83.6646 145.591 85.5268 145.591" stroke="#6C9EFE" stroke-width="2" stroke-linecap="round"/>
<path d="M74.6086 142.569C74.6779 143.401 74.6086 144.261 74.6086 145.104" stroke="#6C9EFE" stroke-width="2" stroke-linecap="round"/>
<path d="M56.0869 142.959C55.6591 143.441 55.7432 144.442 55.7945 145.006" stroke="#6C9EFE" stroke-width="2" stroke-linecap="round"/>
<path d="M63.8856 114.007C64.6756 114.007 65.4283 113.88 66.2089 113.752C68.799 113.329 71.3856 113.063 74.0021 112.886C79.9289 112.485 85.8169 111.96 91.7657 111.96" stroke="#6C9EFE" stroke-width="2" stroke-linecap="round"/>
<path d="M81.0426 113.227C80.5268 113.872 80.5551 115.381 80.5551 116.151" stroke="#6C9EFE" stroke-width="2" stroke-linecap="round"/>
<path d="M77.7281 117.711C79.1716 117.032 81.1889 117.209 82.7485 117.034C85.4437 116.732 88.1808 116.834 90.8884 116.834" stroke="#6C9EFE" stroke-width="2" stroke-linecap="round"/>
<path d="M86.4041 117.321V117.419" stroke="#6C9EFE" stroke-width="2" stroke-linecap="round"/>
<path d="M86.3066 118.296C86.3066 118.544 86.2568 118.74 86.2092 118.978" stroke="#6C9EFE" stroke-width="2" stroke-linecap="round"/>
<path d="M78.0615 83.9456C77.9696 84.7729 76.6148 85.4111 75.974 85.7916C74.5797 86.6195 73.0131 87.1548 71.383 87.1548C71.2401 87.1548 70.8675 87.1593 70.759 87.0508C70.7038 86.9957 72.1453 86.8874 72.2448 86.8874" stroke="#6C9EFE" stroke-width="2" stroke-linecap="round"/>
<path d="M70.707 87.9572C72.593 87.9572 74.3717 89.0147 75.3723 90.587C75.6387 91.0057 75.658 90.9573 76.1003 91.0475C77.1945 91.2709 78.172 91.7449 78.9641 92.537C79.791 93.3639 80.2876 94.3727 80.7062 95.4491C81.1658 96.6309 81.6793 97.8985 81.7351 99.1821C81.7881 100.403 80.8682 101.633 79.9967 102.395C79.556 102.781 79.0086 103.056 78.5964 103.469" stroke="#6C9EFE" stroke-width="2" stroke-linecap="round"/>
<path d="M85.5498 93.239C85.6052 93.7372 86.0419 94.3647 86.237 94.8176C86.5479 95.5398 86.9349 96.22 87.251 96.9386C87.7472 98.0662 88.362 99.2593 89.2122 100.163C89.5797 100.553 90.011 100.814 90.4305 101.128" stroke="#6C9EFE" stroke-width="2" stroke-linecap="round"/>
<path d="M86.6195 89.0269C86.9518 89.3222 87.4381 89.5748 87.8081 89.8292C88.6962 90.4398 89.4237 91.0792 90.5494 91.1998C91.6253 91.3151 92.587 91.3214 93.6398 91.0958C95.0187 90.8003 96.3585 90.8207 97.7628 90.9138C99.2557 91.0127 100.845 91.267 102.294 91.6344C102.868 91.7798 103.909 91.9248 104.237 92.5073C104.527 93.0235 103.918 93.8692 103.75 94.3905C103.606 94.8382 103.468 95.2079 103.468 95.6794C103.468 96.2073 103.268 96.6648 103.268 97.1837C103.268 97.7093 102.875 98.227 102.662 98.6881C102.53 98.9752 102.32 99.2674 102.097 99.4904C101.872 99.7162 101.719 100.088 101.462 100.259" stroke="#6C9EFE" stroke-width="2" stroke-linecap="round"/>
<path d="M101.663 91.4338C101.905 91.4069 102.129 91.0931 102.291 90.9435C102.618 90.6408 102.999 90.3826 103.368 90.1337C104.096 89.6418 104.935 89.3224 105.712 88.9228C106.383 88.5776 105.212 87.9968 104.939 87.8605C104.26 87.5208 103.559 87.184 102.866 86.8873" stroke="#6C9EFE" stroke-width="2" stroke-linecap="round"/>
<path d="M80.201 85.5502C80.2548 85.9802 81.3522 86.5531 81.6534 86.7314C83.0266 87.5441 84.5974 88.0804 86.1998 87.6562C86.9628 87.4543 87.6762 87.2192 88.4619 87.1028C88.9244 87.0343 89.6811 86.9403 90.0294 87.2885" stroke="#6C9EFE" stroke-width="2" stroke-linecap="round"/>
<path d="M103.268 86.3526C102.547 86.4246 101.873 87.1243 101.236 87.4186C101.026 87.5152 100.921 87.6442 100.693 87.452C100.171 87.0103 99.6327 86.6243 99.0368 86.2783C96.7564 84.9541 94.2198 83.35 91.4854 83.4107C90.8535 83.4248 90.2623 83.7374 89.6616 83.8787C89.0398 84.025 88.484 84.2123 87.8898 84.4433C87.1891 84.7159 86.2967 84.7663 85.5646 84.8965C84.9534 85.0052 84.3002 84.9485 83.6777 84.9485" stroke="#6C9EFE" stroke-width="2" stroke-linecap="round"/>
<path d="M78.6256 66.5084C78.5281 67.3856 78.2097 68.2692 78.019 69.1346C77.7973 70.1406 77.5366 71.1328 77.3225 72.1403C76.9433 73.9248 76.4687 75.6637 76.4687 77.5076C76.4687 78.1338 76.4238 78.7543 76.4238 79.3824C76.4238 79.69 76.3367 80.0929 76.7283 80.0789C76.9453 80.0712 77.1247 79.8992 77.3474 79.8992C77.6575 79.8992 77.9275 80.0123 78.2312 80.034C78.3749 80.0442 78.9902 80.2476 79.0725 80.371C79.25 80.6373 79.5939 80.9176 79.8289 81.1474C80.6631 81.9631 81.5196 82.7623 82.3203 83.5939C82.7701 84.061 83.2403 84.5412 83.7133 84.9669C84.1307 85.3426 83.6134 85.9338 83.6134 86.4148" stroke="#6C9EFE" stroke-width="2" stroke-linecap="round"/>
<path d="M87.3431 84.3029C87.1254 84.0609 86.9507 83.7542 86.7415 83.499C86.4222 83.1097 86.0614 82.7516 85.7054 82.3956C85.2094 81.8996 84.7018 81.3757 84.245 80.8428C84.0707 80.6395 83.9684 80.3544 83.7932 80.1688C83.6558 80.0233 83.4809 79.8332 83.4112 79.652C82.886 78.2865 83.813 76.8179 84.5321 75.7252C85.3307 74.5118 86.2012 73.4103 87.1658 72.3251C87.5663 71.8746 88.0452 71.4092 88.3766 70.9121" stroke="#6C9EFE" stroke-width="2" stroke-linecap="round"/>
<path d="M86.1748 75.0911C86.1748 75.1992 86.1278 75.3019 86.1074 75.4081C86.0354 75.7823 86.0557 76.1985 86.0375 76.5814C85.9953 77.4673 85.9898 78.3545 85.9476 79.2401C85.8965 80.3133 85.9501 81.3849 85.9501 82.4605" stroke="#6C9EFE" stroke-width="2" stroke-linecap="round"/>
<path d="M93.9037 73.2039C93.9037 73.4956 93.8464 73.7645 93.7689 74.0427C93.6661 74.4116 93.7121 74.814 93.6441 75.191C93.5682 75.6112 93.4143 76.0204 93.3645 76.4442C93.2531 77.3907 92.892 78.3588 92.6255 79.2726C92.6073 79.3351 92.4262 79.9104 92.5357 79.9417C92.6148 79.9643 92.8135 80.0043 92.8602 80.079C92.9399 80.2065 93.1003 80.2639 93.2297 80.3286C93.4244 80.426 93.545 80.6521 93.699 80.7979C93.9396 81.0259 94.2679 81.1924 94.4679 81.4495C94.6491 81.6825 94.8842 81.8733 95.092 82.0811C95.5566 82.5457 96.132 83.0529 96.5 83.5989C96.6866 83.8758 96.9722 84.1361 97.2089 84.3728C97.3924 84.5562 97.493 84.7917 97.6783 84.9769" stroke="#6C9EFE" stroke-width="2" stroke-linecap="round"/>
<path d="M85.6805 81.7865C86.0216 81.7865 86.2951 81.8982 86.6191 82.0062C87.1468 82.1821 87.6936 82.3136 88.1769 82.5928C88.5234 82.793 88.9095 82.9182 89.2603 83.1096C89.4881 83.2338 89.8111 83.266 89.9943 83.4491" stroke="#6C9EFE" stroke-width="2" stroke-linecap="round"/>
<path d="M76.6773 71.556C76.5592 71.5429 76.4497 71.422 76.3412 71.3726C75.6278 71.0484 74.9331 70.5851 74.1712 70.387C73.7717 70.2831 73.3105 70.112 72.8953 70.112C72.3699 70.112 72.1307 70.5868 71.7492 70.8989C69.8863 72.4231 67.7369 73.785 65.5298 74.7612C64.8166 75.0767 64.1256 75.4218 63.4057 75.7163C63.1742 75.811 62.7431 76.0967 62.4812 76.0219C62.4092 76.0013 62.2367 74.5274 62.2367 74.3754C62.2367 73.7989 61.9079 74.1619 61.5835 74.234C61.3894 74.2772 60.8111 74.2781 60.6704 74.3907C60.3887 74.616 60.5176 73.2464 60.5176 73.0688C60.5176 72.7691 60.0926 73.0512 59.7917 73.0688C59.0659 73.1115 58.3487 73.2064 57.5951 73.2064C57.3462 73.2064 56.6106 73.3514 56.8769 72.9963C57.4174 72.2755 58.3195 71.8242 59.0888 71.3994C60.0943 70.8441 61.1431 70.398 62.21 69.9782C64.7488 68.9794 67.3803 68.2629 69.8391 67.0519C70.8242 66.5667 71.7834 66.0513 72.7539 65.5391C73.0359 65.3903 73.4378 65.2448 73.5829 64.9546" stroke="#6C9EFE" stroke-width="2" stroke-linecap="round"/>
<path d="M73.4089 65.2648C73.2434 65.2441 72.9904 65.0752 72.8165 65.0265C72.3974 64.9092 71.9999 64.7031 71.6217 64.4904C70.3667 63.7844 69.1079 63.0937 67.9545 62.2232C66.6412 61.2321 65.4475 59.9955 64.6382 58.5528C64.0952 57.5849 64.0555 56.6271 63.8307 55.5873C63.7953 55.4237 63.8638 55.2337 63.7181 55.1074C63.3703 54.8059 63.0288 54.4997 62.6888 54.184C62.3713 53.8892 62.102 53.5389 61.8283 53.2044C61.5827 52.9042 62.226 53.1182 62.381 53.1415C62.7075 53.1904 63.035 53.2409 63.3607 53.2937C63.5064 53.3173 63.6915 53.4394 63.8406 53.4062C63.9329 53.3857 63.6284 53.054 63.5791 53.0223C63.3335 52.8644 63.2865 52.5508 63.1025 52.3405C62.8911 52.0989 62.7567 51.8219 62.6491 51.523C62.3902 50.8039 61.9315 50.1285 61.7456 49.385C61.7108 49.2458 61.6643 49.0861 61.6728 48.9415C61.6801 48.8166 62.0034 48.905 62.0898 48.8687C62.1791 48.8311 62.4408 48.8619 62.4936 48.8091C62.5826 48.7201 61.83 48.3642 61.7654 48.3325C61.1185 48.0151 60.4753 47.7736 59.8061 47.5117C58.46 46.985 57.0378 46.6617 55.6591 46.2309C55.2955 46.1172 54.8933 46.0138 54.5503 45.8668C54.3264 45.7708 54.1164 45.6066 53.9016 45.4895C53.8373 45.4544 53.6469 45.1801 53.8123 45.2214C53.9984 45.2679 54.5615 45.5228 54.1068 45.1751C53.2057 44.4859 52.0482 44.1127 51.0156 43.6725C50.4156 43.4167 49.7816 43.2107 49.225 42.8682C49.0812 42.7797 48.7175 42.6553 49.0761 42.6895C49.4333 42.7235 49.7933 42.8117 50.1418 42.8947C50.2274 42.9151 50.6762 42.9825 50.3768 42.8914C49.7318 42.6951 49.101 42.4397 48.5068 42.1368C48.1997 41.9802 47.7457 41.7926 47.4941 41.5543C47.3531 41.4207 46.8565 41.2139 46.7924 41.0777C46.7162 40.9158 47.7125 40.6894 47.1366 40.6607C46.7666 40.6422 46.405 40.4755 46.0312 40.4257C45.4046 40.3421 44.4983 40.1378 43.9792 39.767C43.2282 39.2306 42.3644 38.8605 41.6922 38.1883C41.3978 37.8939 41.3024 37.6713 41.8345 37.7548C42.3009 37.8279 42.575 38.0849 42.9664 38.2909C43.1216 38.3726 43.7346 38.6554 43.7012 38.6219C42.9687 37.8894 41.929 37.4954 41.1196 36.8479" stroke="#6C9EFE" stroke-width="2" stroke-linecap="round"/>
<path d="M40.2856 36.133C40.2402 35.9286 39.8512 35.5593 39.7329 35.3784C39.6074 35.1865 39.4558 35.0275 39.3324 34.8356C39.1867 34.609 38.7457 33.666 38.8889 33.4819C39.1053 33.2037 39.7952 33.4163 40.0175 33.6044C40.1619 33.7265 40.3219 33.8209 40.4776 33.9287C40.6716 34.0631 40.8198 34.2988 41.027 34.4053C41.4286 34.6119 41.8171 34.778 42.2052 35.0275C42.3175 35.0997 42.4831 35.2093 42.5494 35.3254C42.5697 35.3609 42.6577 35.3791 42.6917 35.3519C42.7642 35.2939 42.44 35.0108 42.417 34.9878C41.4841 34.0548 40.456 33.2027 39.6601 32.1415C39.1563 31.4698 38.6648 30.8124 38.2005 30.116" stroke="#6C9EFE" stroke-width="2" stroke-linecap="round"/>
<path d="M37.6643 29.2224C37.5528 29.0969 37.4131 28.2025 37.6345 28.1533C38.2183 28.0236 38.7366 28.6829 39.1537 28.9377C39.2396 28.9903 39.9606 29.7162 39.9248 29.4838C39.8556 29.034 39.5104 28.4982 39.2728 28.1202C38.8888 27.5094 38.5641 26.867 38.2005 26.2437" stroke="#6C9EFE" stroke-width="2" stroke-linecap="round"/>
<path d="M37.6643 25.1117C37.3651 24.5133 36.4782 22.5339 37.426 22.0735C37.9443 21.8217 38.26 22.2807 38.6506 22.4938C38.8294 22.5913 38.9244 22.8961 39.0345 23.0597C39.4041 23.6091 39.7894 24.1501 40.1664 24.6947" stroke="#6C9EFE" stroke-width="2" stroke-linecap="round"/>
<path d="M41.0601 25.9458C41.2065 26.1014 41.2884 26.3099 41.4175 26.482" stroke="#6C9EFE" stroke-width="2" stroke-linecap="round"/>
<path d="M42.0132 27.316C42.1401 27.4569 42.2555 27.6339 42.3575 27.7926C42.6023 28.1735 42.9334 28.4805 43.1716 28.8616C43.538 29.4478 44.0358 30.0349 44.5154 30.533C45.4873 31.5423 46.2111 32.6216 47.408 33.3925C47.8139 33.6539 48.2572 33.862 48.7054 34.0412C48.7513 34.0596 49.1617 34.2477 49.0761 34.081C48.6465 33.2444 47.7733 32.5096 47.1598 31.8105C46.2847 30.8133 45.2854 29.7445 44.6742 28.5604C44.0622 27.3746 43.6309 26.1565 43.2643 24.8734" stroke="#6C9EFE" stroke-width="2" stroke-linecap="round"/>
<path d="M43.2643 23.682C43.7956 23.2097 44.1731 23.4131 44.5684 23.9401C45.7079 25.4595 46.9741 27.0439 47.8251 28.7458C48.0598 29.2152 48.4123 29.6187 48.6326 30.0962C48.8768 30.6253 49.2031 31.1707 49.5064 31.6716C50.0058 32.4961 50.6135 33.2746 51.191 34.0446C51.6903 34.7103 51.4693 33.3007 51.3631 33.0021C51.0852 32.2205 50.6657 31.474 50.3239 30.7184C49.7669 29.4871 49.2431 27.9529 49.2218 26.5879C49.2162 26.2293 49.3388 26.0122 49.4733 25.6943C49.5739 25.4566 50.0993 25.3636 50.2974 25.5023C50.9384 25.951 51.0619 26.7004 51.3069 27.4352" stroke="#6C9EFE" stroke-width="2" stroke-linecap="round"/>
<path d="M51.9622 28.865C52.1976 29.3145 52.3906 29.7815 52.6175 30.2352" stroke="#6C9EFE" stroke-width="2" stroke-linecap="round"/>
<path d="M53.2132 31.4266C53.2613 31.8597 53.6872 32.3734 53.8983 32.7405C54.2614 33.372 54.8308 34.0057 55.0633 34.7032C55.1671 35.0146 55.183 34.6803 55.1758 34.5476C55.1538 34.1402 55.0872 33.6975 54.9971 33.2999C54.7793 32.3377 54.4485 31.3932 54.1929 30.4403C53.9432 29.5099 53.6612 28.3877 54.451 27.6271C55.1833 26.9219 55.9575 28.6014 56.1919 29.0767C56.7869 30.2832 57.3116 31.5304 57.8302 32.767C58.0889 33.3838 58.4436 33.9721 58.7801 34.5509C59.1347 35.1609 59.3749 35.8663 59.8557 36.3977C60.5436 37.158 61.0747 38.004 61.8118 38.741C62.5944 39.5236 63.3579 40.2852 64.2675 40.9254C64.6255 41.1773 65.0291 41.3528 65.3796 41.6138C65.5375 41.7314 65.7321 41.886 65.9025 41.9712" stroke="#6C9EFE" stroke-width="2" stroke-linecap="round"/>
<path d="M66.7962 42.9841C66.6074 42.5829 66.3399 42.2303 66.1442 41.829C65.8887 41.3054 65.7274 40.7558 65.5153 40.2138C65.4399 40.0212 65.2087 39.5819 65.5981 39.7803C66.5138 40.2468 67.3907 40.736 68.3583 41.1108C69.1345 41.4114 69.9211 41.7931 70.6453 42.1831C71.3758 42.5764 72.1803 42.8267 72.886 43.2819C73.2234 43.4996 73.6003 43.7123 73.9087 43.967C73.9793 44.0254 74.4224 44.3092 74.4184 44.2848C74.3328 43.7714 73.8972 43.3164 73.6141 42.9046C73.2657 42.3979 72.8859 41.9024 72.5285 41.402C72.4383 41.2757 72.2478 40.9889 72.4888 41.2299C73.01 41.7511 73.7786 42.0833 74.4647 42.3056C76.3625 42.9204 78.2378 43.7007 80.0217 44.5926" stroke="#6C9EFE" stroke-width="2" stroke-linecap="round"/>
<path d="M81.094 45.0095C83.0031 45.6231 85.0354 46.4638 86.6344 47.7202C87.1356 48.114 87.6687 48.6397 88.0046 49.193C88.1424 49.4199 88.1009 49.9932 88.1271 50.2554C88.184 50.8247 88.2887 51.3878 88.3621 51.9565C88.4799 52.8698 88.7701 53.7945 89.0306 54.6738C89.1482 55.0705 89.2252 55.5962 89.4642 55.9414C89.76 56.3686 89.9271 56.9412 90.1956 57.401C90.7804 58.4021 91.3931 59.2488 92.1649 60.1083C92.4413 60.4161 92.7049 60.7249 92.8897 61.0946" stroke="#6C9EFE" stroke-width="2" stroke-linecap="round"/>
<path d="M90.2424 57.1841C91.585 57.1841 92.7428 58.0382 93.9186 58.5673C94.2374 58.7108 94.549 58.924 94.8762 59.0408C95.0499 59.1028 95.1856 59.243 95.3656 59.243" stroke="#6C9EFE" stroke-width="2" stroke-linecap="round"/>
<path d="M103.431 63.0406C103.968 62.5637 104.814 62.2101 105.48 61.9987C106.703 61.6102 107.943 61.1718 109.214 60.9669C110.573 60.748 111.863 60.2458 113.201 59.9352C114.455 59.6439 115.689 59.2655 116.953 59.0091C118.282 58.7394 119.567 58.6467 120.916 58.6467C121.716 58.6467 122.517 58.7826 123.317 58.7826C123.735 58.7826 124.245 58.6815 124.608 58.4604C124.806 58.3398 124.965 58.1282 125.129 57.9672C125.381 57.7196 125.662 57.5281 125.934 57.3079C126.506 56.8447 127.347 56.5875 128.033 56.3566C129.113 55.9933 130.244 55.7516 131.38 55.6595C132.369 55.5793 133.358 55.5246 134.347 55.4557C134.952 55.4135 135.598 55.5102 136.192 55.3852C136.565 55.3067 137.299 55.315 137.017 54.751C136.67 54.0562 135.734 54.0199 135.049 53.913C134.464 53.8216 133.871 53.7911 133.288 53.689C132.84 53.6106 132.306 53.5396 131.858 53.6085C130.819 53.7684 129.733 53.692 128.685 53.8023C128.553 53.8162 128.166 53.8941 128.287 53.84C129.236 53.4183 130.171 53.1297 131.204 52.9844C132.608 52.7868 134.024 52.554 135.387 52.1489C135.686 52.0598 137.066 51.9051 136.182 51.4543C135.426 51.0687 134.426 50.9635 133.597 51.0819C132.951 51.1742 132.3 51.34 131.652 51.3989C131.09 51.45 130.532 51.469 129.976 51.5801" stroke="#6C9EFE" stroke-width="2" stroke-linecap="round"/>
<path d="M128.889 51.7613C128.782 51.7719 127.676 52.0479 127.676 52.0079C127.676 51.9265 128.288 51.6396 128.363 51.5977C128.845 51.3273 129.363 51.1483 129.88 50.961C130.67 50.6749 131.468 50.505 132.266 50.2639C132.809 50.1002 133.335 49.8435 133.857 49.6222C134.062 49.5349 135.675 48.9002 134.984 48.5451C134.303 48.1947 133.631 48.4563 132.92 48.5451C132.411 48.6087 131.899 48.6861 131.395 48.7917C130.801 48.9165 130.165 48.9656 129.583 49.139C128.312 49.5176 126.967 49.8935 125.761 50.4501C125.514 50.5642 125.273 50.6897 125.038 50.8201C124.916 50.888 125.053 50.8009 125.119 50.7093C125.457 50.2387 125.886 49.9037 126.352 49.5643C127.325 48.8553 128.381 48.3593 129.422 47.7649C130.308 47.2596 131.171 46.7233 132.03 46.1745C132.515 45.8643 132.928 45.4873 133.283 45.0345C133.426 44.8519 133.611 44.6095 133.545 44.3575C133.476 44.0991 133.229 44.0153 132.988 44.0153C132.797 44.0153 132.637 44.0668 132.457 44.131C131.985 44.2996 131.496 44.4052 131.023 44.5689C129.899 44.9582 128.748 45.2924 127.646 45.7391C126.265 46.2982 124.909 46.9121 123.534 47.4831C122.79 47.7917 122.149 48.2309 121.505 48.7011C121.244 48.892 121.109 49.0827 120.896 49.295C120.776 49.4151 120.666 49.5854 120.564 49.7228C120.434 49.8973 120.293 50.1565 120.592 49.9342C121.919 48.9484 123.26 47.8066 124.266 46.4865C124.407 46.3015 124.661 46.009 124.46 45.792C124.216 45.5292 123.89 45.3775 123.521 45.49C122.87 45.6882 122.244 46.1455 121.651 46.4714C120.859 46.9066 120.19 47.514 119.467 48.0468" stroke="#6C9EFE" stroke-width="2" stroke-linecap="round"/>
<path d="M118.606 48.817C117.78 49.6435 116.885 50.4203 116.024 51.1951C115.92 51.2891 116.126 51.0602 116.16 51.0014C116.374 50.632 116.601 50.2647 116.794 49.884C117.05 49.3788 117.264 48.9046 117.204 48.3413C117.104 47.3875 115.671 48.9132 115.433 49.1114C114.254 50.0937 112.888 51.041 111.932 52.2546C111.808 52.4126 111.52 52.9127 111.54 52.7126C111.564 52.4666 111.814 52.1435 111.925 51.9174C112.203 51.3464 112.572 50.8723 112.808 50.2766C112.866 50.1304 113.072 49.5173 112.785 49.4537C112.452 49.3796 112.105 49.7905 111.872 49.9595C111.15 50.4817 110.443 51.023 109.73 51.5575C109.008 52.0992 108.424 52.757 107.77 53.372C107.359 53.7582 106.997 54.1748 106.602 54.5699C106.32 54.8517 106.755 54.2601 106.813 54.1672C107.127 53.6693 107.444 53.078 107.463 52.4761C107.473 52.1481 107.61 51.7074 107.304 51.4694C107.026 51.2529 106.408 51.999 106.27 52.1389C105.51 52.9109 104.849 53.7747 104.136 54.5875C103.797 54.9741 103.52 55.3998 103.25 55.8281C103.231 55.8587 103.074 56.0442 103.074 56.037C103.074 55.9569 103.216 55.7937 103.25 55.7275C103.349 55.5336 103.447 55.338 103.522 55.1336C103.727 54.5742 103.945 54.0918 103.929 53.4827C103.924 53.2631 103.684 52.9566 103.456 53.143C102.663 53.7921 101.834 54.4855 101.267 55.355C100.912 55.8997 100.306 56.3619 99.8274 56.792C99.4432 57.1371 99.0493 57.4569 98.6849 57.8213C98.2736 58.2325 97.4905 58.7583 96.9334 58.9286C96.6672 59.0099 96.3899 59.0871 96.1381 59.2129C95.9517 59.3062 95.7175 59.3499 95.5493 59.4621" stroke="#6C9EFE" stroke-width="2" stroke-linecap="round"/>
<path d="M98.8217 62.1946C99.2521 62.2533 99.6646 62.4047 100.094 62.4748C100.805 62.5912 101.503 62.7491 102.213 62.8715C103.219 63.0451 104.318 63.2223 105.261 63.6326C105.729 63.836 106.234 64.1095 106.234 64.6803C106.234 64.9161 106.184 65.0557 106.369 65.1999C106.714 65.4677 107.186 65.6318 107.557 65.8725C107.965 66.1368 108.431 66.5783 108.601 67.0367C108.835 67.6693 108.391 68.6985 108.911 69.2184" stroke="#6C9EFE" stroke-width="2" stroke-linecap="round"/>
<path d="M109.066 69.6066H109.028" stroke="#6C9EFE" stroke-width="2" stroke-linecap="round"/>
<path d="M108.911 69.2961C108.81 69.2849 108.672 69.1499 108.579 69.1021C108.44 69.0308 108.296 68.9645 108.159 68.8908C107.802 68.6988 107.312 68.7594 106.923 68.6946C106.664 68.6515 106.387 68.6752 106.126 68.6752C105.808 68.6752 105.496 68.5892 105.177 68.5976C104.945 68.6037 105.613 68.7917 105.845 68.7917" stroke="#6C9EFE" stroke-width="2" stroke-linecap="round"/>
<path d="M105.263 69.1409C105.138 69.1566 104.934 69.3786 104.837 69.4535C104.54 69.6815 104.243 69.9019 103.918 70.0895C103.355 70.4151 102.713 70.5593 102.103 70.7686C101.514 70.9705 100.852 71.0851 100.238 71.1782C99.7059 71.2588 99.1811 71.4129 98.6535 71.4994C97.6927 71.6569 96.6715 72.0801 95.8336 72.5752C95.4933 72.7763 95.1003 72.9654 94.7276 73.0969C94.4134 73.2078 94.0547 73.3645 93.8157 73.6035" stroke="#6C9EFE" stroke-width="2" stroke-linecap="round"/>
<path d="M105.869 144.741C106.118 144.56 106.643 144.608 106.923 144.608C108.119 144.608 109.313 144.674 110.51 144.674C112.926 144.674 115.359 144.386 117.765 144.674" stroke="#6C9EFE" stroke-width="2" stroke-linecap="round"/>
<path d="M109.478 141.533C109.74 142.188 109.678 143.227 109.678 143.939" stroke="#6C9EFE" stroke-width="2" stroke-linecap="round"/>
<path d="M106.738 140.798C109.337 140.702 111.962 140.832 114.557 140.665" stroke="#6C9EFE" stroke-width="2" stroke-linecap="round"/>
<path d="M113.421 121.485C117 121.485 120.542 122.097 124.046 122.754" stroke="#6C9EFE" stroke-width="2" stroke-linecap="round"/>
<path d="M120.972 123.156V125.094" stroke="#6C9EFE" stroke-width="2" stroke-linecap="round"/>
<path d="M117.765 126.163C119.542 126.163 121.321 126.267 123.089 126.445C124.133 126.55 125.195 126.612 126.229 126.801C126.692 126.886 127.12 127.056 127.588 127.098" stroke="#6C9EFE" stroke-width="2" stroke-linecap="round"/>
<path d="M122.643 119.814V121.552" stroke="#6C9EFE" stroke-width="2" stroke-linecap="round"/>
<path d="M119.101 118.812C120.452 118.812 121.83 119.114 123.178 119.228C124.313 119.323 125.472 119.513 126.586 119.747" stroke="#6C9EFE" stroke-width="2" stroke-linecap="round"/>
<path d="M61.1368 127.782C61.4652 127.782 61.8243 128.035 62.1734 128.055C62.4637 128.071 62.4267 128.192 62.1613 128C61.8549 127.778 61.5528 127.673 61.1853 127.673C61.0017 127.673 60.8842 127.618 60.7064 127.618C60.4003 127.618 61.3187 127.618 61.6248 127.618C62.2006 127.618 61.3052 127.471 61.1398 127.427C60.841 127.348 60.6404 127.236 60.3306 127.236C60.0568 127.236 60.8819 127.275 61.1429 127.357C61.492 127.468 62.5878 127.549 62.2219 127.564C61.7054 127.583 61.1703 127.49 60.7003 127.279C60.5126 127.194 60.3045 127.127 60.1002 127.127C60.056 127.127 59.8173 127.127 59.9911 127.127C60.3253 127.127 60.6602 127.121 60.9944 127.13C61.61 127.147 62.2471 127.172 62.8584 127.248C63.0199 127.268 63.138 127.367 63.2918 127.4C63.5533 127.455 63.7493 127.605 63.9981 127.676C64.0375 127.687 64.0459 127.8 64.0163 127.824C63.8666 127.947 63.269 127.708 63.1009 127.673C62.6488 127.578 62.2504 127.496 62.8948 127.891C63.2495 128.108 63.6127 128.288 63.9435 128.543C64.0395 128.616 64.4287 128.827 64.1072 128.776C63.8107 128.729 63.5771 128.49 63.2646 128.546C62.9964 128.593 63.5835 129.207 63.6434 129.249C63.8698 129.407 63.7519 129.237 63.6707 129.097C63.4701 128.752 63.2467 128.433 62.9857 128.13C62.79 127.903 62.6025 127.635 62.3916 127.424C62.2957 127.328 62.4847 127.681 62.5553 127.797C62.669 127.984 62.8049 128.159 62.913 128.352C62.9891 128.487 63.1306 128.583 63.1797 128.73C63.1995 128.79 62.4953 128.367 62.8463 128.461C63.6258 128.669 64.4324 129.124 65.1074 129.558C65.3298 129.701 65.2287 128.926 65.2287 128.776C65.2287 128.312 65.7157 129.048 65.8288 129.212C65.8745 129.279 66.0338 129.445 65.9591 129.415C65.744 129.329 65.499 129.106 65.2953 128.982C65.1882 128.917 64.758 128.387 64.6558 128.467C64.4018 128.664 64.6203 129.382 64.6285 129.649C64.6374 129.937 64.7679 130.792 64.7679 130.504C64.7679 130.182 64.4833 129.828 64.4133 129.512C64.389 129.403 64.465 129.731 64.5012 129.837C64.6032 130.135 64.7567 130.393 64.9316 130.652C65.1121 130.919 65.3477 131.199 65.4772 131.495C65.5024 131.552 65.7742 132.02 65.7742 131.825C65.7742 131.221 65.7238 130.635 65.6348 130.037C65.6247 129.969 65.456 128.912 65.5803 128.891C65.7515 128.863 65.9393 129.67 65.9713 129.758C66.2162 130.429 66.513 131.075 66.7866 131.734C66.8439 131.872 66.9047 132.007 66.9715 132.14C66.9718 132.141 67.0754 132.338 67.0806 132.325C67.1563 132.136 67.0076 131.755 66.9745 131.564C66.9237 131.271 66.9187 130.974 66.8411 130.685C66.7856 130.479 66.8666 130.569 66.9321 130.698C67.0462 130.922 67.1849 131.143 67.2715 131.38C67.3121 131.49 67.3546 131.702 67.4413 131.789C67.5305 131.878 67.5065 131.898 67.5322 132.037C67.6003 132.405 67.7197 132.745 67.7656 133.122C67.7761 133.209 68.029 134.49 67.8474 134.347C67.3334 133.943 67.1098 133.199 66.7927 132.656C66.4698 132.102 66.4835 133.436 66.4835 133.577C66.4835 133.962 66.477 134.342 66.5623 134.72C66.6257 135 66.5926 134.546 66.5926 134.486C66.5926 133.541 66.6826 132.451 66.1865 131.601C66.1593 131.554 66.1081 131.301 66.0591 131.492C65.9651 131.858 65.9796 132.3 65.9985 132.674C66.0207 133.111 66.1282 133.539 66.2228 133.965C66.2626 134.144 66.1837 133.582 66.1622 133.516C66.1505 133.481 65.9588 132.924 66.0258 133.125C66.1621 133.534 66.2542 133.947 66.4047 134.353C66.6173 134.927 66.8008 135.533 67.0715 136.075C67.181 136.294 67.3692 136.382 67.6171 136.444C67.873 136.508 67.681 135.233 67.6535 135.093C67.6146 134.895 67.5201 134.706 67.5201 134.505C67.5201 134.399 67.5233 134.768 67.5292 134.808C67.5977 135.276 67.792 136.171 68.2566 136.429C68.5646 136.6 68.6033 135.685 68.6082 135.559C68.6328 134.932 68.4678 134.272 68.0778 133.771C67.5769 133.127 69.1006 135.051 69.7024 135.602C69.7293 135.626 69.9959 135.88 69.8843 135.708C69.6854 135.4 69.6151 135.047 69.4963 134.705C69.3703 134.341 69.2248 134.016 69.0538 133.674C68.9864 133.539 68.8541 133.331 68.8295 133.183C68.8002 133.007 68.6167 132.956 68.4718 132.88C68.2959 132.788 67.982 132.589 67.7686 132.589C67.692 132.589 67.5908 133.063 67.5746 133.128C67.4758 133.529 67.5201 133.962 67.5201 134.371C67.5201 134.503 67.439 135.009 67.5746 135.105C67.7827 135.252 67.9275 135.521 68.1233 135.693C68.4162 135.949 68.7038 136.106 68.9689 136.372C69.2225 136.625 69.5828 136.798 69.8297 137.044C69.8329 137.048 69.6472 136.987 69.6206 136.972C69.4777 136.889 69.3987 136.731 69.2659 136.632C69.1385 136.538 68.9977 136.383 68.8295 136.402C68.5975 136.428 68.6747 136.744 68.7749 136.838C68.9318 136.987 69.0539 137.01 69.2447 137.084C69.5499 137.201 69.9013 137.208 70.1934 137.354C70.2947 137.404 70.525 137.472 70.6329 137.49C70.9474 137.542 70.5047 136.219 70.3904 136.026C70.2604 135.806 69.8972 135.131 70.0116 135.359C70.1168 135.57 70.2858 135.762 70.4389 135.938C70.55 136.066 70.9206 136.399 70.7693 136.323C70.5419 136.209 69.6447 135.725 69.4963 136.062C69.3831 136.32 69.7245 136.604 69.8903 136.729C70.0119 136.821 71.0433 137.622 71.0088 137.19C70.9686 136.688 70.5606 136.307 70.3329 135.884C70.2092 135.654 70.2461 135.51 70.4723 135.614C70.7459 135.739 70.9139 136.037 71.1179 136.241C71.2965 136.42 71.4286 136.573 71.6422 136.717C71.8394 136.85 72.2021 137.039 72.4424 137.057C72.5365 137.063 72.5519 137.135 72.6364 137.163C72.8808 137.244 72.1253 137.095 71.8726 137.044C71.4985 136.97 71.0228 136.757 70.6966 137.002C70.6107 137.066 70.5735 137.422 70.6602 137.496C71.1123 137.884 71.4952 138.108 72.1211 138.151C72.6365 138.186 73.0899 138.366 73.6185 138.366C73.9005 138.366 74.2144 138.325 74.4914 138.378C74.638 138.406 74.6901 138.43 74.5005 138.393C74.2075 138.337 73.9575 138.117 73.6912 137.984C73.2413 137.759 72.8493 137.424 72.3788 137.248C72.0865 137.138 72.0601 137.158 71.7756 137.166C71.6844 137.168 71.5417 137.186 71.5604 137.308C71.595 137.533 71.744 137.485 71.9332 137.517C72.3015 137.579 72.6298 137.657 73.0062 137.657C73.2223 137.657 73.5487 137.72 73.7579 137.645C73.8258 137.62 73.4631 137.326 73.4123 137.275C73.3334 137.196 73.3095 137.132 73.1941 137.087C73.0685 137.038 72.6562 137.057 72.791 137.057C73.0777 137.057 73.4178 137.298 73.6791 137.405C73.9342 137.51 74.2602 137.493 74.5308 137.493C74.7826 137.493 75.0213 137.548 75.2734 137.548C75.6162 137.548 75.9694 137.514 76.3039 137.59C76.8095 137.706 77.3945 137.711 77.9164 137.711C78.2973 137.711 78.6782 137.711 79.0591 137.711C79.8764 137.711 80.876 137.937 81.6748 137.708C81.7157 137.697 81.7736 137.648 81.6809 137.669C81.4029 137.732 81.1096 137.716 80.8262 137.739C80.4426 137.769 79.9253 137.663 79.5531 137.769C79.3758 137.82 79.1827 137.908 78.9954 137.933C78.7339 137.967 78.454 138.139 78.2013 138.148C77.9783 138.156 77.7915 138.257 77.5648 138.257C77.2536 138.257 76.9424 138.257 76.6313 138.257C76.1221 138.257 75.6129 138.257 75.1036 138.257C74.846 138.257 74.6024 138.202 74.3429 138.202C73.8546 138.202 75.3187 138.164 75.8068 138.151C76.7497 138.126 77.6761 138.17 78.6135 138.081C79.3127 138.015 80.2069 137.937 80.8656 137.684C81.0291 137.621 81.843 137.709 81.9234 137.548" stroke="#2E3192" stroke-linecap="round"/>
<path d="M72.7577 119.653C72.6618 119.663 72.4787 119.81 72.4303 119.895C72.3911 119.964 72.3772 120.009 72.3485 120.089C72.3041 120.213 72.131 120.222 72.106 120.335C72.0808 120.448 71.7925 120.637 71.6938 120.713C71.4989 120.865 71.7182 120.559 71.7726 120.507C71.8966 120.39 72.0344 120.284 72.1606 120.168C72.2841 120.055 72.4344 119.864 72.6001 119.816C72.7341 119.778 73.0465 119.635 73.1123 119.516C73.1898 119.377 73.1344 119.399 73.0274 119.495C72.8141 119.687 72.6023 119.882 72.3758 120.059C72.2206 120.18 71.9673 120.252 71.8848 120.438C71.852 120.511 71.7032 120.632 71.6392 120.689C71.2617 121.025 70.9887 121.489 70.7269 121.902C70.4848 122.283 70.3934 122.752 70.151 123.102C70.0929 123.186 70.1458 123.328 70.0843 123.429C70.0142 123.545 69.9311 123.705 69.9207 123.841C69.9061 124.031 69.7784 124.173 69.7146 124.333C69.5781 124.674 69.2772 125.012 69.266 125.381C69.2602 125.572 69.0862 125.756 69.0508 125.951C69.0106 126.172 68.9272 126.385 68.8871 126.606C68.8507 126.806 68.8295 127.001 68.775 127.206C68.7454 127.317 68.629 127.412 68.6143 127.515C68.6084 127.556 68.642 127.759 68.584 127.667C68.417 127.399 68.4502 127.02 68.2597 126.748C68.1618 126.608 68.1538 126.289 68.1233 126.121C68.0155 125.528 68.2244 124.919 68.4203 124.375C68.5036 124.144 68.5296 123.824 68.6658 123.623C68.8161 123.402 69.0541 123.221 69.2235 123.011C69.5034 122.664 69.8141 122.299 70.1268 121.987C70.1798 121.933 70.2071 121.846 70.2601 121.793C70.3097 121.743 70.3774 121.568 70.3996 121.635C70.4382 121.751 70.3211 121.935 70.2783 122.029C70.131 122.354 69.9741 122.673 69.8176 122.993C69.6274 123.382 69.4525 123.792 69.2902 124.193C69.223 124.359 69.293 124.943 69.1447 125.011C69.033 125.063 68.7299 125.467 68.7871 125.26C68.8332 125.093 68.7933 124.901 68.8962 124.757C68.9699 124.654 69.0477 124.583 69.0477 124.454" stroke="#006837" stroke-linecap="round"/>
<path d="M82.5781 123.09C82.4183 123.312 82.2525 123.289 82.0083 123.363C81.4627 123.526 80.8949 123.655 80.3291 123.72C79.9043 123.769 79.2251 123.677 78.9106 124.042C78.4466 124.579 77.8248 124.788 77.2617 125.163C77.2073 125.199 76.7769 125.438 77.0374 125.272C77.36 125.067 77.7604 124.954 78.1104 124.805C79.9627 124.021 81.8785 123.405 83.8754 123.078C84.2272 123.02 84.656 122.915 84.9787 122.762C85.2316 122.643 85.6393 122.66 85.8516 122.49C85.9917 122.378 86.2193 122.419 86.385 122.368C86.6062 122.3 86.8043 122.217 87.0397 122.217C87.4864 122.217 87.9583 122.265 88.3916 122.15C88.5792 122.101 88.6765 121.999 88.8947 121.999C88.9589 121.999 89.1333 121.917 89.0826 121.956C88.9221 122.081 88.5463 121.987 88.3552 122.005C87.4471 122.087 86.5608 122.162 85.6455 122.162C85.041 122.162 84.3793 122.156 83.7814 122.244C83.6673 122.261 83.3339 122.34 83.4389 122.293C83.8237 122.118 84.1886 121.919 84.6028 121.817C84.6719 121.8 85.2817 121.676 85.1817 121.759C84.7412 122.126 84.0078 122.318 83.4783 122.514C82.9234 122.72 82.3509 122.867 81.7931 123.063C81.5881 123.135 81.4043 123.278 81.2051 123.372C80.3614 123.769 79.5339 124.23 78.6984 124.648C78.3146 124.84 77.1461 125.33 77.5709 125.269C78.1936 125.18 78.8499 124.785 79.4259 124.545C79.7834 124.395 80.3601 124.355 80.6595 124.105C81.0684 123.764 79.8056 124.839 79.2773 124.905C79.1415 124.922 79.5069 124.755 79.6289 124.693C79.9831 124.513 80.361 124.376 80.7353 124.245C81.2059 124.08 81.713 123.986 82.1659 123.775C82.5482 123.596 83.229 122.762 82.372 122.762C81.8567 122.762 81.3921 122.81 80.8929 122.953C80.5864 123.042 80.2784 123.127 79.9745 123.223C79.8414 123.266 79.5486 123.465 79.5683 123.326C79.5932 123.152 80.1908 122.888 80.3079 122.826C80.7096 122.614 81.1473 122.358 81.59 122.247C81.6946 122.221 81.7898 122.217 81.8961 122.217C82.0731 122.217 82.2612 122.063 82.4417 122.029C82.456 122.026 82.8701 121.985 82.857 122.017C82.729 122.324 82.3661 122.446 82.0931 122.569C81.2234 122.959 80.2227 122.887 79.341 123.211C78.9773 123.345 78.5947 123.441 78.2256 123.569C78.0091 123.644 77.7426 123.931 77.5709 124.09C77.3285 124.315 76.8434 124.433 76.5464 124.593C76.2663 124.745 75.993 124.959 75.7705 125.181C75.6637 125.288 75.5063 125.445 75.3643 125.503C75.1622 125.585 75.0029 125.745 74.8188 125.872C74.68 125.968 74.4992 126.019 74.3762 126.133C74.2981 126.205 74.2563 126.299 74.1641 126.363C73.5476 126.79 73.2875 127.549 72.7819 128.055C72.554 128.283 72.4349 128.593 72.2 128.806C71.9075 129.072 72.4701 128.387 72.5152 128.327C72.7511 128.014 73.0152 127.698 73.2244 127.37C73.42 127.062 73.8615 126.843 74.1792 126.691C74.494 126.54 74.818 126.433 75.1219 126.257C75.3119 126.147 75.5398 125.987 75.7553 125.933C76.2407 125.812 76.6805 125.414 77.1769 125.272C77.2787 125.243 77.2561 125.129 77.3163 125.112C77.396 125.089 77.4811 125.113 77.3951 125.19C77.2643 125.308 77.2087 125.416 77.0435 125.521C76.8879 125.62 76.7214 125.684 76.5798 125.79C76.2248 126.057 75.7817 126.193 75.3977 126.397C75.1471 126.529 74.9163 126.572 74.6915 126.715C74.595 126.776 74.4528 126.785 74.3429 126.803C74.1583 126.834 73.958 127.061 73.7912 127.154C73.5859 127.27 73.406 127.379 73.2214 127.482C73.181 127.504 73.0144 127.713 73.0638 127.724C73.3479 127.787 73.8265 127.217 74.0368 127.045C74.3463 126.792 74.6445 126.604 74.94 126.309" stroke="#FBB03B" stroke-linecap="round"/>
<path d="M82.6326 128.382C82.9392 128.382 83.1581 128.435 82.7296 128.558C82.1364 128.727 81.43 128.491 80.8565 128.682C80.6494 128.751 80.3719 128.818 80.1533 128.818C80.05 128.818 79.9501 128.868 79.8653 128.924C79.7256 129.018 80.189 128.854 80.2109 128.846C80.3967 128.77 81.415 128.622 81.4324 128.327C81.4603 127.853 78.9904 128 78.5166 128C78.2867 128 77.9715 128.227 77.777 128.339C77.4838 128.509 77.1538 128.918 76.8192 128.979C76.5676 129.025 76.2129 129.144 76.0008 129.279C75.7067 129.466 75.2522 129.488 74.9945 129.746C74.7875 129.953 74.3722 130.008 74.1822 130.225C73.9857 130.449 74.7398 130.01 75.0248 129.922C75.3182 129.831 75.6468 129.669 75.9463 129.634C76.1105 129.614 76.2256 129.472 76.3797 129.425C76.5645 129.368 76.7009 129.341 76.8738 129.231C77.037 129.127 77.3068 129.203 77.4951 129.118C77.6489 129.049 77.8411 128.988 78.0073 128.982C78.4167 128.966 78.7993 128.764 79.2228 128.764C79.4244 128.764 79.8871 128.762 79.9593 128.546" stroke="#FF0000" stroke-linecap="round"/>
</svg>
