<svg width="176" height="176" viewBox="0 0 176 176" fill="none" xmlns="http://www.w3.org/2000/svg">
<rect x="4.48754" y="3.49199" width="167.506" height="167.506" rx="83.7528" transform="rotate(0.340503 4.48754 3.49199)" stroke="#2F80ED" stroke-width="5"/>
<path d="M27.9053 84.291L23.7061 55.3945L27.3082 54.8711L46.3731 76.4739L46.4523 76.4624L42.9836 52.5931L46.1503 52.1329L50.3496 81.0294L46.787 81.5471L27.6825 59.95L27.6034 59.9615L31.0721 83.8308L27.9053 84.291ZM132.919 69.0303L129.14 43.0235L118.769 44.5306L118.349 41.641L142.377 38.1493L142.797 41.0389L132.426 42.546L136.205 68.5529L132.919 69.0303ZM37.3093 141.534L33.1101 112.637L40.9874 111.492C45.2625 110.871 48.5121 111.167 50.7363 112.38C52.9869 113.589 54.3442 115.79 54.8082 118.983C55.2684 122.149 54.6201 124.642 52.8633 126.46C51.1329 128.275 48.2093 129.481 44.0926 130.079L37.4028 131.051L36.9772 128.122L43.3502 127.196C46.5697 126.728 48.8192 125.889 50.0985 124.679C51.4041 123.466 51.8921 121.724 51.5623 119.454C51.2363 117.211 50.2748 115.694 48.6776 114.902C47.103 114.08 44.706 113.903 41.4864 114.371L36.6968 115.067L40.4761 141.073L37.3093 141.534ZM140.595 126.928C136.927 127.461 134.005 127.01 131.829 125.575C129.676 124.109 128.358 121.714 127.875 118.389L125.096 99.2697L128.263 98.8095L130.967 117.414C131.354 120.079 132.3 121.95 133.803 123.024C135.307 124.099 137.431 124.437 140.175 124.039C142.92 123.64 144.846 122.713 145.955 121.258C147.091 119.8 147.465 117.738 147.078 115.073L144.374 96.4682L147.541 96.0081L150.319 115.127C150.802 118.452 150.22 121.124 148.573 123.142C146.923 125.133 144.263 126.395 140.595 126.928Z" fill="black" fill-opacity="0.1"/>
<path d="M59.0471 127.702C59.3995 127.357 60.1457 127.448 60.5896 127.459C61.3618 127.477 62.0962 127.647 62.8496 127.804C63.6797 127.976 64.4852 128.215 65.2451 128.597C65.7935 128.873 66.2085 129.174 66.6867 129.558C67.6882 130.36 68.2674 131.687 68.8676 132.795C69.6389 134.218 70.6997 135.413 71.9858 136.401C73.2521 137.374 75.0853 137.868 76.6591 137.962C77.7316 138.025 78.8185 138.007 79.8911 138.003C80.7637 138 81.6314 138.059 82.504 138.069C83.1792 138.077 83.8537 138.047 84.5302 138.055C84.764 138.058 84.9939 138.098 85.225 138.1C85.2797 138.101 85.5058 138.097 85.3524 138.178C84.8204 138.461 84.2652 138.648 83.6751 138.807C82.9826 138.993 82.2397 139.169 81.5279 139.258C81.1281 139.308 80.7266 139.448 80.3307 139.532C79.8276 139.637 79.3047 139.638 78.803 139.748C77.9716 139.93 77.0596 140.017 76.209 140.007C75.2236 139.996 74.2015 139.931 73.2319 139.757C70.6446 139.295 67.7971 138.582 66.6812 135.913C66.3924 135.222 66.3962 134.465 66.164 133.761C65.9927 133.242 65.6994 132.8 65.4938 132.305C65.1386 131.448 64.4788 130.829 63.7667 130.271C63.4198 129.999 63.04 129.788 62.6594 129.569C62.2541 129.336 61.8011 129.065 61.3634 128.902C60.5891 128.613 59.9169 128.089 59.1199 127.852" stroke="#2E3192" stroke-linecap="round"/>
<path d="M72.8859 132.481C72.8896 132.167 74.0251 131.885 74.2764 131.79C75.0867 131.482 75.9555 131.279 76.797 131.076C77.6854 130.861 78.5901 130.714 79.4795 130.493C79.8806 130.393 80.292 130.309 80.6974 130.227C81.1699 130.132 81.66 130.168 82.1351 130.093C83.564 129.868 84.9135 130.018 86.3217 130.27C86.6105 130.321 86.9406 130.41 87.2326 130.413C87.353 130.414 87.2103 130.294 87.1764 130.263C86.9991 130.104 86.6716 129.992 86.4565 129.884C86.0494 129.68 85.6302 129.541 85.2062 129.384C84.4628 129.107 83.6588 128.86 82.8795 128.723C81.3497 128.455 79.7074 128.224 78.1784 128.661C76.7622 129.065 75.3724 129.673 74.2891 130.689C73.8109 131.138 73.1132 131.609 72.8885 132.258" stroke="#2F80ED" stroke-linecap="round"/>
<path d="M70.5821 133.436L70.6367 133.329" stroke="black" stroke-linecap="round"/>
<path d="M70.773 133.091C70.811 133.045 70.8312 132.985 70.8549 132.932" stroke="black" stroke-linecap="round"/>
<path d="M71.2342 132.429C71.4352 132.233 71.5936 131.986 71.7903 131.782C71.9455 131.621 72.0548 131.446 72.1935 131.272C72.3685 131.053 72.5798 130.861 72.7612 130.647C73.4032 129.888 74.2472 129.191 75.1158 128.703C77.1409 127.563 79.3263 126.673 81.4927 125.844C82.7865 125.349 84.113 124.945 85.4294 124.523C86.4393 124.199 87.4515 123.789 88.5112 123.663C88.8929 123.618 89.2732 123.576 89.6557 123.537C90.0303 123.499 90.4488 123.476 90.8081 123.37C90.9493 123.328 91.0934 123.357 91.2383 123.342C91.3928 123.327 91.5419 123.274 91.696 123.253C92.0096 123.209 92.3195 123.174 92.6368 123.177" stroke="#FBB03B" stroke-linecap="round"/>
<path d="M93.0908 123.156C93.2555 123.158 93.4286 123.145 93.5922 123.129C93.7452 123.114 93.5077 123.017 93.4721 123.006C93.3098 122.958 93.1356 122.975 92.9655 122.967C92.5854 122.95 92.2157 122.835 91.8379 122.788C91.2162 122.712 90.6027 122.578 89.979 122.512C89.1759 122.426 88.3793 122.359 87.5737 122.312C86.637 122.257 85.6632 122.415 84.7283 122.477C84.0233 122.524 83.3507 122.637 82.6611 122.774C82.0229 122.9 81.3852 123.026 80.7685 123.238C79.3609 123.722 77.9719 124.213 76.7064 125.019C76.363 125.238 76.0176 125.448 75.689 125.689C75.3553 125.933 75.0742 126.2 74.7711 126.479C74.1004 127.095 73.4643 127.643 73.0373 128.454C72.8672 128.777 72.6202 129.075 72.485 129.414C72.3802 129.678 72.2546 129.933 72.1542 130.198C71.9561 130.721 71.7253 131.241 71.4957 131.751C71.334 132.111 71.1221 132.494 71.0039 132.866C70.9716 132.968 70.9019 133.253 70.7972 133.304" stroke="#FBB03B" stroke-linecap="round"/>
<path d="M69.2195 131.285C69.2428 131.077 69.331 130.876 69.3335 130.661C69.3362 130.427 69.3671 130.197 69.395 129.964C69.4598 129.424 69.5896 128.872 69.7192 128.343C69.876 127.704 70.1168 127.096 70.3029 126.466C70.5276 125.704 70.8296 124.927 71.1962 124.224C71.4424 123.752 71.7157 123.316 71.9845 122.858C72.2497 122.406 72.7236 122.055 73.0731 121.669C73.3162 121.401 73.5997 121.149 73.8604 120.894C74.0052 120.753 74.1863 120.586 74.2959 120.416C74.4798 120.131 74.781 119.925 75.0175 119.685C75.1126 119.588 75.1862 119.495 75.2949 119.412C75.3794 119.348 75.3134 119.346 75.2377 119.361C75.0675 119.395 74.8948 119.401 74.7226 119.42C74.2122 119.478 73.6892 119.62 73.2421 119.877C72.1569 120.503 71.1976 121.333 70.3064 122.204C69.8306 122.668 69.44 123.255 69.0662 123.802C68.816 124.168 68.4985 124.565 68.3704 124.998C68.2994 125.238 68.2983 125.488 68.264 125.732C68.1897 126.26 68.2016 126.849 68.2256 127.377C68.2552 128.027 68.4405 128.599 68.603 129.223" stroke="#006837" stroke-linecap="round"/>
<path d="M68.8101 129.759C68.8585 130.246 69.1678 130.689 69.3009 131.153" stroke="#006837" stroke-linecap="round"/>
<path d="M67.8218 129.854C67.7382 129.758 67.7102 129.638 67.6656 129.52C67.5738 129.278 67.4613 129.047 67.3655 128.807C67.02 127.942 66.7956 127.062 66.7695 126.119C66.7491 125.379 66.778 124.539 66.9786 123.817C67.0415 123.59 67.0937 123.361 67.1792 123.143C67.2012 123.087 67.2257 123.023 67.2435 122.966C67.2459 122.958 67.064 123.125 67.0398 123.147C66.5491 123.595 66.1627 124.055 66.0267 124.723C65.954 125.08 65.9272 125.425 65.9476 125.788C65.9723 126.229 66.0135 126.72 66.1484 127.141C66.2846 127.566 66.4113 128.007 66.6439 128.391C66.807 128.66 66.976 128.927 67.1356 129.197C67.2403 129.374 67.3862 129.526 67.5034 129.696C67.5402 129.75 67.6077 129.825 67.6617 129.852" stroke="#2E3192" stroke-linecap="round"/>
<path d="M55.803 105.964C55.3356 109.768 54.1523 113.469 53.4786 117.241C52.4373 123.071 51.1166 128.902 49.5344 134.603C49.135 136.042 48.9809 137.525 48.6388 138.974C48.3768 140.084 48.0768 141.156 47.9287 142.292C47.8342 143.015 47.6186 143.754 47.5621 144.475C47.514 145.089 47.2731 145.659 47.2434 146.27C47.139 148.414 46.3674 150.482 46.4868 152.652" stroke="#2F80ED" stroke-width="2" stroke-linecap="round"/>
<path d="M55.8053 105.77C55.9405 105.756 56.0946 105.664 56.1974 105.579C56.6191 105.229 57.357 105.307 57.864 105.252C59.934 105.026 62.0108 104.964 64.0957 104.988C69.9424 105.056 75.7773 104.422 81.6151 104.228C86.4906 104.065 91.3666 103.958 96.2343 103.682C99.1383 103.518 102.059 103.284 104.969 103.318" stroke="#2F80ED" stroke-width="2" stroke-linecap="round"/>
<path d="M103.991 103.599C103.61 103.642 103.282 106.55 103.194 106.959C102.622 109.595 102.637 112.382 102.471 115.064C102.382 116.512 102.384 117.956 102.34 119.406C102.297 120.802 102.031 122.177 102.004 123.573C101.939 127.029 101.775 130.482 101.792 133.942C101.809 137.445 102.119 140.945 102.157 144.448C102.173 145.906 102.477 147.506 102.289 148.962C102.118 150.281 102.264 151.58 102.249 152.909" stroke="#2F80ED" stroke-width="2" stroke-linecap="round"/>
<path d="M104.58 103.313C106.948 103.341 109.257 103.493 111.596 104.028C114.069 104.594 116.533 105.266 119.018 105.772C121.393 106.255 123.727 107.12 126.109 107.539C126.627 107.63 127.104 107.864 127.632 107.87C127.893 107.873 128.095 107.863 128.313 107.976" stroke="#2F80ED" stroke-width="2" stroke-linecap="round"/>
<path d="M135.486 153.588C135.546 148.353 133.762 143.313 132.69 138.254C132.189 135.891 131.691 133.486 131.555 131.065C131.425 128.757 130.538 126.499 130.465 124.206C130.297 118.937 128.538 113.836 128.599 108.564" stroke="#2F80ED" stroke-width="2" stroke-linecap="round"/>
<path d="M101.844 154.172C102.171 154.14 102.55 153.886 102.888 153.816C104.47 153.488 106.045 153.491 107.648 153.411C111.659 153.21 115.684 153.046 119.697 153.112C122.939 153.166 126.209 153.302 129.451 153.22C131.595 153.165 133.733 153.373 135.878 153.397" stroke="#2F80ED" stroke-width="2" stroke-linecap="round"/>
<path d="M45.1187 152.929C49.748 152.982 54.3752 152.841 59.0116 152.895C65.5282 152.971 72.0416 152.797 78.5583 152.927C81.2189 152.98 83.8569 153.364 86.5145 153.409C88.8994 153.45 91.2815 153.367 93.664 153.395C96.0775 153.423 98.4668 153.645 100.875 153.673" stroke="#2F80ED" stroke-width="2" stroke-linecap="round"/>
<path d="M50.2634 146.457C52.4519 146.482 54.6577 146.128 56.8531 146.143C60.783 146.17 64.7056 146.429 68.6349 146.475C72.5118 146.52 76.3878 146.662 80.2662 146.707C82.1301 146.729 83.9843 146.556 85.8464 146.577" stroke="#2F80ED" stroke-width="2" stroke-linecap="round"/>
<path d="M74.9637 143.429C75.0234 144.261 74.9441 145.12 74.9343 145.963" stroke="#2F80ED" stroke-width="2" stroke-linecap="round"/>
<path d="M56.4384 143.603C56.005 144.08 56.0775 145.083 56.1222 145.647" stroke="#2F80ED" stroke-width="2" stroke-linecap="round"/>
<path d="M64.5727 114.743C65.3627 114.752 66.1168 114.634 66.8989 114.515C69.4937 114.122 72.0833 113.886 74.7018 113.739C80.6329 113.407 86.5267 112.95 92.4752 113.02" stroke="#2F80ED" stroke-width="2" stroke-linecap="round"/>
<path d="M81.738 114.162C81.2148 114.801 81.2256 116.31 81.2167 117.081" stroke="#2F80ED" stroke-width="2" stroke-linecap="round"/>
<path d="M78.3717 118.608C79.8229 117.945 81.8381 118.146 83.3997 117.989C86.0983 117.718 88.8341 117.852 91.5415 117.883" stroke="#2F80ED" stroke-width="2" stroke-linecap="round"/>
<path d="M87.0518 118.318L87.0506 118.416" stroke="#2F80ED" stroke-width="2" stroke-linecap="round"/>
<path d="M86.9432 119.292C86.9403 119.54 86.8881 119.736 86.8378 119.973" stroke="#2F80ED" stroke-width="2" stroke-linecap="round"/>
<path d="M79.097 84.8477C78.9954 85.674 77.6333 86.2965 76.9881 86.6695C75.5843 87.4811 74.0115 87.9982 72.3815 87.9793C72.2386 87.9776 71.8659 87.9778 71.7587 87.8681C71.7042 87.8123 73.1469 87.7207 73.2463 87.7219" stroke="#2F80ED" stroke-width="2" stroke-linecap="round"/>
<path d="M71.6962 88.7736C73.5821 88.7955 75.3485 89.8736 76.3307 91.4574C76.5923 91.8792 76.6122 91.831 77.0534 91.9264C78.1449 92.1624 79.1169 92.6478 79.8998 93.4491C80.717 94.2855 81.2018 95.3 81.6079 96.3812C82.0538 97.5683 82.5525 98.8418 82.5934 100.126C82.6323 101.347 81.6982 102.566 80.8179 103.319C80.3727 103.699 79.8221 103.968 79.4052 104.376" stroke="#2F80ED" stroke-width="2" stroke-linecap="round"/>
<path d="M86.4771 94.228C86.5266 94.7268 86.9561 95.3593 87.1459 95.8146C87.4484 96.5402 87.8274 97.225 88.1352 97.9472C88.6183 99.0805 89.2192 100.281 90.0589 101.194C90.4218 101.589 90.8501 101.854 91.266 102.174" stroke="#2F80ED" stroke-width="2" stroke-linecap="round"/>
<path d="M87.5957 90.0281C87.9245 90.3273 88.4079 90.5855 88.7749 90.8442C89.6559 91.465 90.376 92.1129 91.5001 92.2465C92.5747 92.3743 93.5362 92.3918 94.5916 92.1784C95.9739 91.8989 97.3134 91.9349 98.7165 92.0443C100.208 92.1605 101.794 92.4332 103.24 92.8174C103.812 92.9695 104.851 93.1266 105.172 93.7128C105.456 94.2324 104.837 95.071 104.664 95.5903C104.514 96.0364 104.372 96.4044 104.366 96.8759C104.36 97.4038 104.154 97.8589 104.148 98.3778C104.142 98.9034 103.743 99.4165 103.525 99.875C103.39 100.161 103.177 100.45 102.951 100.671C102.723 100.894 102.566 101.264 102.307 101.432" stroke="#2F80ED" stroke-width="2" stroke-linecap="round"/>
<path d="M102.61 92.6096C102.852 92.5855 103.08 92.2744 103.244 92.1266C103.574 91.8277 103.959 91.574 104.33 91.3294C105.064 90.8459 105.907 90.5362 106.688 90.1458C107.363 89.8083 106.199 89.2139 105.928 89.0745C105.252 88.727 104.555 88.382 103.867 88.0773" stroke="#2F80ED" stroke-width="2" stroke-linecap="round"/>
<path d="M81.2178 86.4773C81.2665 86.9079 82.3572 87.4935 82.6563 87.6753C84.02 88.5039 85.5845 89.0585 87.1918 88.6529C87.957 88.4598 88.6732 88.233 89.4602 88.1257C89.9235 88.0626 90.6813 87.9774 91.0255 88.3296" stroke="#2F80ED" stroke-width="2" stroke-linecap="round"/>
<path d="M104.274 87.5471C103.553 87.6107 102.871 88.3026 102.23 88.5895C102.019 88.6837 101.912 88.8115 101.687 88.6166C101.17 88.1689 100.636 87.7766 100.044 87.4237C97.7794 86.0732 95.2615 84.4396 92.5266 84.4686C91.8946 84.4754 91.2997 84.7811 90.6974 84.9155C90.074 85.0545 89.516 85.2353 88.9192 85.4595C88.2153 85.7238 87.3224 85.764 86.5888 85.8856C85.9763 85.9872 85.3238 85.9229 84.7014 85.9157" stroke="#2F80ED" stroke-width="2" stroke-linecap="round"/>
<path d="M79.8634 67.418C79.7558 68.294 79.4271 69.1738 79.2263 70.037C78.993 71.0404 78.7208 72.0295 78.495 73.0345C78.0951 74.8145 77.6004 76.5478 77.5789 78.3916C77.5717 79.0178 77.5195 79.6377 77.5123 80.2658C77.5087 80.5734 77.4169 80.9752 77.8087 80.9658C78.0257 80.9606 78.2071 80.7907 78.4299 80.7933C78.7399 80.7969 79.0086 80.9131 79.312 80.9383C79.4556 80.9502 80.0685 81.1608 80.1493 81.2851C80.3238 81.5534 80.6644 81.8377 80.8967 82.0702C81.7214 82.8956 82.5686 83.7047 83.3596 84.5455C83.804 85.0178 84.2686 85.5034 84.7366 85.9346C85.1496 86.3151 84.6255 86.9004 84.6199 87.3813" stroke="#2F80ED" stroke-width="2" stroke-linecap="round"/>
<path d="M88.3739 85.3127C88.159 85.0682 87.988 84.7595 87.7816 84.5019C87.4669 84.1089 87.1103 83.7466 86.7585 83.3865C86.2682 82.8847 85.7668 82.355 85.3162 81.8168C85.1442 81.6114 85.0453 81.3252 84.8722 81.1376C84.7365 80.9905 84.5638 80.7984 84.4962 80.6164C83.9869 79.2449 84.9308 77.7871 85.6627 76.7028C86.4753 75.4987 87.3585 74.4074 88.3357 73.3334C88.7414 72.8876 89.2257 72.4277 89.5628 71.9345" stroke="#2F80ED" stroke-width="2" stroke-linecap="round"/>
<path d="M87.3127 76.0877C87.3115 76.1959 87.2633 76.2981 87.2416 76.404C87.1653 76.7773 87.1808 77.1938 87.1581 77.5764C87.1057 78.4617 87.0898 79.3489 87.0374 80.2339C86.9738 81.3065 87.015 82.3786 87.0025 83.4542" stroke="#2F80ED" stroke-width="2" stroke-linecap="round"/>
<path d="M95.063 74.2905C95.0597 74.5822 94.9992 74.8504 94.9185 75.1276C94.8114 75.4954 94.8528 75.8983 94.7804 76.2745C94.6996 76.6938 94.541 77.1012 94.4862 77.5244C94.3639 78.4696 93.9916 79.4334 93.7145 80.3441C93.6956 80.4063 93.5078 80.9795 93.6169 81.0121C93.6957 81.0356 93.894 81.078 93.9398 81.1531C94.018 81.2815 94.1777 81.3409 94.3063 81.407C94.4999 81.5067 94.6179 81.7341 94.7702 81.8818C95.0082 82.1125 95.3345 82.2829 95.5315 82.5423C95.71 82.7773 95.9429 82.9709 96.1482 83.1811C96.6074 83.651 97.1769 84.1649 97.5385 84.7151C97.7219 84.9942 98.0045 85.2578 98.2385 85.4972C98.4198 85.6828 98.5177 85.9194 98.7008 86.1068" stroke="#2F80ED" stroke-width="2" stroke-linecap="round"/>
<path d="M86.7406 82.7771C87.0817 82.7811 87.3539 82.8959 87.6767 83.0077C88.2023 83.1897 88.7475 83.3276 89.2275 83.6124C89.5717 83.8166 89.9563 83.9463 90.3049 84.1417C90.5312 84.2685 90.8539 84.3044 91.0349 84.4897" stroke="#2F80ED" stroke-width="2" stroke-linecap="round"/>
<path d="M77.8565 72.4427C77.7386 72.4282 77.6305 72.306 77.5225 72.2554C76.813 71.9229 76.1237 71.4516 75.3641 71.2447C74.9658 71.1362 74.5066 70.9596 74.0914 70.9548C73.5661 70.9487 73.3213 71.4208 72.9363 71.7284C71.0557 73.2309 68.8906 74.5678 66.6723 75.5184C65.9555 75.8255 65.2605 76.1626 64.5373 76.4487C64.3047 76.5407 63.8702 76.8215 63.6093 76.7436C63.5375 76.7222 63.3821 75.2463 63.3839 75.0943C63.3906 74.5178 63.0576 74.877 62.7323 74.9454C62.5377 74.9862 61.9594 74.9805 61.8175 75.0914C61.5332 75.3135 61.6779 73.9454 61.68 73.7679C61.6835 73.4681 61.2552 73.7452 60.9542 73.7595C60.2279 73.7937 59.5097 73.8802 58.756 73.8715C58.5071 73.8686 57.7699 74.005 58.0403 73.653C58.5892 72.9386 59.4965 72.4978 60.2707 72.0819C61.2826 71.5383 62.3365 71.1044 63.4082 70.6971C65.9585 69.7277 68.5982 69.0418 71.0709 67.8594C72.0616 67.3857 73.0268 66.8814 74.0031 66.3805C74.2868 66.235 74.6904 66.0942 74.8389 65.8057" stroke="#2F80ED" stroke-width="2" stroke-linecap="round"/>
<path d="M74.6615 66.1139C74.4962 66.0913 74.2452 65.9194 74.0718 65.8687C73.6542 65.7465 73.2591 65.5358 72.8833 65.3187C71.6366 64.5982 70.3859 63.8929 69.2427 63.0091C67.9409 62.0027 66.7617 60.7523 65.9691 59.3003C65.4374 58.3261 65.4088 57.368 65.196 56.3256C65.1626 56.1616 65.2333 55.9724 65.0891 55.8445C64.7447 55.5389 64.4068 55.2288 64.0705 54.9091C63.7565 54.6107 63.4912 54.2572 63.2214 53.9195C62.9794 53.6166 63.6201 53.838 63.7749 53.8631C64.1007 53.9158 64.4276 53.9701 64.7527 54.0267C64.8981 54.052 65.0818 54.1762 65.2313 54.1448C65.3238 54.1253 65.0232 53.7901 64.9743 53.7578C64.7305 53.5971 64.6872 53.283 64.5056 53.0705C64.297 52.8264 64.1658 52.548 64.0617 52.2478C63.8112 51.5258 63.3603 50.8451 63.183 50.0994C63.1499 49.9598 63.1052 49.7996 63.1154 49.6551C63.1242 49.5303 63.4464 49.6225 63.5332 49.5871C63.623 49.5505 63.8843 49.5844 63.9377 49.5322C64.0277 49.4442 63.2793 49.0796 63.2151 49.0472C62.5719 48.7223 61.9316 48.4733 61.2654 48.2037C59.9255 47.6613 58.5071 47.3216 57.1334 46.8748C56.7712 46.7569 56.3702 46.6488 56.029 46.4978C55.8062 46.3993 55.598 46.2326 55.3847 46.113C55.3207 46.0772 55.1336 45.8007 55.2984 45.8439C55.484 45.8926 56.0441 46.154 55.5935 45.801C54.7004 45.1014 53.5473 44.7148 52.5199 44.2626C51.9229 43.9998 51.2913 43.7866 50.7388 43.4376C50.596 43.3474 50.2337 43.2188 50.5919 43.2572C50.9487 43.2953 51.3077 43.3877 51.6552 43.4747C51.7406 43.4961 52.1885 43.5687 51.8902 43.4741C51.2475 43.2704 50.6197 43.0077 50.0291 42.6979C49.7238 42.5377 49.2719 42.3449 49.0231 42.1036C48.8837 41.9684 48.3895 41.7558 48.327 41.6189C48.2527 41.4562 49.2516 41.2414 48.6761 41.2059C48.3063 41.1831 47.9466 41.0123 47.5734 40.9581C46.9478 40.8673 46.0439 40.6525 45.5292 40.2757C44.7844 39.7306 43.9249 39.3504 43.2606 38.6705C42.9696 38.3727 42.8768 38.1489 43.4079 38.2386C43.8734 38.3172 44.1446 38.5773 44.5336 38.7879C44.6878 38.8714 45.2975 39.1612 45.2644 39.1274C44.5405 38.3864 43.5055 37.9804 42.7036 37.3235" stroke="#2F80ED" stroke-width="2" stroke-linecap="round"/>
<path d="M41.8777 36.5989C41.8347 36.394 41.45 36.0202 41.3338 35.8379C41.2106 35.6446 41.0608 35.4839 40.9396 35.2905C40.7966 35.0622 40.3665 34.1142 40.5119 33.9318C40.7314 33.6561 41.4189 33.8766 41.639 34.0673C41.7819 34.1911 41.9408 34.2874 42.0952 34.397C42.2878 34.5336 42.4332 34.771 42.6391 34.8799C43.0383 35.0911 43.4249 35.2618 43.8101 35.5158C43.9215 35.5893 44.0858 35.7008 44.1508 35.8177C44.1706 35.8533 44.2584 35.8726 44.2928 35.8458C44.3659 35.7887 44.045 35.5018 44.0223 35.4785C43.1002 34.5348 42.0821 33.6707 41.2985 32.6004C40.8026 31.9229 40.3187 31.2598 39.8625 30.558" stroke="#2F80ED" stroke-width="2" stroke-linecap="round"/>
<path d="M39.3368 29.6581C39.2268 29.5314 39.0975 28.6354 39.3194 28.5888C39.9047 28.4659 40.4153 29.1311 40.8294 29.3908C40.9147 29.4443 41.6272 30.1786 41.5942 29.9458C41.5302 29.4953 41.1912 28.9554 40.958 28.5747C40.5812 27.9594 40.2639 27.3133 39.9075 26.6858" stroke="#2F80ED" stroke-width="2" stroke-linecap="round"/>
<path d="M39.3846 25.5479C39.0924 24.946 38.2284 22.9564 39.1816 22.507C39.7028 22.2613 40.0131 22.7239 40.4013 22.9415C40.5789 23.0411 40.6704 23.347 40.7786 23.5119C41.1418 24.0655 41.5208 24.611 41.8915 25.1599" stroke="#2F80ED" stroke-width="2" stroke-linecap="round"/>
<path d="M42.7705 26.4213C42.9151 26.5785 42.9947 26.788 43.1217 26.9616" stroke="#2F80ED" stroke-width="2" stroke-linecap="round"/>
<path d="M43.7076 27.8024C43.8328 27.9448 43.9461 28.1232 44.0463 28.283C44.2867 28.6667 44.6142 28.9775 44.848 29.3614C45.2076 29.9519 45.6985 30.5447 46.1723 31.0483C47.1324 32.0688 47.8436 33.1565 49.0316 33.9413C49.4344 34.2074 49.8753 34.4206 50.3214 34.605C50.3671 34.6239 50.7753 34.8168 50.6916 34.6491C50.2718 33.8076 49.4071 33.0627 48.8017 32.3565C47.9383 31.3492 46.9514 30.2688 46.354 29.0777C45.7558 27.8849 45.3386 26.6618 44.987 25.3745" stroke="#2F80ED" stroke-width="2" stroke-linecap="round"/>
<path d="M45.0011 24.1832C45.5378 23.7171 45.9129 23.9249 46.302 24.4565C47.4239 25.989 48.6717 27.588 49.5028 29.2997C49.732 29.7718 50.0799 30.1794 50.2947 30.6594C50.5327 31.1913 50.8526 31.7405 51.1501 32.2448C51.6398 33.0751 52.2385 33.8606 52.8071 34.6373C53.2986 35.3088 53.094 33.8967 52.9913 33.5968C52.7225 32.8121 52.3117 32.0608 51.9786 31.3012C51.4359 30.0635 50.93 28.5233 50.9245 27.1581C50.923 26.7995 51.0482 26.5838 51.1864 26.2675C51.2897 26.031 51.8162 25.9441 52.0127 26.0851C52.6484 26.5412 52.7633 27.2919 52.9996 28.0296" stroke="#2F80ED" stroke-width="2" stroke-linecap="round"/>
<path d="M53.6382 29.4668C53.8684 29.919 54.056 30.3883 54.2776 30.8445" stroke="#2F80ED" stroke-width="2" stroke-linecap="round"/>
<path d="M54.8596 32.043C54.9027 32.4767 55.3225 32.9952 55.5294 33.3648C55.8851 34.0004 56.4472 34.6408 56.6715 35.3409C56.7717 35.6534 56.7915 35.3194 56.7859 35.1866C56.7686 34.779 56.7071 34.3356 56.6216 33.9369C56.415 32.9722 56.0952 32.0239 55.8506 31.0681C55.6118 30.1348 55.3428 29.0094 56.1414 28.258C56.8819 27.5614 57.6365 29.2498 57.8654 29.7278C58.4464 30.9411 58.9566 32.1944 59.4608 33.4369C59.7123 34.0567 60.0601 34.6491 60.3899 35.2318C60.7375 35.8459 60.9694 36.554 61.4441 37.091C62.1231 37.8592 62.6444 38.7113 63.3728 39.4568C64.1463 40.2485 64.9009 41.019 65.8031 41.6696C66.1581 41.9257 66.5597 42.1058 66.9071 42.3709C67.0636 42.4903 67.2564 42.6472 67.4259 42.7344" stroke="#2F80ED" stroke-width="2" stroke-linecap="round"/>
<path d="M68.3076 43.7574C68.1235 43.3541 67.8602 42.9984 67.6691 42.5948C67.4197 42.0683 67.2648 41.5169 67.059 40.9725C66.9859 40.779 66.7598 40.3371 67.1468 40.5399C68.0571 41.017 68.9283 41.5164 69.8915 41.9024C70.6641 42.212 71.4462 42.6028 72.1659 43.0012C72.8918 43.403 73.6934 43.6625 74.3937 44.126C74.7286 44.3476 75.103 44.5646 75.4084 44.8229C75.4783 44.8821 75.9182 45.1711 75.9144 45.1466C75.8348 44.6322 75.4045 44.1722 75.1262 43.7571C74.7837 43.2464 74.4097 42.7465 74.0581 42.242C73.9693 42.1147 73.7822 41.8257 74.0204 42.0695C74.5355 42.5967 75.3002 42.9378 75.9837 43.168C77.8743 43.8048 79.7405 44.6068 81.5138 45.5194" stroke="#2F80ED" stroke-width="2" stroke-linecap="round"/>
<path d="M82.5812 45.9487C84.483 46.5845 86.5055 47.4487 88.0899 48.7235C88.5865 49.1232 89.1134 49.655 89.4429 50.2122C89.5781 50.4407 89.5299 51.0135 89.553 51.276C89.6033 51.846 89.7015 52.4102 89.7683 52.9798C89.8755 53.8944 90.1549 54.8223 90.4052 55.7047C90.5182 56.1027 90.5891 56.6293 90.8241 56.9772C91.1149 57.4079 91.2753 57.9823 91.5385 58.4452C92.1116 59.4532 92.7145 60.3069 93.4763 61.1753C93.7491 61.4863 94.0091 61.7981 94.1896 62.1699" stroke="#2F80ED" stroke-width="2" stroke-linecap="round"/>
<path d="M91.5879 58.2288C92.9305 58.2443 94.0783 59.1119 95.2479 59.6546C95.565 59.8018 95.8742 60.0185 96.1999 60.1392C96.3729 60.2032 96.507 60.3449 96.687 60.347" stroke="#2F80ED" stroke-width="2" stroke-linecap="round"/>
<path d="M104.708 64.2384C105.25 63.7677 106.101 63.424 106.769 63.2204C107.996 62.846 109.241 62.4221 110.515 62.232C111.876 62.0288 113.172 61.5416 114.513 61.2465C115.77 60.9698 117.009 60.6057 118.276 60.364C119.608 60.1097 120.894 60.032 122.243 60.0476C123.043 60.0569 123.843 60.2021 124.642 60.2114C125.06 60.2162 125.572 60.1211 125.937 59.9043C126.137 59.7859 126.298 59.5762 126.464 59.4171C126.719 59.1724 127.002 58.9842 127.277 58.7671C127.854 58.3107 128.697 58.0632 129.386 57.8403C130.471 57.4896 131.605 57.261 132.741 57.1821C133.731 57.1134 134.721 57.0702 135.711 57.0127C136.316 56.9775 136.961 57.0818 137.556 56.9636C137.93 56.8895 138.664 56.9062 138.389 56.3391C138.05 55.6402 137.114 55.5931 136.431 55.4782C135.847 55.38 135.254 55.3426 134.672 55.2338C134.225 55.1503 133.692 55.073 133.243 55.1367C132.202 55.2845 131.117 55.1955 130.068 55.2936C129.935 55.306 129.548 55.3794 129.67 55.3268C130.624 54.9161 131.562 54.6384 132.596 54.505C134.002 54.3238 135.421 54.1074 136.788 53.7181C137.089 53.6325 138.471 53.4939 137.592 53.0328C136.84 52.6385 135.841 52.5217 135.012 52.6304C134.364 52.7152 133.712 52.8735 133.063 52.9249C132.5 52.9694 131.942 52.9819 131.385 53.0866" stroke="#2F80ED" stroke-width="2" stroke-linecap="round"/>
<path d="M130.295 53.255C130.189 53.2644 129.079 53.5276 129.08 53.4876C129.08 53.4062 129.696 53.1264 129.771 53.0854C130.257 52.8206 130.777 52.6476 131.296 52.4663C132.089 52.1894 132.888 52.0287 133.69 51.7969C134.234 51.6395 134.763 51.389 135.288 51.1737C135.494 51.0888 137.114 50.4729 136.427 50.1098C135.75 49.7515 135.076 50.0052 134.364 50.0858C133.854 50.1435 133.341 50.215 132.836 50.3147C132.24 50.4326 131.604 50.4743 131.02 50.6409C129.745 51.0048 128.395 51.365 127.183 51.9076C126.934 52.0189 126.692 52.1415 126.456 52.2692C126.333 52.3357 126.471 52.2502 126.538 52.1594C126.882 51.6927 127.315 51.3627 127.784 51.0287C128.766 50.331 129.827 49.8473 130.875 49.2651C131.767 48.7701 132.636 48.2438 133.501 47.705C133.99 47.4004 134.407 47.0283 134.767 46.5796C134.912 46.3987 135.1 46.1584 135.037 45.9057C134.971 45.6465 134.725 45.5598 134.485 45.557C134.293 45.5548 134.133 45.6044 133.952 45.6666C133.478 45.8297 132.987 45.9295 132.513 46.0878C131.385 46.464 130.23 46.7849 129.122 47.2187C127.735 47.7618 126.372 48.3599 124.99 48.9149C124.243 49.2149 123.596 49.6466 122.948 50.1093C122.684 50.2971 122.546 50.4863 122.332 50.6961C122.21 50.8148 122.098 50.9838 121.995 51.1201C121.863 51.2931 121.718 51.5505 122.02 51.3318C123.358 50.3614 124.713 49.2352 125.734 47.9269C125.877 47.7435 126.135 47.454 125.936 47.2346C125.695 46.969 125.371 46.8136 125.001 46.9217C124.347 47.1124 123.716 47.5624 123.119 47.8814C122.323 48.3074 121.646 48.907 120.917 49.4314" stroke="#2F80ED" stroke-width="2" stroke-linecap="round"/>
<path d="M120.047 50.1914C119.211 51.0083 118.308 51.7746 117.438 52.5395C117.332 52.6322 117.541 52.4057 117.576 52.3473C117.794 51.9804 118.026 51.6157 118.223 51.2373C118.485 50.7351 118.704 50.2634 118.651 49.6995C118.562 48.7445 117.111 50.2535 116.871 50.449C115.681 51.4175 114.304 52.3489 113.334 53.5514C113.208 53.7079 112.914 54.2047 112.936 54.0048C112.963 53.7591 113.217 53.4389 113.33 53.2141C113.615 52.6464 113.99 52.1766 114.232 51.5836C114.292 51.4381 114.505 50.8275 114.219 50.7605C113.887 50.6825 113.536 51.0894 113.3 51.2557C112.572 51.7694 111.859 52.3025 111.14 52.8288C110.411 53.3621 109.82 54.013 109.159 54.6204C108.743 55.0019 108.377 55.4142 107.977 55.8047C107.692 56.0832 108.134 55.4967 108.193 55.4045C108.513 54.9103 108.836 54.3227 108.862 53.721C108.876 53.3931 109.018 52.9541 108.715 52.7125C108.439 52.4928 107.812 53.2316 107.673 53.3699C106.904 54.1331 106.233 54.9892 105.511 55.7936C105.167 56.1763 104.885 56.5988 104.611 57.024C104.591 57.0543 104.432 57.238 104.432 57.2308C104.433 57.1507 104.577 56.9892 104.612 56.9233C104.713 56.7306 104.813 56.5362 104.89 56.3326C105.102 55.7756 105.326 55.2958 105.317 54.6865C105.314 54.4669 105.078 54.1576 104.848 54.3413C104.047 54.9812 103.21 55.665 102.633 56.5279C102.272 57.0683 101.661 57.5235 101.177 57.948C100.789 58.2886 100.391 58.6039 100.023 58.964C99.6066 59.3705 98.8174 59.8872 98.2583 60.0509C97.9911 60.1292 97.713 60.2031 97.4598 60.3261C97.2722 60.4171 97.0376 60.4581 96.868 60.5683" stroke="#2F80ED" stroke-width="2" stroke-linecap="round"/>
<path d="M100.109 63.3389C100.538 63.4026 100.949 63.5588 101.377 63.6339C102.087 63.7585 102.783 63.9245 103.492 64.0551C104.496 64.2403 105.592 64.4303 106.531 64.8515C106.997 65.0604 107.498 65.3397 107.491 65.9105C107.489 66.1463 107.437 66.2854 107.621 66.4316C107.962 66.7034 108.432 66.873 108.801 67.118C109.206 67.387 109.667 67.834 109.831 68.2943C110.057 68.9295 109.602 69.9535 110.116 70.4795" stroke="#2F80ED" stroke-width="2" stroke-linecap="round"/>
<path d="M110.267 70.8692L110.228 70.8688" stroke="#2F80ED" stroke-width="2" stroke-linecap="round"/>
<path d="M110.115 70.5569C110.014 70.5445 109.878 70.4079 109.785 70.359C109.647 70.2861 109.504 70.2182 109.368 70.1429C109.013 69.9468 108.522 70.0017 108.135 69.9324C107.876 69.8862 107.599 69.9068 107.337 69.9037C107.019 69.9 106.708 69.8104 106.389 69.8151C106.158 69.8185 106.824 70.0142 107.056 70.0169" stroke="#2F80ED" stroke-width="2" stroke-linecap="round"/>
<path d="M106.47 70.3596C106.344 70.3738 106.137 70.5934 106.039 70.6672C105.74 70.8918 105.44 71.1087 105.113 71.2925C104.546 71.6116 103.903 71.7484 103.29 71.9505C102.699 72.1455 102.036 72.2525 101.421 72.3384C100.888 72.4129 100.361 72.5609 99.8325 72.6413C98.8699 72.7876 97.8439 73.1989 97.0003 73.6843C96.6577 73.8814 96.2626 74.0659 95.8883 74.1931C95.5728 74.3004 95.2124 74.4529 94.9705 74.6891" stroke="#2F80ED" stroke-width="2" stroke-linecap="round"/>
<path d="M106.198 145.963C106.448 145.785 106.973 145.839 107.253 145.842C108.449 145.856 109.643 145.936 110.839 145.95C113.255 145.978 115.691 145.718 118.093 146.035" stroke="#2F80ED" stroke-width="2" stroke-linecap="round"/>
<path d="M109.843 142.798C110.098 143.455 110.024 144.493 110.016 145.206" stroke="#2F80ED" stroke-width="2" stroke-linecap="round"/>
<path d="M107.112 142.031C109.712 141.964 112.335 142.125 114.932 141.988" stroke="#2F80ED" stroke-width="2" stroke-linecap="round"/>
<path d="M114.019 122.795C117.598 122.837 121.133 123.491 124.629 124.188" stroke="#2F80ED" stroke-width="2" stroke-linecap="round"/>
<path d="M121.551 124.554L121.528 126.492" stroke="#2F80ED" stroke-width="2" stroke-linecap="round"/>
<path d="M118.308 127.524C120.086 127.545 121.863 127.669 123.629 127.868C124.672 127.985 125.733 128.06 126.765 128.261C127.227 128.351 127.653 128.526 128.121 128.574" stroke="#2F80ED" stroke-width="2" stroke-linecap="round"/>
<path d="M123.26 121.232L123.24 122.969" stroke="#2F80ED" stroke-width="2" stroke-linecap="round"/>
<path d="M119.73 120.188C121.08 120.204 122.455 120.523 123.801 120.652C124.935 120.76 126.092 120.964 127.203 121.211" stroke="#2F80ED" stroke-width="2" stroke-linecap="round"/>
<path d="M61.6643 128.485C61.9927 128.489 62.3489 128.747 62.6977 128.77C62.9878 128.79 62.9494 128.911 62.6862 128.716C62.3825 128.49 62.0816 128.381 61.7141 128.377C61.5306 128.375 61.4137 128.319 61.2359 128.317C60.9298 128.313 61.8481 128.324 62.1542 128.327C62.73 128.334 61.8364 128.177 61.6715 128.131C61.3736 128.048 61.1743 127.934 60.8645 127.931C60.5907 127.927 61.4153 127.976 61.6753 128.061C62.0232 128.176 63.118 128.27 62.7519 128.28C62.2352 128.294 61.7012 128.194 61.2337 127.977C61.047 127.891 60.8396 127.821 60.6354 127.819C60.5912 127.818 60.3525 127.815 60.5263 127.817C60.8605 127.821 61.1954 127.819 61.5295 127.832C62.1449 127.856 62.7816 127.889 63.3921 127.972C63.5533 127.994 63.6703 128.094 63.8237 128.129C64.0845 128.187 64.2788 128.339 64.5267 128.413C64.566 128.424 64.5731 128.537 64.5432 128.561C64.3921 128.682 63.7972 128.436 63.6296 128.399C63.1786 128.3 62.7812 128.213 63.421 128.615C63.7732 128.836 64.1342 129.02 64.4621 129.279C64.5573 129.354 64.9439 129.569 64.623 129.514C64.3271 129.463 64.0963 129.222 63.7831 129.274C63.5144 129.318 64.0944 129.939 64.1538 129.981C64.3783 130.143 64.2624 129.971 64.1829 129.83C63.9862 129.482 63.7666 129.161 63.5091 128.855C63.316 128.626 63.1317 128.356 62.9233 128.142C62.8284 128.045 63.0134 128.4 63.0826 128.517C63.1941 128.705 63.328 128.882 63.4338 129.076C63.5083 129.212 63.6488 129.31 63.6961 129.458C63.7152 129.517 63.016 129.086 63.3659 129.184C64.1429 129.402 64.9442 129.866 65.6141 130.308C65.8349 130.453 65.7427 129.677 65.7445 129.527C65.7498 129.063 66.2283 129.805 66.3395 129.97C66.3844 130.037 66.5418 130.206 66.4675 130.175C66.2534 130.087 66.0109 129.861 65.8087 129.734C65.7024 129.667 65.2783 129.133 65.1752 129.211C64.9189 129.406 65.1291 130.126 65.1342 130.393C65.1397 130.682 65.2604 131.538 65.2637 131.249C65.2674 130.928 64.987 130.57 64.9206 130.254C64.8976 130.144 64.9697 130.473 65.0047 130.579C65.1033 130.879 65.2537 131.139 65.4257 131.4C65.603 131.669 65.8354 131.951 65.9614 132.249C65.986 132.307 66.2524 132.777 66.2546 132.582C66.2616 131.979 66.218 131.392 66.136 130.793C66.1267 130.725 65.9703 129.666 66.0947 129.646C66.2663 129.62 66.4447 130.43 66.4756 130.518C66.7128 131.192 67.0021 131.841 67.268 132.503C67.3237 132.642 67.3829 132.777 67.4481 132.912C67.4484 132.912 67.5498 133.111 67.5551 133.098C67.633 132.909 67.4888 132.527 67.4579 132.336C67.4104 132.042 67.4089 131.744 67.3347 131.455C67.2815 131.248 67.3615 131.339 67.4255 131.468C67.537 131.694 67.6731 131.917 67.757 132.154C67.7963 132.265 67.8363 132.478 67.922 132.565C68.0101 132.656 67.9859 132.676 68.01 132.815C68.0738 133.183 68.1893 133.524 68.2308 133.903C68.2403 133.989 68.4783 135.273 68.2984 135.128C67.7891 134.718 67.5741 133.972 67.2633 133.425C66.9469 132.868 66.9451 134.201 66.9435 134.343C66.939 134.728 66.9281 135.107 67.009 135.486C67.0692 135.768 67.0414 135.312 67.0421 135.253C67.053 134.308 67.1557 133.219 66.6694 132.363C66.6428 132.316 66.5946 132.062 66.5434 132.252C66.4451 132.618 66.4545 133.06 66.469 133.434C66.4861 133.871 66.5887 134.301 66.6783 134.727C66.7161 134.907 66.6437 134.344 66.6229 134.278C66.6117 134.242 66.4264 133.684 66.4911 133.886C66.6226 134.296 66.7099 134.71 66.8557 135.117C67.0616 135.694 67.2381 136.302 67.5025 136.847C67.6095 137.067 67.7966 137.158 68.0438 137.223C68.299 137.29 68.1218 136.012 68.0958 135.872C68.0592 135.673 67.9669 135.484 67.9693 135.282C67.9705 135.176 67.9695 135.545 67.9749 135.585C68.0379 136.054 68.2218 136.952 68.6834 137.215C68.9894 137.39 69.0387 136.475 69.0451 136.349C69.077 135.722 68.9197 135.061 68.5355 134.555C68.0421 133.905 69.5434 135.847 70.1388 136.404C70.1653 136.429 70.429 136.687 70.3194 136.513C70.1241 136.203 70.0579 135.849 69.9431 135.505C69.8213 135.14 69.6795 134.813 69.5125 134.469C69.4468 134.334 69.3169 134.124 69.294 133.976C69.2667 133.8 69.0838 133.746 68.9398 133.668C68.765 133.574 68.4534 133.372 68.24 133.369C68.1634 133.368 68.0567 133.841 68.0398 133.907C67.9363 134.306 67.9756 134.739 67.9708 135.149C67.9693 135.28 67.8823 135.785 68.0169 135.883C68.2232 136.032 68.3648 136.303 68.5586 136.477C68.8485 136.737 69.1343 136.898 69.3964 137.166C69.647 137.422 70.0053 137.599 70.2493 137.849C70.2525 137.852 70.0675 137.789 70.041 137.773C69.8991 137.689 69.822 137.53 69.6904 137.43C69.564 137.334 69.425 137.178 69.2566 137.194C69.0243 137.218 69.0978 137.534 69.197 137.63C69.3521 137.78 69.4739 137.806 69.6639 137.881C69.9677 138.002 70.319 138.013 70.6094 138.162C70.7101 138.214 70.9396 138.284 71.0473 138.304C71.3612 138.36 70.9338 137.031 70.8218 136.837C70.6943 136.615 70.3391 135.936 70.4507 136.166C70.5535 136.377 70.7203 136.572 70.8714 136.749C70.9809 136.878 71.3476 137.216 71.1972 137.138C70.9712 137.022 70.0796 136.527 69.9273 136.863C69.8111 137.119 70.1492 137.407 70.3136 137.534C70.4341 137.628 71.4562 138.44 71.4266 138.008C71.3923 137.506 70.9887 137.119 70.7659 136.694C70.6449 136.463 70.6835 136.319 70.9085 136.426C71.1806 136.554 71.3451 136.854 71.5467 137.06C71.7232 137.241 71.8536 137.396 72.0656 137.542C72.2612 137.678 72.6216 137.871 72.8618 137.891C72.9557 137.899 72.9703 137.97 73.0545 137.999C73.298 138.084 72.5442 137.925 72.2921 137.872C71.9189 137.794 71.4456 137.575 71.1166 137.816C71.03 137.88 70.9887 138.235 71.0745 138.31C71.5221 138.703 71.9023 138.931 72.5278 138.982C73.0427 139.023 73.494 139.208 74.0225 139.214C74.3045 139.217 74.6189 139.18 74.8953 139.236C75.0416 139.266 75.0933 139.29 74.9042 139.252C74.6119 139.192 74.3645 138.969 74.0997 138.833C73.6524 138.603 73.2643 138.263 72.7959 138.081C72.5049 137.968 72.4783 137.988 72.1937 137.992C72.1025 137.994 71.9596 138.011 71.9769 138.132C72.0088 138.357 72.1584 138.312 72.3472 138.346C72.7147 138.412 73.0422 138.493 73.4185 138.498C73.6346 138.5 73.9603 138.567 74.1703 138.494C74.2386 138.471 73.8792 138.172 73.8291 138.121C73.7511 138.041 73.7279 137.976 73.6131 137.93C73.488 137.88 73.0756 137.894 73.2103 137.895C73.497 137.898 73.8343 138.144 74.0943 138.254C74.3482 138.361 74.6744 138.349 74.945 138.352C75.1968 138.355 75.4348 138.412 75.6869 138.415C76.0297 138.419 76.3833 138.389 76.7169 138.469C77.2211 138.591 77.806 138.603 78.3279 138.609C78.7088 138.614 79.0896 138.618 79.4705 138.623C80.2878 138.632 81.2847 138.869 82.0862 138.65C82.1272 138.639 82.1856 138.59 82.0927 138.611C81.8139 138.671 81.5208 138.652 81.2372 138.67C80.8532 138.696 80.3372 138.584 79.9639 138.686C79.7859 138.735 79.5918 138.82 79.4043 138.843C79.1424 138.875 78.8605 139.043 78.6077 139.049C78.3846 139.054 78.1967 139.153 77.97 139.151C77.6588 139.147 77.3476 139.144 77.0365 139.14C76.5273 139.134 76.0181 139.128 75.5089 139.122C75.2513 139.119 75.0084 139.062 74.7488 139.059C74.2605 139.053 75.7251 139.031 76.2133 139.024C77.1564 139.01 78.0823 139.065 79.0207 138.987C79.7206 138.929 80.6157 138.862 81.2772 138.616C81.4415 138.555 82.2543 138.652 82.3366 138.492" stroke="#2E3192" stroke-linecap="round"/>
<path d="M73.3789 120.492C73.2829 120.501 73.0981 120.646 73.0487 120.73C73.0087 120.798 72.9943 120.843 72.9646 120.923C72.9188 121.047 72.7456 121.054 72.7193 121.166C72.6927 121.279 72.4023 121.464 72.3027 121.54C72.106 121.689 72.329 121.386 72.3839 121.335C72.5093 121.218 72.6483 121.114 72.7758 121C72.9007 120.888 73.0532 120.699 73.2194 120.653C73.3539 120.617 73.6679 120.477 73.7351 120.359C73.8142 120.221 73.7585 120.242 73.6504 120.337C73.4349 120.527 73.2208 120.719 72.9923 120.893C72.8357 121.013 72.5816 121.082 72.4969 121.266C72.4633 121.34 72.313 121.459 72.2485 121.515C71.867 121.846 71.5887 122.307 71.3221 122.717C71.0756 123.096 70.9788 123.563 70.7323 123.91C70.6732 123.994 70.7245 124.136 70.6618 124.237C70.5904 124.352 70.5054 124.511 70.4934 124.647C70.4766 124.837 70.3473 124.977 70.2816 125.136C70.1411 125.475 69.8363 125.811 69.8208 126.179C69.8128 126.37 69.6367 126.552 69.599 126.747C69.5563 126.967 69.4704 127.179 69.4278 127.399C69.389 127.599 69.3655 127.794 69.3087 127.998C69.2778 128.109 69.1603 128.203 69.1444 128.305C69.1381 128.347 69.1693 128.55 69.1124 128.457C68.9484 128.188 68.986 127.809 68.7987 127.535C68.7024 127.394 68.6982 127.074 68.6696 126.906C68.5687 126.311 68.7847 125.705 68.9869 125.163C69.0728 124.933 69.1026 124.613 69.2411 124.414C69.3939 124.195 69.6341 124.017 69.8059 123.809C70.0897 123.465 70.4047 123.104 70.721 122.795C70.7747 122.742 70.803 122.655 70.8566 122.602C70.9068 122.553 70.9765 122.38 70.9979 122.446C71.0351 122.563 70.9159 122.745 70.8721 122.839C70.721 123.162 70.5603 123.479 70.4002 123.797C70.2054 124.185 70.0258 124.592 69.8589 124.992C69.7897 125.157 69.8529 125.742 69.7039 125.808C69.5916 125.858 69.2838 126.259 69.3434 126.053C69.3914 125.886 69.3538 125.694 69.4583 125.551C69.5332 125.448 69.6119 125.379 69.6134 125.249" stroke="#006837" stroke-linecap="round"/>
<path d="M83.1589 124.042C82.9965 124.262 82.831 124.238 82.5859 124.309C82.0384 124.466 81.4692 124.588 80.9027 124.647C80.4773 124.691 79.7992 124.591 79.4805 124.952C79.0102 125.484 78.386 125.685 77.8187 126.054C77.7639 126.089 77.3307 126.323 77.5931 126.16C77.918 125.959 78.3197 125.85 78.6715 125.706C80.5328 124.943 82.4557 124.349 84.4562 124.045C84.8087 123.992 85.2387 123.892 85.5631 123.743C85.8174 123.626 86.2249 123.648 86.4392 123.48C86.5806 123.37 86.8076 123.414 86.974 123.365C87.1959 123.3 87.395 123.219 87.6304 123.221C88.077 123.226 88.5484 123.28 88.983 123.17C89.1712 123.123 89.2697 123.022 89.4878 123.025C89.552 123.025 89.7274 122.946 89.6762 122.984C89.5143 123.107 89.1395 123.009 88.9483 123.024C88.0393 123.096 87.1522 123.161 86.2369 123.151C85.6325 123.144 84.9708 123.13 84.3719 123.211C84.2577 123.226 83.9234 123.302 84.0289 123.255C84.4157 123.085 84.7829 122.89 85.1983 122.793C85.2676 122.777 85.8787 122.66 85.7778 122.742C85.333 123.104 84.5975 123.287 84.0657 123.477C83.5084 123.676 82.9343 123.817 82.3742 124.006C82.1684 124.076 81.9829 124.217 81.7826 124.308C80.9344 124.696 80.1016 125.147 79.2613 125.555C78.8753 125.743 77.7011 126.219 78.1266 126.163C78.7503 126.082 79.4112 125.695 79.9899 125.461C80.3491 125.315 80.9262 125.281 81.2286 125.035C81.6415 124.699 80.3662 125.76 79.8372 125.82C79.7012 125.835 80.0685 125.672 80.1912 125.611C80.5474 125.436 80.9269 125.303 81.3027 125.176C81.7753 125.016 82.2835 124.929 82.7387 124.723C83.1231 124.549 83.8135 123.723 82.9566 123.713C82.4413 123.707 81.9761 123.749 81.4753 123.886C81.1678 123.971 80.8588 124.052 80.5538 124.146C80.4202 124.186 80.1251 124.382 80.1465 124.244C80.1734 124.07 80.774 123.813 80.8918 123.752C81.296 123.545 81.7366 123.294 82.1806 123.188C82.2855 123.163 82.3808 123.16 82.4871 123.162C82.6641 123.164 82.8539 123.012 83.0348 122.98C83.0491 122.977 83.4637 122.941 83.4502 122.973C83.3186 123.278 82.9543 123.396 82.68 123.515C81.8057 123.896 80.8059 123.812 79.9205 124.126C79.5553 124.256 79.1716 124.347 78.801 124.471C78.5836 124.543 78.3138 124.827 78.1403 124.984C77.8953 125.207 77.4089 125.319 77.11 125.476C76.8281 125.624 76.5524 125.835 76.3273 126.055C76.2193 126.16 76.0601 126.315 75.9174 126.371C75.7144 126.451 75.5532 126.609 75.3676 126.735C75.2277 126.829 75.0463 126.877 74.9221 126.99C74.8431 127.062 74.8002 127.155 74.7072 127.218C74.0858 127.638 73.8169 128.394 73.3055 128.893C73.075 129.118 72.9523 129.427 72.7149 129.638C72.4193 129.901 72.9899 129.222 73.0356 129.163C73.2751 128.853 73.543 128.54 73.756 128.213C73.9551 127.908 74.3992 127.694 74.7186 127.546C75.0351 127.398 75.3604 127.295 75.6662 127.123C75.8575 127.015 76.0873 126.858 76.3034 126.806C76.7902 126.69 77.2346 126.298 77.7326 126.162C77.8347 126.134 77.8135 126.019 77.8738 126.003C77.9538 125.981 78.0386 126.006 77.9517 126.083C77.8196 126.199 77.7627 126.306 77.5963 126.409C77.4396 126.506 77.2723 126.569 77.1295 126.673C76.7715 126.935 76.3268 127.067 75.9404 127.266C75.6883 127.395 75.457 127.435 75.2305 127.576C75.1334 127.636 74.991 127.643 74.8809 127.66C74.6961 127.688 74.4931 127.913 74.3253 128.005C74.1186 128.118 73.9375 128.225 73.7517 128.325C73.7109 128.348 73.5419 128.555 73.5912 128.566C73.8746 128.633 74.3598 128.068 74.572 127.899C74.8845 127.649 75.1848 127.465 75.4838 127.173" stroke="#FBB03B" stroke-linecap="round"/>
<path d="M83.152 129.335C83.4586 129.338 83.6768 129.394 83.247 129.512C82.6518 129.674 81.9482 129.43 81.3725 129.614C81.1646 129.681 80.8863 129.745 80.6677 129.742C80.5644 129.741 80.464 129.79 80.3786 129.845C80.2377 129.937 80.703 129.779 80.725 129.77C80.9117 129.697 81.9317 129.561 81.9524 129.266C81.9858 128.793 79.5144 128.911 79.0406 128.905C78.8107 128.902 78.493 129.126 78.2971 129.236C78.002 129.402 77.6672 129.807 77.3319 129.864C77.0798 129.907 76.7238 130.022 76.5101 130.155C76.2138 130.339 75.7591 130.355 75.4985 130.61C75.2891 130.814 74.8731 130.864 74.6806 131.079C74.4815 131.302 75.2406 130.871 75.5267 130.786C75.8211 130.698 76.1516 130.541 76.4514 130.509C76.6159 130.491 76.7327 130.35 76.8873 130.305C77.0727 130.25 77.2094 130.224 77.3836 130.116C77.548 130.015 77.8169 130.094 78.0062 130.012C78.1608 129.944 78.3537 129.886 78.52 129.881C78.9295 129.87 79.3144 129.672 79.7379 129.677C79.9395 129.679 80.4022 129.683 80.4769 129.467" stroke="#2F80ED" stroke-linecap="round"/>
</svg>
