<svg width="176" height="176" viewBox="0 0 176 176" fill="none" xmlns="http://www.w3.org/2000/svg">
<rect x="4.87579" y="3.88041" width="167.502" height="167.502" rx="83.7511" transform="rotate(0.340487 4.87579 3.88041)" stroke="#DE0000" stroke-width="5"/>
<path d="M59.4345 128.088C59.7869 127.743 60.533 127.834 60.977 127.845C61.7492 127.863 62.4835 128.033 63.2369 128.19C64.067 128.362 64.8725 128.6 65.6324 128.983C66.1807 129.259 66.5957 129.56 67.0739 129.943C68.0754 130.746 68.6546 132.073 69.2548 133.181C70.0261 134.604 71.0869 135.798 72.3729 136.786C73.6392 137.759 75.4724 138.254 77.0461 138.347C78.1187 138.411 79.2055 138.393 80.2781 138.389C81.1506 138.386 82.0184 138.444 82.891 138.454C83.5661 138.462 84.2406 138.433 84.9171 138.441C85.1509 138.443 85.3808 138.483 85.6119 138.486C85.6666 138.487 85.8926 138.483 85.7393 138.564C85.2073 138.846 84.6521 139.033 84.062 139.192C83.3695 139.379 82.6266 139.554 81.9149 139.643C81.5151 139.693 81.1135 139.834 80.7177 139.917C80.2146 140.023 79.6918 140.023 79.19 140.133C78.3586 140.316 77.4467 140.403 76.5961 140.393C75.6106 140.381 74.5886 140.316 73.619 140.143C71.0317 139.681 68.1843 138.967 67.0685 136.299C66.7796 135.608 66.7834 134.85 66.5512 134.147C66.38 133.628 66.0867 133.186 65.8811 132.69C65.5259 131.834 64.8661 131.214 64.154 130.657C63.8071 130.385 63.4273 130.174 63.0467 129.955C62.6414 129.721 62.1885 129.451 61.7507 129.288C60.9765 128.999 60.3043 128.475 59.5073 128.237" stroke="#2E3192" stroke-linecap="round"/>
<path d="M73.2731 132.867C73.2767 132.553 74.4122 132.271 74.6635 132.176C75.4738 131.868 76.3425 131.665 77.184 131.462C78.0725 131.247 78.9772 131.1 79.8665 130.878C80.2676 130.779 80.679 130.695 81.0844 130.613C81.5569 130.518 82.0469 130.554 82.5221 130.479C83.9509 130.254 85.3004 130.404 86.7085 130.656C86.9974 130.707 87.3275 130.795 87.6195 130.799C87.7399 130.8 87.5972 130.679 87.5633 130.649C87.386 130.49 87.0585 130.378 86.8434 130.27C86.4363 130.066 86.0171 129.927 85.5931 129.77C84.8497 129.493 84.0457 129.246 83.2664 129.109C81.7366 128.84 80.0944 128.61 78.5655 129.046C77.1492 129.45 75.7595 130.059 74.6763 131.075C74.198 131.523 73.5003 131.995 73.2757 132.644" stroke="#FF0000" stroke-linecap="round"/>
<path d="M70.9692 133.821L71.0238 133.715" stroke="black" stroke-linecap="round"/>
<path d="M71.1601 133.476C71.1981 133.431 71.2182 133.371 71.242 133.317" stroke="black" stroke-linecap="round"/>
<path d="M71.6214 132.815C71.8223 132.618 71.9808 132.371 72.1774 132.167C72.3327 132.007 72.4419 131.831 72.5806 131.658C72.7557 131.439 72.9669 131.247 73.1483 131.033C73.7903 130.274 74.6343 129.577 75.5028 129.088C77.5279 127.949 79.7133 127.059 81.8797 126.23C83.1734 125.735 84.4999 125.331 85.8162 124.909C86.8261 124.585 87.8384 124.175 88.898 124.049C89.2797 124.004 89.66 123.962 90.0425 123.923C90.4171 123.885 90.8356 123.862 91.1948 123.756C91.336 123.714 91.4802 123.742 91.6251 123.728C91.7795 123.713 91.9287 123.66 92.0827 123.638C92.3964 123.595 92.7062 123.56 93.0235 123.563" stroke="#FBB03B" stroke-linecap="round"/>
<path d="M93.4775 123.542C93.6421 123.544 93.8153 123.531 93.9789 123.515C94.1318 123.5 93.8943 123.403 93.8587 123.392C93.6965 123.344 93.5223 123.361 93.3521 123.354C92.972 123.336 92.6024 123.221 92.2246 123.174C91.6029 123.098 90.9894 122.964 90.3657 122.898C89.5627 122.812 88.766 122.745 87.9605 122.698C87.0238 122.643 86.05 122.801 85.1151 122.864C84.4102 122.911 83.7376 123.023 83.048 123.16C82.4098 123.286 81.7721 123.412 81.1554 123.624C79.7478 124.108 78.3588 124.599 77.0934 125.405C76.75 125.624 76.4045 125.835 76.076 126.075C75.7423 126.319 75.4612 126.587 75.1581 126.865C74.4874 127.481 73.8514 128.029 73.4243 128.84C73.2543 129.163 73.0073 129.461 72.8721 129.8C72.7672 130.064 72.6417 130.319 72.5413 130.584C72.3432 131.107 72.1123 131.627 71.8828 132.137C71.7211 132.497 71.5092 132.88 71.391 133.252C71.3587 133.354 71.2889 133.639 71.1843 133.69" stroke="#FBB03B" stroke-linecap="round"/>
<path d="M69.6065 131.671C69.6298 131.463 69.718 131.261 69.7205 131.046C69.7232 130.812 69.7542 130.582 69.782 130.35C69.8468 129.81 69.9766 129.258 70.1062 128.729C70.263 128.09 70.5038 127.482 70.6899 126.852C70.9146 126.09 71.2166 125.313 71.5832 124.61C71.8294 124.138 72.1026 123.701 72.3714 123.244C72.6366 122.792 73.1105 122.441 73.46 122.055C73.7032 121.787 73.9866 121.535 74.2473 121.28C74.3921 121.139 74.5733 120.972 74.6828 120.802C74.8667 120.517 75.1679 120.31 75.4044 120.071C75.4995 119.974 75.5731 119.881 75.6818 119.798C75.7663 119.734 75.7003 119.732 75.6246 119.747C75.4544 119.781 75.2817 119.787 75.1095 119.806C74.5991 119.864 74.0761 120.006 73.6291 120.263C72.5439 120.889 71.5846 121.719 70.6934 122.59C70.2176 123.054 69.827 123.641 69.4532 124.188C69.203 124.554 68.8855 124.951 68.7574 125.384C68.6865 125.623 68.6854 125.874 68.651 126.118C68.5767 126.646 68.5886 127.235 68.6127 127.763C68.6422 128.413 68.8275 128.984 68.99 129.609" stroke="#006837" stroke-linecap="round"/>
<path d="M69.1973 130.145C69.2457 130.632 69.555 131.075 69.6882 131.538" stroke="#006837" stroke-linecap="round"/>
<path d="M68.2089 130.24C68.1253 130.144 68.0973 130.024 68.0527 129.906C67.9609 129.664 67.8484 129.432 67.7526 129.193C67.4071 128.328 67.1827 127.448 67.1567 126.505C67.1362 125.765 67.1651 124.925 67.3658 124.202C67.4286 123.976 67.4809 123.747 67.5663 123.529C67.5883 123.472 67.6129 123.408 67.6306 123.352C67.633 123.344 67.4511 123.511 67.4269 123.533C66.9363 123.981 66.5499 124.441 66.4138 125.109C66.3412 125.466 66.3144 125.811 66.3348 126.174C66.3595 126.614 66.4006 127.106 66.5355 127.527C66.6717 127.952 66.7984 128.392 67.031 128.776C67.1941 129.046 67.3632 129.313 67.5227 129.583C67.6274 129.76 67.7733 129.911 67.8905 130.082C67.9273 130.136 67.9949 130.21 68.0488 130.238" stroke="#2E3192" stroke-linecap="round"/>
<path d="M56.1903 106.351C55.7229 110.155 54.5397 113.855 53.8659 117.627C52.8246 123.457 51.504 129.288 49.9218 134.989C49.5224 136.428 49.3683 137.911 49.0262 139.36C48.7642 140.47 48.4642 141.541 48.3161 142.677C48.2217 143.401 48.0061 144.139 47.9495 144.861C47.9015 145.474 47.6605 146.045 47.6308 146.655C47.5265 148.799 46.7549 150.867 46.8743 153.038" stroke="#DE0000" stroke-width="2" stroke-linecap="round"/>
<path d="M56.1926 106.156C56.3278 106.142 56.4819 106.051 56.5848 105.965C57.0064 105.615 57.7443 105.693 58.2513 105.638C60.3213 105.413 62.3981 105.35 64.4828 105.375C70.3295 105.442 76.1642 104.808 82.0019 104.614C86.8774 104.451 91.7532 104.344 96.6208 104.069C99.5247 103.904 102.445 103.67 105.356 103.704" stroke="#DE0000" stroke-width="2" stroke-linecap="round"/>
<path d="M104.378 103.985C103.996 104.029 103.669 106.936 103.58 107.345C103.009 109.981 103.024 112.768 102.858 115.45C102.768 116.899 102.771 118.342 102.726 119.792C102.684 121.188 102.417 122.563 102.391 123.959C102.326 127.415 102.161 130.868 102.178 134.328C102.196 137.831 102.506 141.331 102.544 144.834C102.56 146.291 102.864 147.891 102.676 149.347C102.505 150.666 102.651 151.966 102.635 153.295" stroke="#DE0000" stroke-width="2" stroke-linecap="round"/>
<path d="M104.966 103.7C107.334 103.727 109.643 103.879 111.982 104.415C114.455 104.981 116.919 105.653 119.404 106.158C121.779 106.642 124.113 107.506 126.495 107.925C127.013 108.016 127.49 108.251 128.018 108.257C128.279 108.26 128.481 108.25 128.699 108.362" stroke="#DE0000" stroke-width="2" stroke-linecap="round"/>
<path d="M135.871 153.973C135.932 148.738 134.148 143.698 133.076 138.64C132.575 136.277 132.077 133.872 131.941 131.451C131.811 129.143 130.924 126.885 130.851 124.592C130.683 119.323 128.924 114.223 128.985 108.951" stroke="#DE0000" stroke-width="2" stroke-linecap="round"/>
<path d="M102.231 154.558C102.558 154.525 102.937 154.271 103.275 154.201C104.857 153.874 106.432 153.877 108.035 153.796C112.045 153.595 116.07 153.431 120.084 153.497C123.325 153.551 126.595 153.688 129.837 153.605C131.981 153.551 134.119 153.758 136.264 153.783" stroke="#DE0000" stroke-width="2" stroke-linecap="round"/>
<path d="M45.5062 153.314C50.1354 153.368 54.7626 153.227 59.3989 153.28C65.9154 153.356 72.4286 153.182 78.9452 153.312C81.6058 153.366 84.2437 153.75 86.9012 153.795C89.2861 153.835 91.6681 153.753 94.0506 153.78C96.4641 153.808 98.8533 154.031 101.262 154.059" stroke="#DE0000" stroke-width="2" stroke-linecap="round"/>
<path d="M50.6508 146.842C52.8393 146.867 55.045 146.513 57.2404 146.529C61.1702 146.556 65.0927 146.815 69.0219 146.86C72.8987 146.905 76.7747 147.048 80.653 147.093C82.5169 147.114 84.371 146.941 86.2331 146.963" stroke="#DE0000" stroke-width="2" stroke-linecap="round"/>
<path d="M75.3508 143.814C75.4105 144.646 75.3312 145.506 75.3214 146.349" stroke="#DE0000" stroke-width="2" stroke-linecap="round"/>
<path d="M56.8258 143.989C56.3924 144.465 56.4649 145.468 56.5096 146.033" stroke="#DE0000" stroke-width="2" stroke-linecap="round"/>
<path d="M64.96 115.129C65.75 115.138 66.5041 115.02 67.2861 114.901C69.8809 114.508 72.4705 114.272 75.0889 114.125C81.0199 113.793 86.9136 113.337 92.862 113.406" stroke="#DE0000" stroke-width="2" stroke-linecap="round"/>
<path d="M82.1249 114.548C81.6016 115.187 81.6125 116.696 81.6035 117.467" stroke="#DE0000" stroke-width="2" stroke-linecap="round"/>
<path d="M78.7586 118.994C80.2098 118.331 82.2249 118.532 83.7865 118.375C86.485 118.104 89.2208 118.238 91.9281 118.269" stroke="#DE0000" stroke-width="2" stroke-linecap="round"/>
<path d="M87.4385 118.705L87.4374 118.802" stroke="#DE0000" stroke-width="2" stroke-linecap="round"/>
<path d="M87.3298 119.678C87.3269 119.926 87.2747 120.122 87.2244 120.36" stroke="#DE0000" stroke-width="2" stroke-linecap="round"/>
<path d="M79.4839 85.2344C79.3824 86.0606 78.0203 86.6831 77.3751 87.0561C75.9713 87.8677 74.3986 88.3848 72.7686 88.3659C72.6257 88.3642 72.253 88.3644 72.1458 88.2547C72.0913 88.1989 73.5339 88.1073 73.6334 88.1085" stroke="#DE0000" stroke-width="2" stroke-linecap="round"/>
<path d="M72.0833 89.1603C73.9692 89.1822 75.7355 90.2603 76.7177 91.8441C76.9793 92.2659 76.9992 92.2177 77.4404 92.3131C78.5319 92.5491 79.5038 93.0345 80.2867 93.8358C81.1039 94.6722 81.5887 95.6867 81.9948 96.7679C82.4407 97.9549 82.9394 99.2284 82.9803 100.513C83.0192 101.734 82.085 102.953 81.2048 103.705C80.7596 104.086 80.2091 104.355 79.7921 104.762" stroke="#DE0000" stroke-width="2" stroke-linecap="round"/>
<path d="M86.8638 94.6141C86.9133 95.1129 87.3428 95.7454 87.5326 96.2006C87.8351 96.9263 88.2141 97.611 88.5219 98.3332C89.005 99.4665 89.6059 100.667 90.4456 101.58C90.8084 101.974 91.2367 102.24 91.6526 102.56" stroke="#DE0000" stroke-width="2" stroke-linecap="round"/>
<path d="M87.9824 90.4147C88.3112 90.7139 88.7946 90.9721 89.1616 91.2307C90.0426 91.8516 90.7626 92.4994 91.8867 92.6331C92.9613 92.7608 93.9228 92.7783 94.9781 92.565C96.3604 92.2855 97.6999 92.3215 99.103 92.4308C100.595 92.5471 102.18 92.8198 103.626 93.204C104.198 93.356 105.237 93.5131 105.558 94.0993C105.843 94.6189 105.223 95.4574 105.05 95.9768C104.901 96.4228 104.758 96.7909 104.753 97.2623C104.746 97.7902 104.541 98.2453 104.535 98.7642C104.528 99.2898 104.13 99.8029 103.912 100.261C103.776 100.547 103.563 100.837 103.338 101.057C103.109 101.28 102.952 101.65 102.694 101.819" stroke="#DE0000" stroke-width="2" stroke-linecap="round"/>
<path d="M102.997 92.9961C103.239 92.972 103.467 92.6609 103.63 92.5131C103.961 92.2142 104.345 91.9605 104.717 91.7159C105.45 91.2325 106.293 90.9228 107.074 90.5323C107.75 90.1949 106.585 89.6005 106.314 89.4611C105.639 89.1135 104.942 88.7686 104.253 88.4639" stroke="#DE0000" stroke-width="2" stroke-linecap="round"/>
<path d="M81.6046 86.8638C81.6534 87.2944 82.744 87.88 83.0431 88.0617C84.4068 88.8903 85.9713 89.4449 87.5785 89.0393C88.3438 88.8463 89.0599 88.6194 89.8469 88.5122C90.3102 88.449 91.0679 88.3638 91.4121 88.7161" stroke="#DE0000" stroke-width="2" stroke-linecap="round"/>
<path d="M104.66 87.9338C103.939 87.9974 103.257 88.6893 102.616 88.9762C102.406 89.0704 102.298 89.1981 102.074 89.0033C101.557 88.5556 101.023 88.1633 100.431 87.8104C98.1658 86.4599 95.648 84.8264 92.9131 84.8554C92.2811 84.8621 91.6862 85.1679 91.084 85.3022C90.4605 85.4413 89.9025 85.6221 89.3058 85.8462C88.6019 86.1106 87.709 86.1507 86.9754 86.2724C86.363 86.3739 85.7105 86.3097 85.088 86.3025" stroke="#DE0000" stroke-width="2" stroke-linecap="round"/>
<path d="M80.2504 67.805C80.1428 68.681 79.8141 69.5608 79.6133 70.424C79.38 71.4273 79.1078 72.4165 78.882 73.4214C78.4821 75.2014 77.9874 76.9347 77.966 78.7784C77.9587 79.4046 77.9066 80.0245 77.8993 80.6526C77.8957 80.9602 77.804 81.362 78.1957 81.3526C78.4127 81.3473 78.5941 81.1774 78.8169 81.18C79.1269 81.1836 79.3956 81.2999 79.699 81.3251C79.8426 81.337 80.4555 81.5475 80.5363 81.6718C80.7107 81.9401 81.0514 82.2245 81.2837 82.4569C82.1084 83.2823 82.9555 84.0914 83.7465 84.9322C84.1909 85.4045 84.6555 85.8901 85.1235 86.3213C85.5365 86.7018 85.0124 87.287 85.0068 87.7679" stroke="#DE0000" stroke-width="2" stroke-linecap="round"/>
<path d="M88.7607 85.6994C88.5458 85.455 88.3747 85.1463 88.1684 84.8886C87.8537 84.4957 87.4971 84.1334 87.1453 83.7733C86.655 83.2715 86.1536 82.7418 85.703 82.2037C85.5311 81.9983 85.4321 81.712 85.259 81.5244C85.1233 81.3774 84.9506 81.1852 84.8831 81.0033C84.3738 79.6317 85.3177 78.174 86.0495 77.0897C86.8621 75.8857 87.7453 74.7943 88.7225 73.7204C89.1281 73.2746 89.6124 72.8147 89.9496 72.3216" stroke="#DE0000" stroke-width="2" stroke-linecap="round"/>
<path d="M87.6994 76.4748C87.6981 76.5829 87.6499 76.6851 87.6283 76.791C87.552 77.1643 87.5675 77.5808 87.5448 77.9634C87.4923 78.8487 87.4765 79.7358 87.4241 80.6209C87.3605 81.6934 87.4017 82.7655 87.3892 83.8411" stroke="#DE0000" stroke-width="2" stroke-linecap="round"/>
<path d="M95.4497 74.6773C95.4463 74.969 95.3859 75.2372 95.3051 75.5145C95.198 75.8822 95.2394 76.2851 95.167 76.6613C95.0862 77.0806 94.9276 77.488 94.8729 77.9112C94.7505 78.8563 94.3783 79.8202 94.1012 80.7308C94.0822 80.793 93.8945 81.3662 94.0035 81.3988C94.0824 81.4223 94.2807 81.4647 94.3264 81.5398C94.4046 81.6682 94.5644 81.7276 94.693 81.7937C94.8866 81.8934 95.0046 82.1208 95.1568 82.2685C95.3948 82.4992 95.7212 82.6696 95.9181 82.9289C96.0966 83.164 96.3295 83.3576 96.5348 83.5677C96.994 84.0377 97.5635 84.5515 97.9251 85.1018C98.1085 85.3809 98.3911 85.6444 98.6251 85.8838C98.8064 86.0694 98.9042 86.306 99.0873 86.4934" stroke="#DE0000" stroke-width="2" stroke-linecap="round"/>
<path d="M87.1274 83.1639C87.4685 83.1678 87.7407 83.2827 88.0635 83.3944C88.5891 83.5764 89.1343 83.7143 89.6143 83.9991C89.9585 84.2033 90.3431 84.333 90.6917 84.5284C90.918 84.6553 91.2406 84.6912 91.4216 84.8764" stroke="#DE0000" stroke-width="2" stroke-linecap="round"/>
<path d="M78.2437 72.8296C78.1257 72.8151 78.0176 72.6929 77.9096 72.6423C77.2001 72.3098 76.5108 71.8385 75.7513 71.6316C75.353 71.5231 74.8938 71.3465 74.4786 71.3417C73.9533 71.3356 73.7086 71.8077 73.3235 72.1153C71.443 73.6178 69.2779 74.9547 67.0597 75.9052C66.3428 76.2123 65.6479 76.5494 64.9247 76.8355C64.6921 76.9276 64.2577 77.2083 63.9967 77.1304C63.9249 77.109 63.7695 75.6332 63.7713 75.4811C63.778 74.9047 63.445 75.2639 63.1197 75.3322C62.9252 75.3731 62.3469 75.3673 62.2049 75.4782C61.9206 75.7003 62.0654 74.3323 62.0675 74.1547C62.0709 73.855 61.6427 74.1321 61.3416 74.1463C60.6153 74.1806 59.8971 74.2671 59.1435 74.2583C58.8946 74.2554 58.1574 74.3919 58.4278 74.0399C58.9767 73.3255 59.884 72.8847 60.6581 72.4688C61.67 71.9252 62.7239 71.4913 63.7956 71.084C66.3459 70.1146 68.9855 69.4288 71.4581 68.2464C72.4488 67.7727 73.414 67.2684 74.3904 66.7675C74.674 66.622 75.0776 66.4812 75.2261 66.1927" stroke="#DE0000" stroke-width="2" stroke-linecap="round"/>
<path d="M75.0484 66.5009C74.8832 66.4783 74.6322 66.3065 74.4588 66.2558C74.0412 66.1336 73.6461 65.9229 73.2703 65.7058C72.0236 64.9853 70.7729 64.28 69.6297 63.3962C68.328 62.3899 67.1488 61.1395 66.3563 59.6875C65.8246 58.7134 65.7959 57.7552 65.5832 56.7129C65.5497 56.5488 65.6204 56.3597 65.4762 56.2317C65.1319 55.9262 64.794 55.6161 64.4577 55.2964C64.1437 54.998 63.8784 54.6445 63.6086 54.3068C63.3665 54.0039 64.0073 54.2253 64.162 54.2504C64.4879 54.3031 64.8148 54.3574 65.1399 54.414C65.2852 54.4393 65.469 54.5635 65.6184 54.5321C65.7109 54.5126 65.4104 54.1774 65.3614 54.1451C65.1177 53.9844 65.0743 53.6703 64.8928 53.4579C64.6842 53.2138 64.553 52.9353 64.4489 52.6352C64.1984 51.9131 63.7475 51.2324 63.5702 50.4868C63.537 50.3472 63.4924 50.187 63.5026 50.0425C63.5114 49.9177 63.8336 50.0098 63.9204 49.9745C64.0102 49.9379 64.2714 49.9718 64.3248 49.9196C64.4149 49.8316 63.6665 49.467 63.6023 49.4346C62.9591 49.1097 62.3188 48.8607 61.6526 48.5911C60.3127 48.0488 58.8944 47.709 57.5207 47.2622C57.1585 47.1444 56.7575 47.0362 56.4163 46.8853C56.1935 46.7868 55.9854 46.6201 55.772 46.5005C55.7081 46.4646 55.5209 46.1881 55.6858 46.2314C55.8713 46.2801 56.4315 46.5414 55.9808 46.1885C55.0877 45.4889 53.9347 45.1023 52.9073 44.6501C52.3103 44.3873 51.6787 44.1741 51.1262 43.8251C50.9834 43.7349 50.6211 43.6064 50.9793 43.6447C51.3361 43.6828 51.6951 43.7752 52.0426 43.8622C52.128 43.8836 52.5759 43.9562 52.2776 43.8616C51.6349 43.6579 51.0071 43.3952 50.4165 43.0854C50.1112 42.9253 49.6594 42.7324 49.4106 42.4912C49.2711 42.3559 48.777 42.1434 48.7145 42.0065C48.6402 41.8437 49.639 41.6289 49.0635 41.5935C48.6938 41.5707 48.3341 41.3998 47.9609 41.3457C47.3353 41.2548 46.4314 41.04 45.9167 40.6633C45.172 40.1182 44.3125 39.738 43.6482 39.0581C43.3572 38.7603 43.2644 38.5366 43.7955 38.6262C44.261 38.7048 44.5321 38.9649 44.9211 39.1755C45.0754 39.259 45.685 39.5488 45.652 39.515C44.9281 38.774 43.893 38.368 43.0912 37.7111" stroke="#DE0000" stroke-width="2" stroke-linecap="round"/>
<path d="M42.2655 36.9866C42.2224 36.7817 41.8378 36.4079 41.7216 36.2256C41.5984 36.0323 41.4486 35.8716 41.3274 35.6782C41.1844 35.4499 40.7544 34.5019 40.8997 34.3195C41.1192 34.0439 41.8067 34.2644 42.0268 34.4551C42.1697 34.5789 42.3286 34.6751 42.483 34.7847C42.6755 34.9213 42.821 35.1587 43.0269 35.2677C43.426 35.4789 43.8126 35.6495 44.1978 35.9035C44.3093 35.977 44.4736 36.0885 44.5385 36.2054C44.5584 36.2411 44.6462 36.2603 44.6805 36.2335C44.7536 36.1764 44.4328 35.8895 44.4101 35.8663C43.488 34.9225 42.4699 34.0585 41.6863 32.9881C41.1904 32.3106 40.7066 31.6476 40.2504 30.9458" stroke="#DE0000" stroke-width="2" stroke-linecap="round"/>
<path d="M39.7246 30.046C39.6145 29.9193 39.4852 29.0233 39.7072 28.9767C40.2924 28.8538 40.8031 29.519 41.2171 29.7787C41.3025 29.8322 42.0149 30.5664 41.9819 30.3337C41.9179 29.8831 41.5789 29.3433 41.3458 28.9626C40.9689 28.3474 40.6516 27.7013 40.2953 27.0737" stroke="#DE0000" stroke-width="2" stroke-linecap="round"/>
<path d="M39.7723 25.9357C39.48 25.3337 38.6162 23.3442 39.5693 22.8948C40.0905 22.6491 40.4008 23.1117 40.7889 23.3293C40.9665 23.4289 41.0581 23.7348 41.1663 23.8997C41.5294 24.4533 41.9084 24.9988 42.2791 25.5477" stroke="#DE0000" stroke-width="2" stroke-linecap="round"/>
<path d="M43.1581 26.8091C43.3027 26.9663 43.3823 27.1758 43.5093 27.3494" stroke="#DE0000" stroke-width="2" stroke-linecap="round"/>
<path d="M44.0954 28.1902C44.2206 28.3327 44.3339 28.511 44.434 28.6708C44.6745 29.0546 45.002 29.3653 45.2357 29.7492C45.5953 30.3397 46.0862 30.9325 46.56 31.4361C47.5201 32.4566 48.2313 33.5443 49.4193 34.329C49.822 34.5951 50.263 34.8083 50.709 34.9927C50.7547 35.0116 51.1629 35.2045 51.0792 35.0368C50.6594 34.1953 49.7948 33.4504 49.1894 32.7442C48.3259 31.7369 47.3391 30.6566 46.7417 29.4655C46.1435 28.2727 45.7264 27.0496 45.3747 25.7624" stroke="#DE0000" stroke-width="2" stroke-linecap="round"/>
<path d="M45.3885 24.5709C45.9253 24.1049 46.3003 24.3127 46.6895 24.8442C47.8113 26.3767 49.059 27.9757 49.8902 29.6874C50.1194 30.1594 50.4672 30.5671 50.682 31.047C50.9201 31.5789 51.2399 32.1281 51.5374 32.6324C52.0272 33.4627 52.6258 34.2482 53.1944 35.0249C53.6859 35.6963 53.4813 34.2842 53.3786 33.9844C53.1098 33.1996 52.699 32.4484 52.3659 31.6888C51.8232 30.4511 51.3173 28.911 51.3118 27.5458C51.3104 27.1872 51.4355 26.9715 51.5737 26.6552C51.677 26.4187 52.2035 26.3318 52.4 26.4728C53.0357 26.9289 53.1506 27.6796 53.3869 28.4172" stroke="#DE0000" stroke-width="2" stroke-linecap="round"/>
<path d="M54.0256 29.8546C54.2559 30.3068 54.4434 30.776 54.665 31.2323" stroke="#DE0000" stroke-width="2" stroke-linecap="round"/>
<path d="M55.2469 32.4306C55.29 32.8643 55.7099 33.3828 55.9167 33.7524C56.2724 34.388 56.8345 35.0283 57.0588 35.7284C57.159 36.041 57.1788 35.707 57.1732 35.5742C57.1559 35.1666 57.0944 34.7231 57.0089 34.3245C56.8023 33.3598 56.4825 32.4116 56.2379 31.4557C55.9991 30.5225 55.7301 29.3971 56.5287 28.6457C57.2692 27.9491 58.0238 29.6374 58.2527 30.1154C58.8336 31.3288 59.3439 32.582 59.848 33.8245C60.0995 34.4443 60.4474 35.0367 60.7771 35.6193C61.1247 36.2334 61.3566 36.9415 61.8313 37.4785C62.5103 38.2467 63.0316 39.0988 63.76 39.8443C64.5334 40.6359 65.2881 41.4064 66.1902 42.0571C66.5453 42.3131 66.9468 42.4933 67.2942 42.7583C67.4507 42.8777 67.6435 43.0346 67.813 43.1218" stroke="#DE0000" stroke-width="2" stroke-linecap="round"/>
<path d="M68.6947 44.1449C68.5106 43.7416 68.2472 43.3859 68.0561 42.9823C67.8068 42.4558 67.6518 41.9043 67.4461 41.36C67.3729 41.1665 67.1468 40.7246 67.5339 40.9274C68.4441 41.4045 69.3153 41.9039 70.2785 42.2899C71.0511 42.5995 71.8332 42.9903 72.5529 43.3887C73.2787 43.7905 74.0803 44.05 74.7806 44.5134C75.1155 44.735 75.4899 44.952 75.7953 45.2103C75.8652 45.2695 76.3051 45.5585 76.3013 45.534C76.2217 45.0196 75.7914 44.5596 75.5131 44.1446C75.1706 43.6339 74.7966 43.134 74.445 42.6295C74.3563 42.5021 74.1691 42.2132 74.4073 42.4569C74.9224 42.9841 75.6871 43.3253 76.3706 43.5555C78.2612 44.1922 80.1273 44.9942 81.9006 45.9068" stroke="#DE0000" stroke-width="2" stroke-linecap="round"/>
<path d="M82.9681 46.3362C84.8699 46.972 86.8924 47.8362 88.4767 49.111C88.9733 49.5106 89.5002 50.0425 89.8297 50.5996C89.9648 50.8282 89.9166 51.4009 89.9398 51.6634C89.9901 52.2334 90.0882 52.7976 90.155 53.3672C90.2623 54.2817 90.5417 55.2097 90.792 56.092C90.9049 56.49 90.9759 57.0166 91.2108 57.3645C91.5016 57.7952 91.6621 58.3696 91.9253 58.8325C92.4984 59.8404 93.1012 60.6941 93.863 61.5625C94.1358 61.8735 94.3958 62.1853 94.5763 62.5571" stroke="#DE0000" stroke-width="2" stroke-linecap="round"/>
<path d="M91.9745 58.6161C93.3171 58.6317 94.4649 59.4993 95.6344 60.042C95.9516 60.1891 96.2607 60.4059 96.5865 60.5265C96.7595 60.5906 96.8935 60.7323 97.0736 60.7344" stroke="#DE0000" stroke-width="2" stroke-linecap="round"/>
<path d="M105.095 64.6253C105.637 64.1547 106.487 63.8109 107.155 63.6073C108.383 63.2329 109.627 62.809 110.901 62.6189C112.263 62.4158 113.558 61.9286 114.899 61.6335C116.157 61.3568 117.395 60.9927 118.662 60.751C119.994 60.4967 121.28 60.419 122.63 60.4346C123.429 60.4439 124.229 60.5891 125.029 60.5984C125.446 60.6032 125.958 60.508 126.323 60.2913C126.523 60.1729 126.684 59.9632 126.85 59.8041C127.105 59.5594 127.388 59.3712 127.663 59.1541C128.24 58.6977 129.083 58.4502 129.772 58.2273C130.857 57.8766 131.991 57.648 133.127 57.5691C134.117 57.5004 135.107 57.4572 136.097 57.3997C136.701 57.3646 137.347 57.4688 137.942 57.3507C138.315 57.2766 139.05 57.2933 138.775 56.7261C138.435 56.0273 137.5 55.9802 136.817 55.8653C136.233 55.7671 135.64 55.7297 135.058 55.6209C134.611 55.5373 134.078 55.4601 133.629 55.5238C132.588 55.6716 131.503 55.5826 130.454 55.6807C130.321 55.6931 129.934 55.7665 130.056 55.7138C131.009 55.3032 131.948 55.0255 132.982 54.8921C134.388 54.7109 135.807 54.4945 137.174 54.1052C137.475 54.0196 138.856 53.881 137.977 53.4199C137.226 53.0256 136.227 52.9088 135.397 53.0175C134.75 53.1024 134.098 53.2606 133.449 53.312C132.886 53.3566 132.327 53.3691 131.771 53.4737" stroke="#DE0000" stroke-width="2" stroke-linecap="round"/>
<path d="M130.681 53.6423C130.575 53.6517 129.465 53.9148 129.466 53.8748C129.467 53.7934 130.082 53.5137 130.157 53.4726C130.643 53.2079 131.163 53.0349 131.682 52.8536C132.475 52.5766 133.274 52.416 134.076 52.1842C134.62 52.0268 135.149 51.7763 135.674 51.561C135.88 51.4761 137.5 50.8602 136.813 50.4971C136.136 50.1388 135.461 50.3925 134.75 50.4731C134.24 50.5308 133.727 50.6023 133.222 50.702C132.626 50.8199 131.99 50.8616 131.406 51.0282C130.131 51.3921 128.781 51.7523 127.569 52.2949C127.32 52.4061 127.078 52.5288 126.842 52.6564C126.719 52.7229 126.857 52.6374 126.924 52.5467C127.268 52.08 127.701 51.7499 128.17 51.416C129.152 50.7183 130.213 50.2346 131.261 49.6524C132.153 49.1574 133.022 48.6312 133.887 48.0923C134.375 47.7878 134.793 47.4156 135.153 46.9669C135.298 46.7861 135.486 46.5458 135.423 46.293C135.357 46.0338 135.111 45.9472 134.87 45.9444C134.679 45.9421 134.519 45.9918 134.338 46.054C133.864 46.2171 133.373 46.3169 132.899 46.4752C131.771 46.8514 130.616 47.1723 129.508 47.6061C128.122 48.1491 126.758 48.7472 125.376 49.3022C124.629 49.6022 123.983 50.0339 123.334 50.4966C123.07 50.6844 122.933 50.8736 122.718 51.0834C122.596 51.2021 122.484 51.3711 122.381 51.5073C122.249 51.6803 122.104 51.9378 122.406 51.719C123.744 50.7487 125.099 49.6225 126.12 48.3142C126.263 48.1308 126.521 47.8413 126.322 47.6219C126.081 47.3563 125.757 47.2009 125.387 47.3091C124.733 47.4997 124.102 47.9498 123.506 48.2688C122.709 48.6947 122.032 49.2943 121.303 49.8187" stroke="#DE0000" stroke-width="2" stroke-linecap="round"/>
<path d="M120.433 50.5788C119.597 51.3956 118.694 52.162 117.824 52.9268C117.719 53.0195 117.927 52.793 117.962 52.7346C118.18 52.3677 118.412 52.0031 118.609 51.6247C118.871 51.1225 119.09 50.6508 119.037 50.0869C118.948 49.1319 117.497 50.6409 117.257 50.8363C116.067 51.8049 114.69 52.7362 113.72 53.9387C113.594 54.0952 113.3 54.592 113.322 54.3921C113.35 54.1464 113.604 53.8262 113.716 53.6014C114.001 53.0337 114.376 52.5639 114.619 51.971C114.678 51.8255 114.891 51.2148 114.606 51.1478C114.273 51.0699 113.922 51.4768 113.686 51.643C112.958 52.1568 112.245 52.6898 111.526 53.2161C110.798 53.7494 110.207 54.4003 109.545 55.0077C109.129 55.3891 108.763 55.8014 108.363 56.1919C108.078 56.4705 108.52 55.884 108.58 55.7917C108.899 55.2976 109.223 54.71 109.248 54.1083C109.262 53.7804 109.405 53.3414 109.102 53.0999C108.826 52.8801 108.199 53.6189 108.06 53.7572C107.291 54.5204 106.62 55.3765 105.897 56.1809C105.553 56.5635 105.272 56.986 104.997 57.4112C104.977 57.4415 104.818 57.6252 104.818 57.618C104.819 57.5379 104.964 57.3764 104.998 57.3106C105.099 57.1178 105.199 56.9234 105.277 56.7198C105.489 56.1629 105.713 55.6831 105.704 55.0738C105.7 54.8541 105.464 54.5449 105.235 54.7286C104.434 55.3685 103.597 56.0522 103.02 56.9151C102.658 57.4556 102.047 57.9107 101.564 58.3353C101.175 58.6758 100.778 58.9911 100.409 59.3512C99.9931 59.7577 99.2039 60.2743 98.6449 60.4381C98.3777 60.5163 98.0996 60.5903 97.8464 60.7132C97.6588 60.8043 97.4242 60.8453 97.2546 60.9555" stroke="#DE0000" stroke-width="2" stroke-linecap="round"/>
<path d="M100.495 63.7259C100.925 63.7896 101.336 63.9458 101.764 64.0209C102.474 64.1455 103.17 64.3115 103.878 64.4422C104.883 64.6273 105.979 64.8173 106.918 65.2385C107.383 65.4474 107.884 65.7267 107.878 66.2975C107.875 66.5333 107.824 66.6723 108.007 66.8186C108.349 67.0904 108.819 67.2599 109.187 67.505C109.592 67.774 110.053 68.2209 110.217 68.6812C110.444 69.3164 109.988 70.3404 110.502 70.8664" stroke="#DE0000" stroke-width="2" stroke-linecap="round"/>
<path d="M110.653 71.2563L110.614 71.2559" stroke="#DE0000" stroke-width="2" stroke-linecap="round"/>
<path d="M110.501 70.944C110.4 70.9315 110.264 70.795 110.172 70.7461C110.034 70.6732 109.89 70.6053 109.754 70.53C109.399 70.3338 108.909 70.3887 108.521 70.3195C108.262 70.2733 107.985 70.2938 107.723 70.2908C107.406 70.2871 107.095 70.1975 106.776 70.2022C106.544 70.2056 107.21 70.4013 107.442 70.404" stroke="#DE0000" stroke-width="2" stroke-linecap="round"/>
<path d="M106.856 70.7465C106.73 70.7607 106.524 70.9803 106.425 71.0541C106.126 71.2787 105.826 71.4956 105.5 71.6794C104.933 71.9985 104.289 72.1352 103.677 72.3374C103.085 72.5324 102.422 72.6394 101.807 72.7253C101.274 72.7997 100.748 72.9477 100.219 73.0281C99.2563 73.1745 98.2303 73.5857 97.3867 74.0711C97.0441 74.2682 96.649 74.4527 96.2748 74.5799C95.9593 74.6872 95.5988 74.8397 95.357 75.076" stroke="#DE0000" stroke-width="2" stroke-linecap="round"/>
<path d="M106.584 146.349C106.835 146.171 107.36 146.224 107.64 146.227C108.835 146.241 110.029 146.322 111.225 146.336C113.641 146.364 116.077 146.103 118.479 146.42" stroke="#DE0000" stroke-width="2" stroke-linecap="round"/>
<path d="M110.23 143.183C110.484 143.841 110.41 144.878 110.402 145.591" stroke="#DE0000" stroke-width="2" stroke-linecap="round"/>
<path d="M107.498 142.416C110.098 142.35 112.722 142.511 115.318 142.373" stroke="#DE0000" stroke-width="2" stroke-linecap="round"/>
<path d="M114.405 123.182C117.984 123.223 121.519 123.877 125.015 124.575" stroke="#DE0000" stroke-width="2" stroke-linecap="round"/>
<path d="M121.937 124.94L121.914 126.878" stroke="#DE0000" stroke-width="2" stroke-linecap="round"/>
<path d="M118.694 127.91C120.472 127.93 122.249 128.055 124.015 128.254C125.058 128.371 126.119 128.445 127.151 128.646C127.613 128.736 128.039 128.911 128.507 128.959" stroke="#DE0000" stroke-width="2" stroke-linecap="round"/>
<path d="M123.646 121.618L123.626 123.355" stroke="#DE0000" stroke-width="2" stroke-linecap="round"/>
<path d="M120.116 120.575C121.467 120.59 122.842 120.909 124.187 121.038C125.321 121.146 126.478 121.35 127.589 121.597" stroke="#DE0000" stroke-width="2" stroke-linecap="round"/>
<path d="M62.0515 128.871C62.3799 128.875 62.7361 129.133 63.0849 129.156C63.375 129.175 63.3366 129.296 63.0734 129.101C62.7696 128.876 62.4688 128.767 62.1013 128.763C61.9177 128.761 61.8008 128.705 61.6231 128.703C61.3169 128.699 62.2353 128.71 62.5414 128.713C63.1172 128.72 62.2235 128.562 62.0587 128.517C61.7607 128.434 61.5615 128.32 61.2517 128.316C60.9779 128.313 61.8025 128.361 62.0625 128.447C62.4103 128.561 63.5051 128.656 63.1391 128.666C62.6224 128.679 62.0884 128.58 61.6209 128.363C61.4342 128.276 61.2268 128.207 61.0226 128.205C60.9784 128.204 60.7397 128.201 60.9135 128.203C61.2477 128.207 61.5826 128.205 61.9166 128.218C62.5321 128.242 63.1688 128.274 63.7792 128.358C63.9404 128.38 64.0574 128.48 64.2109 128.514C64.4716 128.572 64.6659 128.724 64.9138 128.798C64.9532 128.81 64.9603 128.923 64.9303 128.947C64.7793 129.068 64.1844 128.822 64.0168 128.785C63.5658 128.685 63.1683 128.598 63.8081 129.001C64.1603 129.222 64.5213 129.406 64.8492 129.664C64.9444 129.739 65.331 129.955 65.0102 129.9C64.7143 129.849 64.4834 129.608 64.1703 129.66C63.9016 129.704 64.4815 130.325 64.541 130.367C64.7655 130.528 64.6496 130.357 64.57 130.216C64.3734 129.868 64.1537 129.547 63.8963 129.241C63.7032 129.012 63.5188 128.741 63.3104 128.528C63.2156 128.431 63.4005 128.786 63.4698 128.903C63.5813 129.091 63.7151 129.268 63.821 129.462C63.8955 129.598 64.0359 129.696 64.0833 129.844C64.1024 129.903 63.4032 129.472 63.753 129.57C64.53 129.788 65.3314 130.252 66.0013 130.693C66.222 130.839 66.1298 130.063 66.1316 129.913C66.1369 129.449 66.6154 130.191 66.7266 130.356C66.7715 130.423 66.9289 130.591 66.8546 130.561C66.6405 130.472 66.398 130.246 66.1958 130.12C66.0895 130.053 65.6654 129.519 65.5623 129.597C65.3061 129.792 65.5162 130.512 65.5213 130.779C65.5269 131.067 65.6475 131.924 65.6508 131.635C65.6546 131.314 65.3741 130.956 65.3077 130.64C65.2847 130.53 65.3569 130.859 65.3919 130.965C65.4904 131.265 65.6409 131.524 65.8128 131.785C65.9901 132.055 66.2225 132.337 66.3485 132.634C66.3731 132.692 66.6395 133.163 66.6417 132.968C66.6487 132.364 66.6051 131.777 66.5231 131.178C66.5138 131.11 66.3574 130.051 66.4818 130.032C66.6534 130.005 66.8318 130.816 66.8627 130.903C67.0999 131.578 67.3891 132.226 67.6551 132.889C67.7107 133.028 67.77 133.163 67.8352 133.297C67.8355 133.298 67.9368 133.496 67.9422 133.483C68.0201 133.295 67.8758 132.913 67.8449 132.721C67.7975 132.428 67.796 132.13 67.7218 131.841C67.6686 131.634 67.7486 131.725 67.8126 131.854C67.9241 132.079 68.0602 132.303 68.1441 132.54C68.1833 132.651 68.2234 132.863 68.3091 132.951C68.3972 133.041 68.373 133.061 68.3971 133.201C68.4609 133.569 68.5763 133.91 68.6179 134.288C68.6274 134.375 68.8654 135.659 68.6855 135.514C68.1762 135.104 67.9612 134.358 67.6504 133.81C67.334 133.253 67.3322 134.587 67.3306 134.728C67.3261 135.113 67.3152 135.493 67.3961 135.872C67.4562 136.153 67.4284 135.698 67.4291 135.639C67.4401 134.694 67.5428 133.605 67.0565 132.749C67.0299 132.702 66.9817 132.448 66.9305 132.638C66.8322 133.004 66.8416 133.445 66.8561 133.819C66.8732 134.257 66.9757 134.686 67.0654 135.113C67.1031 135.293 67.0308 134.73 67.01 134.664C66.9988 134.628 66.8135 134.069 66.8782 134.271C67.0097 134.682 67.097 135.095 67.2428 135.503C67.4487 136.079 67.6251 136.688 67.8896 137.232C67.9966 137.453 68.1837 137.544 68.4308 137.608C68.686 137.675 68.5088 136.398 68.4829 136.257C68.4463 136.059 68.354 135.87 68.3563 135.668C68.3576 135.562 68.3565 135.931 68.3619 135.971C68.425 136.439 68.6089 137.337 69.0705 137.601C69.3765 137.775 69.4258 136.86 69.4322 136.735C69.4641 136.107 69.3067 135.447 68.9225 134.941C68.4291 134.291 69.9304 136.232 70.5258 136.79C70.5523 136.815 70.8161 137.072 70.7064 136.898C70.5111 136.589 70.4449 136.234 70.3301 135.891C70.2083 135.526 70.0666 135.199 69.8996 134.855C69.8338 134.72 69.7039 134.51 69.681 134.361C69.6538 134.185 69.4709 134.132 69.3269 134.054C69.152 133.96 68.8405 133.757 68.6271 133.755C68.5505 133.754 68.4438 134.227 68.4269 134.292C68.3234 134.692 68.3626 135.125 68.3579 135.534C68.3564 135.666 68.2694 136.171 68.4039 136.268C68.6103 136.418 68.7519 136.689 68.9457 136.863C69.2356 137.122 69.5213 137.283 69.7834 137.551C70.0341 137.808 70.3923 137.984 70.6363 138.234C70.6395 138.237 70.4545 138.175 70.428 138.159C70.2861 138.075 70.209 137.916 70.0774 137.815C69.9511 137.719 69.8121 137.563 69.6436 137.58C69.4114 137.603 69.4848 137.92 69.584 138.016C69.7391 138.166 69.8609 138.191 70.0509 138.267C70.3547 138.388 70.706 138.398 70.9964 138.548C71.0971 138.599 71.3267 138.67 71.4343 138.689C71.7482 138.745 71.3209 137.417 71.2088 137.222C71.0814 137.001 70.7261 136.321 70.8377 136.551C70.9405 136.763 71.1073 136.957 71.2584 137.135C71.3679 137.264 71.7346 137.601 71.5842 137.524C71.3582 137.407 70.4666 136.913 70.3143 137.248C70.1982 137.504 70.5362 137.792 70.7006 137.92C70.8211 138.013 71.8432 138.826 71.8136 138.393C71.7793 137.891 71.3757 137.505 71.1529 137.079C71.032 136.848 71.0705 136.705 71.2955 136.811C71.5676 136.94 71.7321 137.24 71.9337 137.446C72.1102 137.627 72.2406 137.781 72.4525 137.928C72.6482 138.063 73.0086 138.257 73.2487 138.277C73.3427 138.284 73.3573 138.356 73.4415 138.385C73.6849 138.469 72.9312 138.311 72.6791 138.258C72.3059 138.179 71.8326 137.961 71.5036 138.202C71.417 138.265 71.3757 138.62 71.4615 138.695C71.9091 139.088 72.2893 139.317 72.9148 139.367C73.4296 139.409 73.8809 139.593 74.4095 139.6C74.6915 139.603 75.0059 139.566 75.2822 139.622C75.4285 139.651 75.4803 139.676 75.2911 139.637C74.9988 139.577 74.7514 139.355 74.4867 139.219C74.0394 138.988 73.6513 138.649 73.1829 138.467C72.8919 138.354 72.8653 138.373 72.5807 138.378C72.4895 138.379 72.3465 138.396 72.3639 138.518C72.3958 138.743 72.5454 138.697 72.7342 138.731C73.1017 138.798 73.4291 138.879 73.8055 138.883C74.0216 138.886 74.3473 138.953 74.5573 138.88C74.6255 138.856 74.2662 138.557 74.2161 138.506C74.1381 138.426 74.1148 138.362 74 138.316C73.875 138.265 73.4625 138.279 73.5973 138.281C73.884 138.284 74.2213 138.53 74.4813 138.64C74.7351 138.747 75.0613 138.734 75.3319 138.737C75.5837 138.74 75.8217 138.798 76.0738 138.8C76.4166 138.804 76.7702 138.775 77.1038 138.855C77.608 138.976 78.1928 138.989 78.7147 138.995C79.0956 138.999 79.4765 139.004 79.8574 139.008C80.6746 139.018 81.6715 139.254 82.473 139.035C82.514 139.024 82.5724 138.976 82.4795 138.996C82.2007 139.056 81.9076 139.037 81.624 139.056C81.2401 139.081 80.724 138.969 80.3507 139.071C80.1727 139.12 79.9787 139.206 79.7911 139.229C79.5292 139.26 79.2473 139.428 78.9946 139.435C78.7715 139.44 78.5835 139.539 78.3568 139.536C78.0457 139.533 77.7345 139.529 77.4234 139.525C76.9142 139.52 76.405 139.514 75.8958 139.508C75.6382 139.505 75.3953 139.447 75.1357 139.444C74.6475 139.439 76.112 139.417 76.6002 139.41C77.5433 139.396 78.4691 139.451 79.4075 139.373C80.1075 139.315 81.0025 139.247 81.664 139.002C81.8283 138.941 82.6411 139.038 82.7234 138.878" stroke="#2E3192" stroke-linecap="round"/>
<path d="M73.7659 120.878C73.67 120.887 73.4852 121.032 73.4358 121.116C73.3958 121.184 73.3814 121.229 73.3517 121.309C73.3059 121.433 73.1326 121.44 73.1064 121.552C73.0798 121.665 72.7894 121.85 72.6898 121.926C72.4931 122.075 72.716 121.772 72.771 121.721C72.8963 121.604 73.0354 121.5 73.1629 121.386C73.2877 121.274 73.4402 121.085 73.6064 121.039C73.7409 121.003 74.0549 120.863 74.1221 120.745C74.2012 120.607 74.1456 120.628 74.0375 120.723C73.822 120.913 73.6079 121.105 73.3793 121.279C73.2227 121.399 72.9686 121.468 72.8839 121.652C72.8504 121.726 72.7001 121.845 72.6355 121.901C72.2541 122.232 71.9758 122.693 71.7092 123.103C71.4627 123.482 71.3659 123.949 71.1194 124.296C71.0603 124.38 71.1116 124.522 71.0489 124.623C70.9775 124.738 70.8925 124.897 70.8805 125.033C70.8637 125.223 70.7344 125.363 70.6687 125.522C70.5283 125.861 70.2234 126.197 70.208 126.565C70.2 126.756 70.0238 126.938 69.9862 127.132C69.9435 127.353 69.8576 127.565 69.8149 127.785C69.7762 127.985 69.7527 128.18 69.6958 128.384C69.665 128.494 69.5474 128.589 69.5316 128.691C69.5252 128.732 69.5564 128.936 69.4995 128.843C69.3356 128.573 69.3732 128.195 69.1859 127.92C69.0896 127.779 69.0853 127.46 69.0568 127.291C68.9558 126.697 69.1718 126.091 69.3741 125.549C69.46 125.319 69.4898 124.999 69.6283 124.8C69.7811 124.581 70.0212 124.403 70.193 124.195C70.4769 123.851 70.7918 123.49 71.1081 123.181C71.1618 123.128 71.1901 123.041 71.2437 122.988C71.2939 122.939 71.3636 122.766 71.385 122.832C71.4222 122.949 71.303 123.131 71.2592 123.225C71.1081 123.548 70.9474 123.865 70.7873 124.183C70.5925 124.571 70.4129 124.978 70.246 125.377C70.1769 125.543 70.2401 126.128 70.091 126.194C69.9787 126.244 69.671 126.645 69.7305 126.438C69.7785 126.272 69.7409 126.079 69.8455 125.937C69.9204 125.834 69.999 125.765 70.0005 125.635" stroke="#006837" stroke-linecap="round"/>
<path d="M83.5458 124.428C83.3834 124.649 83.2179 124.624 82.9729 124.695C82.4254 124.852 81.8562 124.974 81.2897 125.033C80.8643 125.077 80.1862 124.977 79.8675 125.338C79.3973 125.87 78.7731 126.071 78.2057 126.44C78.1509 126.475 77.7177 126.709 77.9802 126.546C78.3051 126.345 78.7068 126.236 79.0585 126.092C80.9198 125.329 82.8426 124.736 84.8431 124.431C85.1956 124.378 85.6256 124.278 85.95 124.129C86.2043 124.013 86.6118 124.034 86.826 123.866C86.9675 123.756 87.1945 123.8 87.3609 123.751C87.5828 123.686 87.7819 123.605 88.0173 123.607C88.4639 123.613 88.9352 123.666 89.3698 123.556C89.558 123.509 89.6565 123.408 89.8747 123.411C89.9389 123.411 90.1142 123.332 90.0631 123.37C89.9011 123.493 89.5264 123.395 89.3351 123.411C88.4262 123.483 87.539 123.547 86.6237 123.537C86.0194 123.53 85.3577 123.516 84.7589 123.597C84.6446 123.612 84.3103 123.688 84.4158 123.641C84.8026 123.471 85.1698 123.276 85.5852 123.179C85.6545 123.163 86.2656 123.046 86.1647 123.128C85.7199 123.49 84.9844 123.673 84.4526 123.863C83.8953 124.062 83.3212 124.203 82.7612 124.392C82.5554 124.462 82.3699 124.603 82.1696 124.694C81.3214 125.082 80.4886 125.533 79.6483 125.941C79.2623 126.129 78.0882 126.605 78.5137 126.549C79.1373 126.468 79.7982 126.081 80.3769 125.847C80.7361 125.701 81.3132 125.668 81.6155 125.422C82.0284 125.085 80.7532 126.146 80.2242 126.206C80.0882 126.221 80.4555 126.058 80.5782 125.998C80.9344 125.822 81.3139 125.689 81.6897 125.562C82.1623 125.402 82.6704 125.315 83.1257 125.109C83.51 124.935 84.2005 124.109 83.3435 124.099C82.8283 124.093 82.3631 124.135 81.8623 124.273C81.5548 124.357 81.2458 124.438 80.9408 124.532C80.8072 124.572 80.5121 124.768 80.5335 124.63C80.5604 124.456 81.161 124.199 81.2788 124.138C81.6829 123.931 82.1236 123.68 82.5676 123.574C82.6725 123.55 82.7677 123.546 82.874 123.548C83.051 123.55 83.2409 123.398 83.4217 123.366C83.436 123.364 83.8506 123.327 83.8371 123.359C83.7056 123.664 83.3413 123.782 83.0669 123.902C82.1927 124.282 81.1929 124.198 80.3075 124.512C79.9423 124.642 79.5586 124.733 79.188 124.857C78.9707 124.929 78.7009 125.213 78.5273 125.371C78.2823 125.593 77.7959 125.705 77.4971 125.862C77.2152 126.01 76.9395 126.221 76.7144 126.441C76.6064 126.546 76.4472 126.701 76.3045 126.757C76.1014 126.837 75.9403 126.995 75.7547 127.121C75.6148 127.215 75.4334 127.263 75.3092 127.376C75.2302 127.448 75.1873 127.541 75.0943 127.604C74.473 128.024 74.204 128.78 73.6927 129.279C73.4621 129.504 73.3395 129.813 73.102 130.024C72.8065 130.287 73.3771 129.608 73.4228 129.549C73.6623 129.239 73.9301 128.926 74.1431 128.599C74.3423 128.294 74.7863 128.08 75.1057 127.932C75.4222 127.784 75.7474 127.681 76.0533 127.509C76.2446 127.402 76.4744 127.244 76.6905 127.192C77.1773 127.076 77.6216 126.684 78.1196 126.548C78.2218 126.52 78.2005 126.405 78.2609 126.389C78.3409 126.367 78.4256 126.392 78.3388 126.469C78.2067 126.585 78.1498 126.692 77.9834 126.795C77.8266 126.892 77.6593 126.955 77.5165 127.059C77.1585 127.321 76.7139 127.453 76.3275 127.652C76.0754 127.781 75.8441 127.821 75.6176 127.962C75.5205 128.022 75.3781 128.029 75.2681 128.046C75.0832 128.074 74.8802 128.299 74.7124 128.391C74.5057 128.504 74.3246 128.611 74.1388 128.711C74.0981 128.733 73.9291 128.941 73.9784 128.952C74.2617 129.019 74.7469 128.454 74.9591 128.285C75.2716 128.035 75.5719 127.851 75.8709 127.559" stroke="#FBB03B" stroke-linecap="round"/>
<path d="M83.539 129.721C83.8455 129.724 84.0638 129.78 83.6339 129.898C83.0387 130.06 82.3352 129.816 81.7594 130C81.5515 130.067 81.2732 130.131 81.0547 130.128C80.9514 130.127 80.851 130.176 80.7655 130.231C80.6247 130.323 81.0899 130.165 81.112 130.156C81.2986 130.083 82.3186 129.947 82.3394 129.652C82.3728 129.179 79.9014 129.297 79.4276 129.291C79.1977 129.289 78.88 129.512 78.6841 129.622C78.389 129.788 78.0543 130.193 77.719 130.25C77.4669 130.293 77.1108 130.408 76.8972 130.541C76.6009 130.725 76.1462 130.741 75.8855 130.996C75.6761 131.201 75.2602 131.251 75.0677 131.465C74.8686 131.688 75.6277 131.257 75.9138 131.172C76.2082 131.085 76.5386 130.927 76.8385 130.895C77.0029 130.878 77.1197 130.736 77.2743 130.691C77.4598 130.636 77.5965 130.611 77.7706 130.503C77.935 130.401 78.2039 130.48 78.3932 130.398C78.5478 130.33 78.7407 130.272 78.907 130.267C79.3165 130.256 79.7014 130.058 80.1249 130.063C80.3265 130.065 80.7892 130.069 80.8639 129.853" stroke="#FF0000" stroke-linecap="round"/>
</svg>
