<svg width="175" height="175" viewBox="0 0 175 175" fill="none" xmlns="http://www.w3.org/2000/svg">
<rect x="1.90457" y="2.87042" width="170.502" height="170.502" rx="85.2511" transform="rotate(-0.324578 1.90457 2.87042)" stroke="black" stroke-width="2"/>
<path d="M27.7657 84.8824L23.2313 56.0366L26.8272 55.4714L46.1415 76.8515L46.2206 76.839L42.475 53.0116L45.6362 52.5147L50.1706 81.3605L46.6143 81.9195L27.2604 60.5457L27.1814 60.5581L30.9269 84.3855L27.7657 84.8824ZM132.596 68.4038L128.515 42.4426L118.162 44.07L117.708 41.1854L141.694 37.415L142.147 40.2996L131.794 41.927L135.875 67.8882L132.596 68.4038ZM37.8336 142.012L33.2992 113.166L41.1626 111.93C45.4302 111.259 48.6831 111.517 50.9212 112.704C53.1856 113.887 54.5684 116.072 55.0695 119.26C55.5664 122.421 54.9471 124.921 53.2115 126.759C51.5023 128.593 48.5929 129.834 44.4834 130.48L37.8054 131.529L37.3457 128.605L43.7076 127.605C46.9215 127.1 49.161 126.235 50.4262 125.01C51.7177 123.782 52.1854 122.034 51.8293 119.769C51.4773 117.53 50.4982 116.023 48.8919 115.25C47.3079 114.446 44.9089 114.297 41.6951 114.802L36.9138 115.554L40.9947 141.515L37.8336 142.012ZM140.943 126.209C137.281 126.784 134.354 126.367 132.162 124.957C129.992 123.517 128.646 121.137 128.124 117.818L125.124 98.7319L128.285 98.235L131.205 116.807C131.623 119.468 132.59 121.327 134.106 122.384C135.622 123.441 137.75 123.755 140.489 123.324C143.229 122.894 145.145 121.945 146.237 120.477C147.355 119.006 147.705 116.94 147.287 114.279L144.368 95.7069L147.529 95.21L150.529 114.296C151.051 117.615 150.5 120.293 148.877 122.33C147.249 124.34 144.604 125.633 140.943 126.209Z" fill="black" fill-opacity="0.1"/>
<path d="M59.4099 127.927C59.7582 127.579 60.5054 127.661 60.9494 127.667C61.7217 127.676 62.458 127.838 63.2132 127.985C64.0452 128.148 64.8535 128.377 65.6177 128.751C66.1692 129.021 66.5877 129.317 67.0703 129.695C68.081 130.486 68.6756 131.806 69.2886 132.906C70.0763 134.32 71.1509 135.503 72.4483 136.476C73.7259 137.434 75.5646 137.907 77.1394 137.982C78.2126 138.033 79.2992 138.003 80.3716 137.986C81.244 137.973 82.1124 138.021 82.9851 138.021C83.6603 138.021 84.3343 137.984 85.0109 137.984C85.2447 137.984 85.475 138.021 85.7062 138.021C85.7609 138.021 85.9869 138.015 85.8345 138.098C85.3058 138.386 84.7528 138.58 84.1646 138.746C83.4743 138.94 82.7335 139.124 82.0229 139.222C81.6237 139.276 81.2238 139.421 80.8289 139.509C80.3271 139.621 79.8043 139.627 79.3038 139.743C78.4746 139.935 77.5637 140.033 76.7131 140.033C75.7276 140.033 74.7049 139.979 73.7334 139.817C71.1409 139.385 68.2854 138.705 67.1386 136.049C66.8417 135.362 66.8367 134.604 66.5964 133.903C66.4192 133.386 66.1207 132.948 65.9094 132.455C65.5443 131.603 64.8773 130.991 64.1588 130.442C63.8088 130.174 63.4266 129.967 63.0435 129.753C62.6355 129.524 62.1794 129.259 61.7399 129.101C60.9623 128.821 60.284 128.305 59.4843 128.076" stroke="#2E3192" stroke-linecap="round"/>
<path d="M73.3029 132.546C73.3029 132.231 74.4351 131.937 74.6852 131.838C75.4919 131.522 76.3582 131.309 77.1973 131.096C78.0832 130.871 78.9861 130.713 79.8729 130.481C80.2727 130.376 80.6831 130.288 81.0875 130.202C81.5589 130.101 82.0493 130.131 82.5236 130.051C83.9497 129.809 85.3009 129.944 86.7118 130.179C87.0012 130.227 87.3323 130.311 87.6244 130.311C87.7447 130.311 87.6007 130.192 87.5664 130.162C87.3873 130.006 87.0585 129.897 86.8422 129.792C86.4327 129.592 86.0119 129.458 85.5861 129.306C84.8396 129.038 84.0328 128.8 83.252 128.672C81.7192 128.421 80.0744 128.21 78.5506 128.664C77.1392 129.085 75.7565 129.709 74.6852 130.738C74.2122 131.192 73.52 131.671 73.3029 132.323" stroke="#FF0000" stroke-linecap="round"/>
<path d="M71.0103 133.527L71.0637 133.42" stroke="black" stroke-linecap="round"/>
<path d="M71.1971 133.18C71.2346 133.134 71.2541 133.074 71.2772 133.02" stroke="black" stroke-linecap="round"/>
<path d="M71.6508 132.513C71.8494 132.314 72.005 132.065 72.1992 131.859C72.3526 131.697 72.4598 131.52 72.5965 131.345C72.769 131.124 72.978 130.93 73.1569 130.713C73.79 129.947 74.6259 129.241 75.4887 128.742C77.5004 127.579 79.6753 126.664 81.8319 125.809C83.1198 125.299 84.4415 124.88 85.7529 124.443C86.759 124.107 87.7664 123.686 88.8245 123.547C89.2056 123.497 89.5854 123.451 89.9674 123.408C90.3415 123.365 90.7597 123.337 91.1178 123.227C91.2584 123.184 91.4029 123.211 91.5476 123.195C91.7019 123.177 91.8504 123.123 92.0042 123.1C92.3174 123.053 92.6268 123.014 92.9441 123.014" stroke="#FBB03B" stroke-linecap="round"/>
<path d="M93.3977 122.987C93.5624 122.987 93.7354 122.972 93.8987 122.954C94.0515 122.937 93.8129 122.843 93.7772 122.833C93.6144 122.786 93.4404 122.806 93.2702 122.8C92.8899 122.787 92.5189 122.676 92.1406 122.634C91.5181 122.565 90.9031 122.438 90.2787 122.379C89.4747 122.303 88.6773 122.245 87.8713 122.207C86.934 122.163 85.9622 122.333 85.028 122.406C84.3237 122.461 83.6524 122.581 82.9645 122.726C82.3278 122.86 81.6916 122.993 81.0774 123.212C79.6756 123.713 78.2923 124.219 77.0363 125.04C76.6955 125.263 76.3525 125.478 76.0268 125.722C75.696 125.97 75.418 126.24 75.1181 126.522C74.4546 127.146 73.825 127.701 73.4074 128.518C73.2411 128.843 72.9976 129.143 72.8663 129.484C72.7646 129.749 72.642 130.005 72.5446 130.271C72.3526 130.797 72.1279 131.319 71.9042 131.832C71.7467 132.194 71.5393 132.579 71.4254 132.953C71.3944 133.055 71.3279 133.341 71.2238 133.393" stroke="#FBB03B" stroke-linecap="round"/>
<path d="M69.6228 131.392C69.6436 131.184 69.7295 130.982 69.7295 130.767C69.7295 130.533 69.7578 130.302 69.7829 130.07C69.8414 129.528 69.9648 128.975 70.0883 128.445C70.2377 127.804 70.4714 127.193 70.6501 126.561C70.866 125.797 71.1589 125.016 71.5173 124.309C71.7581 123.834 72.0262 123.395 72.2897 122.934C72.5496 122.479 73.0194 122.123 73.3644 121.733C73.6044 121.461 73.885 121.206 74.1427 120.949C74.2858 120.805 74.465 120.636 74.5726 120.465C74.7532 120.178 75.052 119.968 75.2856 119.726C75.3796 119.628 75.4521 119.534 75.5599 119.45C75.6436 119.385 75.5776 119.383 75.502 119.399C75.3323 119.435 75.1596 119.443 74.9877 119.465C74.478 119.528 73.9567 119.676 73.5127 119.939C72.4348 120.577 71.4852 121.418 70.6042 122.299C70.1338 122.769 69.75 123.361 69.3827 123.912C69.1367 124.281 68.8238 124.682 68.7008 125.116C68.6326 125.356 68.6344 125.607 68.6029 125.851C68.5347 126.379 68.5535 126.969 68.5836 127.496C68.6208 128.146 68.8127 128.715 68.9824 129.338" stroke="#006837" stroke-linecap="round"/>
<path d="M69.1959 129.871C69.2499 130.358 69.5643 130.797 69.7028 131.259" stroke="#006837" stroke-linecap="round"/>
<path d="M68.2086 129.978C68.1239 129.883 68.0945 129.763 68.0485 129.646C67.9539 129.405 67.8388 129.175 67.7401 128.936C67.3846 128.075 67.15 127.198 67.1131 126.256C67.0841 125.515 67.1032 124.675 67.2954 123.95C67.3556 123.724 67.4052 123.494 67.4881 123.274C67.5095 123.218 67.5333 123.154 67.5504 123.097C67.5527 123.089 67.3728 123.258 67.3488 123.28C66.8634 123.734 66.4824 124.198 66.3541 124.868C66.2856 125.226 66.2628 125.571 66.2874 125.934C66.3172 126.374 66.364 126.865 66.5038 127.284C66.6449 127.708 66.7767 128.147 67.0138 128.528C67.18 128.796 67.3521 129.06 67.5148 129.329C67.6215 129.505 67.7692 129.654 67.8884 129.824C67.9258 129.877 67.9942 129.951 68.0485 129.978" stroke="#2E3192" stroke-linecap="round"/>
<path d="M55.9136 106.23C55.4903 110.039 54.3501 113.753 53.7202 117.532C52.7466 123.374 51.4938 129.22 49.9779 134.938C49.5952 136.382 49.4583 137.867 49.1331 139.32C48.884 140.432 48.5965 141.508 48.4615 142.645C48.3755 143.37 48.1685 144.111 48.1203 144.833C48.0794 145.447 47.8451 146.02 47.8225 146.631C47.743 148.776 46.9955 150.853 47.1401 153.022" stroke="black" stroke-linecap="round"/>
<path d="M55.9135 106.035C56.0485 106.02 56.2016 105.926 56.3034 105.84C56.721 105.485 57.4597 105.554 57.9661 105.493C60.0333 105.244 62.1092 105.157 64.1942 105.157C70.0412 105.157 75.8682 104.456 81.7032 104.193C86.5764 103.974 91.4507 103.81 96.3148 103.479C99.2166 103.281 102.134 103.013 105.045 103.013" stroke="black" stroke-linecap="round"/>
<path d="M104.07 103.305C103.689 103.353 103.396 106.264 103.312 106.674C102.771 109.316 102.819 112.103 102.684 114.787C102.611 116.236 102.63 117.68 102.602 119.13C102.576 120.526 102.326 121.905 102.315 123.3C102.29 126.757 102.166 130.211 102.223 133.671C102.281 137.173 102.632 140.67 102.711 144.172C102.743 145.629 103.066 147.226 102.895 148.684C102.739 150.004 102.9 151.302 102.9 152.632" stroke="black" stroke-linecap="round"/>
<path d="M104.655 103.013C107.024 103.013 109.334 103.138 111.679 103.646C114.159 104.184 116.63 104.827 119.12 105.304C121.501 105.759 123.845 106.597 126.231 106.988C126.751 107.073 127.231 107.302 127.758 107.302C128.019 107.302 128.221 107.29 128.441 107.399" stroke="black" stroke-linecap="round"/>
<path d="M136.142 152.924C136.142 147.689 134.3 142.67 133.169 137.625C132.64 135.267 132.114 132.868 131.95 130.449C131.794 128.142 130.88 125.895 130.781 123.603C130.552 118.336 128.733 113.257 128.733 107.984" stroke="black" stroke-linecap="round"/>
<path d="M102.51 153.899C102.837 153.863 103.213 153.605 103.55 153.531C105.128 153.185 106.703 153.169 108.305 153.07C112.313 152.823 116.336 152.612 120.35 152.632C123.592 152.647 126.863 152.746 130.103 152.626C132.247 152.547 134.387 152.729 136.532 152.729" stroke="black" stroke-linecap="round"/>
<path d="M45.7753 153.314C50.4048 153.314 55.0301 153.119 59.6667 153.119C66.1836 153.119 72.6944 152.87 79.212 152.924C81.8731 152.946 84.5152 153.3 87.1731 153.314C89.5583 153.327 91.9392 153.217 94.3219 153.217C96.7355 153.217 99.1271 153.411 101.536 153.411" stroke="black" stroke-linecap="round"/>
<path d="M50.8444 146.783C53.0331 146.783 55.2345 146.403 57.4299 146.393C61.3598 146.374 65.285 146.588 69.2145 146.588C73.0916 146.588 76.969 146.685 80.8475 146.685C82.7115 146.685 84.5635 146.49 86.4257 146.49" stroke="black" stroke-linecap="round"/>
<path d="M75.5076 143.468C75.5769 144.3 75.5076 145.16 75.5076 146.003" stroke="black" stroke-linecap="round"/>
<path d="M56.9858 143.858C56.558 144.34 56.6421 145.341 56.6934 145.905" stroke="black" stroke-linecap="round"/>
<path d="M64.7845 114.906C65.5745 114.906 66.3272 114.779 67.1078 114.651C69.6979 114.228 72.2845 113.962 74.9011 113.785C80.8278 113.384 86.7158 112.859 92.6646 112.859" stroke="black" stroke-linecap="round"/>
<path d="M81.9415 114.126C81.4257 114.771 81.4541 116.28 81.4541 117.05" stroke="black" stroke-linecap="round"/>
<path d="M78.6271 118.61C80.0705 117.931 82.0878 118.108 83.6475 117.933C86.3427 117.631 89.0797 117.733 91.7873 117.733" stroke="black" stroke-linecap="round"/>
<path d="M87.303 118.22V118.318" stroke="black" stroke-linecap="round"/>
<path d="M87.2056 119.195C87.2056 119.443 87.1557 119.639 87.1081 119.877" stroke="black" stroke-linecap="round"/>
<path d="M78.9605 84.8444C78.8685 85.6718 77.5138 86.31 76.873 86.6905C75.4786 87.5183 73.9121 88.0536 72.2819 88.0536C72.1391 88.0536 71.7664 88.0581 71.6579 87.9496C71.6028 87.8945 73.0443 87.7862 73.1437 87.7862" stroke="black" stroke-linecap="round"/>
<path d="M71.6059 88.856C73.4919 88.856 75.2707 89.9135 76.2712 91.4858C76.5377 91.9046 76.557 91.8562 76.9992 91.9464C78.0934 92.1697 79.0709 92.6438 79.863 93.4359C80.69 94.2628 81.1865 95.2716 81.6051 96.348C82.0647 97.5298 82.5782 98.7974 82.634 100.081C82.6871 101.301 81.7671 102.531 80.8957 103.294C80.4549 103.68 79.9075 103.955 79.4953 104.367" stroke="black" stroke-linecap="round"/>
<path d="M86.4487 94.1379C86.5041 94.6361 86.9409 95.2636 87.1359 95.7165C87.4468 96.4387 87.8338 97.1189 88.1499 97.8375C88.6461 98.9651 89.2609 100.158 90.1111 101.062C90.4786 101.452 90.9099 101.713 91.3295 102.027" stroke="black" stroke-linecap="round"/>
<path d="M87.5184 89.9258C87.8507 90.2211 88.3371 90.4737 88.707 90.7281C89.5952 91.3386 90.3226 91.9781 91.4483 92.0987C92.5242 92.214 93.4859 92.2203 94.5387 91.9947C95.9176 91.6992 97.2575 91.7196 98.6617 91.8127C100.155 91.9116 101.744 92.1659 103.193 92.5333C103.767 92.6787 104.808 92.8237 105.136 93.4062C105.426 93.9224 104.817 94.7681 104.649 95.2894C104.505 95.7371 104.367 96.1068 104.367 96.5783C104.367 97.1062 104.166 97.5637 104.166 98.0826C104.166 98.6082 103.774 99.1259 103.561 99.587C103.428 99.8741 103.219 100.166 102.996 100.389C102.771 100.615 102.618 100.987 102.361 101.158" stroke="black" stroke-linecap="round"/>
<path d="M102.562 92.3327C102.804 92.3059 103.028 91.9921 103.19 91.8424C103.517 91.5397 103.898 91.2816 104.267 91.0327C104.995 90.5408 105.834 90.2213 106.611 89.8218C107.282 89.4765 106.111 88.8957 105.838 88.7595C105.159 88.4198 104.458 88.083 103.765 87.7863" stroke="black" stroke-linecap="round"/>
<path d="M81.1 86.4491C81.1537 86.8791 82.2511 87.452 82.5523 87.6303C83.9255 88.443 85.4963 88.9793 87.0988 88.5551C87.8617 88.3532 88.5752 88.1181 89.3608 88.0017C89.8233 87.9332 90.5801 87.8391 90.9283 88.1874" stroke="black" stroke-linecap="round"/>
<path d="M104.166 87.2514C103.446 87.3234 102.772 88.0231 102.135 88.3175C101.925 88.4141 101.819 88.5431 101.592 88.3509C101.07 87.9092 100.532 87.5231 99.9357 87.1771C97.6553 85.853 95.1187 84.2488 92.3843 84.3096C91.7525 84.3236 91.1612 84.6363 90.5605 84.7776C89.9388 84.9239 89.3829 85.1112 88.7888 85.3422C88.088 85.6147 87.1956 85.6652 86.4635 85.7954C85.8523 85.904 85.1991 85.8474 84.5766 85.8474" stroke="black" stroke-linecap="round"/>
<path d="M79.5245 67.4073C79.4271 68.2845 79.1086 69.1681 78.9179 70.0336C78.6963 71.0395 78.4355 72.0318 78.2214 73.0393C77.8422 74.8237 77.3676 76.5627 77.3676 78.4065C77.3676 79.0327 77.3227 79.6532 77.3227 80.2813C77.3227 80.589 77.2356 80.9918 77.6273 80.9778C77.8442 80.9701 78.0236 80.7981 78.2464 80.7981C78.5564 80.7981 78.8265 80.9112 79.1301 80.9329C79.2738 80.9432 79.8892 81.1466 79.9714 81.2699C80.1489 81.5362 80.4928 81.8166 80.7278 82.0463C81.562 82.862 82.4185 83.6613 83.2192 84.4928C83.669 84.9599 84.1392 85.4401 84.6122 85.8658C85.0296 86.2415 84.5124 86.8328 84.5124 87.3137" stroke="black" stroke-linecap="round"/>
<path d="M88.242 85.2018C88.0243 84.9598 87.8497 84.6531 87.6404 84.3979C87.3211 84.0086 86.9604 83.6505 86.6044 83.2945C86.1083 82.7985 85.6007 82.2746 85.144 81.7417C84.9696 81.5383 84.8674 81.2533 84.6921 81.0677C84.5547 80.9222 84.3798 80.7321 84.3102 80.5509C83.785 79.1854 84.7119 77.7168 85.4311 76.6241C86.2296 75.4107 87.1001 74.3092 88.0648 73.224C88.4652 72.7735 88.9442 72.3081 89.2755 71.811" stroke="black" stroke-linecap="round"/>
<path d="M87.0737 75.99C87.0737 76.0981 87.0267 76.2009 87.0063 76.307C86.9344 76.6812 86.9547 77.0975 86.9364 77.4803C86.8942 78.3662 86.8887 79.2534 86.8465 80.139C86.7954 81.2122 86.849 82.2838 86.849 83.3594" stroke="black" stroke-linecap="round"/>
<path d="M94.8026 74.1027C94.8026 74.3945 94.7453 74.6634 94.6678 74.9415C94.565 75.3104 94.6111 75.7129 94.543 76.0899C94.4671 76.5101 94.3132 76.9193 94.2634 77.3431C94.152 78.2896 93.791 79.2577 93.5244 80.1715C93.5062 80.2339 93.3251 80.8093 93.4346 80.8405C93.5137 80.8631 93.7125 80.9032 93.7591 80.9778C93.8388 81.1053 93.9992 81.1628 94.1286 81.2275C94.3233 81.3248 94.4439 81.5509 94.5979 81.6968C94.8385 81.9248 95.1669 82.0913 95.3668 82.3484C95.548 82.5813 95.7831 82.7722 95.9909 82.98C96.4555 83.4445 97.0309 83.9517 97.3989 84.4978C97.5855 84.7747 97.8711 85.0349 98.1079 85.2717C98.2913 85.4551 98.3919 85.6905 98.5772 85.8758" stroke="black" stroke-linecap="round"/>
<path d="M86.5794 82.6853C86.9205 82.6853 87.194 82.797 87.5181 82.905C88.0457 83.0809 88.5926 83.2125 89.0758 83.4917C89.4223 83.6919 89.8084 83.8171 90.1593 84.0084C90.387 84.1327 90.7101 84.1648 90.8932 84.3479" stroke="black" stroke-linecap="round"/>
<path d="M77.5763 72.4549C77.4581 72.4417 77.3487 72.3208 77.2401 72.2715C76.5268 71.9472 75.8321 71.4839 75.0702 71.2859C74.6706 71.182 74.2095 71.0108 73.7942 71.0108C73.2689 71.0108 73.0296 71.4856 72.6481 71.7978C70.7852 73.322 68.6358 74.6839 66.4287 75.6601C65.7155 75.9755 65.0245 76.3206 64.3046 76.6151C64.0731 76.7098 63.642 76.9956 63.3801 76.9207C63.3081 76.9002 63.1356 75.4262 63.1356 75.2742C63.1356 74.6977 62.8069 75.0608 62.4824 75.1329C62.2883 75.176 61.71 75.177 61.5693 75.2895C61.2876 75.5148 61.4165 74.1452 61.4165 73.9677C61.4165 73.6679 60.9915 73.95 60.6907 73.9677C59.9648 74.0104 59.2477 74.1052 58.494 74.1052C58.2451 74.1052 57.5095 74.2502 57.7758 73.8951C58.3163 73.1744 59.2185 72.723 59.9877 72.2982C60.9933 71.7429 62.042 71.2968 63.1089 70.8771C65.6478 69.8782 68.2793 69.1618 70.738 67.9508C71.7231 67.4655 72.6824 66.9501 73.6529 66.4379C73.9348 66.2891 74.3367 66.1437 74.4819 65.8534" stroke="black" stroke-linecap="round"/>
<path d="M74.3078 66.1638C74.1423 66.1431 73.8893 65.9742 73.7154 65.9255C73.2964 65.8081 72.8988 65.6021 72.5206 65.3893C71.2656 64.6834 70.0068 63.9926 68.8535 63.1222C67.5402 62.131 66.3465 60.8944 65.5372 59.4517C64.9942 58.4838 64.9544 57.526 64.7296 56.4862C64.6942 56.3226 64.7628 56.1326 64.6171 56.0063C64.2692 55.7049 63.9277 55.3986 63.5878 55.0829C63.2703 54.7881 63.0009 54.4378 62.7272 54.1033C62.4817 53.8031 63.1249 54.0171 63.28 54.0404C63.6064 54.0894 63.9339 54.1398 64.2596 54.1926C64.4053 54.2163 64.5905 54.3383 64.7395 54.3052C64.8318 54.2847 64.5274 53.9529 64.4781 53.9212C64.2325 53.7634 64.1855 53.4497 64.0015 53.2395C63.79 52.9978 63.6556 52.7209 63.548 52.422C63.2892 51.7029 62.8304 51.0275 62.6445 50.2839C62.6097 50.1448 62.5632 49.985 62.5717 49.8404C62.579 49.7155 62.9023 49.804 62.9887 49.7676C63.078 49.73 63.3397 49.7608 63.3925 49.708C63.4815 49.619 62.7289 49.2631 62.6644 49.2314C62.0174 48.9141 61.3743 48.6725 60.705 48.4106C59.3589 47.8839 57.9367 47.5606 56.558 47.1298C56.1944 47.0161 55.7922 46.9127 55.4492 46.7657C55.2254 46.6698 55.0153 46.5055 54.8005 46.3884C54.7362 46.3533 54.5458 46.079 54.7112 46.1203C54.8973 46.1669 55.4604 46.4217 55.0057 46.074C54.1046 45.3849 52.9471 45.0116 51.9145 44.5714C51.3145 44.3156 50.6806 44.1097 50.124 43.7671C49.9801 43.6786 49.6164 43.5543 49.975 43.5884C50.3322 43.6224 50.6922 43.7106 51.0407 43.7936C51.1264 43.814 51.5751 43.8814 51.2757 43.7903C50.6308 43.594 49.9999 43.3386 49.4058 43.0357C49.0987 42.8791 48.6446 42.6915 48.393 42.4532C48.252 42.3196 47.7554 42.1128 47.6914 41.9766C47.6152 41.8147 48.6114 41.5884 48.0356 41.5596C47.6655 41.5411 47.304 41.3744 46.9301 41.3246C46.3035 41.241 45.3972 41.0367 44.8781 40.666C44.1271 40.1295 43.2633 39.7594 42.5911 39.0872C42.2967 38.7929 42.2013 38.5702 42.7334 38.6537C43.1998 38.7268 43.4739 38.9838 43.8654 39.1898C44.0206 39.2715 44.6336 39.5543 44.6001 39.5208C43.8677 38.7884 42.828 38.3944 42.0186 37.7468" stroke="black" stroke-linecap="round"/>
<path d="M41.1845 37.0319C41.1391 36.8275 40.7501 36.4582 40.6318 36.2773C40.5064 36.0854 40.3547 35.9264 40.2313 35.7345C40.0857 35.5078 39.6447 34.5649 39.7878 34.3808C40.0042 34.1026 40.6941 34.3152 40.9164 34.5033C41.0608 34.6254 41.2208 34.7198 41.3765 34.8276C41.5706 34.962 41.7187 35.1977 41.9259 35.3042C42.3275 35.5108 42.716 35.6769 43.1041 35.9264C43.2165 35.9986 43.382 36.1082 43.4483 36.2243C43.4686 36.2598 43.5566 36.278 43.5907 36.2508C43.6631 36.1928 43.3389 35.9097 43.316 35.8867C42.383 34.9537 41.3549 34.1016 40.559 33.0404C40.0552 32.3687 39.5637 31.7113 39.0994 31.0149" stroke="black" stroke-linecap="round"/>
<path d="M38.5632 30.1213C38.4517 29.9958 38.3121 29.1014 38.5334 29.0522C39.1172 28.9225 39.6355 29.5818 40.0526 29.8366C40.1385 29.8892 40.8595 30.6151 40.8237 30.3827C40.7545 29.9329 40.4093 29.3971 40.1717 29.0191C39.7878 28.4083 39.463 27.7659 39.0994 27.1425" stroke="black" stroke-linecap="round"/>
<path d="M38.5632 26.0106C38.264 25.4122 37.3771 23.4327 38.3249 22.9724C38.8432 22.7206 39.1589 23.1796 39.5495 23.3927C39.7283 23.4902 39.8234 23.795 39.9335 23.9586C40.303 24.508 40.6883 25.049 41.0654 25.5936" stroke="black" stroke-linecap="round"/>
<path d="M41.959 26.8447C42.1054 27.0003 42.1874 27.2088 42.3164 27.3809" stroke="black" stroke-linecap="round"/>
<path d="M42.9122 28.2149C43.039 28.3558 43.1544 28.5328 43.2564 28.6915C43.5013 29.0724 43.8324 29.3794 44.0706 29.7605C44.437 30.3468 44.9347 30.9339 45.4143 31.4319C46.3862 32.4412 47.11 33.5205 48.307 34.2915C48.7128 34.5528 49.1562 34.7609 49.6043 34.9402C49.6502 34.9585 50.0607 35.1466 49.975 34.9799C49.5454 34.1433 48.6722 33.4086 48.0587 32.7094C47.1836 31.7122 46.1843 30.6434 45.5732 29.4593C44.9611 28.2735 44.5298 27.0554 44.1632 25.7723" stroke="black" stroke-linecap="round"/>
<path d="M44.1633 24.5808C44.6946 24.1086 45.072 24.312 45.4673 24.839C46.6068 26.3584 47.8731 27.9427 48.724 29.6446C48.9587 30.114 49.3112 30.5176 49.5316 30.995C49.7758 31.5241 50.102 32.0695 50.4053 32.5704C50.9047 33.3949 51.5124 34.1734 52.09 34.9434C52.5892 35.6091 52.3682 34.1995 52.2621 33.9009C51.9842 33.1193 51.5647 32.3729 51.2228 31.6172C50.6658 30.3859 50.142 28.8518 50.1207 27.4867C50.1151 27.1282 50.2377 26.911 50.3722 26.5931C50.4728 26.3555 50.9982 26.2625 51.1963 26.4011C51.8373 26.8499 51.9609 27.5992 52.2058 28.334" stroke="black" stroke-linecap="round"/>
<path d="M52.8611 29.7639C53.0965 30.2134 53.2896 30.6804 53.5164 31.1341" stroke="black" stroke-linecap="round"/>
<path d="M54.1121 32.3255C54.1602 32.7587 54.5861 33.2724 54.7972 33.6395C55.1603 34.2709 55.7298 34.9047 55.9622 35.6021C56.066 35.9135 56.0819 35.5793 56.0748 35.4466C56.0527 35.0392 55.9861 34.5965 55.896 34.1988C55.6782 33.2366 55.3474 32.2922 55.0918 31.3393C54.8422 30.4088 54.5601 29.2866 55.3499 28.526C56.0823 27.8208 56.8564 29.5003 57.0908 29.9757C57.6858 31.1822 58.2106 32.4294 58.7291 33.666C58.9878 34.2828 59.3425 34.8711 59.679 35.4499C60.0337 36.0599 60.2738 36.7652 60.7547 37.2967C61.4426 38.057 61.9737 38.9029 62.7107 39.6399C63.4933 40.4225 64.2568 41.1842 65.1665 41.8243C65.5244 42.0762 65.928 42.2517 66.2785 42.5127C66.4364 42.6303 66.631 42.785 66.8014 42.8702" stroke="black" stroke-linecap="round"/>
<path d="M67.6951 43.8829C67.5063 43.4818 67.2389 43.1292 67.0431 42.7279C66.7877 42.2043 66.6263 41.6547 66.4142 41.1127C66.3388 40.9201 66.1076 40.4808 66.497 40.6792C67.4127 41.1457 68.2896 41.6349 69.2573 42.0097C70.0334 42.3103 70.82 42.692 71.5442 43.082C72.2747 43.4753 73.0792 43.7255 73.7849 44.1808C74.1223 44.3985 74.4992 44.6112 74.8076 44.8659C74.8782 44.9242 75.3214 45.2081 75.3173 45.1837C75.2317 44.6703 74.7961 44.2153 74.513 43.8035C74.1647 43.2968 73.7849 42.8013 73.4275 42.3009C73.3372 42.1746 73.1467 41.8878 73.3877 42.1288C73.9089 42.65 74.6776 42.9822 75.3636 43.2045C77.2615 43.8193 79.1368 44.5996 80.9206 45.4915" stroke="black" stroke-linecap="round"/>
<path d="M81.9929 45.9084C83.902 46.5221 85.9344 47.3627 87.5333 48.6191C88.0345 49.0129 88.5676 49.5386 88.9035 50.0919C89.0413 50.3188 88.9998 50.8922 89.026 51.1543C89.0829 51.7237 89.1876 52.2867 89.261 52.8555C89.3788 53.7687 89.669 54.6934 89.9295 55.5727C90.0471 55.9694 90.1241 56.4951 90.3631 56.8403C90.6589 57.2675 90.826 57.8401 91.0945 58.2999C91.6793 59.3011 92.292 60.1477 93.0638 61.0072C93.3402 61.3151 93.6038 61.6238 93.7886 61.9935" stroke="black" stroke-linecap="round"/>
<path d="M91.1413 58.083C92.484 58.083 93.6418 58.9372 94.8175 59.4662C95.1364 59.6097 95.448 59.8229 95.7751 59.9397C95.9488 60.0018 96.0845 60.1419 96.2646 60.1419" stroke="black" stroke-linecap="round"/>
<path d="M104.33 63.9395C104.867 63.4626 105.713 63.109 106.379 62.8976C107.602 62.5091 108.842 62.0707 110.113 61.8658C111.472 61.6469 112.762 61.1447 114.099 60.834C115.353 60.5428 116.588 60.1644 117.852 59.9079C119.181 59.6383 120.466 59.5456 121.815 59.5456C122.615 59.5456 123.416 59.6815 124.216 59.6815C124.634 59.6815 125.144 59.5804 125.507 59.3593C125.705 59.2387 125.864 59.0271 126.028 58.8661C126.28 58.6185 126.561 58.427 126.833 58.2067C127.405 57.7436 128.246 57.4864 128.932 57.2555C130.012 56.8922 131.143 56.6505 132.279 56.5584C133.268 56.4782 134.257 56.4235 135.246 56.3545C135.851 56.3124 136.497 56.4091 137.091 56.2841C137.464 56.2056 138.198 56.2139 137.916 55.6499C137.569 54.9551 136.633 54.9188 135.948 54.8119C135.363 54.7205 134.77 54.69 134.187 54.5879C133.739 54.5095 133.205 54.4385 132.757 54.5074C131.718 54.6673 130.632 54.5909 129.584 54.7012C129.452 54.7151 129.065 54.793 129.186 54.7389C130.135 54.3172 131.07 54.0286 132.103 53.8833C133.507 53.6857 134.923 53.4529 136.286 53.0478C136.585 52.9587 137.965 52.804 137.081 52.3532C136.325 51.9676 135.324 51.8624 134.496 51.9807C133.85 52.0731 133.199 52.2389 132.551 52.2978C131.989 52.3489 131.431 52.3679 130.875 52.479" stroke="black" stroke-linecap="round"/>
<path d="M129.788 52.6602C129.681 52.6708 128.575 52.9468 128.575 52.9068C128.575 52.8255 129.187 52.5386 129.262 52.4966C129.744 52.2263 130.262 52.0472 130.779 51.8599C131.569 51.5738 132.366 51.4039 133.165 51.1628C133.707 50.9991 134.234 50.7424 134.755 50.5211C134.961 50.4338 136.573 49.7991 135.883 49.444C135.202 49.0936 134.53 49.3552 133.819 49.444C133.31 49.5077 132.797 49.585 132.294 49.6906C131.7 49.8154 131.064 49.8645 130.482 50.0379C129.211 50.4166 127.866 50.7924 126.66 51.3491C126.412 51.4632 126.172 51.5886 125.937 51.719C125.815 51.7869 125.952 51.6998 126.018 51.6083C126.356 51.1377 126.785 50.8026 127.251 50.4632C128.224 49.7542 129.28 49.2582 130.321 48.6639C131.207 48.1586 132.07 47.6223 132.928 47.0734C133.414 46.7632 133.827 46.3862 134.182 45.9334C134.325 45.7509 134.51 45.5084 134.443 45.2564C134.375 44.998 134.128 44.9142 133.887 44.9142C133.696 44.9142 133.536 44.9657 133.356 45.0299C132.884 45.1986 132.394 45.3041 131.922 45.4678C130.798 45.8571 129.647 46.1914 128.545 46.638C127.164 47.1971 125.808 47.811 124.433 48.382C123.689 48.6906 123.048 49.1298 122.404 49.6C122.143 49.7909 122.007 49.9816 121.795 50.194C121.675 50.314 121.565 50.4843 121.463 50.6218C121.333 50.7963 121.191 51.0554 121.491 50.8332C122.818 49.8473 124.159 48.7055 125.165 47.3855C125.306 47.2004 125.56 46.908 125.359 46.6909C125.115 46.4281 124.789 46.2765 124.42 46.3889C123.769 46.5871 123.143 47.0445 122.55 47.3704C121.758 47.8055 121.089 48.4129 120.366 48.9457" stroke="black" stroke-linecap="round"/>
<path d="M119.505 49.7158C118.679 50.5423 117.784 51.3191 116.923 52.094C116.819 52.188 117.025 51.9591 117.059 51.9002C117.272 51.5308 117.5 51.1635 117.693 50.7829C117.949 50.2777 118.163 49.8034 118.103 49.2402C118.003 48.2864 116.569 49.8121 116.332 50.0103C115.153 50.9926 113.787 51.9398 112.831 53.1535C112.707 53.3114 112.418 53.8116 112.438 53.6115C112.463 53.3654 112.713 53.0424 112.824 52.8163C113.102 52.2453 113.471 51.7712 113.707 51.1755C113.765 51.0293 113.971 50.4162 113.684 50.3525C113.351 50.2785 113.004 50.6894 112.771 50.8584C112.049 51.3805 111.342 51.9218 110.629 52.4564C109.907 52.9981 109.323 53.6558 108.669 54.2708C108.257 54.6571 107.896 55.0736 107.501 55.4687C107.219 55.7506 107.654 55.159 107.712 55.0661C108.026 54.5682 108.343 53.9769 108.362 53.3749C108.372 53.047 108.509 52.6063 108.203 52.3683C107.925 52.1518 107.306 52.8978 107.169 53.0377C106.409 53.8098 105.748 54.6736 105.035 55.4863C104.695 55.8729 104.419 56.2987 104.149 56.727C104.13 56.7576 103.973 56.9431 103.973 56.9359C103.973 56.8558 104.115 56.6926 104.149 56.6264C104.248 56.4324 104.346 56.2369 104.421 56.0324C104.626 55.473 104.844 54.9907 104.828 54.3816C104.823 54.1619 104.583 53.8555 104.355 54.0418C103.562 54.6909 102.733 55.3844 102.166 56.2539C101.811 56.7985 101.205 57.2607 100.726 57.6909C100.342 58.0359 99.9482 58.3557 99.5838 58.7201C99.1726 59.1314 98.3894 59.6572 97.8323 59.8274C97.5661 59.9088 97.2888 59.9859 97.0371 60.1118C96.8506 60.205 96.6164 60.2488 96.4482 60.3609" stroke="black" stroke-linecap="round"/>
<path d="M99.7206 63.0935C100.151 63.1522 100.564 63.3036 100.993 63.3738C101.704 63.4901 102.402 63.648 103.112 63.7705C104.118 63.944 105.217 64.1212 106.16 64.5315C106.628 64.735 107.133 65.0084 107.133 65.5792C107.133 65.815 107.083 65.9547 107.268 66.0988C107.613 66.3666 108.085 66.5307 108.456 66.7714C108.864 67.0357 109.33 67.4773 109.5 67.9356C109.733 68.5682 109.29 69.5974 109.81 70.1174" stroke="black" stroke-linecap="round"/>
<path d="M109.965 70.5055H109.927" stroke="black" stroke-linecap="round"/>
<path d="M109.81 70.195C109.709 70.1837 109.571 70.0488 109.478 70.001C109.339 69.9296 109.195 69.8634 109.058 69.7897C108.701 69.5977 108.211 69.6583 107.822 69.5935C107.563 69.5503 107.286 69.5741 107.025 69.5741C106.707 69.5741 106.395 69.4881 106.076 69.4965C105.844 69.5026 106.512 69.6905 106.744 69.6905" stroke="black" stroke-linecap="round"/>
<path d="M106.162 70.0398C106.037 70.0554 105.833 70.2775 105.735 70.3524C105.439 70.5804 105.141 70.8008 104.817 70.9884C104.254 71.314 103.612 71.4582 103.002 71.6675C102.413 71.8694 101.751 71.984 101.137 72.0771C100.605 72.1577 100.08 72.3118 99.5524 72.3983C98.5916 72.5558 97.5704 72.979 96.7325 73.4741C96.3922 73.6752 95.9993 73.8643 95.6265 73.9958C95.3123 74.1067 94.9537 74.2634 94.7146 74.5024" stroke="black" stroke-linecap="round"/>
<path d="M106.768 145.64C107.017 145.459 107.542 145.506 107.822 145.506C109.018 145.506 110.212 145.573 111.409 145.573C113.825 145.573 116.258 145.285 118.663 145.573" stroke="black" stroke-linecap="round"/>
<path d="M110.377 142.432C110.639 143.087 110.577 144.125 110.577 144.838" stroke="black" stroke-linecap="round"/>
<path d="M107.637 141.697C110.236 141.601 112.861 141.731 115.456 141.564" stroke="black" stroke-linecap="round"/>
<path d="M114.32 122.384C117.899 122.384 121.441 122.996 124.945 123.653" stroke="black" stroke-linecap="round"/>
<path d="M121.871 124.054V125.992" stroke="black" stroke-linecap="round"/>
<path d="M118.663 127.062C120.441 127.062 122.22 127.166 123.987 127.344C125.032 127.449 126.094 127.511 127.128 127.7C127.591 127.785 128.019 127.955 128.487 127.997" stroke="black" stroke-linecap="round"/>
<path d="M123.542 120.713V122.451" stroke="black" stroke-linecap="round"/>
<path d="M120 119.711C121.351 119.711 122.729 120.013 124.077 120.126C125.211 120.222 126.371 120.412 127.485 120.646" stroke="black" stroke-linecap="round"/>
<path d="M62.0357 128.681C62.3641 128.681 62.7233 128.934 63.0723 128.953C63.3626 128.97 63.3256 129.091 63.0602 128.899C62.7538 128.677 62.4518 128.572 62.0842 128.572C61.9007 128.572 61.7831 128.517 61.6053 128.517C61.2992 128.517 62.2176 128.517 62.5237 128.517C63.0995 128.517 62.2042 128.37 62.0388 128.326C61.7399 128.247 61.5394 128.135 61.2295 128.135C60.9557 128.135 61.7808 128.174 62.0418 128.256C62.3909 128.367 63.4867 128.448 63.1208 128.462C62.6044 128.482 62.0693 128.389 61.5993 128.178C61.4115 128.093 61.2034 128.026 60.9991 128.026C60.9549 128.026 60.7163 128.026 60.89 128.026C61.2243 128.026 61.5591 128.02 61.8933 128.029C62.509 128.046 63.146 128.071 63.7573 128.147C63.9188 128.167 64.037 128.266 64.1908 128.299C64.4522 128.354 64.6483 128.504 64.897 128.575C64.9365 128.586 64.9449 128.699 64.9152 128.723C64.7656 128.846 64.1679 128.607 63.9998 128.572C63.5477 128.477 63.1493 128.395 63.7937 128.79C64.1484 129.007 64.5116 129.187 64.8424 129.441C64.9385 129.515 65.3276 129.726 65.0061 129.675C64.7096 129.627 64.476 129.389 64.1635 129.445C63.8953 129.492 64.4824 130.106 64.5424 130.148C64.7687 130.306 64.6508 130.136 64.5696 129.996C64.369 129.651 64.1456 129.332 63.8846 129.029C63.6889 128.802 63.5014 128.534 63.2906 128.323C63.1946 128.227 63.3837 128.58 63.4542 128.696C63.5679 128.883 63.7038 129.058 63.8119 129.251C63.888 129.386 64.0296 129.482 64.0786 129.629C64.0984 129.689 63.3942 129.266 63.7452 129.36C64.5247 129.568 65.3314 130.023 66.0063 130.457C66.2288 130.6 66.1276 129.825 66.1276 129.675C66.1276 129.211 66.6147 129.947 66.7277 130.111C66.7734 130.178 66.9327 130.344 66.8581 130.314C66.643 130.228 66.3979 130.005 66.1943 129.881C66.0871 129.816 65.6569 129.286 65.5547 129.366C65.3007 129.563 65.5192 130.281 65.5274 130.548C65.5363 130.836 65.6669 131.691 65.6669 131.403C65.6669 131.081 65.3823 130.727 65.3122 130.411C65.2879 130.302 65.3639 130.63 65.4001 130.736C65.5022 131.034 65.6556 131.292 65.8305 131.551C66.011 131.818 66.2466 132.098 66.3761 132.394C66.4013 132.451 66.6732 132.919 66.6732 132.724C66.6732 132.12 66.6228 131.534 66.5337 130.936C66.5236 130.868 66.355 129.811 66.4792 129.79C66.6504 129.762 66.8382 130.569 66.8702 130.657C67.1152 131.328 67.4119 131.974 67.6855 132.633C67.7428 132.771 67.8036 132.906 67.8704 133.039C67.8707 133.04 67.9743 133.237 67.9795 133.224C68.0552 133.035 67.9066 132.654 67.8734 132.463C67.8226 132.17 67.8177 131.873 67.7401 131.584C67.6845 131.378 67.7655 131.468 67.831 131.597C67.9452 131.821 68.0838 132.042 68.1705 132.278C68.211 132.389 68.2535 132.601 68.3402 132.688C68.4294 132.777 68.4054 132.797 68.4311 132.936C68.4992 133.304 68.6186 133.644 68.6645 134.021C68.675 134.108 68.9279 135.388 68.7464 135.246C68.2323 134.842 68.0087 134.098 67.6916 133.555C67.3687 133.001 67.3824 134.335 67.3824 134.476C67.3824 134.861 67.3759 135.241 67.4612 135.619C67.5246 135.899 67.4915 135.445 67.4915 135.385C67.4915 134.44 67.5816 133.35 67.0854 132.5C67.0583 132.453 67.007 132.2 66.9581 132.391C66.864 132.757 66.8785 133.199 66.8975 133.573C66.9196 134.01 67.0271 134.438 67.1217 134.864C67.1615 135.043 67.0827 134.481 67.0611 134.415C67.0494 134.38 66.8577 133.823 66.9247 134.024C67.0611 134.433 67.1531 134.846 67.3036 135.252C67.5162 135.826 67.6997 136.432 67.9704 136.974C68.08 137.193 68.2681 137.281 68.516 137.343C68.772 137.407 68.58 136.132 68.5524 135.991C68.5135 135.794 68.419 135.605 68.419 135.403C68.419 135.298 68.4222 135.667 68.4281 135.707C68.4966 136.174 68.6909 137.07 69.1555 137.328C69.4635 137.499 69.5022 136.584 69.5071 136.458C69.5318 135.83 69.3667 135.171 68.9767 134.67C68.4758 134.026 69.9996 135.95 70.6013 136.501C70.6282 136.525 70.8949 136.779 70.7832 136.607C70.5843 136.299 70.514 135.946 70.3952 135.603C70.2692 135.24 70.1237 134.915 69.9527 134.573C69.8854 134.438 69.7531 134.23 69.7284 134.082C69.6991 133.906 69.5156 133.855 69.3707 133.779C69.1948 133.687 68.881 133.488 68.6676 133.488C68.5909 133.488 68.4897 133.962 68.4736 134.027C68.3747 134.428 68.419 134.861 68.419 135.27C68.419 135.402 68.3379 135.908 68.4736 136.004C68.6816 136.15 68.8264 136.42 69.0222 136.592C69.3151 136.848 69.6027 137.005 69.8678 137.271C70.1215 137.524 70.4817 137.697 70.7286 137.943C70.7319 137.947 70.5462 137.886 70.5195 137.871C70.3766 137.788 70.2977 137.63 70.1649 137.531C70.0374 137.437 69.8966 137.282 69.7284 137.301C69.4964 137.327 69.5736 137.643 69.6738 137.737C69.8307 137.885 69.9528 137.909 70.1437 137.983C70.4488 138.1 70.8002 138.106 71.0924 138.253C71.1936 138.303 71.424 138.371 71.5318 138.389C71.8464 138.441 71.4036 137.118 71.2894 136.925C71.1593 136.705 70.7962 136.03 70.9105 136.258C71.0157 136.469 71.1847 136.661 71.3379 136.837C71.4489 136.965 71.8195 137.298 71.6682 137.222C71.4409 137.108 70.5436 136.624 70.3952 136.961C70.282 137.219 70.6234 137.503 70.7893 137.628C70.9108 137.72 71.9422 138.521 71.9077 138.089C71.8675 137.587 71.4595 137.206 71.2318 136.783C71.1082 136.553 71.145 136.409 71.3712 136.513C71.6448 136.638 71.8128 136.936 72.0168 137.14C72.1954 137.319 72.3275 137.472 72.5412 137.616C72.7384 137.749 73.101 137.938 73.3414 137.956C73.4354 137.962 73.4508 138.033 73.5353 138.062C73.7798 138.143 73.0242 137.994 72.7715 137.943C72.3974 137.869 71.9217 137.656 71.5955 137.901C71.5096 137.965 71.4724 138.321 71.5591 138.395C72.0112 138.783 72.3941 139.007 73.0201 139.05C73.5354 139.085 73.9888 139.265 74.5174 139.265C74.7994 139.265 75.1133 139.224 75.3903 139.277C75.5369 139.305 75.589 139.329 75.3994 139.292C75.1064 139.236 74.8565 139.016 74.5901 138.883C74.1402 138.658 73.7482 138.323 73.2777 138.147C72.9854 138.037 72.959 138.057 72.6745 138.065C72.5833 138.067 72.4406 138.085 72.4593 138.207C72.4939 138.432 72.643 138.384 72.8321 138.416C73.2004 138.478 73.5287 138.556 73.9051 138.556C74.1212 138.556 74.4477 138.619 74.6568 138.544C74.7248 138.519 74.362 138.224 74.3113 138.174C74.2324 138.095 74.2084 138.031 74.093 137.986C73.9675 137.937 73.5552 137.956 73.6899 137.956C73.9766 137.956 74.3168 138.197 74.578 138.304C74.8331 138.408 75.1591 138.392 75.4297 138.392C75.6815 138.392 75.9202 138.447 76.1723 138.447C76.5151 138.447 76.8684 138.413 77.2028 138.489C77.7084 138.605 78.2934 138.61 78.8153 138.61C79.1962 138.61 79.5771 138.61 79.958 138.61C80.7753 138.61 81.7749 138.835 82.5738 138.607C82.6146 138.596 82.6725 138.547 82.5798 138.568C82.3018 138.631 82.0085 138.615 81.7251 138.638C81.3415 138.667 80.8242 138.562 80.4521 138.668C80.2747 138.719 80.0816 138.807 79.8944 138.832C79.6329 138.866 79.3529 139.038 79.1002 139.047C78.8772 139.055 78.6905 139.156 78.4637 139.156C78.1526 139.156 77.8414 139.156 77.5302 139.156C77.021 139.156 76.5118 139.156 76.0026 139.156C75.7449 139.156 75.5014 139.101 75.2418 139.101C74.7535 139.101 76.2176 139.063 76.7058 139.05C77.6486 139.025 78.575 139.069 79.5125 138.98C80.2117 138.914 81.1059 138.836 81.7645 138.583C81.9281 138.52 82.7419 138.607 82.8223 138.447" stroke="#2E3192" stroke-linecap="round"/>
<path d="M73.6566 120.552C73.5608 120.562 73.3777 120.709 73.3293 120.794C73.2901 120.863 73.2762 120.908 73.2474 120.988C73.203 121.112 73.0299 121.121 73.0049 121.234C72.9797 121.347 72.6914 121.536 72.5927 121.612C72.3978 121.764 72.6172 121.458 72.6715 121.406C72.7955 121.289 72.9333 121.183 73.0595 121.067C73.1831 120.954 73.3333 120.763 73.499 120.715C73.6331 120.677 73.9454 120.534 74.0112 120.415C74.0887 120.276 74.0334 120.298 73.9264 120.394C73.713 120.586 73.5012 120.781 73.2747 120.958C73.1195 121.079 72.8662 121.151 72.7837 121.337C72.751 121.41 72.6021 121.531 72.5382 121.588C72.1606 121.924 71.8877 122.388 71.6258 122.801C71.3838 123.182 71.2924 123.651 71.05 124.001C70.9918 124.085 71.0448 124.227 70.9833 124.328C70.9132 124.444 70.8301 124.604 70.8196 124.74C70.805 124.93 70.6774 125.072 70.6135 125.231C70.477 125.573 70.1761 125.911 70.1649 126.28C70.1591 126.471 69.9851 126.655 69.9497 126.85C69.9096 127.071 69.8261 127.284 69.786 127.505C69.7496 127.705 69.7284 127.9 69.6739 128.105C69.6443 128.216 69.5279 128.311 69.5132 128.414C69.5074 128.455 69.5409 128.658 69.4829 128.566C69.3159 128.298 69.3491 127.919 69.1586 127.647C69.0607 127.507 69.0527 127.188 69.0222 127.02C68.9144 126.427 69.1233 125.818 69.3193 125.274C69.4025 125.043 69.4286 124.722 69.5648 124.522C69.715 124.301 69.9531 124.12 70.1225 123.91C70.4023 123.563 70.713 123.198 71.0257 122.885C71.0787 122.832 71.106 122.744 71.1591 122.691C71.2087 122.642 71.2763 122.467 71.2985 122.534C71.3371 122.65 71.22 122.834 71.1773 122.928C71.03 123.252 70.873 123.572 70.7165 123.892C70.5263 124.281 70.3514 124.691 70.1891 125.092C70.1219 125.258 70.1919 125.842 70.0437 125.91C69.932 125.962 69.6289 126.366 69.686 126.159C69.7321 125.992 69.6922 125.8 69.7951 125.656C69.8688 125.553 69.9467 125.482 69.9467 125.353" stroke="#006837" stroke-linecap="round"/>
<path d="M83.477 123.989C83.3172 124.211 83.1514 124.188 82.9072 124.262C82.3616 124.425 81.7938 124.554 81.228 124.619C80.8032 124.668 80.124 124.576 79.8095 124.941C79.3455 125.478 78.7237 125.687 78.1607 126.062C78.1063 126.098 77.6758 126.336 77.9364 126.171C78.2589 125.966 78.6593 125.853 79.0093 125.704C80.8616 124.919 82.7775 124.304 84.7743 123.977C85.1261 123.919 85.5549 123.814 85.8776 123.661C86.1305 123.542 86.5382 123.558 86.7505 123.389C86.8906 123.277 87.1182 123.318 87.284 123.267C87.5051 123.199 87.7032 123.116 87.9387 123.116C88.3853 123.116 88.8572 123.164 89.2905 123.049C89.4781 122.999 89.5754 122.898 89.7936 122.898C89.8578 122.898 90.0322 122.816 89.9816 122.855C89.821 122.98 89.4452 122.886 89.2541 122.904C88.3461 122.986 87.4597 123.061 86.5444 123.061C85.94 123.061 85.2782 123.055 84.6803 123.143C84.5663 123.16 84.2329 123.239 84.3378 123.192C84.7226 123.017 85.0875 122.818 85.5017 122.716C85.5709 122.699 86.1806 122.575 86.0807 122.658C85.6401 123.025 84.9068 123.217 84.3772 123.413C83.8223 123.619 83.2498 123.766 82.692 123.961C82.487 124.034 82.3032 124.177 82.104 124.271C81.2603 124.668 80.4329 125.129 79.5974 125.547C79.2135 125.739 78.045 126.229 78.4698 126.168C79.0925 126.079 79.7488 125.684 80.3248 125.444C80.6823 125.294 81.259 125.254 81.5584 125.004C81.9674 124.663 80.7045 125.738 80.1763 125.804C80.0404 125.821 80.4058 125.654 80.5279 125.592C80.882 125.412 81.2599 125.275 81.6342 125.144C82.1049 124.979 82.612 124.885 83.0648 124.674C83.4471 124.495 84.1279 123.661 83.2709 123.661C82.7557 123.661 82.291 123.709 81.7918 123.852C81.4853 123.94 81.1773 124.025 80.8734 124.122C80.7403 124.164 80.4475 124.363 80.4673 124.225C80.4921 124.051 81.0897 123.787 81.2068 123.725C81.6085 123.513 82.0462 123.257 82.4889 123.146C82.5935 123.12 82.6888 123.116 82.7951 123.116C82.9721 123.116 83.1602 122.962 83.3406 122.928C83.3549 122.925 83.769 122.884 83.7559 122.916C83.6279 123.223 83.265 123.345 82.9921 123.467C82.1223 123.858 81.1216 123.786 80.2399 124.11C79.8762 124.244 79.4936 124.34 79.1245 124.468C78.908 124.543 78.6415 124.83 78.4698 124.989C78.2274 125.214 77.7424 125.332 77.4453 125.492C77.1652 125.644 76.8919 125.858 76.6694 126.08C76.5627 126.187 76.4053 126.344 76.2633 126.401C76.0611 126.484 75.9018 126.644 75.7177 126.771C75.5789 126.867 75.3981 126.918 75.2752 127.032C75.197 127.104 75.1552 127.198 75.063 127.262C74.4465 127.689 74.1864 128.448 73.6808 128.954C73.4529 129.181 73.3339 129.492 73.0989 129.705C72.8064 129.971 73.3691 129.286 73.4141 129.226C73.65 128.913 73.9141 128.597 74.1234 128.269C74.319 127.961 74.7605 127.742 75.0781 127.59C75.3929 127.439 75.7169 127.332 76.0208 127.156C76.2108 127.046 76.4387 126.886 76.6543 126.832C77.1396 126.71 77.5794 126.313 78.0758 126.171C78.1776 126.142 78.155 126.028 78.2152 126.01C78.2949 125.988 78.38 126.012 78.294 126.089C78.1633 126.207 78.1076 126.315 77.9424 126.42C77.7868 126.519 77.6203 126.583 77.4787 126.689C77.1237 126.956 76.6806 127.092 76.2966 127.296C76.0461 127.428 75.8152 127.471 75.5904 127.614C75.4939 127.675 75.3517 127.683 75.2418 127.702C75.0573 127.732 74.8569 127.96 74.6902 128.053C74.4848 128.169 74.305 128.278 74.1203 128.381C74.0799 128.403 73.9133 128.612 73.9627 128.623C74.2468 128.686 74.7255 128.116 74.9357 127.944C75.2452 127.691 75.5434 127.503 75.8389 127.208" stroke="#FBB03B" stroke-linecap="round"/>
<path d="M83.5316 129.281C83.8381 129.281 84.057 129.334 83.6286 129.457C83.0353 129.626 82.329 129.39 81.7554 129.581C81.5483 129.65 81.2708 129.717 81.0522 129.717C80.9489 129.717 80.8491 129.767 80.7643 129.823C80.6245 129.917 81.0879 129.753 81.1098 129.745C81.2956 129.669 82.314 129.521 82.3313 129.226C82.3592 128.752 79.8893 128.899 79.4155 128.899C79.1856 128.899 78.8705 129.126 78.6759 129.238C78.3827 129.408 78.0527 129.817 77.7181 129.878C77.4666 129.924 77.1119 130.043 76.8998 130.178C76.6056 130.365 76.1512 130.387 75.8935 130.645C75.6865 130.852 75.2711 130.907 75.0812 131.124C74.8846 131.348 75.6387 130.909 75.9238 130.821C76.2171 130.729 76.5457 130.568 76.8452 130.533C77.0094 130.513 77.1245 130.371 77.2786 130.323C77.4634 130.267 77.5998 130.239 77.7727 130.129C77.9359 130.026 78.2057 130.102 78.394 130.017C78.5478 129.948 78.74 129.887 78.9063 129.881C79.3156 129.865 79.6982 129.663 80.1217 129.663C80.3233 129.663 80.786 129.661 80.8582 129.444" stroke="#FF0000" stroke-linecap="round"/>
<path d="M27.7657 84.8824L23.2313 56.0366L26.8272 55.4714L46.1415 76.8515L46.2206 76.839L42.475 53.0116L45.6362 52.5147L50.1706 81.3605L46.6143 81.9195L27.2604 60.5457L27.1814 60.5581L30.9269 84.3855L27.7657 84.8824ZM132.596 68.4038L128.515 42.4426L118.162 44.07L117.708 41.1854L141.694 37.415L142.147 40.2996L131.794 41.927L135.875 67.8882L132.596 68.4038ZM37.8336 142.012L33.2992 113.166L41.1626 111.93C45.4302 111.259 48.6831 111.517 50.9212 112.704C53.1856 113.887 54.5684 116.072 55.0695 119.26C55.5664 122.421 54.9471 124.921 53.2115 126.759C51.5023 128.593 48.5929 129.834 44.4834 130.48L37.8054 131.529L37.3457 128.605L43.7076 127.605C46.9215 127.1 49.161 126.235 50.4262 125.01C51.7177 123.782 52.1854 122.034 51.8293 119.769C51.4773 117.53 50.4982 116.023 48.8919 115.25C47.3079 114.446 44.9089 114.297 41.6951 114.802L36.9138 115.554L40.9947 141.515L37.8336 142.012ZM140.943 126.209C137.281 126.784 134.354 126.367 132.162 124.957C129.992 123.517 128.646 121.137 128.124 117.818L125.124 98.7319L128.285 98.235L131.205 116.807C131.623 119.468 132.59 121.327 134.106 122.384C135.622 123.441 137.75 123.755 140.489 123.324C143.229 122.894 145.145 121.945 146.237 120.477C147.355 119.006 147.705 116.94 147.287 114.279L144.368 95.7069L147.529 95.21L150.529 114.296C151.051 117.615 150.5 120.293 148.877 122.33C147.249 124.34 144.604 125.633 140.943 126.209Z" fill="black" fill-opacity="0.1"/>
<path d="M59.4099 127.927C59.7582 127.579 60.5054 127.661 60.9494 127.667C61.7217 127.676 62.458 127.838 63.2132 127.985C64.0452 128.148 64.8535 128.377 65.6177 128.751C66.1692 129.021 66.5877 129.317 67.0703 129.695C68.081 130.486 68.6756 131.806 69.2886 132.906C70.0763 134.32 71.1509 135.503 72.4483 136.476C73.7259 137.434 75.5646 137.907 77.1394 137.982C78.2126 138.033 79.2992 138.003 80.3716 137.986C81.244 137.973 82.1124 138.021 82.9851 138.021C83.6603 138.021 84.3343 137.984 85.0109 137.984C85.2447 137.984 85.475 138.021 85.7062 138.021C85.7609 138.021 85.9869 138.015 85.8345 138.098C85.3058 138.386 84.7528 138.58 84.1646 138.746C83.4743 138.94 82.7335 139.124 82.0229 139.222C81.6237 139.276 81.2238 139.421 80.8289 139.509C80.3271 139.621 79.8043 139.627 79.3038 139.743C78.4746 139.935 77.5637 140.033 76.7131 140.033C75.7276 140.033 74.7049 139.979 73.7334 139.817C71.1409 139.385 68.2854 138.705 67.1386 136.049C66.8417 135.362 66.8367 134.604 66.5964 133.903C66.4192 133.386 66.1207 132.948 65.9094 132.455C65.5443 131.603 64.8773 130.991 64.1588 130.442C63.8088 130.174 63.4266 129.967 63.0435 129.753C62.6355 129.524 62.1794 129.259 61.7399 129.101C60.9623 128.821 60.284 128.305 59.4843 128.076" stroke="#2E3192" stroke-linecap="round"/>
<path d="M73.3029 132.546C73.3029 132.231 74.4351 131.937 74.6852 131.838C75.4919 131.522 76.3582 131.309 77.1973 131.096C78.0832 130.871 78.9861 130.713 79.8729 130.481C80.2727 130.376 80.6831 130.288 81.0875 130.202C81.5589 130.101 82.0493 130.131 82.5236 130.051C83.9497 129.809 85.3009 129.944 86.7118 130.179C87.0012 130.227 87.3323 130.311 87.6244 130.311C87.7447 130.311 87.6007 130.192 87.5664 130.162C87.3873 130.006 87.0585 129.897 86.8422 129.792C86.4327 129.592 86.0119 129.458 85.5861 129.306C84.8396 129.038 84.0328 128.8 83.252 128.672C81.7192 128.421 80.0744 128.21 78.5506 128.664C77.1392 129.085 75.7565 129.709 74.6852 130.738C74.2122 131.192 73.52 131.671 73.3029 132.323" stroke="#FF0000" stroke-linecap="round"/>
<path d="M71.0103 133.527L71.0637 133.42" stroke="black" stroke-linecap="round"/>
<path d="M71.1971 133.18C71.2346 133.134 71.2541 133.074 71.2772 133.02" stroke="black" stroke-linecap="round"/>
<path d="M71.6508 132.513C71.8494 132.314 72.005 132.065 72.1992 131.859C72.3526 131.697 72.4598 131.52 72.5965 131.345C72.769 131.124 72.978 130.93 73.1569 130.713C73.79 129.947 74.6259 129.241 75.4887 128.742C77.5004 127.579 79.6753 126.664 81.8319 125.809C83.1198 125.299 84.4415 124.88 85.7529 124.443C86.759 124.107 87.7664 123.686 88.8245 123.547C89.2056 123.497 89.5854 123.451 89.9674 123.408C90.3415 123.365 90.7597 123.337 91.1178 123.227C91.2584 123.184 91.4029 123.211 91.5476 123.195C91.7019 123.177 91.8504 123.123 92.0042 123.1C92.3174 123.053 92.6268 123.014 92.9441 123.014" stroke="#FBB03B" stroke-linecap="round"/>
<path d="M93.3977 122.987C93.5624 122.987 93.7354 122.972 93.8987 122.954C94.0515 122.937 93.8129 122.843 93.7772 122.833C93.6144 122.786 93.4404 122.806 93.2702 122.8C92.8899 122.787 92.5189 122.676 92.1406 122.634C91.5181 122.565 90.9031 122.438 90.2787 122.379C89.4747 122.303 88.6773 122.245 87.8713 122.207C86.934 122.163 85.9622 122.333 85.028 122.406C84.3237 122.461 83.6524 122.581 82.9645 122.726C82.3278 122.86 81.6916 122.993 81.0774 123.212C79.6756 123.713 78.2923 124.219 77.0363 125.04C76.6955 125.263 76.3525 125.478 76.0268 125.722C75.696 125.97 75.418 126.24 75.1181 126.522C74.4546 127.146 73.825 127.701 73.4074 128.518C73.2411 128.843 72.9976 129.143 72.8663 129.484C72.7646 129.749 72.642 130.005 72.5446 130.271C72.3526 130.797 72.1279 131.319 71.9042 131.832C71.7467 132.194 71.5393 132.579 71.4254 132.953C71.3944 133.055 71.3279 133.341 71.2238 133.393" stroke="#FBB03B" stroke-linecap="round"/>
<path d="M69.6228 131.392C69.6436 131.184 69.7295 130.982 69.7295 130.767C69.7295 130.533 69.7578 130.302 69.7829 130.07C69.8414 129.528 69.9648 128.975 70.0883 128.445C70.2377 127.804 70.4714 127.193 70.6501 126.561C70.866 125.797 71.1589 125.016 71.5173 124.309C71.7581 123.834 72.0262 123.395 72.2897 122.934C72.5496 122.479 73.0194 122.123 73.3644 121.733C73.6044 121.461 73.885 121.206 74.1427 120.949C74.2858 120.805 74.465 120.636 74.5726 120.465C74.7532 120.178 75.052 119.968 75.2856 119.726C75.3796 119.628 75.4521 119.534 75.5599 119.45C75.6436 119.385 75.5776 119.383 75.502 119.399C75.3323 119.435 75.1596 119.443 74.9877 119.465C74.478 119.528 73.9567 119.676 73.5127 119.939C72.4348 120.577 71.4852 121.418 70.6042 122.299C70.1338 122.769 69.75 123.361 69.3827 123.912C69.1367 124.281 68.8238 124.682 68.7008 125.116C68.6326 125.356 68.6344 125.607 68.6029 125.851C68.5347 126.379 68.5535 126.969 68.5836 127.496C68.6208 128.146 68.8127 128.715 68.9824 129.338" stroke="#006837" stroke-linecap="round"/>
<path d="M69.1959 129.871C69.2499 130.358 69.5643 130.797 69.7028 131.259" stroke="#006837" stroke-linecap="round"/>
<path d="M68.2086 129.978C68.1239 129.883 68.0945 129.763 68.0485 129.646C67.9539 129.405 67.8388 129.175 67.7401 128.936C67.3846 128.075 67.15 127.198 67.1131 126.256C67.0841 125.515 67.1032 124.675 67.2954 123.95C67.3556 123.724 67.4052 123.494 67.4881 123.274C67.5095 123.218 67.5333 123.154 67.5504 123.097C67.5527 123.089 67.3728 123.258 67.3488 123.28C66.8634 123.734 66.4824 124.198 66.3541 124.868C66.2856 125.226 66.2628 125.571 66.2874 125.934C66.3172 126.374 66.364 126.865 66.5038 127.284C66.6449 127.708 66.7767 128.147 67.0138 128.528C67.18 128.796 67.3521 129.06 67.5148 129.329C67.6215 129.505 67.7692 129.654 67.8884 129.824C67.9258 129.877 67.9942 129.951 68.0485 129.978" stroke="#2E3192" stroke-linecap="round"/>
<path d="M55.9136 106.23C55.4903 110.039 54.3501 113.753 53.7202 117.532C52.7466 123.374 51.4938 129.22 49.9779 134.938C49.5952 136.382 49.4583 137.867 49.1331 139.32C48.884 140.432 48.5965 141.508 48.4615 142.645C48.3755 143.37 48.1685 144.111 48.1203 144.833C48.0794 145.447 47.8451 146.02 47.8225 146.631C47.743 148.776 46.9955 150.853 47.1401 153.022" stroke="black" stroke-width="2" stroke-linecap="round"/>
<path d="M55.9135 106.035C56.0485 106.02 56.2016 105.926 56.3034 105.84C56.721 105.485 57.4597 105.554 57.9661 105.493C60.0333 105.244 62.1092 105.157 64.1942 105.157C70.0412 105.157 75.8682 104.456 81.7032 104.193C86.5764 103.974 91.4507 103.81 96.3148 103.479C99.2166 103.281 102.134 103.013 105.045 103.013" stroke="black" stroke-width="2" stroke-linecap="round"/>
<path d="M104.07 103.305C103.689 103.353 103.396 106.264 103.312 106.674C102.771 109.316 102.819 112.103 102.684 114.787C102.611 116.236 102.63 117.68 102.602 119.13C102.576 120.526 102.326 121.905 102.315 123.3C102.29 126.757 102.166 130.211 102.223 133.671C102.281 137.173 102.632 140.67 102.711 144.172C102.743 145.629 103.066 147.226 102.895 148.684C102.739 150.004 102.9 151.302 102.9 152.632" stroke="black" stroke-width="2" stroke-linecap="round"/>
<path d="M104.655 103.013C107.024 103.013 109.334 103.138 111.679 103.646C114.159 104.184 116.63 104.827 119.12 105.304C121.501 105.759 123.845 106.597 126.231 106.988C126.751 107.073 127.231 107.302 127.758 107.302C128.019 107.302 128.221 107.29 128.441 107.399" stroke="black" stroke-width="2" stroke-linecap="round"/>
<path d="M136.142 152.924C136.142 147.689 134.3 142.67 133.169 137.625C132.64 135.267 132.114 132.868 131.95 130.449C131.794 128.142 130.88 125.895 130.781 123.603C130.552 118.336 128.733 113.257 128.733 107.984" stroke="black" stroke-width="2" stroke-linecap="round"/>
<path d="M102.51 153.899C102.837 153.863 103.213 153.605 103.55 153.531C105.128 153.185 106.703 153.169 108.305 153.07C112.313 152.823 116.336 152.612 120.35 152.632C123.592 152.647 126.863 152.746 130.103 152.626C132.247 152.547 134.387 152.729 136.532 152.729" stroke="black" stroke-width="2" stroke-linecap="round"/>
<path d="M45.7753 153.314C50.4048 153.314 55.0301 153.119 59.6667 153.119C66.1836 153.119 72.6944 152.87 79.212 152.924C81.8731 152.946 84.5152 153.3 87.1731 153.314C89.5583 153.327 91.9392 153.217 94.3219 153.217C96.7355 153.217 99.1271 153.411 101.536 153.411" stroke="black" stroke-width="2" stroke-linecap="round"/>
<path d="M50.8444 146.783C53.0331 146.783 55.2345 146.403 57.4299 146.393C61.3598 146.374 65.285 146.588 69.2145 146.588C73.0916 146.588 76.969 146.685 80.8475 146.685C82.7115 146.685 84.5635 146.49 86.4257 146.49" stroke="black" stroke-width="2" stroke-linecap="round"/>
<path d="M75.5076 143.468C75.5769 144.3 75.5076 145.16 75.5076 146.003" stroke="black" stroke-width="2" stroke-linecap="round"/>
<path d="M56.9858 143.858C56.558 144.34 56.6421 145.341 56.6934 145.905" stroke="black" stroke-width="2" stroke-linecap="round"/>
<path d="M64.7845 114.906C65.5745 114.906 66.3272 114.779 67.1078 114.651C69.6979 114.228 72.2845 113.962 74.9011 113.785C80.8278 113.384 86.7158 112.859 92.6646 112.859" stroke="black" stroke-width="2" stroke-linecap="round"/>
<path d="M81.9415 114.126C81.4257 114.771 81.4541 116.28 81.4541 117.05" stroke="black" stroke-width="2" stroke-linecap="round"/>
<path d="M78.6271 118.61C80.0705 117.931 82.0878 118.108 83.6475 117.933C86.3427 117.631 89.0797 117.733 91.7873 117.733" stroke="black" stroke-width="2" stroke-linecap="round"/>
<path d="M87.303 118.22V118.318" stroke="black" stroke-width="2" stroke-linecap="round"/>
<path d="M87.2056 119.195C87.2056 119.443 87.1557 119.639 87.1081 119.877" stroke="black" stroke-width="2" stroke-linecap="round"/>
<path d="M78.9605 84.8444C78.8685 85.6718 77.5138 86.31 76.873 86.6905C75.4786 87.5183 73.9121 88.0536 72.2819 88.0536C72.1391 88.0536 71.7664 88.0581 71.6579 87.9496C71.6028 87.8945 73.0443 87.7862 73.1437 87.7862" stroke="black" stroke-width="2" stroke-linecap="round"/>
<path d="M71.6059 88.856C73.4919 88.856 75.2707 89.9135 76.2712 91.4858C76.5377 91.9046 76.557 91.8562 76.9992 91.9464C78.0934 92.1697 79.0709 92.6438 79.863 93.4359C80.69 94.2628 81.1865 95.2716 81.6051 96.348C82.0647 97.5298 82.5782 98.7974 82.634 100.081C82.6871 101.301 81.7671 102.531 80.8957 103.294C80.4549 103.68 79.9075 103.955 79.4953 104.367" stroke="black" stroke-width="2" stroke-linecap="round"/>
<path d="M86.4487 94.1379C86.5041 94.6361 86.9409 95.2636 87.1359 95.7165C87.4468 96.4387 87.8338 97.1189 88.1499 97.8375C88.6461 98.9651 89.2609 100.158 90.1111 101.062C90.4786 101.452 90.9099 101.713 91.3295 102.027" stroke="black" stroke-width="2" stroke-linecap="round"/>
<path d="M87.5184 89.9258C87.8507 90.2211 88.3371 90.4737 88.707 90.7281C89.5952 91.3386 90.3226 91.9781 91.4483 92.0987C92.5242 92.214 93.4859 92.2203 94.5387 91.9947C95.9176 91.6992 97.2575 91.7196 98.6617 91.8127C100.155 91.9116 101.744 92.1659 103.193 92.5333C103.767 92.6787 104.808 92.8237 105.136 93.4062C105.426 93.9224 104.817 94.7681 104.649 95.2894C104.505 95.7371 104.367 96.1068 104.367 96.5783C104.367 97.1062 104.166 97.5637 104.166 98.0826C104.166 98.6082 103.774 99.1259 103.561 99.587C103.428 99.8741 103.219 100.166 102.996 100.389C102.771 100.615 102.618 100.987 102.361 101.158" stroke="black" stroke-width="2" stroke-linecap="round"/>
<path d="M102.562 92.3327C102.804 92.3059 103.028 91.9921 103.19 91.8424C103.517 91.5397 103.898 91.2816 104.267 91.0327C104.995 90.5408 105.834 90.2213 106.611 89.8218C107.282 89.4765 106.111 88.8957 105.838 88.7595C105.159 88.4198 104.458 88.083 103.765 87.7863" stroke="black" stroke-width="2" stroke-linecap="round"/>
<path d="M81.1 86.4491C81.1537 86.8791 82.2511 87.452 82.5523 87.6303C83.9255 88.443 85.4963 88.9793 87.0988 88.5551C87.8617 88.3532 88.5752 88.1181 89.3608 88.0017C89.8233 87.9332 90.5801 87.8391 90.9283 88.1874" stroke="black" stroke-width="2" stroke-linecap="round"/>
<path d="M104.166 87.2514C103.446 87.3234 102.772 88.0231 102.135 88.3175C101.925 88.4141 101.819 88.5431 101.592 88.3509C101.07 87.9092 100.532 87.5231 99.9357 87.1771C97.6553 85.853 95.1187 84.2488 92.3843 84.3096C91.7525 84.3236 91.1612 84.6363 90.5605 84.7776C89.9388 84.9239 89.3829 85.1112 88.7888 85.3422C88.088 85.6147 87.1956 85.6652 86.4635 85.7954C85.8523 85.904 85.1991 85.8474 84.5766 85.8474" stroke="black" stroke-width="2" stroke-linecap="round"/>
<path d="M79.5245 67.4073C79.4271 68.2845 79.1086 69.1681 78.9179 70.0336C78.6963 71.0395 78.4355 72.0318 78.2214 73.0393C77.8422 74.8237 77.3676 76.5627 77.3676 78.4065C77.3676 79.0327 77.3227 79.6532 77.3227 80.2813C77.3227 80.589 77.2356 80.9918 77.6273 80.9778C77.8442 80.9701 78.0236 80.7981 78.2464 80.7981C78.5564 80.7981 78.8265 80.9112 79.1301 80.9329C79.2738 80.9432 79.8892 81.1466 79.9714 81.2699C80.1489 81.5362 80.4928 81.8166 80.7278 82.0463C81.562 82.862 82.4185 83.6613 83.2192 84.4928C83.669 84.9599 84.1392 85.4401 84.6122 85.8658C85.0296 86.2415 84.5124 86.8328 84.5124 87.3137" stroke="black" stroke-width="2" stroke-linecap="round"/>
<path d="M88.242 85.2018C88.0243 84.9598 87.8497 84.6531 87.6404 84.3979C87.3211 84.0086 86.9604 83.6505 86.6044 83.2945C86.1083 82.7985 85.6007 82.2746 85.144 81.7417C84.9696 81.5383 84.8674 81.2533 84.6921 81.0677C84.5547 80.9222 84.3798 80.7321 84.3102 80.5509C83.785 79.1854 84.7119 77.7168 85.4311 76.6241C86.2296 75.4107 87.1001 74.3092 88.0648 73.224C88.4652 72.7735 88.9442 72.3081 89.2755 71.811" stroke="black" stroke-width="2" stroke-linecap="round"/>
<path d="M87.0737 75.99C87.0737 76.0981 87.0267 76.2009 87.0063 76.307C86.9344 76.6812 86.9547 77.0975 86.9364 77.4803C86.8942 78.3662 86.8887 79.2534 86.8465 80.139C86.7954 81.2122 86.849 82.2838 86.849 83.3594" stroke="black" stroke-width="2" stroke-linecap="round"/>
<path d="M94.8026 74.1027C94.8026 74.3945 94.7453 74.6634 94.6678 74.9415C94.565 75.3104 94.6111 75.7129 94.543 76.0899C94.4671 76.5101 94.3132 76.9193 94.2634 77.3431C94.152 78.2896 93.791 79.2577 93.5244 80.1715C93.5062 80.2339 93.3251 80.8093 93.4346 80.8405C93.5137 80.8631 93.7125 80.9032 93.7591 80.9778C93.8388 81.1053 93.9992 81.1628 94.1286 81.2275C94.3233 81.3248 94.4439 81.5509 94.5979 81.6968C94.8385 81.9248 95.1669 82.0913 95.3668 82.3484C95.548 82.5813 95.7831 82.7722 95.9909 82.98C96.4555 83.4445 97.0309 83.9517 97.3989 84.4978C97.5855 84.7747 97.8711 85.0349 98.1079 85.2717C98.2913 85.4551 98.3919 85.6905 98.5772 85.8758" stroke="black" stroke-width="2" stroke-linecap="round"/>
<path d="M86.5794 82.6853C86.9205 82.6853 87.194 82.797 87.5181 82.905C88.0457 83.0809 88.5926 83.2125 89.0758 83.4917C89.4223 83.6919 89.8084 83.8171 90.1593 84.0084C90.387 84.1327 90.7101 84.1648 90.8932 84.3479" stroke="black" stroke-width="2" stroke-linecap="round"/>
<path d="M77.5763 72.4549C77.4581 72.4417 77.3487 72.3208 77.2401 72.2715C76.5268 71.9472 75.8321 71.4839 75.0702 71.2859C74.6706 71.182 74.2095 71.0108 73.7942 71.0108C73.2689 71.0108 73.0296 71.4856 72.6481 71.7978C70.7852 73.322 68.6358 74.6839 66.4287 75.6601C65.7155 75.9755 65.0245 76.3206 64.3046 76.6151C64.0731 76.7098 63.642 76.9956 63.3801 76.9207C63.3081 76.9002 63.1356 75.4262 63.1356 75.2742C63.1356 74.6977 62.8069 75.0608 62.4824 75.1329C62.2883 75.176 61.71 75.177 61.5693 75.2895C61.2876 75.5148 61.4165 74.1452 61.4165 73.9677C61.4165 73.6679 60.9915 73.95 60.6907 73.9677C59.9648 74.0104 59.2477 74.1052 58.494 74.1052C58.2451 74.1052 57.5095 74.2502 57.7758 73.8951C58.3163 73.1744 59.2185 72.723 59.9877 72.2982C60.9933 71.7429 62.042 71.2968 63.1089 70.8771C65.6478 69.8782 68.2793 69.1618 70.738 67.9508C71.7231 67.4655 72.6824 66.9501 73.6529 66.4379C73.9348 66.2891 74.3367 66.1437 74.4819 65.8534" stroke="black" stroke-width="2" stroke-linecap="round"/>
<path d="M74.3078 66.1638C74.1423 66.1431 73.8893 65.9742 73.7154 65.9255C73.2964 65.8081 72.8988 65.6021 72.5206 65.3893C71.2656 64.6834 70.0068 63.9926 68.8535 63.1222C67.5402 62.131 66.3465 60.8944 65.5372 59.4517C64.9942 58.4838 64.9544 57.526 64.7296 56.4862C64.6942 56.3226 64.7628 56.1326 64.6171 56.0063C64.2692 55.7049 63.9277 55.3986 63.5878 55.0829C63.2703 54.7881 63.0009 54.4378 62.7272 54.1033C62.4817 53.8031 63.1249 54.0171 63.28 54.0404C63.6064 54.0894 63.9339 54.1398 64.2596 54.1926C64.4053 54.2163 64.5905 54.3383 64.7395 54.3052C64.8318 54.2847 64.5274 53.9529 64.4781 53.9212C64.2325 53.7634 64.1855 53.4497 64.0015 53.2395C63.79 52.9978 63.6556 52.7209 63.548 52.422C63.2892 51.7029 62.8304 51.0275 62.6445 50.2839C62.6097 50.1448 62.5632 49.985 62.5717 49.8404C62.579 49.7155 62.9023 49.804 62.9887 49.7676C63.078 49.73 63.3397 49.7608 63.3925 49.708C63.4815 49.619 62.7289 49.2631 62.6644 49.2314C62.0174 48.9141 61.3743 48.6725 60.705 48.4106C59.3589 47.8839 57.9367 47.5606 56.558 47.1298C56.1944 47.0161 55.7922 46.9127 55.4492 46.7657C55.2254 46.6698 55.0153 46.5055 54.8005 46.3884C54.7362 46.3533 54.5458 46.079 54.7112 46.1203C54.8973 46.1669 55.4604 46.4217 55.0057 46.074C54.1046 45.3849 52.9471 45.0116 51.9145 44.5714C51.3145 44.3156 50.6806 44.1097 50.124 43.7671C49.9801 43.6786 49.6164 43.5543 49.975 43.5884C50.3322 43.6224 50.6922 43.7106 51.0407 43.7936C51.1264 43.814 51.5751 43.8814 51.2757 43.7903C50.6308 43.594 49.9999 43.3386 49.4058 43.0357C49.0987 42.8791 48.6446 42.6915 48.393 42.4532C48.252 42.3196 47.7554 42.1128 47.6914 41.9766C47.6152 41.8147 48.6114 41.5884 48.0356 41.5596C47.6655 41.5411 47.304 41.3744 46.9301 41.3246C46.3035 41.241 45.3972 41.0367 44.8781 40.666C44.1271 40.1295 43.2633 39.7594 42.5911 39.0872C42.2967 38.7929 42.2013 38.5702 42.7334 38.6537C43.1998 38.7268 43.4739 38.9838 43.8654 39.1898C44.0206 39.2715 44.6336 39.5543 44.6001 39.5208C43.8677 38.7884 42.828 38.3944 42.0186 37.7468" stroke="black" stroke-width="2" stroke-linecap="round"/>
<path d="M41.1845 37.0319C41.1391 36.8275 40.7501 36.4582 40.6318 36.2773C40.5064 36.0854 40.3547 35.9264 40.2313 35.7345C40.0857 35.5078 39.6447 34.5649 39.7878 34.3808C40.0042 34.1026 40.6941 34.3152 40.9164 34.5033C41.0608 34.6254 41.2208 34.7198 41.3765 34.8276C41.5706 34.962 41.7187 35.1977 41.9259 35.3042C42.3275 35.5108 42.716 35.6769 43.1041 35.9264C43.2165 35.9986 43.382 36.1082 43.4483 36.2243C43.4686 36.2598 43.5566 36.278 43.5907 36.2508C43.6631 36.1928 43.3389 35.9097 43.316 35.8867C42.383 34.9537 41.3549 34.1016 40.559 33.0404C40.0552 32.3687 39.5637 31.7113 39.0994 31.0149" stroke="black" stroke-width="2" stroke-linecap="round"/>
<path d="M38.5632 30.1213C38.4517 29.9958 38.3121 29.1014 38.5334 29.0522C39.1172 28.9225 39.6355 29.5818 40.0526 29.8366C40.1385 29.8892 40.8595 30.6151 40.8237 30.3827C40.7545 29.9329 40.4093 29.3971 40.1717 29.0191C39.7878 28.4083 39.463 27.7659 39.0994 27.1425" stroke="black" stroke-width="2" stroke-linecap="round"/>
<path d="M38.5632 26.0106C38.264 25.4122 37.3771 23.4327 38.3249 22.9724C38.8432 22.7206 39.1589 23.1796 39.5495 23.3927C39.7283 23.4902 39.8234 23.795 39.9335 23.9586C40.303 24.508 40.6883 25.049 41.0654 25.5936" stroke="black" stroke-width="2" stroke-linecap="round"/>
<path d="M41.959 26.8447C42.1054 27.0003 42.1874 27.2088 42.3164 27.3809" stroke="black" stroke-width="2" stroke-linecap="round"/>
<path d="M42.9122 28.2149C43.039 28.3558 43.1544 28.5328 43.2564 28.6915C43.5013 29.0724 43.8324 29.3794 44.0706 29.7605C44.437 30.3468 44.9347 30.9339 45.4143 31.4319C46.3862 32.4412 47.11 33.5205 48.307 34.2915C48.7128 34.5528 49.1562 34.7609 49.6043 34.9402C49.6502 34.9585 50.0607 35.1466 49.975 34.9799C49.5454 34.1433 48.6722 33.4086 48.0587 32.7094C47.1836 31.7122 46.1843 30.6434 45.5732 29.4593C44.9611 28.2735 44.5298 27.0554 44.1632 25.7723" stroke="black" stroke-width="2" stroke-linecap="round"/>
<path d="M44.1633 24.5808C44.6946 24.1086 45.072 24.312 45.4673 24.839C46.6068 26.3584 47.8731 27.9427 48.724 29.6446C48.9587 30.114 49.3112 30.5176 49.5316 30.995C49.7758 31.5241 50.102 32.0695 50.4053 32.5704C50.9047 33.3949 51.5124 34.1734 52.09 34.9434C52.5892 35.6091 52.3682 34.1995 52.2621 33.9009C51.9842 33.1193 51.5647 32.3729 51.2228 31.6172C50.6658 30.3859 50.142 28.8518 50.1207 27.4867C50.1151 27.1282 50.2377 26.911 50.3722 26.5931C50.4728 26.3555 50.9982 26.2625 51.1963 26.4011C51.8373 26.8499 51.9609 27.5992 52.2058 28.334" stroke="black" stroke-width="2" stroke-linecap="round"/>
<path d="M52.8611 29.7639C53.0965 30.2134 53.2896 30.6804 53.5164 31.1341" stroke="black" stroke-width="2" stroke-linecap="round"/>
<path d="M54.1121 32.3255C54.1602 32.7587 54.5861 33.2724 54.7972 33.6395C55.1603 34.2709 55.7298 34.9047 55.9622 35.6021C56.066 35.9135 56.0819 35.5793 56.0748 35.4466C56.0527 35.0392 55.9861 34.5965 55.896 34.1988C55.6782 33.2366 55.3474 32.2922 55.0918 31.3393C54.8422 30.4088 54.5601 29.2866 55.3499 28.526C56.0823 27.8208 56.8564 29.5003 57.0908 29.9757C57.6858 31.1822 58.2106 32.4294 58.7291 33.666C58.9878 34.2828 59.3425 34.8711 59.679 35.4499C60.0337 36.0599 60.2738 36.7652 60.7547 37.2967C61.4426 38.057 61.9737 38.9029 62.7107 39.6399C63.4933 40.4225 64.2568 41.1842 65.1665 41.8243C65.5244 42.0762 65.928 42.2517 66.2785 42.5127C66.4364 42.6303 66.631 42.785 66.8014 42.8702" stroke="black" stroke-width="2" stroke-linecap="round"/>
<path d="M67.6951 43.8829C67.5063 43.4818 67.2389 43.1292 67.0431 42.7279C66.7877 42.2043 66.6263 41.6547 66.4142 41.1127C66.3388 40.9201 66.1076 40.4808 66.497 40.6792C67.4127 41.1457 68.2896 41.6349 69.2573 42.0097C70.0334 42.3103 70.82 42.692 71.5442 43.082C72.2747 43.4753 73.0792 43.7255 73.7849 44.1808C74.1223 44.3985 74.4992 44.6112 74.8076 44.8659C74.8782 44.9242 75.3214 45.2081 75.3173 45.1837C75.2317 44.6703 74.7961 44.2153 74.513 43.8035C74.1647 43.2968 73.7849 42.8013 73.4275 42.3009C73.3372 42.1746 73.1467 41.8878 73.3877 42.1288C73.9089 42.65 74.6776 42.9822 75.3636 43.2045C77.2615 43.8193 79.1368 44.5996 80.9206 45.4915" stroke="black" stroke-width="2" stroke-linecap="round"/>
<path d="M81.9929 45.9084C83.902 46.5221 85.9344 47.3627 87.5333 48.6191C88.0345 49.0129 88.5676 49.5386 88.9035 50.0919C89.0413 50.3188 88.9998 50.8922 89.026 51.1543C89.0829 51.7237 89.1876 52.2867 89.261 52.8555C89.3788 53.7687 89.669 54.6934 89.9295 55.5727C90.0471 55.9694 90.1241 56.4951 90.3631 56.8403C90.6589 57.2675 90.826 57.8401 91.0945 58.2999C91.6793 59.3011 92.292 60.1477 93.0638 61.0072C93.3402 61.3151 93.6038 61.6238 93.7886 61.9935" stroke="black" stroke-width="2" stroke-linecap="round"/>
<path d="M91.1413 58.083C92.484 58.083 93.6418 58.9372 94.8175 59.4662C95.1364 59.6097 95.448 59.8229 95.7751 59.9397C95.9488 60.0018 96.0845 60.1419 96.2646 60.1419" stroke="black" stroke-width="2" stroke-linecap="round"/>
<path d="M104.33 63.9395C104.867 63.4626 105.713 63.109 106.379 62.8976C107.602 62.5091 108.842 62.0707 110.113 61.8658C111.472 61.6469 112.762 61.1447 114.099 60.834C115.353 60.5428 116.588 60.1644 117.852 59.9079C119.181 59.6383 120.466 59.5456 121.815 59.5456C122.615 59.5456 123.416 59.6815 124.216 59.6815C124.634 59.6815 125.144 59.5804 125.507 59.3593C125.705 59.2387 125.864 59.0271 126.028 58.8661C126.28 58.6185 126.561 58.427 126.833 58.2067C127.405 57.7436 128.246 57.4864 128.932 57.2555C130.012 56.8922 131.143 56.6505 132.279 56.5584C133.268 56.4782 134.257 56.4235 135.246 56.3545C135.851 56.3124 136.497 56.4091 137.091 56.2841C137.464 56.2056 138.198 56.2139 137.916 55.6499C137.569 54.9551 136.633 54.9188 135.948 54.8119C135.363 54.7205 134.77 54.69 134.187 54.5879C133.739 54.5095 133.205 54.4385 132.757 54.5074C131.718 54.6673 130.632 54.5909 129.584 54.7012C129.452 54.7151 129.065 54.793 129.186 54.7389C130.135 54.3172 131.07 54.0286 132.103 53.8833C133.507 53.6857 134.923 53.4529 136.286 53.0478C136.585 52.9587 137.965 52.804 137.081 52.3532C136.325 51.9676 135.324 51.8624 134.496 51.9807C133.85 52.0731 133.199 52.2389 132.551 52.2978C131.989 52.3489 131.431 52.3679 130.875 52.479" stroke="black" stroke-width="2" stroke-linecap="round"/>
<path d="M129.788 52.6602C129.681 52.6708 128.575 52.9468 128.575 52.9068C128.575 52.8255 129.187 52.5386 129.262 52.4966C129.744 52.2263 130.262 52.0472 130.779 51.8599C131.569 51.5738 132.366 51.4039 133.165 51.1628C133.707 50.9991 134.234 50.7424 134.755 50.5211C134.961 50.4338 136.573 49.7991 135.883 49.444C135.202 49.0936 134.53 49.3552 133.819 49.444C133.31 49.5077 132.797 49.585 132.294 49.6906C131.7 49.8154 131.064 49.8645 130.482 50.0379C129.211 50.4166 127.866 50.7924 126.66 51.3491C126.412 51.4632 126.172 51.5886 125.937 51.719C125.815 51.7869 125.952 51.6998 126.018 51.6083C126.356 51.1377 126.785 50.8026 127.251 50.4632C128.224 49.7542 129.28 49.2582 130.321 48.6639C131.207 48.1586 132.07 47.6223 132.928 47.0734C133.414 46.7632 133.827 46.3862 134.182 45.9334C134.325 45.7509 134.51 45.5084 134.443 45.2564C134.375 44.998 134.128 44.9142 133.887 44.9142C133.696 44.9142 133.536 44.9657 133.356 45.0299C132.884 45.1986 132.394 45.3041 131.922 45.4678C130.798 45.8571 129.647 46.1914 128.545 46.638C127.164 47.1971 125.808 47.811 124.433 48.382C123.689 48.6906 123.048 49.1298 122.404 49.6C122.143 49.7909 122.007 49.9816 121.795 50.194C121.675 50.314 121.565 50.4843 121.463 50.6218C121.333 50.7963 121.191 51.0554 121.491 50.8332C122.818 49.8473 124.159 48.7055 125.165 47.3855C125.306 47.2004 125.56 46.908 125.359 46.6909C125.115 46.4281 124.789 46.2765 124.42 46.3889C123.769 46.5871 123.143 47.0445 122.55 47.3704C121.758 47.8055 121.089 48.4129 120.366 48.9457" stroke="black" stroke-width="2" stroke-linecap="round"/>
<path d="M119.505 49.7158C118.679 50.5423 117.784 51.3191 116.923 52.094C116.819 52.188 117.025 51.9591 117.059 51.9002C117.272 51.5308 117.5 51.1635 117.693 50.7829C117.949 50.2777 118.163 49.8034 118.103 49.2402C118.003 48.2864 116.569 49.8121 116.332 50.0103C115.153 50.9926 113.787 51.9398 112.831 53.1535C112.707 53.3114 112.418 53.8116 112.438 53.6115C112.463 53.3654 112.713 53.0424 112.824 52.8163C113.102 52.2453 113.471 51.7712 113.707 51.1755C113.765 51.0293 113.971 50.4162 113.684 50.3525C113.351 50.2785 113.004 50.6894 112.771 50.8584C112.049 51.3805 111.342 51.9218 110.629 52.4564C109.907 52.9981 109.323 53.6558 108.669 54.2708C108.257 54.6571 107.896 55.0736 107.501 55.4687C107.219 55.7506 107.654 55.159 107.712 55.0661C108.026 54.5682 108.343 53.9769 108.362 53.3749C108.372 53.047 108.509 52.6063 108.203 52.3683C107.925 52.1518 107.306 52.8978 107.169 53.0377C106.409 53.8098 105.748 54.6736 105.035 55.4863C104.695 55.8729 104.419 56.2987 104.149 56.727C104.13 56.7576 103.973 56.9431 103.973 56.9359C103.973 56.8558 104.115 56.6926 104.149 56.6264C104.248 56.4324 104.346 56.2369 104.421 56.0324C104.626 55.473 104.844 54.9907 104.828 54.3816C104.823 54.1619 104.583 53.8555 104.355 54.0418C103.562 54.6909 102.733 55.3844 102.166 56.2539C101.811 56.7985 101.205 57.2607 100.726 57.6909C100.342 58.0359 99.9482 58.3557 99.5838 58.7201C99.1726 59.1314 98.3894 59.6572 97.8323 59.8274C97.5661 59.9088 97.2888 59.9859 97.0371 60.1118C96.8506 60.205 96.6164 60.2488 96.4482 60.3609" stroke="black" stroke-width="2" stroke-linecap="round"/>
<path d="M99.7206 63.0935C100.151 63.1522 100.564 63.3036 100.993 63.3738C101.704 63.4901 102.402 63.648 103.112 63.7705C104.118 63.944 105.217 64.1212 106.16 64.5315C106.628 64.735 107.133 65.0084 107.133 65.5792C107.133 65.815 107.083 65.9547 107.268 66.0988C107.613 66.3666 108.085 66.5307 108.456 66.7714C108.864 67.0357 109.33 67.4773 109.5 67.9356C109.733 68.5682 109.29 69.5974 109.81 70.1174" stroke="black" stroke-width="2" stroke-linecap="round"/>
<path d="M109.965 70.5055H109.927" stroke="black" stroke-width="2" stroke-linecap="round"/>
<path d="M109.81 70.195C109.709 70.1837 109.571 70.0488 109.478 70.001C109.339 69.9296 109.195 69.8634 109.058 69.7897C108.701 69.5977 108.211 69.6583 107.822 69.5935C107.563 69.5503 107.286 69.5741 107.025 69.5741C106.707 69.5741 106.395 69.4881 106.076 69.4965C105.844 69.5026 106.512 69.6905 106.744 69.6905" stroke="black" stroke-width="2" stroke-linecap="round"/>
<path d="M106.162 70.0398C106.037 70.0554 105.833 70.2775 105.735 70.3524C105.439 70.5804 105.141 70.8008 104.817 70.9884C104.254 71.314 103.612 71.4582 103.002 71.6675C102.413 71.8694 101.751 71.984 101.137 72.0771C100.605 72.1577 100.08 72.3118 99.5524 72.3983C98.5916 72.5558 97.5704 72.979 96.7325 73.4741C96.3922 73.6752 95.9993 73.8643 95.6265 73.9958C95.3123 74.1067 94.9537 74.2634 94.7146 74.5024" stroke="black" stroke-width="2" stroke-linecap="round"/>
<path d="M106.768 145.64C107.017 145.459 107.542 145.506 107.822 145.506C109.018 145.506 110.212 145.573 111.409 145.573C113.825 145.573 116.258 145.285 118.663 145.573" stroke="black" stroke-width="2" stroke-linecap="round"/>
<path d="M110.377 142.432C110.639 143.087 110.577 144.125 110.577 144.838" stroke="black" stroke-width="2" stroke-linecap="round"/>
<path d="M107.637 141.697C110.236 141.601 112.861 141.731 115.456 141.564" stroke="black" stroke-width="2" stroke-linecap="round"/>
<path d="M114.32 122.384C117.899 122.384 121.441 122.996 124.945 123.653" stroke="black" stroke-width="2" stroke-linecap="round"/>
<path d="M121.871 124.054V125.992" stroke="black" stroke-width="2" stroke-linecap="round"/>
<path d="M118.663 127.062C120.441 127.062 122.22 127.166 123.987 127.344C125.032 127.449 126.094 127.511 127.128 127.7C127.591 127.785 128.019 127.955 128.487 127.997" stroke="black" stroke-width="2" stroke-linecap="round"/>
<path d="M123.542 120.713V122.451" stroke="black" stroke-width="2" stroke-linecap="round"/>
<path d="M120 119.711C121.351 119.711 122.729 120.013 124.077 120.126C125.211 120.222 126.371 120.412 127.485 120.646" stroke="black" stroke-width="2" stroke-linecap="round"/>
<path d="M62.0357 128.681C62.3641 128.681 62.7233 128.934 63.0723 128.953C63.3626 128.97 63.3256 129.091 63.0602 128.899C62.7538 128.677 62.4518 128.572 62.0842 128.572C61.9007 128.572 61.7831 128.517 61.6053 128.517C61.2992 128.517 62.2176 128.517 62.5237 128.517C63.0995 128.517 62.2042 128.37 62.0388 128.326C61.7399 128.247 61.5394 128.135 61.2295 128.135C60.9557 128.135 61.7808 128.174 62.0418 128.256C62.3909 128.367 63.4867 128.448 63.1208 128.462C62.6044 128.482 62.0693 128.389 61.5993 128.178C61.4115 128.093 61.2034 128.026 60.9991 128.026C60.9549 128.026 60.7163 128.026 60.89 128.026C61.2243 128.026 61.5591 128.02 61.8933 128.029C62.509 128.046 63.146 128.071 63.7573 128.147C63.9188 128.167 64.037 128.266 64.1908 128.299C64.4522 128.354 64.6483 128.504 64.897 128.575C64.9365 128.586 64.9449 128.699 64.9152 128.723C64.7656 128.846 64.1679 128.607 63.9998 128.572C63.5477 128.477 63.1493 128.395 63.7937 128.79C64.1484 129.007 64.5116 129.187 64.8424 129.441C64.9385 129.515 65.3276 129.726 65.0061 129.675C64.7096 129.627 64.476 129.389 64.1635 129.445C63.8953 129.492 64.4824 130.106 64.5424 130.148C64.7687 130.306 64.6508 130.136 64.5696 129.996C64.369 129.651 64.1456 129.332 63.8846 129.029C63.6889 128.802 63.5014 128.534 63.2906 128.323C63.1946 128.227 63.3837 128.58 63.4542 128.696C63.5679 128.883 63.7038 129.058 63.8119 129.251C63.888 129.386 64.0296 129.482 64.0786 129.629C64.0984 129.689 63.3942 129.266 63.7452 129.36C64.5247 129.568 65.3314 130.023 66.0063 130.457C66.2288 130.6 66.1276 129.825 66.1276 129.675C66.1276 129.211 66.6147 129.947 66.7277 130.111C66.7734 130.178 66.9327 130.344 66.8581 130.314C66.643 130.228 66.3979 130.005 66.1943 129.881C66.0871 129.816 65.6569 129.286 65.5547 129.366C65.3007 129.563 65.5192 130.281 65.5274 130.548C65.5363 130.836 65.6669 131.691 65.6669 131.403C65.6669 131.081 65.3823 130.727 65.3122 130.411C65.2879 130.302 65.3639 130.63 65.4001 130.736C65.5022 131.034 65.6556 131.292 65.8305 131.551C66.011 131.818 66.2466 132.098 66.3761 132.394C66.4013 132.451 66.6732 132.919 66.6732 132.724C66.6732 132.12 66.6228 131.534 66.5337 130.936C66.5236 130.868 66.355 129.811 66.4792 129.79C66.6504 129.762 66.8382 130.569 66.8702 130.657C67.1152 131.328 67.4119 131.974 67.6855 132.633C67.7428 132.771 67.8036 132.906 67.8704 133.039C67.8707 133.04 67.9743 133.237 67.9795 133.224C68.0552 133.035 67.9066 132.654 67.8734 132.463C67.8226 132.17 67.8177 131.873 67.7401 131.584C67.6845 131.378 67.7655 131.468 67.831 131.597C67.9452 131.821 68.0838 132.042 68.1705 132.278C68.211 132.389 68.2535 132.601 68.3402 132.688C68.4294 132.777 68.4054 132.797 68.4311 132.936C68.4992 133.304 68.6186 133.644 68.6645 134.021C68.675 134.108 68.9279 135.388 68.7464 135.246C68.2323 134.842 68.0087 134.098 67.6916 133.555C67.3687 133.001 67.3824 134.335 67.3824 134.476C67.3824 134.861 67.3759 135.241 67.4612 135.619C67.5246 135.899 67.4915 135.445 67.4915 135.385C67.4915 134.44 67.5816 133.35 67.0854 132.5C67.0583 132.453 67.007 132.2 66.9581 132.391C66.864 132.757 66.8785 133.199 66.8975 133.573C66.9196 134.01 67.0271 134.438 67.1217 134.864C67.1615 135.043 67.0827 134.481 67.0611 134.415C67.0494 134.38 66.8577 133.823 66.9247 134.024C67.0611 134.433 67.1531 134.846 67.3036 135.252C67.5162 135.826 67.6997 136.432 67.9704 136.974C68.08 137.193 68.2681 137.281 68.516 137.343C68.772 137.407 68.58 136.132 68.5524 135.991C68.5135 135.794 68.419 135.605 68.419 135.403C68.419 135.298 68.4222 135.667 68.4281 135.707C68.4966 136.174 68.6909 137.07 69.1555 137.328C69.4635 137.499 69.5022 136.584 69.5071 136.458C69.5318 135.83 69.3667 135.171 68.9767 134.67C68.4758 134.026 69.9996 135.95 70.6013 136.501C70.6282 136.525 70.8949 136.779 70.7832 136.607C70.5843 136.299 70.514 135.946 70.3952 135.603C70.2692 135.24 70.1237 134.915 69.9527 134.573C69.8854 134.438 69.7531 134.23 69.7284 134.082C69.6991 133.906 69.5156 133.855 69.3707 133.779C69.1948 133.687 68.881 133.488 68.6676 133.488C68.5909 133.488 68.4897 133.962 68.4736 134.027C68.3747 134.428 68.419 134.861 68.419 135.27C68.419 135.402 68.3379 135.908 68.4736 136.004C68.6816 136.15 68.8264 136.42 69.0222 136.592C69.3151 136.848 69.6027 137.005 69.8678 137.271C70.1215 137.524 70.4817 137.697 70.7286 137.943C70.7319 137.947 70.5462 137.886 70.5195 137.871C70.3766 137.788 70.2977 137.63 70.1649 137.531C70.0374 137.437 69.8966 137.282 69.7284 137.301C69.4964 137.327 69.5736 137.643 69.6738 137.737C69.8307 137.885 69.9528 137.909 70.1437 137.983C70.4488 138.1 70.8002 138.106 71.0924 138.253C71.1936 138.303 71.424 138.371 71.5318 138.389C71.8464 138.441 71.4036 137.118 71.2894 136.925C71.1593 136.705 70.7962 136.03 70.9105 136.258C71.0157 136.469 71.1847 136.661 71.3379 136.837C71.4489 136.965 71.8195 137.298 71.6682 137.222C71.4409 137.108 70.5436 136.624 70.3952 136.961C70.282 137.219 70.6234 137.503 70.7893 137.628C70.9108 137.72 71.9422 138.521 71.9077 138.089C71.8675 137.587 71.4595 137.206 71.2318 136.783C71.1082 136.553 71.145 136.409 71.3712 136.513C71.6448 136.638 71.8128 136.936 72.0168 137.14C72.1954 137.319 72.3275 137.472 72.5412 137.616C72.7384 137.749 73.101 137.938 73.3414 137.956C73.4354 137.962 73.4508 138.033 73.5353 138.062C73.7798 138.143 73.0242 137.994 72.7715 137.943C72.3974 137.869 71.9217 137.656 71.5955 137.901C71.5096 137.965 71.4724 138.321 71.5591 138.395C72.0112 138.783 72.3941 139.007 73.0201 139.05C73.5354 139.085 73.9888 139.265 74.5174 139.265C74.7994 139.265 75.1133 139.224 75.3903 139.277C75.5369 139.305 75.589 139.329 75.3994 139.292C75.1064 139.236 74.8565 139.016 74.5901 138.883C74.1402 138.658 73.7482 138.323 73.2777 138.147C72.9854 138.037 72.959 138.057 72.6745 138.065C72.5833 138.067 72.4406 138.085 72.4593 138.207C72.4939 138.432 72.643 138.384 72.8321 138.416C73.2004 138.478 73.5287 138.556 73.9051 138.556C74.1212 138.556 74.4477 138.619 74.6568 138.544C74.7248 138.519 74.362 138.224 74.3113 138.174C74.2324 138.095 74.2084 138.031 74.093 137.986C73.9675 137.937 73.5552 137.956 73.6899 137.956C73.9766 137.956 74.3168 138.197 74.578 138.304C74.8331 138.408 75.1591 138.392 75.4297 138.392C75.6815 138.392 75.9202 138.447 76.1723 138.447C76.5151 138.447 76.8684 138.413 77.2028 138.489C77.7084 138.605 78.2934 138.61 78.8153 138.61C79.1962 138.61 79.5771 138.61 79.958 138.61C80.7753 138.61 81.7749 138.835 82.5738 138.607C82.6146 138.596 82.6725 138.547 82.5798 138.568C82.3018 138.631 82.0085 138.615 81.7251 138.638C81.3415 138.667 80.8242 138.562 80.4521 138.668C80.2747 138.719 80.0816 138.807 79.8944 138.832C79.6329 138.866 79.3529 139.038 79.1002 139.047C78.8772 139.055 78.6905 139.156 78.4637 139.156C78.1526 139.156 77.8414 139.156 77.5302 139.156C77.021 139.156 76.5118 139.156 76.0026 139.156C75.7449 139.156 75.5014 139.101 75.2418 139.101C74.7535 139.101 76.2176 139.063 76.7058 139.05C77.6486 139.025 78.575 139.069 79.5125 138.98C80.2117 138.914 81.1059 138.836 81.7645 138.583C81.9281 138.52 82.7419 138.607 82.8223 138.447" stroke="#2E3192" stroke-linecap="round"/>
<path d="M73.6566 120.552C73.5608 120.562 73.3777 120.709 73.3293 120.794C73.2901 120.863 73.2762 120.908 73.2474 120.988C73.203 121.112 73.0299 121.121 73.0049 121.234C72.9797 121.347 72.6914 121.536 72.5927 121.612C72.3978 121.764 72.6172 121.458 72.6715 121.406C72.7955 121.289 72.9333 121.183 73.0595 121.067C73.1831 120.954 73.3333 120.763 73.499 120.715C73.6331 120.677 73.9454 120.534 74.0112 120.415C74.0887 120.276 74.0334 120.298 73.9264 120.394C73.713 120.586 73.5012 120.781 73.2747 120.958C73.1195 121.079 72.8662 121.151 72.7837 121.337C72.751 121.41 72.6021 121.531 72.5382 121.588C72.1606 121.924 71.8877 122.388 71.6258 122.801C71.3838 123.182 71.2924 123.651 71.05 124.001C70.9918 124.085 71.0448 124.227 70.9833 124.328C70.9132 124.444 70.8301 124.604 70.8196 124.74C70.805 124.93 70.6774 125.072 70.6135 125.231C70.477 125.573 70.1761 125.911 70.1649 126.28C70.1591 126.471 69.9851 126.655 69.9497 126.85C69.9096 127.071 69.8261 127.284 69.786 127.505C69.7496 127.705 69.7284 127.9 69.6739 128.105C69.6443 128.216 69.5279 128.311 69.5132 128.414C69.5074 128.455 69.5409 128.658 69.4829 128.566C69.3159 128.298 69.3491 127.919 69.1586 127.647C69.0607 127.507 69.0527 127.188 69.0222 127.02C68.9144 126.427 69.1233 125.818 69.3193 125.274C69.4025 125.043 69.4286 124.722 69.5648 124.522C69.715 124.301 69.9531 124.12 70.1225 123.91C70.4023 123.563 70.713 123.198 71.0257 122.885C71.0787 122.832 71.106 122.744 71.1591 122.691C71.2087 122.642 71.2763 122.467 71.2985 122.534C71.3371 122.65 71.22 122.834 71.1773 122.928C71.03 123.252 70.873 123.572 70.7165 123.892C70.5263 124.281 70.3514 124.691 70.1891 125.092C70.1219 125.258 70.1919 125.842 70.0437 125.91C69.932 125.962 69.6289 126.366 69.686 126.159C69.7321 125.992 69.6922 125.8 69.7951 125.656C69.8688 125.553 69.9467 125.482 69.9467 125.353" stroke="#006837" stroke-linecap="round"/>
<path d="M83.477 123.989C83.3172 124.211 83.1514 124.188 82.9072 124.262C82.3616 124.425 81.7938 124.554 81.228 124.619C80.8032 124.668 80.124 124.576 79.8095 124.941C79.3455 125.478 78.7237 125.687 78.1607 126.062C78.1063 126.098 77.6758 126.336 77.9364 126.171C78.2589 125.966 78.6593 125.853 79.0093 125.704C80.8616 124.919 82.7775 124.304 84.7743 123.977C85.1261 123.919 85.5549 123.814 85.8776 123.661C86.1305 123.542 86.5382 123.558 86.7505 123.389C86.8906 123.277 87.1182 123.318 87.284 123.267C87.5051 123.199 87.7032 123.116 87.9387 123.116C88.3853 123.116 88.8572 123.164 89.2905 123.049C89.4781 122.999 89.5754 122.898 89.7936 122.898C89.8578 122.898 90.0322 122.816 89.9816 122.855C89.821 122.98 89.4452 122.886 89.2541 122.904C88.3461 122.986 87.4597 123.061 86.5444 123.061C85.94 123.061 85.2782 123.055 84.6803 123.143C84.5663 123.16 84.2329 123.239 84.3378 123.192C84.7226 123.017 85.0875 122.818 85.5017 122.716C85.5709 122.699 86.1806 122.575 86.0807 122.658C85.6401 123.025 84.9068 123.217 84.3772 123.413C83.8223 123.619 83.2498 123.766 82.692 123.961C82.487 124.034 82.3032 124.177 82.104 124.271C81.2603 124.668 80.4329 125.129 79.5974 125.547C79.2135 125.739 78.045 126.229 78.4698 126.168C79.0925 126.079 79.7488 125.684 80.3248 125.444C80.6823 125.294 81.259 125.254 81.5584 125.004C81.9674 124.663 80.7045 125.738 80.1763 125.804C80.0404 125.821 80.4058 125.654 80.5279 125.592C80.882 125.412 81.2599 125.275 81.6342 125.144C82.1049 124.979 82.612 124.885 83.0648 124.674C83.4471 124.495 84.1279 123.661 83.2709 123.661C82.7557 123.661 82.291 123.709 81.7918 123.852C81.4853 123.94 81.1773 124.025 80.8734 124.122C80.7403 124.164 80.4475 124.363 80.4673 124.225C80.4921 124.051 81.0897 123.787 81.2068 123.725C81.6085 123.513 82.0462 123.257 82.4889 123.146C82.5935 123.12 82.6888 123.116 82.7951 123.116C82.9721 123.116 83.1602 122.962 83.3406 122.928C83.3549 122.925 83.769 122.884 83.7559 122.916C83.6279 123.223 83.265 123.345 82.9921 123.467C82.1223 123.858 81.1216 123.786 80.2399 124.11C79.8762 124.244 79.4936 124.34 79.1245 124.468C78.908 124.543 78.6415 124.83 78.4698 124.989C78.2274 125.214 77.7424 125.332 77.4453 125.492C77.1652 125.644 76.8919 125.858 76.6694 126.08C76.5627 126.187 76.4053 126.344 76.2633 126.401C76.0611 126.484 75.9018 126.644 75.7177 126.771C75.5789 126.867 75.3981 126.918 75.2752 127.032C75.197 127.104 75.1552 127.198 75.063 127.262C74.4465 127.689 74.1864 128.448 73.6808 128.954C73.4529 129.181 73.3339 129.492 73.0989 129.705C72.8064 129.971 73.3691 129.286 73.4141 129.226C73.65 128.913 73.9141 128.597 74.1234 128.269C74.319 127.961 74.7605 127.742 75.0781 127.59C75.3929 127.439 75.7169 127.332 76.0208 127.156C76.2108 127.046 76.4387 126.886 76.6543 126.832C77.1396 126.71 77.5794 126.313 78.0758 126.171C78.1776 126.142 78.155 126.028 78.2152 126.01C78.2949 125.988 78.38 126.012 78.294 126.089C78.1633 126.207 78.1076 126.315 77.9424 126.42C77.7868 126.519 77.6203 126.583 77.4787 126.689C77.1237 126.956 76.6806 127.092 76.2966 127.296C76.0461 127.428 75.8152 127.471 75.5904 127.614C75.4939 127.675 75.3517 127.683 75.2418 127.702C75.0573 127.732 74.8569 127.96 74.6902 128.053C74.4848 128.169 74.305 128.278 74.1203 128.381C74.0799 128.403 73.9133 128.612 73.9627 128.623C74.2468 128.686 74.7255 128.116 74.9357 127.944C75.2452 127.691 75.5434 127.503 75.8389 127.208" stroke="#FBB03B" stroke-linecap="round"/>
<path d="M83.5316 129.281C83.8381 129.281 84.057 129.334 83.6286 129.457C83.0353 129.626 82.329 129.39 81.7554 129.581C81.5483 129.65 81.2708 129.717 81.0522 129.717C80.9489 129.717 80.8491 129.767 80.7643 129.823C80.6245 129.917 81.0879 129.753 81.1098 129.745C81.2956 129.669 82.314 129.521 82.3313 129.226C82.3592 128.752 79.8893 128.899 79.4155 128.899C79.1856 128.899 78.8705 129.126 78.6759 129.238C78.3827 129.408 78.0527 129.817 77.7181 129.878C77.4666 129.924 77.1119 130.043 76.8998 130.178C76.6056 130.365 76.1512 130.387 75.8935 130.645C75.6865 130.852 75.2711 130.907 75.0812 131.124C74.8846 131.348 75.6387 130.909 75.9238 130.821C76.2171 130.729 76.5457 130.568 76.8452 130.533C77.0094 130.513 77.1245 130.371 77.2786 130.323C77.4634 130.267 77.5998 130.239 77.7727 130.129C77.9359 130.026 78.2057 130.102 78.394 130.017C78.5478 129.948 78.74 129.887 78.9063 129.881C79.3156 129.865 79.6982 129.663 80.1217 129.663C80.3233 129.663 80.786 129.661 80.8582 129.444" stroke="#FF0000" stroke-linecap="round"/>
</svg>
