<svg width="201" height="201" viewBox="0 0 201 201" fill="none" xmlns="http://www.w3.org/2000/svg">
<rect x="31.5031" y="4.18149" width="167.502" height="167.502" rx="83.7511" transform="rotate(9.38749 31.5031 4.18149)" stroke="#DE0000" stroke-width="5"/>
<path d="M41.923 87.6562L42.3198 58.4589L45.9595 58.5084L61.3903 82.8403L61.4703 82.8414L61.798 58.7236L64.9977 58.7671L64.6009 87.9644L61.0013 87.9155L45.5305 63.583L45.4505 63.5819L45.1227 87.6997L41.923 87.6562ZM148.03 89.0982L148.388 62.8207L137.909 62.6782L137.948 59.7585L162.226 60.0885L162.186 63.0082L151.707 62.8658L151.35 89.1433L148.03 89.0982ZM42.209 145.665L42.6058 116.468L50.5651 116.576C54.8847 116.635 58.0474 117.438 60.0532 118.985C62.0857 120.533 63.08 122.92 63.0362 126.147C62.9927 129.346 61.9605 131.706 59.9397 133.225C57.9455 134.745 54.8686 135.477 50.709 135.42L43.9496 135.328L43.9898 132.368L50.4293 132.456C53.6823 132.5 56.0356 132.025 57.4893 131.032C58.9696 130.038 59.7253 128.395 59.7565 126.102C59.7873 123.836 59.0763 122.186 57.6235 121.153C56.1978 120.093 53.8584 119.541 50.6054 119.497L45.7658 119.431L45.4087 145.709L42.209 145.665ZM146.506 147.483C142.8 147.433 139.985 146.528 138.063 144.768C136.167 142.982 135.242 140.409 135.287 137.049L135.55 117.731L138.749 117.775L138.494 136.573C138.457 139.266 139.097 141.262 140.413 142.56C141.729 143.858 143.773 144.525 146.546 144.563C149.319 144.601 151.368 143.989 152.692 142.727C154.042 141.465 154.736 139.487 154.772 136.794L155.028 117.996L158.228 118.039L157.965 137.358C157.919 140.717 156.925 143.264 154.981 144.998C153.038 146.705 150.213 147.533 146.506 147.483Z" fill="black" fill-opacity="0.1"/>
<path d="M65.8522 135.423C66.2543 135.138 66.9768 135.345 67.4136 135.425C68.1733 135.565 68.8717 135.848 69.5912 136.121C70.3839 136.422 71.1419 136.784 71.8321 137.282C72.3302 137.64 72.6927 138.003 73.1047 138.457C73.9675 139.407 74.3309 140.808 74.7494 141.996C75.2873 143.523 76.1471 144.87 77.2617 146.048C78.3593 147.208 80.0919 147.984 81.6314 148.324C82.6806 148.555 83.7568 148.709 84.8166 148.873C85.6788 149.007 86.5265 149.202 87.3867 149.349C88.0522 149.463 88.7229 149.54 89.3898 149.654C89.6202 149.693 89.841 149.769 90.0688 149.808C90.1227 149.817 90.3466 149.849 90.1823 149.905C89.6126 150.1 89.0348 150.197 88.4271 150.262C87.7139 150.337 86.9526 150.393 86.2358 150.37C85.8331 150.356 85.4144 150.432 85.0104 150.452C84.497 150.477 83.9806 150.395 83.4678 150.425C82.618 150.474 81.7037 150.417 80.8653 150.273C79.8939 150.107 78.8948 149.882 77.9646 149.559C75.4821 148.695 72.7823 147.543 72.1 144.732C71.9234 144.004 72.0462 143.257 71.9276 142.525C71.8401 141.986 71.6199 141.503 71.4948 140.982C71.2786 140.08 70.7245 139.365 70.1089 138.702C69.8091 138.379 69.4673 138.111 69.1258 137.834C68.7622 137.54 68.3574 137.202 67.9508 136.972C67.2316 136.565 66.6501 135.942 65.9004 135.582" stroke="#2E3192" stroke-linecap="round"/>
<path d="M78.767 142.319C78.8201 142.009 79.9857 141.909 80.2488 141.854C81.0974 141.678 81.9873 141.614 82.8503 141.546C83.7614 141.474 84.678 141.471 85.5912 141.392C86.0029 141.356 86.4223 141.338 86.8355 141.321C87.3172 141.301 87.7955 141.414 88.2765 141.414C89.7229 141.417 91.032 141.778 92.383 142.247C92.6602 142.344 92.9723 142.483 93.2602 142.532C93.3788 142.552 93.2569 142.411 93.2282 142.375C93.0781 142.191 92.7722 142.029 92.5768 141.888C92.2069 141.622 91.8148 141.419 91.4208 141.197C90.7302 140.807 89.975 140.437 89.2269 140.179C87.7585 139.673 86.1728 139.187 84.5943 139.378C83.1322 139.554 81.664 139.936 80.4346 140.769C79.8917 141.137 79.1286 141.493 78.8047 142.098" stroke="#FF0000" stroke-linecap="round"/>
<path d="M76.3417 142.899L76.4123 142.802" stroke="black" stroke-linecap="round"/>
<path d="M76.5844 142.588C76.6291 142.549 76.6585 142.493 76.6904 142.444" stroke="black" stroke-linecap="round"/>
<path d="M77.1441 142.007C77.3734 141.845 77.5688 141.626 77.795 141.455C77.9736 141.321 78.1091 141.165 78.2734 141.015C78.4807 140.827 78.7194 140.671 78.9322 140.488C79.6856 139.839 80.6286 139.284 81.5632 138.938C83.7423 138.131 86.0404 137.596 88.3102 137.117C89.6657 136.832 91.0392 136.641 92.4055 136.432C93.4538 136.271 94.5178 136.025 95.5841 136.067C95.9682 136.082 96.3504 136.101 96.7342 136.123C97.1101 136.144 97.5271 136.187 97.8986 136.139C98.0445 136.12 98.1825 136.17 98.3278 136.179C98.4827 136.188 98.6384 136.159 98.7938 136.162C99.1104 136.169 99.4219 136.183 99.7347 136.236" stroke="#FBB03B" stroke-linecap="round"/>
<path d="M100.186 136.286C100.349 136.314 100.522 136.329 100.686 136.339C100.839 136.348 100.62 136.215 100.586 136.198C100.434 136.125 100.259 136.115 100.092 136.081C99.7195 136.004 99.3726 135.832 99.0068 135.727C98.4049 135.553 97.82 135.325 97.2146 135.161C96.4349 134.95 95.6587 134.759 94.8706 134.585C93.9543 134.384 92.9677 134.387 92.0346 134.302C91.3311 134.237 90.6491 134.243 89.9467 134.269C89.2966 134.294 88.6471 134.317 88.0046 134.43C86.5384 134.687 85.0895 134.953 83.7131 135.55C83.3396 135.712 82.9653 135.866 82.603 136.052C82.235 136.241 81.9155 136.46 81.5723 136.688C80.8131 137.19 80.0988 137.632 79.5495 138.366C79.3308 138.658 79.0401 138.913 78.8531 139.227C78.7082 139.471 78.5442 139.702 78.4033 139.949C78.1254 140.434 77.8157 140.911 77.5087 141.379C77.2925 141.709 77.023 142.054 76.8477 142.403C76.7998 142.498 76.686 142.769 76.5747 142.803" stroke="#FBB03B" stroke-linecap="round"/>
<path d="M75.3342 140.561C75.3898 140.359 75.5086 140.174 75.5449 139.962C75.5844 139.731 75.6511 139.509 75.7151 139.284C75.8641 138.76 76.0789 138.236 76.2901 137.734C76.5456 137.127 76.8789 136.565 77.1618 135.972C77.5035 135.255 77.9239 134.535 78.3964 133.899C78.7138 133.471 79.0523 133.083 79.3898 132.673C79.7227 132.268 80.2458 131.997 80.6517 131.671C80.934 131.444 81.2536 131.24 81.5511 131.029C81.7163 130.912 81.9215 130.776 82.0563 130.625C82.2827 130.373 82.6127 130.216 82.8839 130.016C82.993 129.936 83.0804 129.855 83.2008 129.791C83.2943 129.741 83.2295 129.728 83.1523 129.732C82.9789 129.738 82.8074 129.717 82.6343 129.709C82.1211 129.686 81.5824 129.744 81.1004 129.928C79.9304 130.375 78.8525 131.044 77.8354 131.763C77.2925 132.148 76.8144 132.666 76.3594 133.147C76.0546 133.469 75.6787 133.811 75.4842 134.218C75.3764 134.444 75.3359 134.691 75.2637 134.927C75.1073 135.436 75.0264 136.02 74.9671 136.545C74.8941 137.192 74.9872 137.785 75.0496 138.427" stroke="#006837" stroke-linecap="round"/>
<path d="M75.17 138.989C75.1413 139.478 75.3771 139.964 75.4357 140.443" stroke="#006837" stroke-linecap="round"/>
<path d="M74.1789 138.928C74.1115 138.82 74.1026 138.697 74.0771 138.574C74.0246 138.32 73.9499 138.074 73.893 137.822C73.6877 136.913 73.6045 136.009 73.727 135.074C73.8233 134.34 73.9839 133.515 74.2956 132.833C74.3932 132.619 74.4809 132.401 74.5996 132.199C74.6302 132.147 74.6645 132.088 74.691 132.034C74.6945 132.027 74.4887 132.163 74.4613 132.181C73.9063 132.546 73.4524 132.94 73.213 133.578C73.0851 133.92 73.0044 134.256 72.9674 134.618C72.9226 135.057 72.8859 135.549 72.9529 135.985C73.0206 136.427 73.0765 136.881 73.2458 137.297C73.3645 137.589 73.4895 137.879 73.6046 138.171C73.6801 138.362 73.8004 138.535 73.8893 138.722C73.9172 138.781 73.9722 138.865 74.0211 138.901" stroke="#2E3192" stroke-linecap="round"/>
<path d="M66.0662 113.446C65.0065 117.129 63.2561 120.598 61.9976 124.217C60.0526 129.81 57.8315 135.361 55.3726 140.742C54.7518 142.101 54.3664 143.541 53.8007 144.918C53.3675 145.973 52.9028 146.984 52.5779 148.082C52.3708 148.782 52.0418 149.478 51.8725 150.181C51.7285 150.78 51.4009 151.305 51.2755 151.903C50.8354 154.004 49.7482 155.925 49.5249 158.087" stroke="#DE0000" stroke-width="2" stroke-linecap="round"/>
<path d="M66.0991 113.254C66.2347 113.262 66.4013 113.196 66.5163 113.127C66.9877 112.848 67.7042 113.041 68.2136 113.066C70.2933 113.169 72.354 113.434 74.4091 113.786C80.1723 114.772 86.0341 115.064 91.8298 115.789C96.6701 116.396 101.502 117.056 106.353 117.55C109.246 117.844 112.167 118.072 115.036 118.563" stroke="#DE0000" stroke-width="2" stroke-linecap="round"/>
<path d="M114.026 118.687C113.642 118.67 112.862 121.49 112.71 121.88C111.731 124.393 111.308 127.148 110.722 129.77C110.406 131.187 110.181 132.613 109.91 134.038C109.648 135.41 109.169 136.726 108.923 138.1C108.315 141.503 107.61 144.886 107.083 148.306C106.549 151.768 106.305 155.274 105.792 158.739C105.578 160.181 105.627 161.809 105.212 163.217C104.836 164.493 104.776 165.799 104.552 167.109" stroke="#DE0000" stroke-width="2" stroke-linecap="round"/>
<path d="M114.652 118.498C116.986 118.897 119.242 119.411 121.468 120.307C123.822 121.255 126.149 122.306 128.523 123.196C130.793 124.047 132.963 125.268 135.248 126.056C135.746 126.227 136.18 126.534 136.701 126.623C136.958 126.667 137.159 126.689 137.357 126.834" stroke="#DE0000" stroke-width="2" stroke-linecap="round"/>
<path d="M137.268 173.005C138.151 167.845 137.181 162.587 136.918 157.424C136.795 155.011 136.681 152.558 136.927 150.145C137.162 147.845 136.641 145.476 136.929 143.2C137.592 137.97 136.657 132.657 137.546 127.46" stroke="#DE0000" stroke-width="2" stroke-linecap="round"/>
<path d="M103.954 168.293C104.282 168.312 104.696 168.121 105.041 168.105C106.654 168.03 108.209 168.281 109.805 168.454C113.797 168.886 117.798 169.357 121.751 170.053C124.944 170.616 128.152 171.265 131.366 171.693C133.492 171.976 135.571 172.517 137.685 172.879" stroke="#DE0000" stroke-width="2" stroke-linecap="round"/>
<path d="M48.1303 158.145C52.6934 158.926 57.2853 159.514 61.8554 160.296C68.2789 161.396 74.7385 162.248 81.1535 163.402C83.7727 163.872 86.3173 164.666 88.9347 165.129C91.2836 165.544 93.649 165.837 95.9975 166.239C98.3766 166.646 100.701 167.242 103.075 167.648" stroke="#DE0000" stroke-width="2" stroke-linecap="round"/>
<path d="M54.2286 152.563C56.3859 152.932 58.6198 152.929 60.7855 153.289C64.6621 153.934 68.4951 154.806 72.3683 155.469C76.1898 156.123 79.9952 156.874 83.8181 157.528C85.6554 157.842 87.5137 157.963 89.3493 158.277" stroke="#DE0000" stroke-width="2" stroke-linecap="round"/>
<path d="M79.0974 153.456C79.0254 154.288 78.812 155.124 78.6698 155.955" stroke="#DE0000" stroke-width="2" stroke-linecap="round"/>
<path d="M60.7753 150.716C60.2724 151.118 60.1863 152.12 60.1417 152.684" stroke="#DE0000" stroke-width="2" stroke-linecap="round"/>
<path d="M73.3464 123.494C74.1252 123.627 74.8884 123.629 75.6794 123.635C78.3038 123.655 80.8982 123.829 83.5071 124.096C89.4166 124.7 95.3088 125.176 101.172 126.18" stroke="#DE0000" stroke-width="2" stroke-linecap="round"/>
<path d="M90.389 125.62C89.7719 126.168 89.5453 127.66 89.4152 128.42" stroke="#DE0000" stroke-width="2" stroke-linecap="round"/>
<path d="M86.3657 129.481C87.903 129.055 89.8615 129.57 91.4283 129.66C94.1359 129.817 96.8166 130.379 99.4853 130.836" stroke="#DE0000" stroke-width="2" stroke-linecap="round"/>
<path d="M94.983 130.56L94.9666 130.656" stroke="#DE0000" stroke-width="2" stroke-linecap="round"/>
<path d="M94.7225 131.504C94.6807 131.749 94.5984 131.934 94.5113 132.16" stroke="#DE0000" stroke-width="2" stroke-linecap="round"/>
<path d="M92.3904 96.2551C92.1603 97.0551 90.7172 97.4557 90.0214 97.7226C88.5075 98.3034 86.873 98.5667 85.2662 98.2917C85.1254 98.2676 84.7573 98.2092 84.6687 98.084C84.6237 98.0203 86.0628 98.1567 86.1608 98.1735" stroke="#DE0000" stroke-width="2" stroke-linecap="round"/>
<path d="M84.4645 98.9685C86.3235 99.2867 87.8983 100.629 88.6193 102.348C88.8113 102.805 88.8385 102.761 89.2592 102.924C90.3 103.329 91.1835 103.961 91.8307 104.876C92.5062 105.83 92.8255 106.908 93.0565 108.04C93.3101 109.282 93.6024 110.618 93.4409 111.893C93.2873 113.105 92.1731 114.162 91.1855 114.767C90.686 115.072 90.0999 115.252 89.6241 115.589" stroke="#DE0000" stroke-width="2" stroke-linecap="round"/>
<path d="M98.2036 106.679C98.1741 107.179 98.4988 107.871 98.6146 108.351C98.7993 109.115 99.0659 109.851 99.2563 110.612C99.5552 111.807 99.9599 113.087 100.646 114.121C100.942 114.568 101.323 114.897 101.683 115.278" stroke="#DE0000" stroke-width="2" stroke-linecap="round"/>
<path d="M99.9686 102.707C100.246 103.055 100.683 103.386 101.005 103.699C101.777 104.45 102.386 105.203 103.476 105.512C104.517 105.807 105.463 105.976 106.539 105.931C107.948 105.872 109.265 106.118 110.634 106.447C112.089 106.796 113.612 107.315 114.979 107.922C115.52 108.162 116.522 108.481 116.746 109.11C116.946 109.668 116.202 110.398 115.949 110.884C115.732 111.301 115.533 111.642 115.453 112.107C115.364 112.627 115.09 113.044 115.002 113.556C114.913 114.074 114.439 114.518 114.151 114.936C113.972 115.197 113.717 115.45 113.46 115.632C113.199 115.816 112.986 116.157 112.704 116.283" stroke="#DE0000" stroke-width="2" stroke-linecap="round"/>
<path d="M114.39 107.618C114.633 107.632 114.907 107.36 115.092 107.24C115.465 106.997 115.885 106.807 116.29 106.624C117.091 106.262 117.972 106.088 118.805 105.826C119.525 105.599 118.468 104.828 118.222 104.648C117.61 104.199 116.976 103.749 116.344 103.339" stroke="#DE0000" stroke-width="2" stroke-linecap="round"/>
<path d="M94.2285 98.1977C94.209 98.6306 95.1939 99.3804 95.4608 99.607C96.6772 100.64 98.135 101.433 99.786 101.286C100.572 101.215 101.315 101.104 102.109 101.122C102.576 101.132 103.338 101.167 103.623 101.569" stroke="#DE0000" stroke-width="2" stroke-linecap="round"/>
<path d="M116.829 102.88C116.107 102.829 115.325 103.405 114.647 103.588C114.424 103.648 114.298 103.757 114.106 103.529C113.666 103.006 113.201 102.534 112.672 102.093C110.647 100.403 108.418 98.3939 105.712 97.9926C105.087 97.8998 104.451 98.1082 103.836 98.1462C103.198 98.1855 102.619 98.2763 101.994 98.4038C101.257 98.5542 100.369 98.4534 99.6256 98.4582C99.0048 98.4622 98.3705 98.2962 97.7569 98.1911" stroke="#DE0000" stroke-width="2" stroke-linecap="round"/>
<path d="M95.888 79.1631C95.644 80.0113 95.181 80.8285 94.847 81.6494C94.4589 82.6035 94.0345 83.5375 93.6535 84.4945C92.9787 86.1894 92.2175 87.8233 91.9065 89.6408C91.8009 90.258 91.6519 90.862 91.5459 91.4812C91.494 91.7844 91.3402 92.1668 91.7286 92.219C91.9437 92.248 92.1496 92.1087 92.3692 92.1463C92.6748 92.1986 92.9219 92.3557 93.2175 92.4283C93.3575 92.4626 93.9296 92.7669 93.9899 92.9024C94.1199 93.1948 94.4116 93.5292 94.6045 93.7953C95.2892 94.74 95.9985 95.6723 96.6475 96.627C97.012 97.1633 97.3945 97.7159 97.7889 98.2153C98.1369 98.656 97.5273 99.1516 97.4462 99.6256" stroke="#DE0000" stroke-width="2" stroke-linecap="round"/>
<path d="M101.479 98.1731C101.305 97.8979 101.185 97.5662 101.021 97.2793C100.772 96.8417 100.477 96.4279 100.186 96.0169C99.7811 95.4443 99.3691 94.8424 99.0088 94.24C98.8713 94.0102 98.8186 93.7119 98.6771 93.4994C98.5662 93.3329 98.4259 93.116 98.3878 92.9257C98.1005 91.4911 99.2619 90.1999 100.155 89.2442C101.147 88.1829 102.191 87.244 103.325 86.3371C103.795 85.9606 104.346 85.5827 104.756 85.1486" stroke="#DE0000" stroke-width="2" stroke-linecap="round"/>
<path d="M101.881 88.8963C101.863 89.0029 101.799 89.0962 101.761 89.1974C101.627 89.5541 101.577 89.9678 101.494 90.3421C101.303 91.2082 101.148 92.0817 100.957 92.9475C100.726 93.9968 100.598 95.062 100.416 96.1222" stroke="#DE0000" stroke-width="2" stroke-linecap="round"/>
<path d="M109.818 88.3399C109.768 88.6275 109.667 88.8828 109.543 89.1439C109.38 89.4902 109.357 89.8946 109.227 90.2547C109.081 90.6561 108.86 91.0335 108.74 91.4428C108.47 92.357 107.951 93.2503 107.534 94.1061C107.506 94.1645 107.23 94.7011 107.333 94.7503C107.407 94.786 107.596 94.859 107.629 94.9404C107.686 95.0795 107.835 95.1632 107.951 95.2488C108.127 95.3776 108.208 95.6208 108.335 95.7906C108.534 96.0559 108.829 96.2754 108.983 96.5625C109.122 96.8227 109.322 97.0505 109.491 97.2904C109.871 97.8266 110.353 98.4236 110.623 99.0239C110.76 99.3284 110.998 99.6331 111.191 99.9063C111.341 100.118 111.401 100.367 111.552 100.581" stroke="#DE0000" stroke-width="2" stroke-linecap="round"/>
<path d="M100.264 95.4123C100.601 95.4698 100.851 95.6261 101.153 95.7872C101.643 96.0496 102.16 96.2715 102.589 96.6282C102.897 96.884 103.256 97.0726 103.57 97.3203C103.773 97.4812 104.086 97.5674 104.236 97.7788" stroke="#DE0000" stroke-width="2" stroke-linecap="round"/>
<path d="M93.1162 83.8096C93.002 83.7768 92.9145 83.6391 92.8158 83.5722C92.1674 83.1322 91.5608 82.5584 90.8432 82.2346C90.4669 82.0648 90.0412 81.8183 89.6319 81.7482C89.1141 81.6596 88.7982 82.0873 88.3695 82.3306C86.2762 83.5187 83.9278 84.4985 81.5877 85.0883C80.8315 85.279 80.0922 85.5026 79.333 85.6714C79.0888 85.7257 78.6157 85.9346 78.3701 85.8167C78.3026 85.7843 78.3813 84.3023 78.4069 84.1525C78.5042 83.5842 78.1189 83.8866 77.7869 83.903C77.5883 83.9127 77.0181 83.8161 76.8605 83.9033C76.5448 84.0779 76.9029 82.7497 76.9328 82.5747C76.9834 82.2792 76.5169 82.4855 76.2174 82.4522C75.4947 82.3719 74.7719 82.3444 74.029 82.2172C73.7837 82.1752 73.0341 82.194 73.3565 81.889C74.0109 81.2698 74.9763 80.9771 75.8062 80.6881C76.891 80.3104 77.9999 80.0476 79.1223 79.8139C81.7933 79.2576 84.508 78.9954 87.1357 78.2165C88.1886 77.9044 89.2211 77.5582 90.264 77.2171C90.567 77.118 90.9878 77.0424 91.1798 76.7808" stroke="#DE0000" stroke-width="2" stroke-linecap="round"/>
<path d="M90.9559 77.0573C90.7962 77.009 90.5753 76.7998 90.4121 76.7225C90.0189 76.5361 89.6618 76.2659 89.3249 75.9924C88.207 75.0849 87.0828 74.1917 86.0928 73.1392C84.9655 71.9406 83.9975 70.5204 83.4432 68.9619C83.0713 67.9162 83.1937 66.9655 83.1475 65.9027C83.1402 65.7354 83.2398 65.5597 83.1175 65.4107C82.8255 65.0548 82.5406 64.6954 82.2587 64.3268C81.9955 63.9827 81.7892 63.5919 81.5758 63.216C81.3844 62.8788 81.9823 63.1982 82.1312 63.2473C82.4447 63.3506 82.7591 63.4556 83.0712 63.5626C83.2108 63.6105 83.3727 63.762 83.5252 63.7545C83.6196 63.7499 83.3755 63.3715 83.3323 63.332C83.1168 63.1349 83.1234 62.8179 82.9775 62.5796C82.8099 62.3057 82.7241 62.0101 82.6685 61.6973C82.5346 60.9448 82.1964 60.2017 82.1386 59.4375C82.1278 59.2944 82.1088 59.1292 82.1416 58.988C82.1699 58.8662 82.4737 59.0079 82.565 58.9866C82.6594 58.9646 82.912 59.0392 82.973 58.996C83.0758 58.9233 82.394 58.4455 82.3357 58.4034C81.7516 57.9815 81.1584 57.6349 80.5429 57.2638C79.305 56.5176 77.9577 55.959 76.6714 55.3018C76.3322 55.1284 75.9532 54.9586 75.64 54.7559C75.4355 54.6235 75.2561 54.4262 75.0642 54.2745C75.0067 54.2291 74.8653 53.9266 75.0214 53.9952C75.197 54.0725 75.709 54.4187 75.3195 53.9992C74.5475 53.168 73.4696 52.6048 72.5261 51.9967C71.9778 51.6433 71.3877 51.3334 70.8969 50.9019C70.77 50.7904 70.4325 50.6065 70.7802 50.7006C71.1265 50.7944 71.4665 50.9421 71.796 51.0827C71.877 51.1172 72.308 51.2594 72.0282 51.119C71.4256 50.8168 70.8469 50.4586 70.3123 50.0598C70.036 49.8537 69.6201 49.5922 69.4124 49.3148C69.2959 49.1593 68.8414 48.8717 68.8012 48.7267C68.7534 48.5543 69.7735 48.4992 69.2108 48.3737C68.8492 48.293 68.5209 48.0678 68.1608 47.9556C67.5573 47.7675 66.6984 47.4133 66.2493 46.9602C65.5996 46.3048 64.8106 45.7942 64.2615 45.0183C64.0209 44.6785 63.9644 44.4429 64.4749 44.615C64.9222 44.7658 65.1491 45.0653 65.5001 45.3344C65.6393 45.4411 66.1958 45.8232 66.1685 45.7846C65.5701 44.9391 64.6118 44.3753 63.9232 43.6005" stroke="#DE0000" stroke-width="2" stroke-linecap="round"/>
<path d="M63.2218 42.7552C63.2115 42.5461 62.8904 42.1165 62.8043 41.9181C62.713 41.7079 62.5904 41.5256 62.5011 41.3156C62.3958 41.0676 62.1202 40.0638 62.2924 39.9065C62.5525 39.6688 63.1967 39.9947 63.3841 40.2176C63.5058 40.3623 63.6476 40.4824 63.7829 40.6149C63.9515 40.7801 64.0578 41.0374 64.244 41.1773C64.605 41.4487 64.9599 41.678 65.3004 41.9894C65.3989 42.0795 65.5436 42.2155 65.5894 42.3411C65.6034 42.3795 65.6871 42.4123 65.7252 42.3912C65.8064 42.3463 65.5346 42.0125 65.5159 41.986C64.7537 40.909 63.8841 39.8956 63.2786 38.7154C62.8954 37.9683 62.5218 37.2375 62.1816 36.4727" stroke="#DE0000" stroke-width="2" stroke-linecap="round"/>
<path d="M61.8038 35.5014C61.7151 35.3589 61.7283 34.4538 61.9548 34.4426C62.552 34.4133 62.9517 35.1505 63.3198 35.4721C63.3957 35.5383 63.9839 36.3755 63.9878 36.1404C63.9955 35.6854 63.7456 35.099 63.5752 34.6864C63.2998 34.0195 63.088 33.3316 62.8348 32.6558" stroke="#DE0000" stroke-width="2" stroke-linecap="round"/>
<path d="M62.4973 31.4497C62.3033 30.8093 61.763 28.7086 62.775 28.4147C63.3283 28.254 63.562 28.7597 63.9111 29.0356C64.0708 29.1619 64.1131 29.4783 64.194 29.6582C64.4656 30.262 64.7541 30.8603 65.0339 31.4607" stroke="#DE0000" stroke-width="2" stroke-linecap="round"/>
<path d="M65.7036 32.8446C65.8217 33.0226 65.8673 33.242 65.9655 33.4334" stroke="#DE0000" stroke-width="2" stroke-linecap="round"/>
<path d="M66.412 34.356C66.5133 34.5163 66.5972 34.7102 66.6709 34.8838C66.848 35.3006 67.1226 35.659 67.2931 36.0749C67.5553 36.7145 67.9469 37.3772 68.3356 37.949C69.1233 39.1078 69.6547 40.2937 70.7044 41.2555C71.0603 41.5816 71.4623 41.8615 71.8738 42.1138C71.9159 42.1396 72.2887 42.3943 72.2324 42.2155C71.9501 41.3184 71.2134 40.4469 70.7266 39.6543C70.0323 38.5237 69.2276 37.3017 68.825 36.0315C68.4218 34.7594 68.2021 33.486 68.0572 32.1595" stroke="#DE0000" stroke-width="2" stroke-linecap="round"/>
<path d="M68.2583 30.9851C68.8616 30.6092 69.1993 30.8734 69.5 31.4595C70.3669 33.1494 71.3477 34.9246 71.8994 36.7457C72.0515 37.2479 72.3309 37.7052 72.4676 38.2129C72.619 38.7756 72.8485 39.3683 73.063 39.9132C73.4161 40.8101 73.8838 41.6799 74.3232 42.5364C74.703 43.2768 74.723 41.8501 74.6687 41.5378C74.5266 40.7206 74.2391 39.914 74.0296 39.1115C73.6883 37.8039 73.4308 36.2034 73.6401 34.8543C73.695 34.5 73.8526 34.3066 74.0388 34.016C74.178 33.7987 74.7116 33.7956 74.8834 33.9658C75.4396 34.5162 75.4349 35.2756 75.5524 36.0412" stroke="#DE0000" stroke-width="2" stroke-linecap="round"/>
<path d="M75.957 37.5611C76.1133 38.0439 76.2247 38.5368 76.3718 39.0222" stroke="#DE0000" stroke-width="2" stroke-linecap="round"/>
<path d="M76.758 40.2971C76.7324 40.7322 77.0655 41.3103 77.2116 41.7078C77.463 42.3915 77.9174 43.1122 78.0288 43.8389C78.0786 44.1633 78.1507 43.8365 78.166 43.7045C78.213 43.2992 78.222 42.8516 78.2003 42.4445C78.1479 41.4594 77.9813 40.4726 77.89 39.4902C77.8009 38.531 77.7122 37.3773 78.619 36.7609C79.4598 36.1893 79.9396 37.9754 80.0904 38.4834C80.4734 39.773 80.7802 41.0909 81.0827 42.3972C81.2336 43.0488 81.484 43.6885 81.718 44.3158C81.9647 44.9769 82.0824 45.7126 82.4667 46.3176C83.0165 47.183 83.3973 48.1065 83.9994 48.9572C84.6388 49.8606 85.2629 50.7402 86.0515 51.5246C86.3618 51.8333 86.73 52.0743 87.0315 52.3908C87.1673 52.5333 87.333 52.7185 87.4866 52.8313" stroke="#DE0000" stroke-width="2" stroke-linecap="round"/>
<path d="M88.1966 53.9803C88.0782 53.553 87.8741 53.1603 87.7488 52.7317C87.5854 52.1725 87.519 51.6036 87.4014 51.0337C87.3596 50.831 87.2058 50.3591 87.5561 50.6203C88.3801 51.2346 89.1619 51.8647 90.0524 52.3974C90.7667 52.8246 91.4776 53.3336 92.1257 53.8401C92.7794 54.3511 93.5301 54.7334 94.1489 55.3012C94.4448 55.5727 94.7804 55.8459 95.0414 56.149C95.1011 56.2184 95.49 56.5729 95.4901 56.5482C95.4924 56.0277 95.1398 55.5057 94.9302 55.0521C94.6723 54.4939 94.3816 53.9414 94.1137 53.3879C94.0461 53.2482 93.9067 52.9334 94.1036 53.2116C94.5294 53.8132 95.231 54.2704 95.8697 54.6052C97.6366 55.5313 99.3534 56.6168 100.961 57.7968" stroke="#DE0000" stroke-width="2" stroke-linecap="round"/>
<path d="M101.948 58.3887C103.726 59.3156 105.587 60.4871 106.951 61.9952C107.379 62.4679 107.816 63.076 108.054 63.678C108.151 63.925 108.013 64.483 107.995 64.7459C107.955 65.3167 107.963 65.8893 107.94 66.4623C107.902 67.3824 108.032 68.3427 108.14 69.2534C108.189 69.6642 108.176 70.1954 108.354 70.576C108.573 71.047 108.641 71.6395 108.829 72.138C109.236 73.2235 109.697 74.1614 110.313 75.1387C110.533 75.4888 110.741 75.8376 110.861 76.2332" stroke="#DE0000" stroke-width="2" stroke-linecap="round"/>
<path d="M108.911 71.9321C110.235 72.1586 111.232 73.1959 112.301 73.9157C112.592 74.1109 112.863 74.3736 113.165 74.544C113.326 74.6344 113.436 74.7954 113.614 74.8258" stroke="#DE0000" stroke-width="2" stroke-linecap="round"/>
<path d="M120.923 79.9296C121.532 79.55 122.426 79.3443 123.118 79.2482C124.389 79.0716 125.685 78.8487 126.973 78.8612C128.349 78.8747 129.706 78.5973 131.076 78.5167C132.361 78.4412 133.642 78.2764 134.931 78.2369C136.287 78.1953 137.569 78.3206 138.899 78.5483C139.687 78.6832 140.454 78.9523 141.242 79.0873C141.654 79.1578 142.174 79.1442 142.569 78.9876C142.785 78.9021 142.977 78.7203 143.166 78.5893C143.456 78.3877 143.766 78.2464 144.071 78.0752C144.713 77.7153 145.585 77.6034 146.3 77.4917C147.426 77.3158 148.582 77.2683 149.717 77.3692C150.705 77.457 151.689 77.57 152.676 77.6688C153.279 77.7292 153.899 77.9336 154.506 77.9105C154.886 77.8961 155.609 78.0281 155.426 77.4247C155.201 76.6812 154.285 76.4876 153.628 76.2667C153.067 76.0779 152.487 75.9477 151.929 75.7488C151.501 75.596 150.987 75.4359 150.534 75.4282C149.482 75.4105 148.425 75.1519 147.373 75.0839C147.241 75.0753 146.846 75.0868 146.975 75.054C147.981 74.7984 148.952 74.6717 149.994 74.7027C151.411 74.7448 152.847 74.7542 154.258 74.5847C154.568 74.5475 155.954 74.6278 155.159 74.0343C154.479 73.5267 153.511 73.2543 152.674 73.2312C152.021 73.2131 151.352 73.2668 150.703 73.2155C150.141 73.1711 149.587 73.0956 149.021 73.1114" stroke="#DE0000" stroke-width="2" stroke-linecap="round"/>
<path d="M147.919 73.1065C147.812 73.0991 146.675 73.1844 146.681 73.145C146.695 73.0648 147.347 72.8853 147.428 72.8566C147.949 72.6715 148.49 72.5824 149.031 72.485C149.858 72.3362 150.672 72.3033 151.5 72.2004C152.062 72.1305 152.624 71.9663 153.176 71.8362C153.394 71.7848 155.09 71.4312 154.469 70.9647C153.857 70.5044 153.15 70.6489 152.435 70.6166C151.922 70.5934 151.404 70.5832 150.89 70.6024C150.283 70.6251 149.649 70.5663 149.046 70.639C147.729 70.7978 146.339 70.9413 145.057 71.2865C144.794 71.3573 144.536 71.4404 144.282 71.5293C144.15 71.5756 144.3 71.5129 144.38 71.4337C144.793 71.0269 145.273 70.7691 145.789 70.5131C146.868 69.9784 147.992 69.6676 149.119 69.2575C150.077 68.9088 151.018 68.5258 151.957 68.1296C152.487 67.9058 152.959 67.604 153.384 67.2174C153.556 67.0616 153.78 66.8539 153.757 66.5943C153.733 66.328 153.503 66.2037 153.266 66.1631C153.078 66.1309 152.911 66.1547 152.723 66.1876C152.229 66.2742 151.729 66.2956 151.235 66.3773C150.062 66.5714 148.871 66.7067 147.709 66.961C146.254 67.2792 144.814 67.6554 143.362 67.9863C142.577 68.1651 141.871 68.4897 141.157 68.8447C140.867 68.9887 140.702 69.1539 140.457 69.3273C140.318 69.4254 140.181 69.5747 140.057 69.693C139.9 69.8431 139.716 70.0746 140.049 69.906C141.523 69.1582 143.038 68.259 144.252 67.1275C144.422 66.9689 144.722 66.7236 144.56 66.4756C144.364 66.1754 144.069 65.9711 143.686 66.0196C143.01 66.1051 142.317 66.4504 141.677 66.6715C140.823 66.9669 140.061 67.4527 139.258 67.8558" stroke="#DE0000" stroke-width="2" stroke-linecap="round"/>
<path d="M138.28 68.4697C137.326 69.145 136.313 69.7597 135.334 70.3782C135.215 70.4532 135.457 70.2624 135.501 70.2102C135.773 69.8821 136.06 69.5585 136.314 69.2158C136.652 68.761 136.942 68.3296 136.979 67.7645C137.041 66.8073 135.37 68.0694 135.102 68.2246C133.775 68.994 132.269 69.6973 131.122 70.7322C130.973 70.8669 130.604 71.3113 130.658 71.1175C130.723 70.8791 131.025 70.6029 131.171 70.3986C131.542 69.8827 131.986 69.4777 132.319 68.9303C132.4 68.796 132.707 68.2264 132.435 68.1153C132.119 67.9861 131.708 68.3327 131.449 68.4598C130.65 68.8527 129.862 69.267 129.069 69.6737C128.266 70.0858 127.58 70.6356 126.831 71.1314C126.36 71.4428 125.934 71.7923 125.478 72.1151C125.152 72.3454 125.68 71.8356 125.754 71.7539C126.147 71.3161 126.559 70.7867 126.679 70.1965C126.745 69.875 126.954 69.4638 126.693 69.1776C126.455 68.9172 125.72 69.5482 125.56 69.6629C124.681 70.2958 123.884 71.0357 123.044 71.7164C122.644 72.0403 122.299 72.4132 121.961 72.7899C121.937 72.8167 121.751 72.9732 121.752 72.9661C121.766 72.8871 121.934 72.7503 121.978 72.6907C122.108 72.5162 122.238 72.34 122.346 72.1511C122.643 71.6344 122.94 71.1958 123.027 70.5927C123.058 70.3752 122.874 70.0327 122.618 70.178C121.726 70.684 120.792 71.2276 120.086 71.989C119.644 72.4659 118.97 72.8194 118.425 73.1626C117.988 73.4378 117.546 73.6866 117.125 73.9843C116.651 74.3203 115.79 74.7065 115.212 74.7803C114.936 74.8155 114.65 74.8448 114.38 74.9264C114.181 74.9869 113.943 74.9905 113.758 75.0727" stroke="#DE0000" stroke-width="2" stroke-linecap="round"/>
<path d="M116.522 78.3181C116.937 78.4486 117.318 78.6674 117.729 78.8089C118.41 79.0436 119.072 79.317 119.751 79.5574C120.713 79.8983 121.766 80.2582 122.627 80.8218C123.054 81.1013 123.505 81.4559 123.409 82.0186C123.369 82.251 123.297 82.3803 123.455 82.5536C123.749 82.8757 124.187 83.117 124.512 83.417C124.87 83.7463 125.255 84.2602 125.344 84.7405C125.468 85.4035 124.858 86.3431 125.282 86.9434" stroke="#DE0000" stroke-width="2" stroke-linecap="round"/>
<path d="M125.37 87.3521L125.332 87.3456" stroke="#DE0000" stroke-width="2" stroke-linecap="round"/>
<path d="M125.269 87.0198C125.171 86.9916 125.058 86.8354 124.975 86.7726C124.85 86.6788 124.718 86.5892 124.596 86.4934C124.277 86.244 123.784 86.2211 123.411 86.0917C123.163 86.0054 122.886 85.9821 122.628 85.938C122.315 85.8844 122.022 85.747 121.707 85.7014C121.477 85.6683 122.104 85.9663 122.333 86.0054" stroke="#DE0000" stroke-width="2" stroke-linecap="round"/>
<path d="M121.7 86.2515C121.574 86.2458 121.335 86.4302 121.226 86.4876C120.896 86.6624 120.565 86.8294 120.214 86.9596C119.604 87.1855 118.947 87.2194 118.31 87.3227C117.696 87.4224 117.024 87.4237 116.403 87.4119C115.865 87.4016 115.322 87.4649 114.787 87.4612C113.813 87.4543 112.735 87.6992 111.826 88.0458C111.457 88.1866 111.037 88.3067 110.648 88.3735C110.319 88.4298 109.939 88.5237 109.663 88.719" stroke="#DE0000" stroke-width="2" stroke-linecap="round"/>
<path d="M109.543 160.871C109.819 160.734 110.329 160.869 110.605 160.917C111.784 161.118 112.95 161.386 114.129 161.588C116.511 161.995 118.957 162.121 121.28 162.811" stroke="#DE0000" stroke-width="2" stroke-linecap="round"/>
<path d="M113.642 158.318C113.789 159.007 113.554 160.02 113.433 160.723" stroke="#DE0000" stroke-width="2" stroke-linecap="round"/>
<path d="M111.065 157.131C113.643 157.474 116.208 158.045 118.794 158.318" stroke="#DE0000" stroke-width="2" stroke-linecap="round"/>
<path d="M120.91 139.221C124.438 139.825 127.826 141.027 131.169 142.265" stroke="#DE0000" stroke-width="2" stroke-linecap="round"/>
<path d="M128.072 142.142L127.745 144.052" stroke="#DE0000" stroke-width="2" stroke-linecap="round"/>
<path d="M124.402 144.565C126.155 144.865 127.89 145.268 129.603 145.741C130.615 146.021 131.651 146.262 132.638 146.623C133.08 146.784 133.474 147.024 133.928 147.145" stroke="#DE0000" stroke-width="2" stroke-linecap="round"/>
<path d="M130.282 139.13L129.989 140.843" stroke="#DE0000" stroke-width="2" stroke-linecap="round"/>
<path d="M126.96 137.545C128.291 137.773 129.599 138.304 130.908 138.642C132.011 138.928 133.122 139.311 134.18 139.73" stroke="#DE0000" stroke-width="2" stroke-linecap="round"/>
<path d="M68.3132 136.608C68.6369 136.663 68.9481 136.974 69.2889 137.052C69.5724 137.117 69.5154 137.23 69.2862 136.996C69.0216 136.726 68.7417 136.571 68.3794 136.509C68.1985 136.478 68.0919 136.404 67.9166 136.374C67.6149 136.322 68.5201 136.477 68.8218 136.529C69.3894 136.626 68.5317 136.33 68.376 136.259C68.0948 136.13 67.916 135.986 67.6106 135.934C67.3407 135.888 68.1474 136.065 68.3908 136.191C68.7163 136.358 69.7826 136.624 69.4196 136.576C68.9072 136.508 68.3955 136.326 67.9679 136.038C67.7971 135.923 67.6032 135.822 67.4019 135.788C67.3583 135.78 67.1231 135.74 67.2944 135.769C67.6238 135.826 67.9549 135.876 68.2827 135.942C68.8868 136.062 69.5105 136.194 70.1001 136.373C70.2559 136.42 70.3557 136.537 70.5018 136.595C70.7502 136.693 70.9182 136.874 71.1514 136.986C71.1884 137.004 71.1776 137.117 71.1442 137.135C70.9761 137.231 70.4273 136.895 70.2676 136.832C69.8379 136.662 69.459 136.514 70.0276 137.012C70.3406 137.286 70.6682 137.525 70.9514 137.831C71.0335 137.92 71.3815 138.194 71.0733 138.089C70.7891 137.992 70.599 137.718 70.2816 137.72C70.0093 137.721 70.4845 138.425 70.5365 138.477C70.7328 138.671 70.6453 138.483 70.5889 138.332C70.4494 137.958 70.283 137.606 70.0768 137.263C69.9222 137.006 69.7827 136.71 69.6104 136.467C69.532 136.356 69.6588 136.736 69.7088 136.862C69.7894 137.065 69.8938 137.261 69.9678 137.469C70.0199 137.616 70.1433 137.734 70.1668 137.888C70.1763 137.949 69.5536 137.414 69.8837 137.566C70.6168 137.903 71.3352 138.487 71.9273 139.028C72.1224 139.207 72.1534 138.426 72.1787 138.278C72.257 137.821 72.6128 138.629 72.6966 138.81C72.7305 138.883 72.8594 139.074 72.7908 139.032C72.5933 138.911 72.3894 138.65 72.2097 138.493C72.1151 138.41 71.7803 137.816 71.6662 137.877C71.3825 138.029 71.4768 138.773 71.4399 139.037C71.4 139.323 71.3845 140.188 71.4332 139.903C71.4873 139.587 71.2667 139.189 71.2508 138.867C71.2453 138.755 71.2649 139.09 71.2827 139.201C71.3329 139.512 71.4407 139.793 71.5694 140.077C71.7022 140.371 71.8873 140.686 71.965 141C71.9802 141.061 72.1692 141.568 72.2021 141.376C72.3039 140.781 72.3532 140.194 72.3663 139.589C72.3678 139.521 72.3799 138.45 72.5058 138.451C72.6794 138.452 72.7283 139.28 72.745 139.371C72.8732 140.075 73.0569 140.761 73.2153 141.457C73.2484 141.603 73.2857 141.745 73.329 141.888C73.3292 141.889 73.3981 142.101 73.4054 142.089C73.5119 141.915 73.4296 141.515 73.4291 141.321C73.4285 141.024 73.4738 140.729 73.446 140.432C73.426 140.219 73.4907 140.322 73.5335 140.46C73.6083 140.7 73.7076 140.942 73.7531 141.189C73.7744 141.305 73.7806 141.521 73.8514 141.621C73.9242 141.724 73.8972 141.74 73.8991 141.881C73.9042 142.255 73.9645 142.61 73.9461 142.99C73.9418 143.077 73.975 144.382 73.8202 144.211C73.3816 143.726 73.2867 142.955 73.0658 142.366C72.8409 141.766 72.6294 143.083 72.6056 143.222C72.5407 143.602 72.4702 143.975 72.4905 144.362C72.5057 144.649 72.5498 144.195 72.5598 144.137C72.7192 143.205 72.9918 142.146 72.6462 141.224C72.6273 141.174 72.6196 140.915 72.5392 141.095C72.3846 141.441 72.3244 141.878 72.28 142.25C72.2281 142.685 72.2618 143.125 72.2832 143.561C72.2923 143.744 72.3093 143.177 72.2992 143.108C72.2937 143.071 72.1986 142.49 72.2307 142.7C72.2961 143.126 72.3172 143.548 72.3971 143.974C72.5098 144.575 72.5884 145.204 72.7639 145.783C72.8349 146.017 73.0054 146.137 73.2393 146.24C73.4808 146.346 73.5067 145.056 73.5032 144.913C73.4982 144.712 73.4368 144.51 73.4709 144.311C73.4887 144.207 73.4297 144.571 73.4287 144.611C73.4173 145.084 73.4578 146 73.8722 146.332C74.1469 146.553 74.3395 145.657 74.3655 145.534C74.4957 144.92 74.4442 144.242 74.1444 143.682C73.7593 142.963 74.9366 145.116 75.4369 145.761C75.4592 145.79 75.6792 146.085 75.5982 145.896C75.454 145.56 75.4443 145.199 75.385 144.842C75.3221 144.462 75.2336 144.117 75.1227 143.751C75.0791 143.607 74.9838 143.38 74.9845 143.229C74.9852 143.051 74.8131 142.97 74.6831 142.87C74.5252 142.75 74.2494 142.501 74.039 142.465C73.9635 142.452 73.7837 142.902 73.7568 142.964C73.5918 143.342 73.5625 143.776 73.4934 144.18C73.4712 144.31 73.3059 144.795 73.4234 144.912C73.6037 145.092 73.7009 145.382 73.865 145.584C74.1105 145.886 74.3674 146.09 74.584 146.396C74.7912 146.689 75.1172 146.919 75.3189 147.204C75.3216 147.208 75.1487 147.117 75.1251 147.097C74.9982 146.992 74.947 146.823 74.8328 146.703C74.7232 146.588 74.6104 146.412 74.4414 146.402C74.2085 146.389 74.2312 146.713 74.314 146.823C74.4437 146.996 74.56 147.04 74.7357 147.144C75.0167 147.312 75.3619 147.377 75.6253 147.57C75.7166 147.637 75.9322 147.743 76.0355 147.779C76.3366 147.884 76.1234 146.505 76.0434 146.295C75.9524 146.056 75.7084 145.329 75.7825 145.574C75.8507 145.799 75.9848 146.018 76.1061 146.217C76.194 146.361 76.5031 146.752 76.3668 146.652C76.1618 146.501 75.3591 145.873 75.156 146.18C75.001 146.415 75.2896 146.752 75.4319 146.904C75.5362 147.015 76.4178 147.978 76.4566 147.547C76.5016 147.045 76.1638 146.6 76.0107 146.145C75.9276 145.898 75.9882 145.762 76.1936 145.903C76.4422 146.072 76.5575 146.394 76.7242 146.63C76.87 146.836 76.9745 147.009 77.1607 147.187C77.3326 147.352 77.6582 147.6 77.8922 147.657C77.9837 147.68 77.9869 147.752 78.0655 147.794C78.2926 147.916 77.5732 147.641 77.3326 147.549C76.9763 147.413 76.5433 147.123 76.1805 147.309C76.085 147.358 75.9884 147.702 76.0613 147.79C76.4416 148.248 76.7812 148.533 77.3909 148.681C77.8928 148.803 78.3094 149.057 78.8305 149.146C79.1084 149.194 79.4247 149.207 79.6888 149.305C79.8286 149.358 79.8759 149.39 79.6952 149.322C79.4159 149.217 79.2066 148.958 78.9666 148.782C78.5611 148.484 78.2312 148.088 77.7972 147.835C77.5276 147.677 77.4982 147.692 77.2165 147.652C77.1262 147.639 76.9824 147.633 76.9804 147.756C76.9765 147.983 77.1314 147.962 77.3125 148.025C77.6651 148.148 77.9756 148.28 78.3466 148.344C78.5596 148.38 78.8707 148.497 79.0896 148.459C79.1607 148.446 78.8528 148.094 78.8114 148.036C78.7469 147.945 78.7341 147.877 78.628 147.814C78.5124 147.744 78.1029 147.693 78.2357 147.716C78.5183 147.764 78.8128 148.06 79.0523 148.209C79.2861 148.355 79.6103 148.394 79.877 148.44C80.1252 148.482 80.3512 148.576 80.5997 148.619C80.9376 148.676 81.2915 148.703 81.6083 148.834C82.0872 149.033 82.6628 149.138 83.1773 149.226C83.5527 149.29 83.9281 149.354 84.3036 149.419C85.1091 149.556 86.0565 149.947 86.8823 149.857C86.9246 149.852 86.9899 149.814 86.895 149.819C86.6102 149.835 86.3238 149.77 86.0407 149.744C85.6575 149.708 85.1656 149.517 84.7808 149.559C84.5974 149.579 84.3923 149.633 84.2035 149.626C83.9398 149.616 83.635 149.738 83.3845 149.704C83.1633 149.674 82.9621 149.743 82.7387 149.704C82.4319 149.652 82.1252 149.599 81.8185 149.547C81.3166 149.461 80.8147 149.375 80.3128 149.289C80.0588 149.246 79.8279 149.151 79.5721 149.107C79.0908 149.025 80.5405 149.233 81.0238 149.303C81.9573 149.438 82.863 149.637 83.802 149.708C84.5024 149.761 85.3968 149.835 86.0887 149.696C86.2606 149.662 87.048 149.885 87.1544 149.74" stroke="#2E3192" stroke-linecap="round"/>
<path d="M81.1389 130.556C81.0427 130.55 80.8373 130.664 80.7754 130.74C80.7252 130.801 80.7039 130.842 80.662 130.917C80.5972 131.032 80.4251 131.012 80.3816 131.118C80.3375 131.226 80.0216 131.363 79.9113 131.422C79.6936 131.538 79.9615 131.274 80.0238 131.232C80.1658 131.137 80.3196 131.056 80.4634 130.963C80.6043 130.872 80.7847 130.709 80.956 130.69C81.0946 130.675 81.4266 130.587 81.5115 130.481C81.6114 130.357 81.5531 130.369 81.4314 130.446C81.1888 130.599 80.9471 130.755 80.694 130.892C80.5205 130.985 80.2587 131.013 80.1461 131.182C80.1014 131.249 79.9342 131.344 79.8616 131.389C79.4329 131.656 79.0856 132.067 78.7579 132.43C78.4549 132.765 78.2857 133.212 77.9877 133.516C77.9162 133.589 77.9445 133.738 77.8668 133.827C77.7782 133.929 77.6692 134.073 77.6359 134.206C77.5895 134.391 77.4398 134.509 77.3499 134.655C77.1578 134.968 76.8041 135.252 76.7309 135.613C76.693 135.8 76.4904 135.953 76.4226 136.139C76.3458 136.349 76.2276 136.546 76.1508 136.756C76.0812 136.947 76.0273 137.137 75.9391 137.329C75.8913 137.433 75.7603 137.508 75.7286 137.606C75.7159 137.646 75.7147 137.852 75.6731 137.751C75.5536 137.459 75.6502 137.091 75.5084 136.791C75.4355 136.636 75.4816 136.32 75.4798 136.149C75.4736 135.547 75.7822 134.982 76.0671 134.479C76.1881 134.265 76.2679 133.954 76.4359 133.779C76.6213 133.587 76.8864 133.448 77.0889 133.27C77.4233 132.975 77.791 132.668 78.152 132.412C78.2132 132.369 78.255 132.287 78.3162 132.244C78.3734 132.203 78.4696 132.042 78.4802 132.112C78.4987 132.232 78.3523 132.394 78.2942 132.48C78.0943 132.775 77.8857 133.063 77.6775 133.352C77.4243 133.704 77.1829 134.078 76.9552 134.446C76.8609 134.599 76.8313 135.186 76.6737 135.228C76.555 135.26 76.188 135.607 76.2793 135.413C76.3529 135.256 76.346 135.06 76.4717 134.935C76.5618 134.846 76.6504 134.79 76.6722 134.662" stroke="#006837" stroke-linecap="round"/>
<path d="M90.2388 135.6C90.0438 135.792 89.8842 135.742 89.6311 135.773C89.0657 135.842 88.4844 135.873 87.9157 135.842C87.4886 135.819 86.8347 135.614 86.4633 135.92C85.9152 136.372 85.2672 136.472 84.6489 136.747C84.5892 136.774 84.1247 136.936 84.4094 136.817C84.7618 136.669 85.1757 136.625 85.5457 136.538C87.5039 136.076 89.4961 135.793 91.5195 135.807C91.876 135.81 92.3164 135.778 92.6602 135.683C92.9296 135.608 93.3287 135.693 93.5666 135.561C93.7236 135.474 93.9409 135.554 94.1129 135.532C94.3423 135.502 94.5517 135.453 94.7837 135.493C95.224 135.568 95.681 135.695 96.1274 135.655C96.3208 135.638 96.4339 135.554 96.6489 135.59C96.7122 135.601 96.8979 135.55 96.8413 135.58C96.662 135.676 96.3074 135.52 96.1161 135.505C95.2072 135.434 94.3209 135.358 93.4187 135.204C92.8229 135.102 92.1716 134.984 91.5675 134.97C91.4522 134.967 91.1102 134.989 91.2217 134.96C91.6305 134.852 92.0238 134.718 92.4492 134.687C92.5202 134.682 93.1421 134.663 93.0296 134.728C92.5334 135.016 91.7783 135.08 91.2233 135.185C90.6415 135.294 90.0525 135.342 89.4696 135.441C89.2554 135.477 89.05 135.588 88.8379 135.647C87.9393 135.896 87.0459 136.211 86.1519 136.481C85.7412 136.606 84.5067 136.892 84.9357 136.904C85.5645 136.921 86.278 136.643 86.8863 136.503C87.2639 136.416 87.8392 136.473 88.1764 136.278C88.637 136.011 87.2109 136.857 86.6791 136.833C86.5423 136.827 86.9307 136.724 87.0614 136.683C87.4408 136.566 87.8365 136.494 88.2276 136.428C88.7193 136.345 89.2349 136.338 89.7169 136.206C90.1238 136.095 90.9356 135.388 90.0909 135.243C89.583 135.156 89.117 135.124 88.6007 135.182C88.2838 135.217 87.9658 135.249 87.65 135.293C87.5117 135.312 87.1895 135.459 87.2323 135.326C87.2862 135.158 87.9198 134.999 88.0456 134.957C88.4773 134.816 88.952 134.638 89.407 134.603C89.5145 134.595 89.6091 134.607 89.7139 134.625C89.8883 134.655 90.0997 134.535 90.2833 134.532C90.2978 134.531 90.7129 134.561 90.6947 134.59C90.5167 134.871 90.1384 134.93 89.8487 135.005C88.9256 135.243 87.9514 135.003 87.0276 135.174C86.6466 135.244 86.2532 135.274 85.8679 135.338C85.6418 135.375 85.3307 135.613 85.1346 135.742C84.8577 135.923 84.3598 135.957 84.0399 136.065C83.7383 136.167 83.4328 136.332 83.1759 136.513C83.0527 136.601 82.8711 136.728 82.7214 136.762C82.5083 136.809 82.3243 136.939 82.1213 137.034C81.9682 137.105 81.7816 137.124 81.6411 137.216C81.5519 137.275 81.4948 137.36 81.3931 137.407C80.7135 137.724 80.329 138.428 79.7455 138.841C79.4824 139.028 79.3127 139.313 79.0451 139.484C78.7119 139.697 79.3821 139.117 79.4365 139.065C79.7218 138.797 80.0355 138.53 80.2972 138.241C80.5418 137.971 81.014 137.829 81.3528 137.733C81.6886 137.637 82.026 137.586 82.3551 137.465C82.5609 137.388 82.8127 137.268 83.0342 137.252C83.5331 137.214 84.0337 136.896 84.5468 136.84C84.6521 136.829 84.6491 136.712 84.7113 136.705C84.7938 136.696 84.8735 136.735 84.7757 136.796C84.627 136.89 84.554 136.987 84.3734 137.063C84.2034 137.134 84.0283 137.17 83.8708 137.25C83.4761 137.453 83.0163 137.513 82.6034 137.648C82.3341 137.737 82.0994 137.74 81.8536 137.843C81.7482 137.887 81.6066 137.871 81.4952 137.871C81.3082 137.87 81.0724 138.06 80.8922 138.124C80.6703 138.204 80.4746 138.281 80.2753 138.351C80.2316 138.366 80.0322 138.544 80.079 138.563C80.3484 138.673 80.9164 138.192 81.1526 138.058C81.5004 137.861 81.826 137.726 82.1671 137.485" stroke="#FBB03B" stroke-linecap="round"/>
<path d="M89.3998 140.826C89.7019 140.877 89.9087 140.967 89.4657 141.015C88.8524 141.082 88.196 140.73 87.5984 140.822C87.3827 140.855 87.0977 140.875 86.8823 140.838C86.7805 140.82 86.6737 140.852 86.5806 140.894C86.4271 140.962 86.9114 140.879 86.9345 140.874C87.1303 140.832 88.1591 140.857 88.2259 140.569C88.3333 140.107 85.8741 139.835 85.4071 139.755C85.1805 139.716 84.8316 139.887 84.6208 139.965C84.3032 140.083 83.909 140.43 83.5689 140.434C83.3132 140.436 82.9435 140.494 82.7116 140.591C82.3901 140.726 81.9385 140.671 81.641 140.882C81.4021 141.051 80.9834 141.035 80.7596 141.217C80.5279 141.405 81.3453 141.099 81.6412 141.06C81.9457 141.02 82.2969 140.916 82.598 140.932C82.7631 140.94 82.9007 140.819 83.0605 140.799C83.2523 140.774 83.3913 140.77 83.5802 140.691C83.7586 140.616 84.0117 140.737 84.2116 140.685C84.3749 140.643 84.5745 140.615 84.7395 140.637C85.1457 140.691 85.5569 140.556 85.9743 140.627C86.1731 140.661 86.6294 140.737 86.7371 140.536" stroke="#FF0000" stroke-linecap="round"/>
</svg>
